999
dxflib 3.26.4.0
  0
SECTION
  2
HEADER
  9
$ACADVER
  1
AC1015
  9
$HANDSEED
  5
FFFF
  9
$DIMADEC
 70
0
  9
$DIMASZ
 40
2.5
  9
$DIMATFIT
 70
0
  9
$DIMAUNIT
 70
0
  9
$DIMAZIN
 70
2
  9
$DIMBLK
  1
0
  9
$DIMBLK1
  1
0
  9
$DIMBLK2
  1
0
  9
$DIMDEC
 70
4
  9
$DIMDLI
 40
5.0
  9
$DIMDSEP
 70
46
  9
$DIMEXE
 40
1.25
  9
$DIMEXO
 40
0.625
  9
$DIMGAP
 40
0.625
  9
$DIMLFAC
 40
1.0
  9
$DIMLUNIT
 70
2
  9
$DIMSCALE
 40
1.0
  9
$DIMTAD
 70
1
  9
$DIMTIH
 70
0
  9
$DIMTSZ
 40
0.0
  9
$DIMTXT
 40
2.5
  9
$DIMZIN
 70
8
  9
$DWGCODEPAGE
  3
ANSI_1252
  9
$INSUNITS
 70
4
  9
$LTSCALE
 40
1.0
  9
$MAXACTVP
 70
64
  9
$MEASUREMENT
 70
1
  9
$MIRRTEXT
 70
0
  9
$PDMODE
 70
0
  9
$PDSIZE
 40
0.0
  0
ENDSEC
  0
SECTION
  2
TABLES
  0
TABLE
  2
VPORT
  5
8
100
AcDbSymbolTable
 70
1
  0
VPORT
  5
30
100
AcDbSymbolTableRecord
100
AcDbViewportTableRecord
  2
*Active
 70
0
 10
0.0
 20
0.0
 11
1.0
 21
1.0
 12
286.3055555555554861
 22
148.5
 13
0.0
 23
0.0
 14
10.0
 24
10.0
 15
10.0
 25
10.0
 16
0.0
 26
0.0
 36
1.0
 17
0.0
 27
0.0
 37
0.0
 40
297.0
 41
1.92798353909465
 42
50.0
 43
0.0
 44
0.0
 50
0.0
 51
0.0
 71
0
 72
100
 73
1
 74
3
 75
1
 76
1
 77
0
 78
0
281
0
 65
1
110
0.0
120
0.0
130
0.0
111
1.0
121
0.0
131
0.0
112
0.0
122
1.0
132
0.0
 79
0
146
0.0
  0
ENDTAB
  0
TABLE
  2
LTYPE
  5
5
100
AcDbSymbolTable
 70
41
  0
LTYPE
  5
16
100
AcDbSymbolTableRecord
100
AcDbLinetypeTableRecord
  2
Continuous
 70
0
  3
Solid line
 72
65
 73
0
 40
0.0
  0
LTYPE
  5
31
100
AcDbSymbolTableRecord
100
AcDbLinetypeTableRecord
  2
PHANTOM
 70
0
  3
Phantom ______  __  __  ______  __  __  ______ 
 72
65
 73
6
 40
63.5000000000000071
 49
31.75
 74
0
 49
-6.3499999999999996
 74
0
 49
6.3499999999999996
 74
0
 49
-6.3499999999999996
 74
0
 49
6.3499999999999996
 74
0
 49
-6.3499999999999996
 74
0
  0
LTYPE
  5
32
100
AcDbSymbolTableRecord
100
AcDbLinetypeTableRecord
  2
ACAD_ISO15W100
 70
0
  3
ISO double-dash triple-dot __ __ . . . __ __ . .
 72
65
 73
10
 40
39.0000000000000071
 49
12.0
 74
0
 49
-3.0
 74
0
 49
12.0
 74
0
 49
-2.9500000000000002
 74
0
 49
0.1
 74
0
 49
-2.9000000000000004
 74
0
 49
0.1
 74
0
 49
-2.9000000000000004
 74
0
 49
0.1
 74
0
 49
-2.9500000000000002
 74
0
  0
LTYPE
  5
33
100
AcDbSymbolTableRecord
100
AcDbLinetypeTableRecord
  2
ACAD_ISO03W100
 70
0
  3
ISO dash space __    __    __    __    __    __
 72
65
 73
2
 40
30.0
 49
12.0
 74
0
 49
-18.0
 74
0
  0
LTYPE
  5
34
100
AcDbSymbolTableRecord
100
AcDbLinetypeTableRecord
  2
DOTX2
 70
0
  3
Dot (2x) .  .  .  .  .  .  .  .  .  .  .  .  .  .
 72
65
 73
2
 40
12.6999999999999993
 49
0.1
 74
0
 49
-12.5999999999999996
 74
0
  0
LTYPE
  5
35
100
AcDbSymbolTableRecord
100
AcDbLinetypeTableRecord
  2
DIVIDE
 70
0
  3
Divide ____ . . ____ . . ____ . . ____ . . ____
 72
65
 73
6
 40
31.7500000000000036
 49
12.6999999999999993
 74
0
 49
-6.2999999999999998
 74
0
 49
0.1
 74
0
 49
-6.25
 74
0
 49
0.1
 74
0
 49
-6.2999999999999998
 74
0
  0
LTYPE
  5
36
100
AcDbSymbolTableRecord
100
AcDbLinetypeTableRecord
  2
PHANTOMX2
 70
0
  3
Phantom (2x) ____________    ____    ____   _
 72
65
 73
6
 40
127.0000000000000142
 49
63.5
 74
0
 49
-12.6999999999999993
 74
0
 49
12.6999999999999993
 74
0
 49
-12.6999999999999993
 74
0
 49
12.6999999999999993
 74
0
 49
-12.6999999999999993
 74
0
  0
LTYPE
  5
37
100
AcDbSymbolTableRecord
100
AcDbLinetypeTableRecord
  2
DASHED2
 70
0
  3
Dashed (.5x) _ _ _ _ _ _ _ _ _ _ _ _ _ _ _ _ _ 
 72
65
 73
2
 40
9.5249999999999986
 49
6.3499999999999996
 74
0
 49
-3.1749999999999998
 74
0
  0
LTYPE
  5
38
100
AcDbSymbolTableRecord
100
AcDbLinetypeTableRecord
  2
BORDER2
 70
0
  3
Border (.5x) __.__.__.__.__.__.__.__.__.__.__.
 72
65
 73
6
 40
22.2250000000000014
 49
6.3499999999999996
 74
0
 49
-3.1749999999999998
 74
0
 49
6.3499999999999996
 74
0
 49
-3.125
 74
0
 49
0.1
 74
0
 49
-3.125
 74
0
  0
LTYPE
  5
39
100
AcDbSymbolTableRecord
100
AcDbLinetypeTableRecord
  2
ACAD_ISO05W100
 70
0
  3
ISO long-dash double-dot ____ .. ____ .. ____ . 
 72
65
 73
6
 40
33.0000000000000071
 49
24.0
 74
0
 49
-2.9500000000000002
 74
0
 49
0.1
 74
0
 49
-2.9000000000000004
 74
0
 49
0.1
 74
0
 49
-2.9500000000000002
 74
0
  0
LTYPE
  5
3A
100
AcDbSymbolTableRecord
100
AcDbLinetypeTableRecord
  2
DASHED
 70
0
  3
Dashed __ __ __ __ __ __ __ __ __ __ __ __ __ _
 72
65
 73
2
 40
19.0499999999999972
 49
12.6999999999999993
 74
0
 49
-6.3499999999999996
 74
0
  0
LTYPE
  5
3B
100
AcDbSymbolTableRecord
100
AcDbLinetypeTableRecord
  2
ACAD_ISO14W100
 70
0
  3
ISO dash triple-dot __ . . . __ . . . __ . . . _
 72
65
 73
8
 40
24.0000000000000036
 49
12.0
 74
0
 49
-2.9500000000000002
 74
0
 49
0.1
 74
0
 49
-2.9000000000000004
 74
0
 49
0.1
 74
0
 49
-2.9000000000000004
 74
0
 49
0.1
 74
0
 49
-2.9500000000000002
 74
0
  0
LTYPE
  5
15
100
AcDbSymbolTableRecord
100
AcDbLinetypeTableRecord
  2
BYLAYER
 70
0
  3

 72
65
 73
0
 40
0.0
  0
LTYPE
  5
3C
100
AcDbSymbolTableRecord
100
AcDbLinetypeTableRecord
  2
BORDERX2
 70
0
  3
Border (2x) ____  ____  .  ____  ____  .  ___
 72
65
 73
6
 40
88.8999999999999773
 49
25.3999999999999986
 74
0
 49
-12.6999999999999993
 74
0
 49
25.3999999999999986
 74
0
 49
-12.6499999999999986
 74
0
 49
0.1
 74
0
 49
-12.6499999999999986
 74
0
  0
LTYPE
  5
3D
100
AcDbSymbolTableRecord
100
AcDbLinetypeTableRecord
  2
DASHDOTX2
 70
0
  3
Dash dot (2x) ____  .  ____  .  ____  .  ___
 72
65
 73
4
 40
50.7999999999999972
 49
25.3999999999999986
 74
0
 49
-12.6499999999999986
 74
0
 49
0.1
 74
0
 49
-12.6499999999999986
 74
0
  0
LTYPE
  5
3E
100
AcDbSymbolTableRecord
100
AcDbLinetypeTableRecord
  2
ACAD_ISO08W100
 70
0
  3
ISO long-dash short-dash ____ __ ____ __ ____ _
 72
65
 73
4
 40
36.0
 49
24.0
 74
0
 49
-3.0
 74
0
 49
6.0
 74
0
 49
-3.0
 74
0
  0
LTYPE
  5
3F
100
AcDbSymbolTableRecord
100
AcDbLinetypeTableRecord
  2
ACAD_ISO04W100
 70
0
  3
ISO long-dash dot ____ . ____ . ____ . ____ . _
 72
65
 73
4
 40
30.0
 49
24.0
 74
0
 49
-2.9500000000000002
 74
0
 49
0.1
 74
0
 49
-2.9500000000000002
 74
0
  0
LTYPE
  5
40
100
AcDbSymbolTableRecord
100
AcDbLinetypeTableRecord
  2
PHANTOM2
 70
0
  3
Phantom (.5x) ___ _ _ ___ _ _ ___ _ _ ___ _ _
 72
65
 73
6
 40
31.7500000000000036
 49
15.875
 74
0
 49
-3.1749999999999998
 74
0
 49
3.1749999999999998
 74
0
 49
-3.1749999999999998
 74
0
 49
3.1749999999999998
 74
0
 49
-3.1749999999999998
 74
0
  0
LTYPE
  5
41
100
AcDbSymbolTableRecord
100
AcDbLinetypeTableRecord
  2
ACAD_ISO09W100
 70
0
  3
ISO long-dash double-short-dash ____ __ __ ____
 72
65
 73
6
 40
45.0
 49
24.0
 74
0
 49
-3.0
 74
0
 49
6.0
 74
0
 49
-3.0
 74
0
 49
6.0
 74
0
 49
-3.0
 74
0
  0
LTYPE
  5
42
100
AcDbSymbolTableRecord
100
AcDbLinetypeTableRecord
  2
ACAD_ISO06W100
 70
0
  3
ISO long-dash triple-dot ____ ... ____ ... ____
 72
65
 73
8
 40
36.0000000000000071
 49
24.0
 74
0
 49
-2.9500000000000002
 74
0
 49
0.1
 74
0
 49
-2.9000000000000004
 74
0
 49
0.1
 74
0
 49
-2.9000000000000004
 74
0
 49
0.1
 74
0
 49
-2.9500000000000002
 74
0
  0
LTYPE
  5
43
100
AcDbSymbolTableRecord
100
AcDbLinetypeTableRecord
  2
DIVIDE2
 70
0
  3
Divide (.5x) __..__..__..__..__..__..__..__.._
 72
65
 73
6
 40
15.8749999999999982
 49
6.3499999999999996
 74
0
 49
-3.125
 74
0
 49
0.1
 74
0
 49
-3.0750000000000002
 74
0
 49
0.1
 74
0
 49
-3.125
 74
0
  0
LTYPE
  5
44
100
AcDbSymbolTableRecord
100
AcDbLinetypeTableRecord
  2
ACAD_ISO11W100
 70
0
  3
ISO double-dash dot __ __ . __ __ . __ __ . __ _
 72
65
 73
6
 40
33.0
 49
12.0
 74
0
 49
-3.0
 74
0
 49
12.0
 74
0
 49
-2.9500000000000002
 74
0
 49
0.1
 74
0
 49
-2.9500000000000002
 74
0
  0
LTYPE
  5
45
100
AcDbSymbolTableRecord
100
AcDbLinetypeTableRecord
  2
ACAD_ISO12W100
 70
0
  3
ISO dash double-dot __ . . __ . . __ . . __ . . 
 72
65
 73
6
 40
21.0
 49
12.0
 74
0
 49
-2.9500000000000002
 74
0
 49
0.1
 74
0
 49
-2.9000000000000004
 74
0
 49
0.1
 74
0
 49
-2.9500000000000002
 74
0
  0
LTYPE
  5
46
100
AcDbSymbolTableRecord
100
AcDbLinetypeTableRecord
  2
ACAD_ISO13W100
 70
0
  3
ISO double-dash double-dot __ __ . . __ __ . . _
 72
65
 73
8
 40
36.0000000000000071
 49
12.0
 74
0
 49
-3.0
 74
0
 49
12.0
 74
0
 49
-2.9500000000000002
 74
0
 49
0.1
 74
0
 49
-2.9000000000000004
 74
0
 49
0.1
 74
0
 49
-2.9500000000000002
 74
0
  0
LTYPE
  5
47
100
AcDbSymbolTableRecord
100
AcDbLinetypeTableRecord
  2
CENTER2
 70
0
  3
Center (.5x) ___ _ ___ _ ___ _ ___ _ ___ _ ___
 72
65
 73
4
 40
28.5750000000000028
 49
19.0500000000000007
 74
0
 49
-3.1749999999999998
 74
0
 49
3.1749999999999998
 74
0
 49
-3.1749999999999998
 74
0
  0
LTYPE
  5
48
100
AcDbSymbolTableRecord
100
AcDbLinetypeTableRecord
  2
CENTERX2
 70
0
  3
Center (2x) ________  __  ________  __  _____
 72
65
 73
4
 40
101.6000000000000085
 49
63.5
 74
0
 49
-12.6999999999999993
 74
0
 49
12.6999999999999993
 74
0
 49
-12.6999999999999993
 74
0
  0
LTYPE
  5
49
100
AcDbSymbolTableRecord
100
AcDbLinetypeTableRecord
  2
DASHEDX2
 70
0
  3
Dashed (2x) ____  ____  ____  ____  ____  ___
 72
65
 73
2
 40
38.0999999999999943
 49
25.3999999999999986
 74
0
 49
-12.6999999999999993
 74
0
  0
LTYPE
  5
4A
100
AcDbSymbolTableRecord
100
AcDbLinetypeTableRecord
  2
ACAD_ISO02W100
 70
0
  3
ISO dash __ __ __ __ __ __ __ __ __ __ __ __ __
 72
65
 73
2
 40
15.0
 49
12.0
 74
0
 49
-3.0
 74
0
  0
LTYPE
  5
4B
100
AcDbSymbolTableRecord
100
AcDbLinetypeTableRecord
  2
HIDDEN
 70
0
  3
Hidden __ __ __ __ __ __ __ __ __ __ __ __ __ __
 72
65
 73
2
 40
9.5249999999999986
 49
6.3499999999999996
 74
0
 49
-3.1749999999999998
 74
0
  0
LTYPE
  5
4C
100
AcDbSymbolTableRecord
100
AcDbLinetypeTableRecord
  2
DASHDOT2
 70
0
  3
Dash dot (.5x) _._._._._._._._._._._._._._._.
 72
65
 73
4
 40
12.6999999999999993
 49
6.3499999999999996
 74
0
 49
-3.125
 74
0
 49
0.1
 74
0
 49
-3.125
 74
0
  0
LTYPE
  5
4D
100
AcDbSymbolTableRecord
100
AcDbLinetypeTableRecord
  2
ACAD_ISO10W100
 70
0
  3
ISO dash dot __ . __ . __ . __ . __ . __ . __ . 
 72
65
 73
4
 40
18.0
 49
12.0
 74
0
 49
-2.9500000000000002
 74
0
 49
0.1
 74
0
 49
-2.9500000000000002
 74
0
  0
LTYPE
  5
4E
100
AcDbSymbolTableRecord
100
AcDbLinetypeTableRecord
  2
DOT2
 70
0
  3
Dot (.5x) ........................................
 72
65
 73
2
 40
3.1749999999999998
 49
0.1
 74
0
 49
-3.0749999999999997
 74
0
  0
LTYPE
  5
4F
100
AcDbSymbolTableRecord
100
AcDbLinetypeTableRecord
  2
DOT
 70
0
  3
Dot . . . . . . . . . . . . . . . . . . . . . . . .
 72
65
 73
2
 40
6.3499999999999996
 49
0.1
 74
0
 49
-6.25
 74
0
  0
LTYPE
  5
50
100
AcDbSymbolTableRecord
100
AcDbLinetypeTableRecord
  2
HIDDENX2
 70
0
  3
Hidden (2x) ____ ____ ____ ____ ____ ____ ____ 
 72
65
 73
2
 40
19.0499999999999972
 49
12.6999999999999993
 74
0
 49
-6.3499999999999996
 74
0
  0
LTYPE
  5
51
100
AcDbSymbolTableRecord
100
AcDbLinetypeTableRecord
  2
BORDER
 70
0
  3
Border __ __ . __ __ . __ __ . __ __ . __ __ .
 72
65
 73
6
 40
44.4499999999999957
 49
12.6999999999999993
 74
0
 49
-6.3499999999999996
 74
0
 49
12.6999999999999993
 74
0
 49
-6.2999999999999998
 74
0
 49
0.1
 74
0
 49
-6.2999999999999998
 74
0
  0
LTYPE
  5
52
100
AcDbSymbolTableRecord
100
AcDbLinetypeTableRecord
  2
HIDDEN2
 70
0
  3
Hidden (.5x) _ _ _ _ _ _ _ _ _ _ _ _ _ _ _ _ _ 
 72
65
 73
2
 40
4.7624999999999993
 49
3.1749999999999998
 74
0
 49
-1.5874999999999999
 74
0
  0
LTYPE
  5
53
100
AcDbSymbolTableRecord
100
AcDbLinetypeTableRecord
  2
CENTER
 70
0
  3
Center ____ _ ____ _ ____ _ ____ _ ____ _ ____
 72
65
 73
4
 40
50.8000000000000043
 49
31.75
 74
0
 49
-6.3499999999999996
 74
0
 49
6.3499999999999996
 74
0
 49
-6.3499999999999996
 74
0
  0
LTYPE
  5
54
100
AcDbSymbolTableRecord
100
AcDbLinetypeTableRecord
  2
DIVIDEX2
 70
0
  3
Divide (2x) ________  .  .  ________  .  .  _
 72
65
 73
6
 40
63.5
 49
25.3999999999999986
 74
0
 49
-12.6499999999999986
 74
0
 49
0.1
 74
0
 49
-12.5999999999999979
 74
0
 49
0.1
 74
0
 49
-12.6499999999999986
 74
0
  0
LTYPE
  5
55
100
AcDbSymbolTableRecord
100
AcDbLinetypeTableRecord
  2
ACAD_ISO07W100
 70
0
  3
ISO dot . . . . . . . . . . . . . . . . . . . . 
 72
65
 73
2
 40
3.0
 49
0.1
 74
0
 49
-2.8999999999999999
 74
0
  0
LTYPE
  5
14
100
AcDbSymbolTableRecord
100
AcDbLinetypeTableRecord
  2
BYBLOCK
 70
0
  3

 72
65
 73
0
 40
0.0
  0
LTYPE
  5
56
100
AcDbSymbolTableRecord
100
AcDbLinetypeTableRecord
  2
DASHDOT
 70
0
  3
Dash dot __ . __ . __ . __ . __ . __ . __ . __
 72
65
 73
4
 40
25.4000000000000021
 49
12.6999999999999993
 74
0
 49
-6.2999999999999998
 74
0
 49
0.1
 74
0
 49
-6.2999999999999998
 74
0
  0
ENDTAB
  0
TABLE
  2
LAYER
  5
2
100
AcDbSymbolTable
 70
1
  0
LAYER
  5
10
100
AcDbSymbolTableRecord
100
AcDbLayerTableRecord
  2
0
 70
0
 62
7
420
16777215
  6
Continuous
370
25
390
F
  0
ENDTAB
  0
TABLE
  2
STYLE
  5
3
100
AcDbSymbolTable
 70
1
  0
STYLE
  5
57
100
AcDbSymbolTableRecord
100
AcDbTextStyleTableRecord
  2
Standard
 70
0
 40
0.0
 41
1.0
 50
0.0
 71
0
 42
2.5
  3

  4

1001
ACAD
1000
txt
1071
0
  0
ENDTAB
  0
TABLE
  2
VIEW
  5
6
100
AcDbSymbolTable
 70
0
  0
ENDTAB
  0
TABLE
  2
UCS
  5
7
100
AcDbSymbolTable
 70
0
  0
ENDTAB
  0
TABLE
  2
APPID
  5
9
100
AcDbSymbolTable
 70
1
  0
APPID
  5
12
100
AcDbSymbolTableRecord
100
AcDbRegAppTableRecord
  2
ACAD
 70
0
  0
APPID
  5
58
100
AcDbSymbolTableRecord
100
AcDbRegAppTableRecord
  2
QCAD
 70
0
  0
ENDTAB
  0
TABLE
  2
DIMSTYLE
  5
A
100
AcDbSymbolTable
 70
1
100
AcDbDimStyleTable
 71
0
  0
DIMSTYLE
105
27
100
AcDbSymbolTableRecord
100
AcDbDimStyleTableRecord
  2
Standard
 41
2.5
 42
0.625
 43
3.75
 44
1.25
 70
0
 73
0
 74
0
 77
1
 78
8
140
2.5
141
2.5
143
0.03937007874016
147
0.625
171
3
172
1
271
2
272
2
274
3
278
44
283
0
284
8
340
57
  0
ENDTAB
  0
TABLE
  2
BLOCK_RECORD
  5
1
100
AcDbSymbolTable
 70
1
  0
BLOCK_RECORD
  5
1F
100
AcDbSymbolTableRecord
100
AcDbBlockTableRecord
  2
*Model_Space
340
22
  0
BLOCK_RECORD
  5
1B
100
AcDbSymbolTableRecord
100
AcDbBlockTableRecord
  2
*Paper_Space
340
1E
  0
BLOCK_RECORD
  5
23
100
AcDbSymbolTableRecord
100
AcDbBlockTableRecord
  2
*Paper_Space0
340
26
  0
BLOCK_RECORD
  5
59
100
AcDbSymbolTableRecord
100
AcDbBlockTableRecord
  2
tab-hole
340
0
  0
BLOCK_RECORD
  5
5A
100
AcDbSymbolTableRecord
100
AcDbBlockTableRecord
  2
tab
340
0
  0
BLOCK_RECORD
  5
5B
100
AcDbSymbolTableRecord
100
AcDbBlockTableRecord
  2
tab-hole-middle
340
0
  0
BLOCK_RECORD
  5
5C
100
AcDbSymbolTableRecord
100
AcDbBlockTableRecord
  2
spot-sketch
340
0
  0
ENDTAB
  0
ENDSEC
  0
SECTION
  2
BLOCKS
  0
BLOCK
  5
20
100
AcDbEntity
  8
0
100
AcDbBlockBegin
  2
*Model_Space
 70
0
 10
0.0
 20
0.0
 30
0.0
  3
*Model_Space
  1

  0
ENDBLK
  5
21
100
AcDbEntity
  8
0
100
AcDbBlockEnd
  0
BLOCK
  5
1C
100
AcDbEntity
 67
1
  8
0
100
AcDbBlockBegin
  2
*Paper_Space
 70
0
 10
0.0
 20
0.0
 30
0.0
  3
*Paper_Space
  1

  0
ENDBLK
  5
1D
100
AcDbEntity
 67
1
  8
0
100
AcDbBlockEnd
  0
BLOCK
  5
24
100
AcDbEntity
  8
0
100
AcDbBlockBegin
  2
*Paper_Space0
 70
0
 10
0.0
 20
0.0
 30
0.0
  3
*Paper_Space0
  1

  0
ENDBLK
  5
25
100
AcDbEntity
  8
0
100
AcDbBlockEnd
  0
BLOCK
  5
5D
100
AcDbEntity
  8
0
100
AcDbBlockBegin
  2
tab-hole
 70
0
 10
0.0
 20
0.0
 30
0.0
  3
tab-hole
  1

  0
LINE
  5
5E
100
AcDbEntity
  8
0
 62
256
370
-1
 48
1.0
  6
BYLAYER
100
AcDbLine
 10
-3.1000000000000001
 20
-5.0499999999999998
 30
0.0
 11
0.0
 21
-5.0499999999999998
 31
0.0
  0
LINE
  5
5F
100
AcDbEntity
  8
0
 62
256
370
-1
 48
1.0
  6
BYLAYER
100
AcDbLine
 10
0.0
 20
-5.0499999999999998
 30
0.0
 11
0.0
 21
5.0499999999999998
 31
0.0
  0
LINE
  5
60
100
AcDbEntity
  8
0
 62
256
370
-1
 48
1.0
  6
BYLAYER
100
AcDbLine
 10
0.0
 20
5.0499999999999998
 30
0.0
 11
-3.1000000000000001
 21
5.0499999999999998
 31
0.0
  0
LINE
  5
61
100
AcDbEntity
  8
0
 62
256
370
-1
 48
1.0
  6
BYLAYER
100
AcDbLine
 10
-3.1000000000000001
 20
5.0499999999999998
 30
0.0
 11
-3.1000000000000001
 21
-5.0499999999999998
 31
0.0
  0
ENDBLK
  5
62
100
AcDbEntity
  8
0
100
AcDbBlockEnd
  0
BLOCK
  5
63
100
AcDbEntity
  8
0
100
AcDbBlockBegin
  2
tab
 70
0
 10
0.0
 20
0.0
 30
0.0
  3
tab
  1

  0
LINE
  5
64
100
AcDbEntity
  8
0
 62
256
370
-1
 48
1.0
  6
BYLAYER
100
AcDbLine
 10
0.0
 20
5.0999999999999996
 30
0.0
 11
-3.1000000000000001
 21
5.0999999999999996
 31
0.0
  0
LINE
  5
65
100
AcDbEntity
  8
0
 62
256
370
-1
 48
1.0
  6
BYLAYER
100
AcDbLine
 10
-3.1000000000000001
 20
5.0999999999999996
 30
0.0
 11
-3.1000000000000001
 21
-5.0999999999999996
 31
0.0
  0
LINE
  5
66
100
AcDbEntity
  8
0
 62
256
370
-1
 48
1.0
  6
BYLAYER
100
AcDbLine
 10
-3.1000000000000001
 20
-5.0999999999999996
 30
0.0
 11
0.0
 21
-5.0999999999999996
 31
0.0
  0
ENDBLK
  5
67
100
AcDbEntity
  8
0
100
AcDbBlockEnd
  0
BLOCK
  5
68
100
AcDbEntity
  8
0
100
AcDbBlockBegin
  2
tab-hole-middle
 70
0
 10
0.0
 20
0.0
 30
0.0
  3
tab-hole-middle
  1

  0
LINE
  5
69
100
AcDbEntity
  8
0
 62
256
370
-1
 48
1.0
  6
BYLAYER
100
AcDbLine
 10
1.5499999999999998
 20
5.0499999999999998
 30
0.0
 11
-1.5499999999999969
 21
5.0500000000000007
 31
0.0
  0
LINE
  5
6A
100
AcDbEntity
  8
0
 62
256
370
-1
 48
1.0
  6
BYLAYER
100
AcDbLine
 10
-1.5499999999999969
 20
5.0500000000000007
 30
0.0
 11
-1.5499999999999992
 21
-5.0499999999999998
 31
0.0
  0
LINE
  5
6B
100
AcDbEntity
  8
0
 62
256
370
-1
 48
1.0
  6
BYLAYER
100
AcDbLine
 10
-1.5499999999999992
 20
-5.0499999999999998
 30
0.0
 11
1.5499999999999974
 21
-5.0500000000000007
 31
0.0
  0
LINE
  5
6C
100
AcDbEntity
  8
0
 62
256
370
-1
 48
1.0
  6
BYLAYER
100
AcDbLine
 10
1.5499999999999974
 20
-5.0500000000000007
 30
0.0
 11
1.5499999999999998
 21
5.0499999999999998
 31
0.0
  0
ENDBLK
  5
6D
100
AcDbEntity
  8
0
100
AcDbBlockEnd
  0
BLOCK
  5
6E
100
AcDbEntity
  8
0
100
AcDbBlockBegin
  2
spot-sketch
 70
0
 10
0.0
 20
0.0
 30
0.0
  3
spot-sketch
  1

  0
ENDBLK
  5
6F
100
AcDbEntity
  8
0
100
AcDbBlockEnd
  0
ENDSEC
  0
SECTION
  2
ENTITIES
  0
INSERT
  5
70
100
AcDbEntity
  8
0
 62
256
370
-1
 48
1.0
  6
BYLAYER
100
AcDbBlockReference
  2
tab
 10
-764.9499999999998181
 20
291.3000000000002956
 30
0.0
 41
1.0
 42
-1.0
 43
1.0
 50
270.0
  0
INSERT
  5
71
100
AcDbEntity
  8
0
 62
256
370
-1
 48
1.0
  6
BYLAYER
100
AcDbBlockReference
  2
tab
 10
-744.9499999999998181
 20
291.3000000000002956
 30
0.0
 41
1.0
 42
-1.0
 43
1.0
 50
270.0
  0
INSERT
  5
72
100
AcDbEntity
  8
0
 62
256
370
-1
 48
1.0
  6
BYLAYER
100
AcDbBlockReference
  2
tab
 10
96.0
 20
-6.0000000000000284
 30
0.0
 41
1.0
 42
-1.0
 43
1.0
 50
270.0
  0
INSERT
  5
73
100
AcDbEntity
  8
0
 62
256
370
-1
 48
1.0
  6
BYLAYER
100
AcDbBlockReference
  2
tab
 10
296.0
 20
-6.0000000000000284
 30
0.0
 41
1.0
 42
-1.0
 43
1.0
 50
270.0
  0
INSERT
  5
74
100
AcDbEntity
  8
0
 62
256
370
-1
 48
1.0
  6
BYLAYER
100
AcDbBlockReference
  2
tab
 10
-724.9499999999998181
 20
291.3000000000002956
 30
0.0
 41
1.0
 42
-1.0
 43
1.0
 50
270.0
  0
INSERT
  5
75
100
AcDbEntity
  8
0
 62
256
370
-1
 48
1.0
  6
BYLAYER
100
AcDbBlockReference
  2
tab
 10
116.0
 20
-6.0000000000000284
 30
0.0
 41
1.0
 42
-1.0
 43
1.0
 50
270.0
  0
INSERT
  5
76
100
AcDbEntity
  8
0
 62
256
370
-1
 48
1.0
  6
BYLAYER
100
AcDbBlockReference
  2
tab
 10
316.0
 20
-6.0000000000000284
 30
0.0
 41
1.0
 42
-1.0
 43
1.0
 50
270.0
  0
INSERT
  5
77
100
AcDbEntity
  8
0
 62
256
370
-1
 48
1.0
  6
BYLAYER
100
AcDbBlockReference
  2
tab
 10
-316.0
 20
-6.0
 30
0.0
 50
270.0
  0
INSERT
  5
78
100
AcDbEntity
  8
0
 62
256
370
-1
 48
1.0
  6
BYLAYER
100
AcDbBlockReference
  2
tab
 10
-824.9499999999998181
 20
-62.6999999999997328
 30
0.0
 41
1.0
 42
-1.0
 43
1.0
 50
90.0
  0
INSERT
  5
79
100
AcDbEntity
  8
0
 62
256
370
-1
 48
1.0
  6
BYLAYER
100
AcDbBlockReference
  2
tab
 10
16.0
 20
-360.0
 30
0.0
 41
1.0
 42
-1.0
 43
1.0
 50
90.0
  0
INSERT
  5
7A
100
AcDbEntity
  8
0
 62
256
370
-1
 48
1.0
  6
BYLAYER
100
AcDbBlockReference
  2
tab
 10
216.0
 20
-266.0
 30
0.0
 41
1.0
 42
-1.0
 43
1.0
 50
90.0
  0
INSERT
  5
7B
100
AcDbEntity
  8
0
 62
256
370
-1
 48
1.0
  6
BYLAYER
100
AcDbBlockReference
  2
tab
 10
-216.0
 20
-360.0
 30
0.0
 50
90.0
  0
INSERT
  5
7C
100
AcDbEntity
  8
0
 62
256
370
-1
 48
1.0
  6
BYLAYER
100
AcDbBlockReference
  2
tab
 10
-804.9499999999998181
 20
-62.6999999999997328
 30
0.0
 41
1.0
 42
-1.0
 43
1.0
 50
90.0
  0
INSERT
  5
7D
100
AcDbEntity
  8
0
 62
256
370
-1
 48
1.0
  6
BYLAYER
100
AcDbBlockReference
  2
tab
 10
36.0
 20
-360.0
 30
0.0
 41
1.0
 42
-1.0
 43
1.0
 50
90.0
  0
INSERT
  5
7E
100
AcDbEntity
  8
0
 62
256
370
-1
 48
1.0
  6
BYLAYER
100
AcDbBlockReference
  2
tab
 10
236.0
 20
-266.0
 30
0.0
 41
1.0
 42
-1.0
 43
1.0
 50
90.0
  0
INSERT
  5
7F
100
AcDbEntity
  8
0
 62
256
370
-1
 48
1.0
  6
BYLAYER
100
AcDbBlockReference
  2
tab
 10
-236.0
 20
-360.0
 30
0.0
 50
90.0
  0
INSERT
  5
80
100
AcDbEntity
  8
0
 62
256
370
-1
 48
1.0
  6
BYLAYER
100
AcDbBlockReference
  2
tab
 10
-784.9499999999998181
 20
-62.6999999999997328
 30
0.0
 41
1.0
 42
-1.0
 43
1.0
 50
90.0
  0
INSERT
  5
81
100
AcDbEntity
  8
0
 62
256
370
-1
 48
1.0
  6
BYLAYER
100
AcDbBlockReference
  2
tab
 10
56.0
 20
-360.0
 30
0.0
 41
1.0
 42
-1.0
 43
1.0
 50
90.0
  0
INSERT
  5
82
100
AcDbEntity
  8
0
 62
256
370
-1
 48
1.0
  6
BYLAYER
100
AcDbBlockReference
  2
tab
 10
256.0
 20
-266.0
 30
0.0
 41
1.0
 42
-1.0
 43
1.0
 50
90.0
  0
INSERT
  5
83
100
AcDbEntity
  8
0
 62
256
370
-1
 48
1.0
  6
BYLAYER
100
AcDbBlockReference
  2
tab
 10
-256.0
 20
-360.0
 30
0.0
 50
90.0
  0
INSERT
  5
84
100
AcDbEntity
  8
0
 62
256
370
-1
 48
1.0
  6
BYLAYER
100
AcDbBlockReference
  2
tab
 10
-764.9499999999998181
 20
-62.6999999999997328
 30
0.0
 41
1.0
 42
-1.0
 43
1.0
 50
90.0
  0
INSERT
  5
85
100
AcDbEntity
  8
0
 62
256
370
-1
 48
1.0
  6
BYLAYER
100
AcDbBlockReference
  2
tab
 10
76.0
 20
-360.0
 30
0.0
 41
1.0
 42
-1.0
 43
1.0
 50
90.0
  0
INSERT
  5
86
100
AcDbEntity
  8
0
 62
256
370
-1
 48
1.0
  6
BYLAYER
100
AcDbBlockReference
  2
tab
 10
276.0
 20
-266.0
 30
0.0
 41
1.0
 42
-1.0
 43
1.0
 50
90.0
  0
INSERT
  5
87
100
AcDbEntity
  8
0
 62
256
370
-1
 48
1.0
  6
BYLAYER
100
AcDbBlockReference
  2
tab
 10
-276.0
 20
-360.0
 30
0.0
 50
90.0
  0
INSERT
  5
88
100
AcDbEntity
  8
0
 62
256
370
-1
 48
1.0
  6
BYLAYER
100
AcDbBlockReference
  2
tab
 10
-744.9499999999998181
 20
-62.6999999999997328
 30
0.0
 41
1.0
 42
-1.0
 43
1.0
 50
90.0
  0
INSERT
  5
89
100
AcDbEntity
  8
0
 62
256
370
-1
 48
1.0
  6
BYLAYER
100
AcDbBlockReference
  2
tab
 10
96.0
 20
-360.0
 30
0.0
 41
1.0
 42
-1.0
 43
1.0
 50
90.0
  0
INSERT
  5
8A
100
AcDbEntity
  8
0
 62
256
370
-1
 48
1.0
  6
BYLAYER
100
AcDbBlockReference
  2
tab
 10
296.0
 20
-266.0
 30
0.0
 41
1.0
 42
-1.0
 43
1.0
 50
90.0
  0
INSERT
  5
8B
100
AcDbEntity
  8
0
 62
256
370
-1
 48
1.0
  6
BYLAYER
100
AcDbBlockReference
  2
tab
 10
-296.0
 20
-360.0
 30
0.0
 50
90.0
  0
INSERT
  5
8C
100
AcDbEntity
  8
0
 62
256
370
-1
 48
1.0
  6
BYLAYER
100
AcDbBlockReference
  2
tab
 10
-724.9499999999998181
 20
-62.6999999999997328
 30
0.0
 41
1.0
 42
-1.0
 43
1.0
 50
90.0
  0
INSERT
  5
8D
100
AcDbEntity
  8
0
 62
256
370
-1
 48
1.0
  6
BYLAYER
100
AcDbBlockReference
  2
tab
 10
116.0
 20
-360.0
 30
0.0
 41
1.0
 42
-1.0
 43
1.0
 50
90.0
  0
INSERT
  5
8E
100
AcDbEntity
  8
0
 62
256
370
-1
 48
1.0
  6
BYLAYER
100
AcDbBlockReference
  2
tab
 10
316.0
 20
-266.0
 30
0.0
 41
1.0
 42
-1.0
 43
1.0
 50
90.0
  0
INSERT
  5
8F
100
AcDbEntity
  8
0
 62
256
370
-1
 48
1.0
  6
BYLAYER
100
AcDbBlockReference
  2
tab
 10
-316.0
 20
-360.0
 30
0.0
 50
90.0
  0
LINE
  5
90
100
AcDbEntity
  8
0
 62
256
370
-1
 48
1.0
  6
BYLAYER
100
AcDbLine
 10
-708.9499999999998181
 20
291.3000000000002956
 30
0.0
 11
-719.8499999999999091
 21
291.3000000000002956
 31
0.0
  0
LINE
  5
91
100
AcDbEntity
  8
0
 62
256
370
-1
 48
1.0
  6
BYLAYER
100
AcDbLine
 10
132.0
 20
-6.0000000000000284
 30
0.0
 11
121.1000000000003638
 21
-6.0000000000000284
 31
0.0
  0
LINE
  5
92
100
AcDbEntity
  8
0
 62
256
370
-1
 48
1.0
  6
BYLAYER
100
AcDbLine
 10
332.0
 20
-6.0000000000000284
 30
0.0
 11
321.1000000000003638
 21
-6.0000000000000284
 31
0.0
  0
LINE
  5
93
100
AcDbEntity
  8
0
 62
256
370
-1
 48
1.0
  6
BYLAYER
100
AcDbLine
 10
-332.0
 20
-5.9999999999999716
 30
0.0
 11
-321.1000000000003638
 21
-6.0
 31
0.0
  0
LINE
  5
94
100
AcDbEntity
  8
0
 62
256
370
-1
 48
1.0
  6
BYLAYER
100
AcDbLine
 10
-730.0499999999997272
 20
291.3000000000002956
 30
0.0
 11
-739.8499999999999091
 21
291.3000000000002956
 31
0.0
  0
LINE
  5
95
100
AcDbEntity
  8
0
 62
256
370
-1
 48
1.0
  6
BYLAYER
100
AcDbLine
 10
110.8999999999996362
 20
-6.0000000000000284
 30
0.0
 11
101.1000000000003638
 21
-6.0000000000000284
 31
0.0
  0
LINE
  5
96
100
AcDbEntity
  8
0
 62
256
370
-1
 48
1.0
  6
BYLAYER
100
AcDbLine
 10
310.8999999999996362
 20
-6.0000000000000284
 30
0.0
 11
301.1000000000003638
 21
-6.0000000000000284
 31
0.0
  0
LINE
  5
97
100
AcDbEntity
  8
0
 62
256
370
-1
 48
1.0
  6
BYLAYER
100
AcDbLine
 10
-310.8999999999996362
 20
-6.0
 30
0.0
 11
-301.1000000000003638
 21
-6.0
 31
0.0
  0
LINE
  5
98
100
AcDbEntity
  8
0
 62
256
370
-1
 48
1.0
  6
BYLAYER
100
AcDbLine
 10
-750.0499999999997272
 20
291.3000000000002956
 30
0.0
 11
-759.8499999999999091
 21
291.3000000000002956
 31
0.0
  0
LINE
  5
99
100
AcDbEntity
  8
0
 62
256
370
-1
 48
1.0
  6
BYLAYER
100
AcDbLine
 10
90.8999999999996362
 20
-6.0000000000000284
 30
0.0
 11
81.1000000000003638
 21
-6.0000000000000284
 31
0.0
  0
LINE
  5
9A
100
AcDbEntity
  8
0
 62
256
370
-1
 48
1.0
  6
BYLAYER
100
AcDbLine
 10
290.8999999999996362
 20
-6.0000000000000284
 30
0.0
 11
281.1000000000003638
 21
-6.0000000000000284
 31
0.0
  0
LINE
  5
9B
100
AcDbEntity
  8
0
 62
256
370
-1
 48
1.0
  6
BYLAYER
100
AcDbLine
 10
-290.8999999999996362
 20
-6.0
 30
0.0
 11
-281.1000000000003638
 21
-6.0
 31
0.0
  0
LINE
  5
9C
100
AcDbEntity
  8
0
 62
256
370
-1
 48
1.0
  6
BYLAYER
100
AcDbLine
 10
-770.0499999999997272
 20
291.3000000000002956
 30
0.0
 11
-779.8499999999999091
 21
291.3000000000002956
 31
0.0
  0
LINE
  5
9D
100
AcDbEntity
  8
0
 62
256
370
-1
 48
1.0
  6
BYLAYER
100
AcDbLine
 10
70.8999999999996362
 20
-6.0000000000000284
 30
0.0
 11
61.1000000000003638
 21
-6.0000000000000284
 31
0.0
  0
LINE
  5
9E
100
AcDbEntity
  8
0
 62
256
370
-1
 48
1.0
  6
BYLAYER
100
AcDbLine
 10
270.8999999999996362
 20
-6.0000000000000284
 30
0.0
 11
261.1000000000003638
 21
-6.0000000000000284
 31
0.0
  0
LINE
  5
9F
100
AcDbEntity
  8
0
 62
256
370
-1
 48
1.0
  6
BYLAYER
100
AcDbLine
 10
-270.8999999999996362
 20
-6.0
 30
0.0
 11
-261.1000000000003638
 21
-6.0
 31
0.0
  0
LINE
  5
A0
100
AcDbEntity
  8
0
 62
256
370
-1
 48
1.0
  6
BYLAYER
100
AcDbLine
 10
-790.0499999999997272
 20
291.3000000000002956
 30
0.0
 11
-799.8499999999999091
 21
291.3000000000002956
 31
0.0
  0
LINE
  5
A1
100
AcDbEntity
  8
0
 62
256
370
-1
 48
1.0
  6
BYLAYER
100
AcDbLine
 10
50.8999999999996362
 20
-6.0000000000000284
 30
0.0
 11
41.1000000000003638
 21
-6.0000000000000284
 31
0.0
  0
LINE
  5
A2
100
AcDbEntity
  8
0
 62
256
370
-1
 48
1.0
  6
BYLAYER
100
AcDbLine
 10
250.8999999999996362
 20
-6.0000000000000284
 30
0.0
 11
241.1000000000003638
 21
-6.0000000000000284
 31
0.0
  0
LINE
  5
A3
100
AcDbEntity
  8
0
 62
256
370
-1
 48
1.0
  6
BYLAYER
100
AcDbLine
 10
-250.8999999999996362
 20
-6.0000000000000284
 30
0.0
 11
-241.1000000000003638
 21
-6.0
 31
0.0
  0
LINE
  5
A4
100
AcDbEntity
  8
0
 62
256
370
-1
 48
1.0
  6
BYLAYER
100
AcDbLine
 10
-810.0499999999997272
 20
291.3000000000002956
 30
0.0
 11
-819.8499999999999091
 21
291.3000000000002956
 31
0.0
  0
LINE
  5
A5
100
AcDbEntity
  8
0
 62
256
370
-1
 48
1.0
  6
BYLAYER
100
AcDbLine
 10
30.8999999999996362
 20
-6.0000000000000284
 30
0.0
 11
21.1000000000003638
 21
-6.0000000000000284
 31
0.0
  0
LINE
  5
A6
100
AcDbEntity
  8
0
 62
256
370
-1
 48
1.0
  6
BYLAYER
100
AcDbLine
 10
230.8999999999996362
 20
-6.0000000000000284
 30
0.0
 11
221.1000000000003638
 21
-6.0000000000000284
 31
0.0
  0
LINE
  5
A7
100
AcDbEntity
  8
0
 62
256
370
-1
 48
1.0
  6
BYLAYER
100
AcDbLine
 10
-230.8999999999996362
 20
-6.0000000000000284
 30
0.0
 11
-221.1000000000003638
 21
-6.0000000000000284
 31
0.0
  0
LINE
  5
A8
100
AcDbEntity
  8
0
 62
256
370
-1
 48
1.0
  6
BYLAYER
100
AcDbLine
 10
-830.0499999999997272
 20
291.3000000000002956
 30
0.0
 11
-840.9499999999998181
 21
291.3000000000002956
 31
0.0
  0
LINE
  5
A9
100
AcDbEntity
  8
0
 62
256
370
-1
 48
1.0
  6
BYLAYER
100
AcDbLine
 10
10.8999999999996362
 20
-6.0000000000000284
 30
0.0
 11
0.0
 21
-6.0000000000000284
 31
0.0
  0
LINE
  5
AA
100
AcDbEntity
  8
0
 62
256
370
-1
 48
1.0
  6
BYLAYER
100
AcDbLine
 10
210.8999999999996362
 20
-6.0000000000000284
 30
0.0
 11
200.0
 21
-6.0000000000000284
 31
0.0
  0
LINE
  5
AB
100
AcDbEntity
  8
0
 62
256
370
-1
 48
1.0
  6
BYLAYER
100
AcDbLine
 10
-210.8999999999996362
 20
-6.0
 30
0.0
 11
-200.0
 21
-6.0
 31
0.0
  0
INSERT
  5
AC
100
AcDbEntity
  8
0
 62
256
370
-1
 48
1.0
  6
BYLAYER
100
AcDbBlockReference
  2
tab
 10
-1287.9500000000000455
 20
520.3000000000002956
 30
0.0
 41
1.0
 42
-1.0
 43
1.0
 50
360.0
  0
INSERT
  5
AD
100
AcDbEntity
  8
0
 62
256
370
-1
 48
1.0
  6
BYLAYER
100
AcDbBlockReference
  2
tab
 10
-993.9499999999998181
 20
500.3000000000000682
 30
0.0
 41
1.0
 42
-1.0
 43
1.0
 50
180.0
  0
INSERT
  5
AE
100
AcDbEntity
  8
0
 62
256
370
-1
 48
1.0
  6
BYLAYER
100
AcDbBlockReference
  2
tab
 10
-43.5
 20
203.0000000000000284
 30
0.0
 41
1.0
 42
-1.0
 43
1.0
 50
180.0
  0
INSERT
  5
AF
100
AcDbEntity
  8
0
 62
256
370
-1
 48
1.0
  6
BYLAYER
100
AcDbBlockReference
  2
tab
 10
-1287.9500000000000455
 20
460.3000000000002956
 30
0.0
 41
1.0
 42
-1.0
 43
1.0
 50
360.0
  0
INSERT
  5
B0
100
AcDbEntity
  8
0
 62
256
370
-1
 48
1.0
  6
BYLAYER
100
AcDbBlockReference
  2
tab
 10
-156.5
 20
163.0000000000000853
 30
0.0
 41
1.0
 42
-1.0
 43
1.0
 50
360.0
  0
INSERT
  5
B1
100
AcDbEntity
  8
0
 62
256
370
-1
 48
1.0
  6
BYLAYER
100
AcDbBlockReference
  2
tab
 10
-43.5
 20
-603.0
 30
0.0
 50
180.0
  0
INSERT
  5
B2
100
AcDbEntity
  8
0
 62
256
370
-1
 48
1.0
  6
BYLAYER
100
AcDbBlockReference
  2
tab
 10
-993.9499999999998181
 20
520.3000000000002956
 30
0.0
 41
1.0
 42
-1.0
 43
1.0
 50
180.0
  0
INSERT
  5
B3
100
AcDbEntity
  8
0
 62
256
370
-1
 48
1.0
  6
BYLAYER
100
AcDbBlockReference
  2
tab
 10
-43.5
 20
223.000000000000199
 30
0.0
 41
1.0
 42
-1.0
 43
1.0
 50
180.0
  0
INSERT
  5
B4
100
AcDbEntity
  8
0
 62
256
370
-1
 48
1.0
  6
BYLAYER
100
AcDbBlockReference
  2
tab
 10
-156.5
 20
-542.9999999999998863
 30
0.0
  0
INSERT
  5
B5
100
AcDbEntity
  8
0
 62
256
370
-1
 48
1.0
  6
BYLAYER
100
AcDbBlockReference
  2
tab
 10
-1287.9500000000000455
 20
440.3000000000002956
 30
0.0
 41
1.0
 42
-1.0
 43
1.0
 50
360.0
  0
INSERT
  5
B6
100
AcDbEntity
  8
0
 62
256
370
-1
 48
1.0
  6
BYLAYER
100
AcDbBlockReference
  2
tab
 10
-156.5
 20
143.0000000000000853
 30
0.0
 41
1.0
 42
-1.0
 43
1.0
 50
360.0
  0
INSERT
  5
B7
100
AcDbEntity
  8
0
 62
256
370
-1
 48
1.0
  6
BYLAYER
100
AcDbBlockReference
  2
tab
 10
-43.5
 20
-623.0
 30
0.0
 50
180.0
  0
LINE
  5
B8
100
AcDbEntity
  8
0
 62
256
370
-1
 48
1.0
  6
BYLAYER
100
AcDbLine
 10
-993.9499999999998181
 20
425.4000000000002046
 30
0.0
 11
-990.8499999999999091
 21
425.4000000000002046
 31
0.0
  0
LINE
  5
B9
100
AcDbEntity
  8
0
 62
256
370
-1
 48
1.0
  6
BYLAYER
100
AcDbLine
 10
-43.5
 20
128.100000000000108
 30
0.0
 11
-40.3999999999996362
 21
128.1000000000001648
 31
0.0
  0
LINE
  5
BA
100
AcDbEntity
  8
0
 62
256
370
-1
 48
1.0
  6
BYLAYER
100
AcDbLine
 10
-156.5
 20
-637.8999999999999773
 30
0.0
 11
-159.6000000000003638
 21
-637.8999999999999773
 31
0.0
  0
LINE
  5
BB
100
AcDbEntity
  8
0
 62
256
370
-1
 48
1.0
  6
BYLAYER
100
AcDbLine
 10
-1287.9499999999998181
 20
535.2000000000003865
 30
0.0
 11
-1291.0499999999999545
 21
535.2000000000002728
 31
0.0
  0
LINE
  5
BC
100
AcDbEntity
  8
0
 62
256
370
-1
 48
1.0
  6
BYLAYER
100
AcDbLine
 10
-156.5
 20
237.9000000000001194
 30
0.0
 11
-159.6000000000003638
 21
237.9000000000000625
 31
0.0
  0
LINE
  5
BD
100
AcDbEntity
  8
0
 62
256
370
-1
 48
1.0
  6
BYLAYER
100
AcDbLine
 10
-43.5
 20
-528.0999999999999091
 30
0.0
 11
-40.3999999999996362
 21
-528.1000000000000227
 31
0.0
  0
LINE
  5
BE
100
AcDbEntity
  8
0
 62
256
370
-1
 48
1.0
  6
BYLAYER
100
AcDbLine
 10
-990.8499999999999091
 20
425.4000000000002046
 30
0.0
 11
-990.8499999999999091
 21
414.3000000000002956
 31
0.0
  0
LINE
  5
BF
100
AcDbEntity
  8
0
 62
256
370
-1
 48
1.0
  6
BYLAYER
100
AcDbLine
 10
-40.3999999999996362
 20
128.1000000000001648
 30
0.0
 11
-40.3999999999996362
 21
117.000000000000199
 31
0.0
  0
LINE
  5
C0
100
AcDbEntity
  8
0
 62
256
370
-1
 48
1.0
  6
BYLAYER
100
AcDbLine
 10
-159.6000000000003638
 20
-637.8999999999999773
 30
0.0
 11
-159.6000000000003638
 21
-648.9999999999998863
 31
0.0
  0
LINE
  5
C1
100
AcDbEntity
  8
0
 62
256
370
-1
 48
1.0
  6
BYLAYER
100
AcDbLine
 10
-1291.0499999999999545
 20
535.2000000000002728
 30
0.0
 11
-1291.0499999999999545
 21
546.3000000000002956
 31
0.0
  0
LINE
  5
C2
100
AcDbEntity
  8
0
 62
256
370
-1
 48
1.0
  6
BYLAYER
100
AcDbLine
 10
-159.6000000000003638
 20
237.9000000000000625
 30
0.0
 11
-159.6000000000003638
 21
249.0000000000000284
 31
0.0
  0
LINE
  5
C3
100
AcDbEntity
  8
0
 62
256
370
-1
 48
1.0
  6
BYLAYER
100
AcDbLine
 10
-40.3999999999996362
 20
-528.1000000000000227
 30
0.0
 11
-40.3999999999996362
 21
-517.0
 31
0.0
  0
LINE
  5
C4
100
AcDbEntity
  8
0
 62
256
370
-1
 48
1.0
  6
BYLAYER
100
AcDbLine
 10
-993.9499999999998181
 20
535.2000000000002728
 30
0.0
 11
-990.8499999999999091
 21
535.2000000000001592
 31
0.0
  0
LINE
  5
C5
100
AcDbEntity
  8
0
 62
256
370
-1
 48
1.0
  6
BYLAYER
100
AcDbLine
 10
-43.5
 20
237.9000000000001762
 30
0.0
 11
-40.3999999999996362
 21
237.9000000000000625
 31
0.0
  0
LINE
  5
C6
100
AcDbEntity
  8
0
 62
256
370
-1
 48
1.0
  6
BYLAYER
100
AcDbLine
 10
-156.5
 20
-528.0999999999999091
 30
0.0
 11
-159.6000000000003638
 21
-528.1000000000000227
 31
0.0
  0
LINE
  5
C7
100
AcDbEntity
  8
0
 62
256
370
-1
 48
1.0
  6
BYLAYER
100
AcDbLine
 10
-1287.9500000000000455
 20
425.4000000000003183
 30
0.0
 11
-1291.0500000000001819
 21
425.4000000000003183
 31
0.0
  0
LINE
  5
C8
100
AcDbEntity
  8
0
 62
256
370
-1
 48
1.0
  6
BYLAYER
100
AcDbLine
 10
-156.5
 20
128.100000000000108
 30
0.0
 11
-159.6000000000003638
 21
128.100000000000108
 31
0.0
  0
LINE
  5
C9
100
AcDbEntity
  8
0
 62
256
370
-1
 48
1.0
  6
BYLAYER
100
AcDbLine
 10
-43.5
 20
-637.8999999999999773
 30
0.0
 11
-40.3999999999996362
 21
-637.8999999999999773
 31
0.0
  0
LINE
  5
CA
100
AcDbEntity
  8
0
 62
256
370
-1
 48
1.0
  6
BYLAYER
100
AcDbLine
 10
-990.8499999999999091
 20
535.2000000000001592
 30
0.0
 11
-990.8499999999999091
 21
546.3000000000001819
 31
0.0
  0
LINE
  5
CB
100
AcDbEntity
  8
0
 62
256
370
-1
 48
1.0
  6
BYLAYER
100
AcDbLine
 10
-40.3999999999996362
 20
237.9000000000000625
 30
0.0
 11
-40.3999999999996362
 21
249.0000000000001421
 31
0.0
  0
LINE
  5
CC
100
AcDbEntity
  8
0
 62
256
370
-1
 48
1.0
  6
BYLAYER
100
AcDbLine
 10
-159.6000000000003638
 20
-528.1000000000000227
 30
0.0
 11
-159.6000000000003638
 21
-516.9999999999998863
 31
0.0
  0
LINE
  5
CD
100
AcDbEntity
  8
0
 62
256
370
-1
 48
1.0
  6
BYLAYER
100
AcDbLine
 10
-1291.0500000000001819
 20
425.4000000000003183
 30
0.0
 11
-1291.0500000000001819
 21
414.3000000000002956
 31
0.0
  0
LINE
  5
CE
100
AcDbEntity
  8
0
 62
256
370
-1
 48
1.0
  6
BYLAYER
100
AcDbLine
 10
-159.6000000000003638
 20
128.100000000000108
 30
0.0
 11
-159.6000000000003638
 21
117.0000000000000853
 31
0.0
  0
LINE
  5
CF
100
AcDbEntity
  8
0
 62
256
370
-1
 48
1.0
  6
BYLAYER
100
AcDbLine
 10
-40.3999999999996362
 20
-637.8999999999999773
 30
0.0
 11
-40.3999999999996362
 21
-649.0
 31
0.0
  0
INSERT
  5
D0
100
AcDbEntity
  8
0
 62
256
370
-1
 48
1.0
  6
BYLAYER
100
AcDbBlockReference
  2
tab
 10
-1287.9499999999998181
 20
480.3000000000002956
 30
0.0
 41
1.0
 42
-1.0
 43
1.0
 50
360.0
  0
INSERT
  5
D1
100
AcDbEntity
  8
0
 62
256
370
-1
 48
1.0
  6
BYLAYER
100
AcDbBlockReference
  2
tab
 10
-156.5
 20
183.0000000000000853
 30
0.0
 41
1.0
 42
-1.0
 43
1.0
 50
360.0
  0
INSERT
  5
D2
100
AcDbEntity
  8
0
 62
256
370
-1
 48
1.0
  6
BYLAYER
100
AcDbBlockReference
  2
tab
 10
-43.5
 20
-583.0
 30
0.0
 50
180.0
  0
LINE
  5
D3
100
AcDbEntity
  8
0
 62
256
370
-1
 48
1.0
  6
BYLAYER
100
AcDbLine
 10
-993.9499999999998181
 20
425.4000000000002046
 30
0.0
 11
-993.9499999999998181
 21
435.2000000000002728
 31
0.0
  0
LINE
  5
D4
100
AcDbEntity
  8
0
 62
256
370
-1
 48
1.0
  6
BYLAYER
100
AcDbLine
 10
-43.5
 20
128.100000000000108
 30
0.0
 11
-43.5
 21
137.9000000000001762
 31
0.0
  0
LINE
  5
D5
100
AcDbEntity
  8
0
 62
256
370
-1
 48
1.0
  6
BYLAYER
100
AcDbLine
 10
-156.5
 20
-637.8999999999999773
 30
0.0
 11
-156.5
 21
-628.0999999999999091
 31
0.0
  0
LINE
  5
D6
100
AcDbEntity
  8
0
 62
256
370
-1
 48
1.0
  6
BYLAYER
100
AcDbLine
 10
-993.9499999999998181
 20
445.4000000000003183
 30
0.0
 11
-993.9499999999998181
 21
455.2000000000001592
 31
0.0
  0
LINE
  5
D7
100
AcDbEntity
  8
0
 62
256
370
-1
 48
1.0
  6
BYLAYER
100
AcDbLine
 10
-43.5
 20
148.1000000000002217
 30
0.0
 11
-43.5
 21
157.9000000000000625
 31
0.0
  0
LINE
  5
D8
100
AcDbEntity
  8
0
 62
256
370
-1
 48
1.0
  6
BYLAYER
100
AcDbLine
 10
-156.5
 20
-617.8999999999998636
 30
0.0
 11
-156.5
 21
-608.1000000000000227
 31
0.0
  0
LINE
  5
D9
100
AcDbEntity
  8
0
 62
256
370
-1
 48
1.0
  6
BYLAYER
100
AcDbLine
 10
-993.9499999999998181
 20
465.4000000000000909
 30
0.0
 11
-993.9499999999998181
 21
475.2000000000001592
 31
0.0
  0
LINE
  5
DA
100
AcDbEntity
  8
0
 62
256
370
-1
 48
1.0
  6
BYLAYER
100
AcDbLine
 10
-43.5
 20
168.1000000000000512
 30
0.0
 11
-43.5
 21
177.9000000000001194
 31
0.0
  0
LINE
  5
DB
100
AcDbEntity
  8
0
 62
256
370
-1
 48
1.0
  6
BYLAYER
100
AcDbLine
 10
-156.5
 20
-597.8999999999999773
 30
0.0
 11
-156.5
 21
-588.0999999999999091
 31
0.0
  0
LINE
  5
DC
100
AcDbEntity
  8
0
 62
256
370
-1
 48
1.0
  6
BYLAYER
100
AcDbLine
 10
-993.9499999999998181
 20
485.4000000000003183
 30
0.0
 11
-993.9499999999998181
 21
495.2000000000003865
 31
0.0
  0
LINE
  5
DD
100
AcDbEntity
  8
0
 62
256
370
-1
 48
1.0
  6
BYLAYER
100
AcDbLine
 10
-43.5
 20
188.1000000000002217
 30
0.0
 11
-43.5
 21
197.9000000000002899
 31
0.0
  0
LINE
  5
DE
100
AcDbEntity
  8
0
 62
256
370
-1
 48
1.0
  6
BYLAYER
100
AcDbLine
 10
-156.5
 20
-577.8999999999997499
 30
0.0
 11
-156.5
 21
-568.0999999999997954
 31
0.0
  0
LINE
  5
DF
100
AcDbEntity
  8
0
 62
256
370
-1
 48
1.0
  6
BYLAYER
100
AcDbLine
 10
-993.9499999999998181
 20
505.4000000000002046
 30
0.0
 11
-993.9499999999993634
 21
515.2000000000001592
 31
0.0
  0
LINE
  5
E0
100
AcDbEntity
  8
0
 62
256
370
-1
 48
1.0
  6
BYLAYER
100
AcDbLine
 10
-43.5
 20
208.100000000000108
 30
0.0
 11
-43.5
 21
217.9000000000001194
 31
0.0
  0
LINE
  5
E1
100
AcDbEntity
  8
0
 62
256
370
-1
 48
1.0
  6
BYLAYER
100
AcDbLine
 10
-156.5
 20
-557.8999999999999773
 30
0.0
 11
-156.5
 21
-548.0999999999999091
 31
0.0
  0
LINE
  5
E2
100
AcDbEntity
  8
0
 62
256
370
-1
 48
1.0
  6
BYLAYER
100
AcDbLine
 10
-993.9499999999998181
 20
525.4000000000002046
 30
0.0
 11
-993.9499999999998181
 21
535.2000000000002728
 31
0.0
  0
LINE
  5
E3
100
AcDbEntity
  8
0
 62
256
370
-1
 48
1.0
  6
BYLAYER
100
AcDbLine
 10
-43.5
 20
228.1000000000001648
 30
0.0
 11
-43.5
 21
237.9000000000001762
 31
0.0
  0
LINE
  5
E4
100
AcDbEntity
  8
0
 62
256
370
-1
 48
1.0
  6
BYLAYER
100
AcDbLine
 10
-156.5
 20
-537.8999999999998636
 30
0.0
 11
-156.5
 21
-528.0999999999999091
 31
0.0
  0
LINE
  5
E5
100
AcDbEntity
  8
0
 62
256
370
-1
 48
1.0
  6
BYLAYER
100
AcDbLine
 10
-1287.9499999999998181
 20
535.2000000000003865
 30
0.0
 11
-1287.9499999999998181
 21
525.4000000000003183
 31
0.0
  0
LINE
  5
E6
100
AcDbEntity
  8
0
 62
256
370
-1
 48
1.0
  6
BYLAYER
100
AcDbLine
 10
-156.5
 20
237.9000000000001194
 30
0.0
 11
-156.5
 21
228.1000000000000512
 31
0.0
  0
LINE
  5
E7
100
AcDbEntity
  8
0
 62
256
370
-1
 48
1.0
  6
BYLAYER
100
AcDbLine
 10
-43.5
 20
-528.0999999999999091
 30
0.0
 11
-43.5
 21
-537.8999999999999773
 31
0.0
  0
LINE
  5
E8
100
AcDbEntity
  8
0
 62
256
370
-1
 48
1.0
  6
BYLAYER
100
AcDbLine
 10
-1287.9499999999998181
 20
515.2000000000002728
 30
0.0
 11
-1287.9499999999998181
 21
505.4000000000003183
 31
0.0
  0
LINE
  5
E9
100
AcDbEntity
  8
0
 62
256
370
-1
 48
1.0
  6
BYLAYER
100
AcDbLine
 10
-156.5
 20
217.9000000000000625
 30
0.0
 11
-156.5
 21
208.100000000000108
 31
0.0
  0
LINE
  5
EA
100
AcDbEntity
  8
0
 62
256
370
-1
 48
1.0
  6
BYLAYER
100
AcDbLine
 10
-43.5
 20
-548.1000000000000227
 30
0.0
 11
-43.5
 21
-557.8999999999999773
 31
0.0
  0
LINE
  5
EB
100
AcDbEntity
  8
0
 62
256
370
-1
 48
1.0
  6
BYLAYER
100
AcDbLine
 10
-1287.9499999999998181
 20
495.2000000000002728
 30
0.0
 11
-1287.9499999999998181
 21
485.4000000000003183
 31
0.0
  0
LINE
  5
EC
100
AcDbEntity
  8
0
 62
256
370
-1
 48
1.0
  6
BYLAYER
100
AcDbLine
 10
-156.5
 20
197.9000000000000625
 30
0.0
 11
-156.5
 21
188.1000000000000512
 31
0.0
  0
LINE
  5
ED
100
AcDbEntity
  8
0
 62
256
370
-1
 48
1.0
  6
BYLAYER
100
AcDbLine
 10
-43.5
 20
-568.1000000000000227
 30
0.0
 11
-43.5
 21
-577.8999999999999773
 31
0.0
  0
LINE
  5
EE
100
AcDbEntity
  8
0
 62
256
370
-1
 48
1.0
  6
BYLAYER
100
AcDbLine
 10
-1287.9499999999998181
 20
475.2000000000002728
 30
0.0
 11
-1287.9499999999998181
 21
465.400000000000432
 31
0.0
  0
LINE
  5
EF
100
AcDbEntity
  8
0
 62
256
370
-1
 48
1.0
  6
BYLAYER
100
AcDbLine
 10
-156.5
 20
177.9000000000000625
 30
0.0
 11
-156.5
 21
168.1000000000001648
 31
0.0
  0
LINE
  5
F0
100
AcDbEntity
  8
0
 62
256
370
-1
 48
1.0
  6
BYLAYER
100
AcDbLine
 10
-43.5
 20
-588.1000000000000227
 30
0.0
 11
-43.5
 21
-597.8999999999998636
 31
0.0
  0
LINE
  5
F1
100
AcDbEntity
  8
0
 62
256
370
-1
 48
1.0
  6
BYLAYER
100
AcDbLine
 10
-1287.9500000000000455
 20
455.2000000000002728
 30
0.0
 11
-1287.9499999999998181
 21
445.4000000000003183
 31
0.0
  0
LINE
  5
F2
100
AcDbEntity
  8
0
 62
256
370
-1
 48
1.0
  6
BYLAYER
100
AcDbLine
 10
-156.5
 20
157.9000000000000057
 30
0.0
 11
-156.5
 21
148.100000000000108
 31
0.0
  0
LINE
  5
F3
100
AcDbEntity
  8
0
 62
256
370
-1
 48
1.0
  6
BYLAYER
100
AcDbLine
 10
-43.5
 20
-608.1000000000000227
 30
0.0
 11
-43.5
 21
-617.8999999999999773
 31
0.0
  0
LINE
  5
F4
100
AcDbEntity
  8
0
 62
256
370
-1
 48
1.0
  6
BYLAYER
100
AcDbLine
 10
-1287.9500000000000455
 20
435.2000000000002728
 30
0.0
 11
-1287.9499999999998181
 21
425.4000000000003183
 31
0.0
  0
LINE
  5
F5
100
AcDbEntity
  8
0
 62
256
370
-1
 48
1.0
  6
BYLAYER
100
AcDbLine
 10
-156.5
 20
137.9000000000000057
 30
0.0
 11
-156.5
 21
128.100000000000108
 31
0.0
  0
LINE
  5
F6
100
AcDbEntity
  8
0
 62
256
370
-1
 48
1.0
  6
BYLAYER
100
AcDbLine
 10
-43.5
 20
-628.1000000000000227
 30
0.0
 11
-43.5
 21
-637.8999999999999773
 31
0.0
  0
LINE
  5
F7
100
AcDbEntity
  8
0
 62
256
370
-1
 48
1.0
  6
BYLAYER
100
AcDbLine
 10
-708.9499999999998181
 20
291.3000000000002956
 30
0.0
 11
-708.9499999999998181
 21
-62.6999999999997328
 31
0.0
  0
LINE
  5
F8
100
AcDbEntity
  8
0
 62
256
370
-1
 48
1.0
  6
BYLAYER
100
AcDbLine
 10
132.0
 20
-6.0000000000000284
 30
0.0
 11
132.0
 21
-360.0
 31
0.0
  0
LINE
  5
F9
100
AcDbEntity
  8
0
 62
256
370
-1
 48
1.0
  6
BYLAYER
100
AcDbLine
 10
-332.0
 20
-5.9999999999999716
 30
0.0
 11
-332.0
 21
-360.0
 31
0.0
  0
LINE
  5
FA
100
AcDbEntity
  8
0
 62
256
370
-1
 48
1.0
  6
BYLAYER
100
AcDbLine
 10
-708.9499999999998181
 20
-62.6999999999997328
 30
0.0
 11
-719.8499999999999091
 21
-62.6999999999997328
 31
0.0
  0
LINE
  5
FB
100
AcDbEntity
  8
0
 62
256
370
-1
 48
1.0
  6
BYLAYER
100
AcDbLine
 10
132.0
 20
-360.0
 30
0.0
 11
121.1000000000003638
 21
-360.0
 31
0.0
  0
LINE
  5
FC
100
AcDbEntity
  8
0
 62
256
370
-1
 48
1.0
  6
BYLAYER
100
AcDbLine
 10
332.0
 20
-266.0
 30
0.0
 11
321.1000000000003638
 21
-266.0
 31
0.0
  0
LINE
  5
FD
100
AcDbEntity
  8
0
 62
256
370
-1
 48
1.0
  6
BYLAYER
100
AcDbLine
 10
-332.0
 20
-360.0
 30
0.0
 11
-321.1000000000003638
 21
-360.0
 31
0.0
  0
LINE
  5
FE
100
AcDbEntity
  8
0
 62
256
370
-1
 48
1.0
  6
BYLAYER
100
AcDbLine
 10
-730.0499999999997272
 20
-62.699999999999676
 30
0.0
 11
-739.8499999999999091
 21
-62.6999999999997328
 31
0.0
  0
LINE
  5
FF
100
AcDbEntity
  8
0
 62
256
370
-1
 48
1.0
  6
BYLAYER
100
AcDbLine
 10
110.8999999999996362
 20
-360.0
 30
0.0
 11
101.1000000000003638
 21
-360.0
 31
0.0
  0
LINE
  5
100
100
AcDbEntity
  8
0
 62
256
370
-1
 48
1.0
  6
BYLAYER
100
AcDbLine
 10
310.8999999999996362
 20
-265.9999999999998863
 30
0.0
 11
301.1000000000003638
 21
-266.0
 31
0.0
  0
LINE
  5
101
100
AcDbEntity
  8
0
 62
256
370
-1
 48
1.0
  6
BYLAYER
100
AcDbLine
 10
-310.8999999999996362
 20
-359.9999999999999432
 30
0.0
 11
-301.1000000000003638
 21
-360.0
 31
0.0
  0
LINE
  5
102
100
AcDbEntity
  8
0
 62
256
370
-1
 48
1.0
  6
BYLAYER
100
AcDbLine
 10
-750.0499999999997272
 20
-62.699999999999676
 30
0.0
 11
-759.8499999999999091
 21
-62.699999999999676
 31
0.0
  0
LINE
  5
103
100
AcDbEntity
  8
0
 62
256
370
-1
 48
1.0
  6
BYLAYER
100
AcDbLine
 10
90.8999999999996362
 20
-360.0
 30
0.0
 11
81.1000000000003638
 21
-360.0
 31
0.0
  0
LINE
  5
104
100
AcDbEntity
  8
0
 62
256
370
-1
 48
1.0
  6
BYLAYER
100
AcDbLine
 10
290.8999999999996362
 20
-265.9999999999998863
 30
0.0
 11
281.1000000000003638
 21
-265.9999999999998863
 31
0.0
  0
LINE
  5
105
100
AcDbEntity
  8
0
 62
256
370
-1
 48
1.0
  6
BYLAYER
100
AcDbLine
 10
-290.8999999999996362
 20
-359.9999999999999432
 30
0.0
 11
-281.1000000000003638
 21
-359.9999999999999432
 31
0.0
  0
LINE
  5
106
100
AcDbEntity
  8
0
 62
256
370
-1
 48
1.0
  6
BYLAYER
100
AcDbLine
 10
-770.0499999999997272
 20
-62.699999999999676
 30
0.0
 11
-779.8499999999999091
 21
-62.699999999999676
 31
0.0
  0
LINE
  5
107
100
AcDbEntity
  8
0
 62
256
370
-1
 48
1.0
  6
BYLAYER
100
AcDbLine
 10
70.8999999999996362
 20
-360.0
 30
0.0
 11
61.1000000000003638
 21
-360.0
 31
0.0
  0
LINE
  5
108
100
AcDbEntity
  8
0
 62
256
370
-1
 48
1.0
  6
BYLAYER
100
AcDbLine
 10
270.8999999999996362
 20
-265.9999999999998863
 30
0.0
 11
261.1000000000003638
 21
-265.9999999999998863
 31
0.0
  0
LINE
  5
109
100
AcDbEntity
  8
0
 62
256
370
-1
 48
1.0
  6
BYLAYER
100
AcDbLine
 10
-270.8999999999996362
 20
-359.9999999999999432
 30
0.0
 11
-261.1000000000003638
 21
-359.9999999999999432
 31
0.0
  0
LINE
  5
10A
100
AcDbEntity
  8
0
 62
256
370
-1
 48
1.0
  6
BYLAYER
100
AcDbLine
 10
-790.0499999999997272
 20
-62.6999999999997328
 30
0.0
 11
-799.8499999999999091
 21
-62.699999999999676
 31
0.0
  0
LINE
  5
10B
100
AcDbEntity
  8
0
 62
256
370
-1
 48
1.0
  6
BYLAYER
100
AcDbLine
 10
50.8999999999996362
 20
-360.0
 30
0.0
 11
41.1000000000003638
 21
-360.0
 31
0.0
  0
LINE
  5
10C
100
AcDbEntity
  8
0
 62
256
370
-1
 48
1.0
  6
BYLAYER
100
AcDbLine
 10
250.8999999999996362
 20
-266.0
 30
0.0
 11
241.1000000000003638
 21
-265.9999999999998863
 31
0.0
  0
LINE
  5
10D
100
AcDbEntity
  8
0
 62
256
370
-1
 48
1.0
  6
BYLAYER
100
AcDbLine
 10
-250.8999999999996362
 20
-360.0
 30
0.0
 11
-241.1000000000003638
 21
-359.9999999999999432
 31
0.0
  0
LINE
  5
10E
100
AcDbEntity
  8
0
 62
256
370
-1
 48
1.0
  6
BYLAYER
100
AcDbLine
 10
-810.0499999999997272
 20
-62.699999999999676
 30
0.0
 11
-819.8499999999999091
 21
-62.699999999999676
 31
0.0
  0
LINE
  5
10F
100
AcDbEntity
  8
0
 62
256
370
-1
 48
1.0
  6
BYLAYER
100
AcDbLine
 10
30.8999999999996362
 20
-360.0
 30
0.0
 11
21.1000000000003638
 21
-360.0
 31
0.0
  0
LINE
  5
110
100
AcDbEntity
  8
0
 62
256
370
-1
 48
1.0
  6
BYLAYER
100
AcDbLine
 10
230.8999999999996362
 20
-265.9999999999998863
 30
0.0
 11
221.1000000000003638
 21
-265.9999999999998863
 31
0.0
  0
LINE
  5
111
100
AcDbEntity
  8
0
 62
256
370
-1
 48
1.0
  6
BYLAYER
100
AcDbLine
 10
-230.8999999999996362
 20
-359.9999999999998863
 30
0.0
 11
-221.1000000000003638
 21
-359.9999999999999432
 31
0.0
  0
LINE
  5
112
100
AcDbEntity
  8
0
 62
256
370
-1
 48
1.0
  6
BYLAYER
100
AcDbLine
 10
-830.0499999999997272
 20
-62.6999999999997328
 30
0.0
 11
-840.9499999999998181
 21
-62.6999999999997328
 31
0.0
  0
LINE
  5
113
100
AcDbEntity
  8
0
 62
256
370
-1
 48
1.0
  6
BYLAYER
100
AcDbLine
 10
10.8999999999996362
 20
-360.0
 30
0.0
 11
0.0
 21
-360.0
 31
0.0
  0
LINE
  5
114
100
AcDbEntity
  8
0
 62
256
370
-1
 48
1.0
  6
BYLAYER
100
AcDbLine
 10
210.8999999999996362
 20
-266.0
 30
0.0
 11
200.0
 21
-266.0
 31
0.0
  0
LINE
  5
115
100
AcDbEntity
  8
0
 62
256
370
-1
 48
1.0
  6
BYLAYER
100
AcDbLine
 10
-210.8999999999996362
 20
-360.0
 30
0.0
 11
-200.0
 21
-360.0
 31
0.0
  0
LINE
  5
116
100
AcDbEntity
  8
0
 62
256
370
-1
 48
1.0
  6
BYLAYER
100
AcDbLine
 10
-840.9499999999998181
 20
-62.6999999999997328
 30
0.0
 11
-840.9499999999998181
 21
291.3000000000002956
 31
0.0
  0
LINE
  5
117
100
AcDbEntity
  8
0
 62
256
370
-1
 48
1.0
  6
BYLAYER
100
AcDbLine
 10
0.0
 20
-360.0
 30
0.0
 11
0.0
 21
-6.0000000000000284
 31
0.0
  0
LINE
  5
118
100
AcDbEntity
  8
0
 62
256
370
-1
 48
1.0
  6
BYLAYER
100
AcDbLine
 10
-200.0
 20
-360.0
 30
0.0
 11
-200.0
 21
-6.0
 31
0.0
  0
INSERT
  5
119
100
AcDbEntity
  8
0
 62
256
370
-1
 48
1.0
  6
BYLAYER
100
AcDbBlockReference
  2
tab
 10
-824.9499999999998181
 20
291.3000000000002956
 30
0.0
 41
1.0
 42
-1.0
 43
1.0
 50
270.0
  0
INSERT
  5
11A
100
AcDbEntity
  8
0
 62
256
370
-1
 48
1.0
  6
BYLAYER
100
AcDbBlockReference
  2
tab
 10
16.0
 20
-6.0000000000000284
 30
0.0
 41
1.0
 42
-1.0
 43
1.0
 50
270.0
  0
INSERT
  5
11B
100
AcDbEntity
  8
0
 62
256
370
-1
 48
1.0
  6
BYLAYER
100
AcDbBlockReference
  2
tab
 10
216.0
 20
-6.0000000000000284
 30
0.0
 41
1.0
 42
-1.0
 43
1.0
 50
270.0
  0
INSERT
  5
11C
100
AcDbEntity
  8
0
 62
256
370
-1
 48
1.0
  6
BYLAYER
100
AcDbBlockReference
  2
tab
 10
-216.0
 20
-6.0000000000000284
 30
0.0
 50
270.0
  0
INSERT
  5
11D
100
AcDbEntity
  8
0
 62
256
370
-1
 48
1.0
  6
BYLAYER
100
AcDbBlockReference
  2
tab
 10
-993.9499999999998181
 20
480.3000000000001819
 30
0.0
 41
1.0
 42
-1.0
 43
1.0
 50
180.0
  0
INSERT
  5
11E
100
AcDbEntity
  8
0
 62
256
370
-1
 48
1.0
  6
BYLAYER
100
AcDbBlockReference
  2
tab
 10
-43.5
 20
183.0000000000001421
 30
0.0
 41
1.0
 42
-1.0
 43
1.0
 50
180.0
  0
INSERT
  5
11F
100
AcDbEntity
  8
0
 62
256
370
-1
 48
1.0
  6
BYLAYER
100
AcDbBlockReference
  2
tab
 10
-156.5
 20
-583.0
 30
0.0
  0
INSERT
  5
120
100
AcDbEntity
  8
0
 62
256
370
-1
 48
1.0
  6
BYLAYER
100
AcDbBlockReference
  2
tab
 10
-804.9499999999998181
 20
291.3000000000002956
 30
0.0
 41
1.0
 42
-1.0
 43
1.0
 50
270.0
  0
INSERT
  5
121
100
AcDbEntity
  8
0
 62
256
370
-1
 48
1.0
  6
BYLAYER
100
AcDbBlockReference
  2
tab
 10
36.0
 20
-6.0000000000000284
 30
0.0
 41
1.0
 42
-1.0
 43
1.0
 50
270.0
  0
INSERT
  5
122
100
AcDbEntity
  8
0
 62
256
370
-1
 48
1.0
  6
BYLAYER
100
AcDbBlockReference
  2
tab
 10
236.0
 20
-6.0000000000000284
 30
0.0
 41
1.0
 42
-1.0
 43
1.0
 50
270.0
  0
INSERT
  5
123
100
AcDbEntity
  8
0
 62
256
370
-1
 48
1.0
  6
BYLAYER
100
AcDbBlockReference
  2
tab
 10
-236.0
 20
-6.0
 30
0.0
 50
270.0
  0
INSERT
  5
124
100
AcDbEntity
  8
0
 62
256
370
-1
 48
1.0
  6
BYLAYER
100
AcDbBlockReference
  2
tab
 10
-993.9499999999998181
 20
460.3000000000002956
 30
0.0
 41
1.0
 42
-1.0
 43
1.0
 50
180.0
  0
INSERT
  5
125
100
AcDbEntity
  8
0
 62
256
370
-1
 48
1.0
  6
BYLAYER
100
AcDbBlockReference
  2
tab
 10
-43.5
 20
163.0000000000002558
 30
0.0
 41
1.0
 42
-1.0
 43
1.0
 50
180.0
  0
INSERT
  5
126
100
AcDbEntity
  8
0
 62
256
370
-1
 48
1.0
  6
BYLAYER
100
AcDbBlockReference
  2
tab
 10
-156.5
 20
-602.9999999999998863
 30
0.0
  0
INSERT
  5
127
100
AcDbEntity
  8
0
 62
256
370
-1
 48
1.0
  6
BYLAYER
100
AcDbBlockReference
  2
tab
 10
-1287.9499999999998181
 20
500.3000000000004093
 30
0.0
 41
1.0
 42
-1.0
 43
1.0
 50
360.0
  0
INSERT
  5
128
100
AcDbEntity
  8
0
 62
256
370
-1
 48
1.0
  6
BYLAYER
100
AcDbBlockReference
  2
tab
 10
-156.5
 20
203.0000000000001421
 30
0.0
 41
1.0
 42
-1.0
 43
1.0
 50
360.0
  0
INSERT
  5
129
100
AcDbEntity
  8
0
 62
256
370
-1
 48
1.0
  6
BYLAYER
100
AcDbBlockReference
  2
tab
 10
-43.5
 20
-562.9999999999998863
 30
0.0
 50
180.0
  0
INSERT
  5
12A
100
AcDbEntity
  8
0
 62
256
370
-1
 48
1.0
  6
BYLAYER
100
AcDbBlockReference
  2
tab
 10
-993.9499999999998181
 20
440.3000000000001819
 30
0.0
 41
1.0
 42
-1.0
 43
1.0
 50
180.0
  0
INSERT
  5
12B
100
AcDbEntity
  8
0
 62
256
370
-1
 48
1.0
  6
BYLAYER
100
AcDbBlockReference
  2
tab
 10
-43.5
 20
143.0000000000000853
 30
0.0
 41
1.0
 42
-1.0
 43
1.0
 50
180.0
  0
INSERT
  5
12C
100
AcDbEntity
  8
0
 62
256
370
-1
 48
1.0
  6
BYLAYER
100
AcDbBlockReference
  2
tab
 10
-156.5
 20
-623.0
 30
0.0
  0
LINE
  5
12D
100
AcDbEntity
  8
0
 62
256
370
-1
 48
1.0
  6
BYLAYER
100
AcDbLine
 10
-1291.0499999999999545
 20
546.3000000000002956
 30
0.0
 11
-990.8499999999999091
 21
546.3000000000002956
 31
0.0
  0
LINE
  5
12E
100
AcDbEntity
  8
0
 62
256
370
-1
 48
1.0
  6
BYLAYER
100
AcDbLine
 10
-1291.0499999999999545
 20
414.3000000000002956
 30
0.0
 11
-990.8499999999999091
 21
414.3000000000002956
 31
0.0
  0
INSERT
  5
12F
100
AcDbEntity
  8
0
 62
256
370
-1
 48
1.0
  6
BYLAYER
100
AcDbBlockReference
  2
tab-hole
 10
-768.9499999999998181
 20
104.3000000000002672
 30
0.0
  0
INSERT
  5
130
100
AcDbEntity
  8
0
 62
256
370
-1
 48
1.0
  6
BYLAYER
100
AcDbBlockReference
  2
tab-hole
 10
-744.9499999999998181
 20
86.8000000000002672
 30
0.0
 50
90.0
  0
INSERT
  5
131
100
AcDbEntity
  8
0
 62
256
370
-1
 48
1.0
  6
BYLAYER
100
AcDbBlockReference
  2
tab-hole
 10
-724.9499999999998181
 20
86.8000000000002672
 30
0.0
 50
90.0
  0
INSERT
  5
132
100
AcDbEntity
  8
0
 62
256
370
-1
 48
1.0
  6
BYLAYER
100
AcDbBlockReference
  2
tab-hole
 10
-744.9499999999998181
 20
12.0500000000002672
 30
0.0
 50
90.0
  0
INSERT
  5
133
100
AcDbEntity
  8
0
 62
256
370
-1
 48
1.0
  6
BYLAYER
100
AcDbBlockReference
  2
tab-hole
 10
-724.9499999999998181
 20
12.0500000000002672
 30
0.0
 50
90.0
  0
INSERT
  5
134
100
AcDbEntity
  8
0
 62
256
370
-1
 48
1.0
  6
BYLAYER
100
AcDbBlockReference
  2
tab-hole
 10
-744.9499999999998181
 20
141.8000000000002672
 30
0.0
 50
270.0
  0
INSERT
  5
135
100
AcDbEntity
  8
0
 62
256
370
-1
 48
1.0
  6
BYLAYER
100
AcDbBlockReference
  2
tab-hole
 10
-724.9499999999998181
 20
141.8000000000002672
 30
0.0
 50
270.0
  0
INSERT
  5
136
100
AcDbEntity
  8
0
 62
256
370
-1
 48
1.0
  6
BYLAYER
100
AcDbBlockReference
  2
tab-hole
 10
-744.9499999999998181
 20
216.5500000000002672
 30
0.0
 50
270.0
  0
INSERT
  5
137
100
AcDbEntity
  8
0
 62
256
370
-1
 48
1.0
  6
BYLAYER
100
AcDbBlockReference
  2
tab-hole
 10
-724.9499999999998181
 20
216.5500000000002672
 30
0.0
 50
270.0
  0
INSERT
  5
138
100
AcDbEntity
  8
0
 62
256
370
-1
 48
1.0
  6
BYLAYER
100
AcDbBlockReference
  2
tab
 10
-993.9499999999998181
 20
-311.6999999999997044
 30
0.0
 50
180.0
  0
INSERT
  5
139
100
AcDbEntity
  8
0
 62
256
370
-1
 48
1.0
  6
BYLAYER
100
AcDbBlockReference
  2
tab
 10
-993.9499999999998181
 20
-331.6999999999997044
 30
0.0
 50
180.0
  0
INSERT
  5
13A
100
AcDbEntity
  8
0
 62
256
370
-1
 48
1.0
  6
BYLAYER
100
AcDbBlockReference
  2
tab
 10
-993.9499999999998181
 20
-182.6999999999997328
 30
0.0
 50
180.0
  0
INSERT
  5
13B
100
AcDbEntity
  8
0
 62
256
370
-1
 48
1.0
  6
BYLAYER
100
AcDbBlockReference
  2
tab
 10
-1287.9499999999998181
 20
-311.6999999999997044
 30
0.0
  0
INSERT
  5
13C
100
AcDbEntity
  8
0
 62
256
370
-1
 48
1.0
  6
BYLAYER
100
AcDbBlockReference
  2
tab
 10
-1287.9499999999995907
 20
-162.6999999999997328
 30
0.0
  0
INSERT
  5
13D
100
AcDbEntity
  8
0
 62
256
370
-1
 48
1.0
  6
BYLAYER
100
AcDbBlockReference
  2
tab
 10
-1287.9499999999998181
 20
-331.6999999999997044
 30
0.0
  0
INSERT
  5
13E
100
AcDbEntity
  8
0
 62
256
370
-1
 48
1.0
  6
BYLAYER
100
AcDbBlockReference
  2
tab
 10
-1287.9499999999995907
 20
-182.6999999999997328
 30
0.0
  0
INSERT
  5
13F
100
AcDbEntity
  8
0
 62
256
370
-1
 48
1.0
  6
BYLAYER
100
AcDbBlockReference
  2
tab
 10
-1270.9499999999998181
 20
-287.6999999999997044
 30
0.0
 50
270.0
  0
INSERT
  5
140
100
AcDbEntity
  8
0
 62
256
370
-1
 48
1.0
  6
BYLAYER
100
AcDbBlockReference
  2
tab
 10
-1250.9499999999998181
 20
-287.6999999999997044
 30
0.0
 50
270.0
  0
INSERT
  5
141
100
AcDbEntity
  8
0
 62
256
370
-1
 48
1.0
  6
BYLAYER
100
AcDbBlockReference
  2
tab
 10
-1230.9499999999998181
 20
-287.6999999999997044
 30
0.0
 50
270.0
  0
INSERT
  5
142
100
AcDbEntity
  8
0
 62
256
370
-1
 48
1.0
  6
BYLAYER
100
AcDbBlockReference
  2
tab
 10
-1210.9499999999998181
 20
-287.6999999999997044
 30
0.0
 50
270.0
  0
INSERT
  5
143
100
AcDbEntity
  8
0
 62
256
370
-1
 48
1.0
  6
BYLAYER
100
AcDbBlockReference
  2
tab
 10
-1190.9499999999998181
 20
-287.6999999999997044
 30
0.0
 50
270.0
  0
INSERT
  5
144
100
AcDbEntity
  8
0
 62
256
370
-1
 48
1.0
  6
BYLAYER
100
AcDbBlockReference
  2
tab
 10
-1170.9499999999998181
 20
-287.6999999999997044
 30
0.0
 50
270.0
  0
INSERT
  5
145
100
AcDbEntity
  8
0
 62
256
370
-1
 48
1.0
  6
BYLAYER
100
AcDbBlockReference
  2
tab
 10
-1150.9499999999998181
 20
-287.6999999999997044
 30
0.0
 50
270.0
  0
INSERT
  5
146
100
AcDbEntity
  8
0
 62
256
370
-1
 48
1.0
  6
BYLAYER
100
AcDbBlockReference
  2
tab
 10
-1130.9499999999998181
 20
-287.6999999999997044
 30
0.0
 50
270.0
  0
INSERT
  5
147
100
AcDbEntity
  8
0
 62
256
370
-1
 48
1.0
  6
BYLAYER
100
AcDbBlockReference
  2
tab
 10
-1110.9499999999998181
 20
-287.6999999999997044
 30
0.0
 50
270.0
  0
INSERT
  5
148
100
AcDbEntity
  8
0
 62
256
370
-1
 48
1.0
  6
BYLAYER
100
AcDbBlockReference
  2
tab
 10
-1090.9499999999998181
 20
-287.6999999999997044
 30
0.0
 50
270.0
  0
INSERT
  5
149
100
AcDbEntity
  8
0
 62
256
370
-1
 48
1.0
  6
BYLAYER
100
AcDbBlockReference
  2
tab
 10
-1070.9499999999998181
 20
-287.6999999999997044
 30
0.0
 50
270.0
  0
INSERT
  5
14A
100
AcDbEntity
  8
0
 62
256
370
-1
 48
1.0
  6
BYLAYER
100
AcDbBlockReference
  2
tab
 10
-1050.9499999999998181
 20
-287.6999999999997044
 30
0.0
 50
270.0
  0
INSERT
  5
14B
100
AcDbEntity
  8
0
 62
256
370
-1
 48
1.0
  6
BYLAYER
100
AcDbBlockReference
  2
tab
 10
-1030.9499999999998181
 20
-287.6999999999997044
 30
0.0
 50
270.0
  0
INSERT
  5
14C
100
AcDbEntity
  8
0
 62
256
370
-1
 48
1.0
  6
BYLAYER
100
AcDbBlockReference
  2
tab
 10
-1010.9499999999998181
 20
-287.6999999999997044
 30
0.0
 50
270.0
  0
LINE
  5
14D
100
AcDbEntity
  8
0
 62
256
370
-1
 48
1.0
  6
BYLAYER
100
AcDbLine
 10
-1287.9499999999995907
 20
-306.5999999999996817
 30
0.0
 11
-1287.9499999999998181
 21
-287.6999999999997044
 31
0.0
  0
LINE
  5
14E
100
AcDbEntity
  8
0
 62
256
370
-1
 48
1.0
  6
BYLAYER
100
AcDbLine
 10
-1287.9499999999998181
 20
-287.6999999999997044
 30
0.0
 11
-1276.0499999999997272
 21
-287.6999999999997044
 31
0.0
  0
LINE
  5
14F
100
AcDbEntity
  8
0
 62
256
370
-1
 48
1.0
  6
BYLAYER
100
AcDbLine
 10
-1265.8499999999999091
 20
-287.6999999999997044
 30
0.0
 11
-1256.0499999999997272
 21
-287.6999999999997044
 31
0.0
  0
LINE
  5
150
100
AcDbEntity
  8
0
 62
256
370
-1
 48
1.0
  6
BYLAYER
100
AcDbLine
 10
-1245.8499999999999091
 20
-287.6999999999997044
 30
0.0
 11
-1236.0499999999999545
 21
-287.6999999999997044
 31
0.0
  0
LINE
  5
151
100
AcDbEntity
  8
0
 62
256
370
-1
 48
1.0
  6
BYLAYER
100
AcDbLine
 10
-1225.8499999999999091
 20
-287.6999999999997044
 30
0.0
 11
-1216.0499999999997272
 21
-287.6999999999997044
 31
0.0
  0
LINE
  5
152
100
AcDbEntity
  8
0
 62
256
370
-1
 48
1.0
  6
BYLAYER
100
AcDbLine
 10
-1205.8499999999996817
 20
-287.6999999999997044
 30
0.0
 11
-1196.0499999999997272
 21
-287.6999999999997044
 31
0.0
  0
LINE
  5
153
100
AcDbEntity
  8
0
 62
256
370
-1
 48
1.0
  6
BYLAYER
100
AcDbLine
 10
-1185.8499999999999091
 20
-287.6999999999997044
 30
0.0
 11
-1176.0499999999994998
 21
-287.6999999999997044
 31
0.0
  0
LINE
  5
154
100
AcDbEntity
  8
0
 62
256
370
-1
 48
1.0
  6
BYLAYER
100
AcDbLine
 10
-1165.8499999999996817
 20
-287.6999999999997044
 30
0.0
 11
-1156.0499999999997272
 21
-287.6999999999997044
 31
0.0
  0
LINE
  5
155
100
AcDbEntity
  8
0
 62
256
370
-1
 48
1.0
  6
BYLAYER
100
AcDbLine
 10
-1145.8499999999999091
 20
-287.6999999999997044
 30
0.0
 11
-1136.0499999999994998
 21
-287.6999999999997044
 31
0.0
  0
LINE
  5
156
100
AcDbEntity
  8
0
 62
256
370
-1
 48
1.0
  6
BYLAYER
100
AcDbLine
 10
-1125.8499999999996817
 20
-287.6999999999997044
 30
0.0
 11
-1116.0499999999997272
 21
-287.6999999999997044
 31
0.0
  0
LINE
  5
157
100
AcDbEntity
  8
0
 62
256
370
-1
 48
1.0
  6
BYLAYER
100
AcDbLine
 10
-1105.8499999999999091
 20
-287.6999999999997044
 30
0.0
 11
-1096.0499999999994998
 21
-287.6999999999997044
 31
0.0
  0
LINE
  5
158
100
AcDbEntity
  8
0
 62
256
370
-1
 48
1.0
  6
BYLAYER
100
AcDbLine
 10
-1085.8499999999999091
 20
-287.6999999999997044
 30
0.0
 11
-1076.0499999999997272
 21
-287.6999999999997044
 31
0.0
  0
LINE
  5
159
100
AcDbEntity
  8
0
 62
256
370
-1
 48
1.0
  6
BYLAYER
100
AcDbLine
 10
-1065.8499999999999091
 20
-287.6999999999997044
 30
0.0
 11
-1056.0499999999997272
 21
-287.6999999999997044
 31
0.0
  0
LINE
  5
15A
100
AcDbEntity
  8
0
 62
256
370
-1
 48
1.0
  6
BYLAYER
100
AcDbLine
 10
-1045.8499999999999091
 20
-287.6999999999997044
 30
0.0
 11
-1036.0499999999997272
 21
-287.6999999999997044
 31
0.0
  0
LINE
  5
15B
100
AcDbEntity
  8
0
 62
256
370
-1
 48
1.0
  6
BYLAYER
100
AcDbLine
 10
-1025.8499999999994543
 20
-287.6999999999997044
 30
0.0
 11
-1016.0499999999997272
 21
-287.6999999999997044
 31
0.0
  0
LINE
  5
15C
100
AcDbEntity
  8
0
 62
256
370
-1
 48
1.0
  6
BYLAYER
100
AcDbLine
 10
-1005.8499999999994543
 20
-287.6999999999997044
 30
0.0
 11
-993.9499999999998181
 21
-287.6999999999997044
 31
0.0
  0
LINE
  5
15D
100
AcDbEntity
  8
0
 62
256
370
-1
 48
1.0
  6
BYLAYER
100
AcDbLine
 10
-993.9499999999998181
 20
-287.6999999999997044
 30
0.0
 11
-993.9499999999998181
 21
-306.5999999999996817
 31
0.0
  0
LINE
  5
15E
100
AcDbEntity
  8
0
 62
256
370
-1
 48
1.0
  6
BYLAYER
100
AcDbLine
 10
-993.9499999999998181
 20
-316.7999999999998408
 30
0.0
 11
-993.9499999999998181
 21
-326.5999999999996817
 31
0.0
  0
LINE
  5
15F
100
AcDbEntity
  8
0
 62
256
370
-1
 48
1.0
  6
BYLAYER
100
AcDbLine
 10
-993.9499999999998181
 20
-167.7999999999998124
 30
0.0
 11
-993.9499999999998181
 21
-177.5999999999997101
 31
0.0
  0
LINE
  5
160
100
AcDbEntity
  8
0
 62
256
370
-1
 48
1.0
  6
BYLAYER
100
AcDbLine
 10
-993.9499999999998181
 20
-336.7999999999998408
 30
0.0
 11
-993.9499999999998181
 21
-347.6999999999997044
 31
0.0
  0
LINE
  5
161
100
AcDbEntity
  8
0
 62
256
370
-1
 48
1.0
  6
BYLAYER
100
AcDbLine
 10
-993.9499999999998181
 20
-187.7999999999998124
 30
0.0
 11
-993.9499999999998181
 21
-198.6999999999997328
 31
0.0
  0
LINE
  5
162
100
AcDbEntity
  8
0
 62
256
370
-1
 48
1.0
  6
BYLAYER
100
AcDbLine
 10
-993.9499999999998181
 20
-347.6999999999997044
 30
0.0
 11
-1287.9499999999998181
 21
-347.6999999999997044
 31
0.0
  0
LINE
  5
163
100
AcDbEntity
  8
0
 62
256
370
-1
 48
1.0
  6
BYLAYER
100
AcDbLine
 10
-993.9499999999998181
 20
-198.6999999999997328
 30
0.0
 11
-1287.9499999999995907
 21
-198.6999999999997328
 31
0.0
  0
LINE
  5
164
100
AcDbEntity
  8
0
 62
256
370
-1
 48
1.0
  6
BYLAYER
100
AcDbLine
 10
-1287.9499999999998181
 20
-347.6999999999997044
 30
0.0
 11
-1287.9499999999995907
 21
-336.7999999999998408
 31
0.0
  0
LINE
  5
165
100
AcDbEntity
  8
0
 62
256
370
-1
 48
1.0
  6
BYLAYER
100
AcDbLine
 10
-1287.9499999999995907
 20
-198.6999999999997328
 30
0.0
 11
-1287.9499999999993634
 21
-187.7999999999998124
 31
0.0
  0
LINE
  5
166
100
AcDbEntity
  8
0
 62
256
370
-1
 48
1.0
  6
BYLAYER
100
AcDbLine
 10
-1287.9499999999995907
 20
-326.5999999999996817
 30
0.0
 11
-1287.9499999999995907
 21
-316.7999999999998408
 31
0.0
  0
LINE
  5
167
100
AcDbEntity
  8
0
 62
256
370
-1
 48
1.0
  6
BYLAYER
100
AcDbLine
 10
-1287.9499999999993634
 20
-177.5999999999996533
 30
0.0
 11
-1287.9499999999993634
 21
-167.7999999999998124
 31
0.0
  0
INSERT
  5
168
100
AcDbEntity
  8
0
 62
256
370
-1
 48
1.0
  6
BYLAYER
100
AcDbBlockReference
  2
tab
 10
-993.9499999999998181
 20
-162.6999999999997328
 30
0.0
 50
180.0
  0
LINE
  5
169
100
AcDbEntity
  8
0
 62
256
370
-1
 48
1.0
  6
BYLAYER
100
AcDbLine
 10
-1287.9499999999995907
 20
-157.5999999999997101
 30
0.0
 11
-1287.9499999999998181
 21
-135.6999999999997328
 31
0.0
  0
LINE
  5
16A
100
AcDbEntity
  8
0
 62
256
370
-1
 48
1.0
  6
BYLAYER
100
AcDbLine
 10
-1287.9499999999998181
 20
-135.6999999999997328
 30
0.0
 11
-993.9499999999998181
 21
-135.6999999999997328
 31
0.0
  0
LINE
  5
16B
100
AcDbEntity
  8
0
 62
256
370
-1
 48
1.0
  6
BYLAYER
100
AcDbLine
 10
-993.9499999999998181
 20
-135.6999999999997328
 30
0.0
 11
-993.9499999999998181
 21
-157.5999999999997101
 31
0.0
  0
INSERT
  5
16C
100
AcDbEntity
  8
0
 62
256
370
-1
 48
1.0
  6
BYLAYER
100
AcDbBlockReference
  2
tab
 10
-1260.9499999999998181
 20
-488.1999999999997044
 30
0.0
 50
270.0
  0
INSERT
  5
16D
100
AcDbEntity
  8
0
 62
256
370
-1
 48
1.0
  6
BYLAYER
100
AcDbBlockReference
  2
tab
 10
-1240.9499999999998181
 20
-488.1999999999997044
 30
0.0
 50
270.0
  0
INSERT
  5
16E
100
AcDbEntity
  8
0
 62
256
370
-1
 48
1.0
  6
BYLAYER
100
AcDbBlockReference
  2
tab
 10
-1040.9499999999998181
 20
-543.1999999999998181
 30
0.0
 50
450.0
  0
INSERT
  5
16F
100
AcDbEntity
  8
0
 62
256
370
-1
 48
1.0
  6
BYLAYER
100
AcDbBlockReference
  2
tab
 10
-1220.9499999999998181
 20
-488.1999999999997044
 30
0.0
 50
270.0
  0
INSERT
  5
170
100
AcDbEntity
  8
0
 62
256
370
-1
 48
1.0
  6
BYLAYER
100
AcDbBlockReference
  2
tab
 10
-1060.9499999999998181
 20
-543.1999999999998181
 30
0.0
 50
450.0
  0
INSERT
  5
171
100
AcDbEntity
  8
0
 62
256
370
-1
 48
1.0
  6
BYLAYER
100
AcDbBlockReference
  2
tab
 10
-1200.9499999999998181
 20
-488.1999999999997044
 30
0.0
 50
270.0
  0
INSERT
  5
172
100
AcDbEntity
  8
0
 62
256
370
-1
 48
1.0
  6
BYLAYER
100
AcDbBlockReference
  2
tab
 10
-1080.9499999999998181
 20
-543.1999999999997044
 30
0.0
 50
450.0
  0
INSERT
  5
173
100
AcDbEntity
  8
0
 62
256
370
-1
 48
1.0
  6
BYLAYER
100
AcDbBlockReference
  2
tab
 10
-1180.9499999999998181
 20
-488.1999999999997044
 30
0.0
 50
270.0
  0
INSERT
  5
174
100
AcDbEntity
  8
0
 62
256
370
-1
 48
1.0
  6
BYLAYER
100
AcDbBlockReference
  2
tab
 10
-1100.9499999999998181
 20
-543.1999999999995907
 30
0.0
 50
450.0
  0
INSERT
  5
175
100
AcDbEntity
  8
0
 62
256
370
-1
 48
1.0
  6
BYLAYER
100
AcDbBlockReference
  2
tab
 10
-1160.9499999999998181
 20
-488.1999999999997044
 30
0.0
 50
270.0
  0
INSERT
  5
176
100
AcDbEntity
  8
0
 62
256
370
-1
 48
1.0
  6
BYLAYER
100
AcDbBlockReference
  2
tab
 10
-1120.9499999999998181
 20
-543.199999999999477
 30
0.0
 50
450.0
  0
INSERT
  5
177
100
AcDbEntity
  8
0
 62
256
370
-1
 48
1.0
  6
BYLAYER
100
AcDbBlockReference
  2
tab
 10
-1140.9499999999998181
 20
-488.1999999999997044
 30
0.0
 50
270.0
  0
INSERT
  5
178
100
AcDbEntity
  8
0
 62
256
370
-1
 48
1.0
  6
BYLAYER
100
AcDbBlockReference
  2
tab
 10
-1140.9499999999998181
 20
-543.199999999999477
 30
0.0
 50
450.0
  0
INSERT
  5
179
100
AcDbEntity
  8
0
 62
256
370
-1
 48
1.0
  6
BYLAYER
100
AcDbBlockReference
  2
tab
 10
-1120.9499999999998181
 20
-488.1999999999997044
 30
0.0
 50
270.0
  0
INSERT
  5
17A
100
AcDbEntity
  8
0
 62
256
370
-1
 48
1.0
  6
BYLAYER
100
AcDbBlockReference
  2
tab
 10
-1160.9499999999998181
 20
-543.199999999999477
 30
0.0
 50
450.0
  0
INSERT
  5
17B
100
AcDbEntity
  8
0
 62
256
370
-1
 48
1.0
  6
BYLAYER
100
AcDbBlockReference
  2
tab
 10
-1100.9499999999998181
 20
-488.1999999999997044
 30
0.0
 50
270.0
  0
INSERT
  5
17C
100
AcDbEntity
  8
0
 62
256
370
-1
 48
1.0
  6
BYLAYER
100
AcDbBlockReference
  2
tab
 10
-1180.9499999999998181
 20
-543.199999999999477
 30
0.0
 50
450.0
  0
INSERT
  5
17D
100
AcDbEntity
  8
0
 62
256
370
-1
 48
1.0
  6
BYLAYER
100
AcDbBlockReference
  2
tab
 10
-1080.9499999999998181
 20
-488.1999999999997044
 30
0.0
 50
270.0
  0
INSERT
  5
17E
100
AcDbEntity
  8
0
 62
256
370
-1
 48
1.0
  6
BYLAYER
100
AcDbBlockReference
  2
tab
 10
-1200.9499999999998181
 20
-543.1999999999995907
 30
0.0
 50
450.0
  0
INSERT
  5
17F
100
AcDbEntity
  8
0
 62
256
370
-1
 48
1.0
  6
BYLAYER
100
AcDbBlockReference
  2
tab
 10
-1060.9499999999998181
 20
-488.1999999999997044
 30
0.0
 50
270.0
  0
INSERT
  5
180
100
AcDbEntity
  8
0
 62
256
370
-1
 48
1.0
  6
BYLAYER
100
AcDbBlockReference
  2
tab
 10
-1220.9499999999998181
 20
-543.1999999999998181
 30
0.0
 50
450.0
  0
INSERT
  5
181
100
AcDbEntity
  8
0
 62
256
370
-1
 48
1.0
  6
BYLAYER
100
AcDbBlockReference
  2
tab
 10
-1040.9499999999998181
 20
-488.1999999999997044
 30
0.0
 50
270.0
  0
INSERT
  5
182
100
AcDbEntity
  8
0
 62
256
370
-1
 48
1.0
  6
BYLAYER
100
AcDbBlockReference
  2
tab
 10
-1240.9499999999998181
 20
-543.1999999999995907
 30
0.0
 50
450.0
  0
INSERT
  5
183
100
AcDbEntity
  8
0
 62
256
370
-1
 48
1.0
  6
BYLAYER
100
AcDbBlockReference
  2
tab
 10
-1020.9499999999998181
 20
-488.1999999999997044
 30
0.0
 50
270.0
  0
INSERT
  5
184
100
AcDbEntity
  8
0
 62
256
370
-1
 48
1.0
  6
BYLAYER
100
AcDbBlockReference
  2
tab
 10
-1260.9499999999998181
 20
-543.2000000000001592
 30
0.0
 50
450.0
  0
LINE
  5
185
100
AcDbEntity
  8
0
 62
256
370
-1
 48
1.0
  6
BYLAYER
100
AcDbLine
 10
-1006.0499999999997272
 20
-488.1999999999997044
 30
0.0
 11
-1006.0499999999997272
 21
-485.0999999999997954
 31
0.0
  0
LINE
  5
186
100
AcDbEntity
  8
0
 62
256
370
-1
 48
1.0
  6
BYLAYER
100
AcDbLine
 10
-1275.8499999999999091
 20
-543.1999999999992497
 30
0.0
 11
-1275.8499999999999091
 21
-546.2999999999996135
 31
0.0
  0
LINE
  5
187
100
AcDbEntity
  8
0
 62
256
370
-1
 48
1.0
  6
BYLAYER
100
AcDbLine
 10
-1275.8499999999999091
 20
-488.1999999999997044
 30
0.0
 11
-1275.8499999999996817
 21
-485.0999999999997954
 31
0.0
  0
LINE
  5
188
100
AcDbEntity
  8
0
 62
256
370
-1
 48
1.0
  6
BYLAYER
100
AcDbLine
 10
-1006.0499999999997272
 20
-543.1999999999992497
 30
0.0
 11
-1006.0500000000001819
 21
-546.2999999999996135
 31
0.0
  0
LINE
  5
189
100
AcDbEntity
  8
0
 62
256
370
-1
 48
1.0
  6
BYLAYER
100
AcDbLine
 10
-1275.8499999999999091
 20
-488.1999999999997044
 30
0.0
 11
-1266.0499999999994998
 21
-488.1999999999998181
 31
0.0
  0
LINE
  5
18A
100
AcDbEntity
  8
0
 62
256
370
-1
 48
1.0
  6
BYLAYER
100
AcDbLine
 10
-1006.0499999999997272
 20
-543.1999999999992497
 30
0.0
 11
-1015.8500000000003638
 21
-543.1999999999998181
 31
0.0
  0
LINE
  5
18B
100
AcDbEntity
  8
0
 62
256
370
-1
 48
1.0
  6
BYLAYER
100
AcDbLine
 10
-1255.8499999999999091
 20
-488.1999999999998181
 30
0.0
 11
-1246.0499999999997272
 21
-488.1999999999997044
 31
0.0
  0
LINE
  5
18C
100
AcDbEntity
  8
0
 62
256
370
-1
 48
1.0
  6
BYLAYER
100
AcDbLine
 10
-1026.0499999999997272
 20
-543.199999999999477
 30
0.0
 11
-1035.8499999999999091
 21
-543.1999999999997044
 31
0.0
  0
LINE
  5
18D
100
AcDbEntity
  8
0
 62
256
370
-1
 48
1.0
  6
BYLAYER
100
AcDbLine
 10
-1235.8499999999996817
 20
-488.1999999999998181
 30
0.0
 11
-1226.0499999999994998
 21
-488.1999999999997044
 31
0.0
  0
LINE
  5
18E
100
AcDbEntity
  8
0
 62
256
370
-1
 48
1.0
  6
BYLAYER
100
AcDbLine
 10
-1046.0500000000001819
 20
-543.1999999999989086
 30
0.0
 11
-1055.8500000000003638
 21
-543.1999999999992497
 31
0.0
  0
LINE
  5
18F
100
AcDbEntity
  8
0
 62
256
370
-1
 48
1.0
  6
BYLAYER
100
AcDbLine
 10
-1215.8499999999999091
 20
-488.1999999999998181
 30
0.0
 11
-1206.0499999999997272
 21
-488.1999999999998181
 31
0.0
  0
LINE
  5
190
100
AcDbEntity
  8
0
 62
256
370
-1
 48
1.0
  6
BYLAYER
100
AcDbLine
 10
-1066.0499999999997272
 20
-543.1999999999992497
 30
0.0
 11
-1075.8499999999999091
 21
-543.1999999999998181
 31
0.0
  0
LINE
  5
191
100
AcDbEntity
  8
0
 62
256
370
-1
 48
1.0
  6
BYLAYER
100
AcDbLine
 10
-1195.8499999999999091
 20
-488.1999999999998181
 30
0.0
 11
-1186.0499999999997272
 21
-488.1999999999998181
 31
0.0
  0
LINE
  5
192
100
AcDbEntity
  8
0
 62
256
370
-1
 48
1.0
  6
BYLAYER
100
AcDbLine
 10
-1086.0499999999997272
 20
-543.1999999999993634
 30
0.0
 11
-1095.8499999999999091
 21
-543.1999999999993634
 31
0.0
  0
LINE
  5
193
100
AcDbEntity
  8
0
 62
256
370
-1
 48
1.0
  6
BYLAYER
100
AcDbLine
 10
-1175.8499999999999091
 20
-488.1999999999998181
 30
0.0
 11
-1166.0499999999997272
 21
-488.1999999999998181
 31
0.0
  0
LINE
  5
194
100
AcDbEntity
  8
0
 62
256
370
-1
 48
1.0
  6
BYLAYER
100
AcDbLine
 10
-1106.0499999999997272
 20
-543.1999999999993634
 30
0.0
 11
-1115.8499999999999091
 21
-543.1999999999993634
 31
0.0
  0
LINE
  5
195
100
AcDbEntity
  8
0
 62
256
370
-1
 48
1.0
  6
BYLAYER
100
AcDbLine
 10
-1155.8499999999999091
 20
-488.1999999999998181
 30
0.0
 11
-1146.0499999999994998
 21
-488.1999999999998181
 31
0.0
  0
LINE
  5
196
100
AcDbEntity
  8
0
 62
256
370
-1
 48
1.0
  6
BYLAYER
100
AcDbLine
 10
-1126.0499999999997272
 20
-543.1999999999993634
 30
0.0
 11
-1135.8500000000001364
 21
-543.1999999999993634
 31
0.0
  0
LINE
  5
197
100
AcDbEntity
  8
0
 62
256
370
-1
 48
1.0
  6
BYLAYER
100
AcDbLine
 10
-1135.8499999999999091
 20
-488.1999999999997044
 30
0.0
 11
-1126.0499999999997272
 21
-488.1999999999998181
 31
0.0
  0
LINE
  5
198
100
AcDbEntity
  8
0
 62
256
370
-1
 48
1.0
  6
BYLAYER
100
AcDbLine
 10
-1146.0499999999997272
 20
-543.199999999999477
 30
0.0
 11
-1155.8499999999999091
 21
-543.1999999999993634
 31
0.0
  0
LINE
  5
199
100
AcDbEntity
  8
0
 62
256
370
-1
 48
1.0
  6
BYLAYER
100
AcDbLine
 10
-1115.8499999999996817
 20
-488.1999999999998181
 30
0.0
 11
-1106.0499999999994998
 21
-488.1999999999998181
 31
0.0
  0
LINE
  5
19A
100
AcDbEntity
  8
0
 62
256
370
-1
 48
1.0
  6
BYLAYER
100
AcDbLine
 10
-1166.0499999999999545
 20
-543.1999999999993634
 30
0.0
 11
-1175.8500000000001364
 21
-543.1999999999993634
 31
0.0
  0
LINE
  5
19B
100
AcDbEntity
  8
0
 62
256
370
-1
 48
1.0
  6
BYLAYER
100
AcDbLine
 10
-1095.8500000000001364
 20
-488.1999999999997044
 30
0.0
 11
-1086.0499999999997272
 21
-488.1999999999998181
 31
0.0
  0
LINE
  5
19C
100
AcDbEntity
  8
0
 62
256
370
-1
 48
1.0
  6
BYLAYER
100
AcDbLine
 10
-1186.0499999999994998
 20
-543.1999999999993634
 30
0.0
 11
-1195.8499999999999091
 21
-543.1999999999992497
 31
0.0
  0
LINE
  5
19D
100
AcDbEntity
  8
0
 62
256
370
-1
 48
1.0
  6
BYLAYER
100
AcDbLine
 10
-1075.8499999999999091
 20
-488.1999999999998181
 30
0.0
 11
-1066.0499999999992724
 21
-488.1999999999998181
 31
0.0
  0
LINE
  5
19E
100
AcDbEntity
  8
0
 62
256
370
-1
 48
1.0
  6
BYLAYER
100
AcDbLine
 10
-1206.0499999999997272
 20
-543.1999999999997044
 30
0.0
 11
-1215.8500000000003638
 21
-543.199999999999136
 31
0.0
  0
LINE
  5
19F
100
AcDbEntity
  8
0
 62
256
370
-1
 48
1.0
  6
BYLAYER
100
AcDbLine
 10
-1055.8499999999999091
 20
-488.1999999999997044
 30
0.0
 11
-1046.0499999999997272
 21
-488.1999999999998181
 31
0.0
  0
LINE
  5
1A0
100
AcDbEntity
  8
0
 62
256
370
-1
 48
1.0
  6
BYLAYER
100
AcDbLine
 10
-1226.0499999999997272
 20
-543.1999999999992497
 30
0.0
 11
-1235.8499999999999091
 21
-543.199999999999477
 31
0.0
  0
LINE
  5
1A1
100
AcDbEntity
  8
0
 62
256
370
-1
 48
1.0
  6
BYLAYER
100
AcDbLine
 10
-1035.8499999999994543
 20
-488.1999999999998181
 30
0.0
 11
-1026.0499999999992724
 21
-488.1999999999998181
 31
0.0
  0
LINE
  5
1A2
100
AcDbEntity
  8
0
 62
256
370
-1
 48
1.0
  6
BYLAYER
100
AcDbLine
 10
-1246.0500000000001819
 20
-543.1999999999997044
 30
0.0
 11
-1255.8500000000003638
 21
-543.1999999999985675
 31
0.0
  0
LINE
  5
1A3
100
AcDbEntity
  8
0
 62
256
370
-1
 48
1.0
  6
BYLAYER
100
AcDbLine
 10
-1015.8499999999999091
 20
-488.1999999999998181
 30
0.0
 11
-1006.0499999999997272
 21
-488.1999999999997044
 31
0.0
  0
LINE
  5
1A4
100
AcDbEntity
  8
0
 62
256
370
-1
 48
1.0
  6
BYLAYER
100
AcDbLine
 10
-1266.0499999999997272
 20
-543.1999999999995907
 30
0.0
 11
-1275.8499999999999091
 21
-543.1999999999992497
 31
0.0
  0
INSERT
  5
1A5
100
AcDbEntity
  8
0
 62
256
370
-1
 48
1.0
  6
BYLAYER
100
AcDbBlockReference
  2
tab
 10
-1020.9499999999998181
 20
-543.2000000000002728
 30
0.0
 50
450.0
  0
INSERT
  5
1A6
100
AcDbEntity
  8
0
 62
256
370
-1
 48
1.0
  6
BYLAYER
100
AcDbBlockReference
  2
tab
 10
-993.9499999999998181
 20
-505.6999999999997044
 30
0.0
 50
180.0
  0
INSERT
  5
1A7
100
AcDbEntity
  8
0
 62
256
370
-1
 48
1.0
  6
BYLAYER
100
AcDbBlockReference
  2
tab
 10
-993.9499999999998181
 20
-525.6999999999997044
 30
0.0
 50
180.0
  0
INSERT
  5
1A8
100
AcDbEntity
  8
0
 62
256
370
-1
 48
1.0
  6
BYLAYER
100
AcDbBlockReference
  2
tab
 10
-1287.9499999999998181
 20
-505.6999999999997044
 30
0.0
  0
INSERT
  5
1A9
100
AcDbEntity
  8
0
 62
256
370
-1
 48
1.0
  6
BYLAYER
100
AcDbBlockReference
  2
tab
 10
-1287.9499999999998181
 20
-525.6999999999997044
 30
0.0
  0
LINE
  5
1AA
100
AcDbEntity
  8
0
 62
256
370
-1
 48
1.0
  6
BYLAYER
100
AcDbLine
 10
-1287.9499999999998181
 20
-530.7999999999997272
 30
0.0
 11
-1287.9499999999998181
 21
-546.3000000000001819
 31
0.0
  0
LINE
  5
1AB
100
AcDbEntity
  8
0
 62
256
370
-1
 48
1.0
  6
BYLAYER
100
AcDbLine
 10
-1287.9499999999998181
 20
-546.3000000000001819
 30
0.0
 11
-1275.8499999999999091
 21
-546.2999999999996135
 31
0.0
  0
LINE
  5
1AC
100
AcDbEntity
  8
0
 62
256
370
-1
 48
1.0
  6
BYLAYER
100
AcDbLine
 10
-1287.9499999999995907
 20
-500.5999999999996817
 30
0.0
 11
-1287.9499999999998181
 21
-485.0999999999997954
 31
0.0
  0
LINE
  5
1AD
100
AcDbEntity
  8
0
 62
256
370
-1
 48
1.0
  6
BYLAYER
100
AcDbLine
 10
-1287.9499999999998181
 20
-485.0999999999997954
 30
0.0
 11
-1275.8499999999994543
 21
-485.0999999999997954
 31
0.0
  0
LINE
  5
1AE
100
AcDbEntity
  8
0
 62
256
370
-1
 48
1.0
  6
BYLAYER
100
AcDbLine
 10
-1287.9499999999995907
 20
-510.7999999999997272
 30
0.0
 11
-1287.9499999999995907
 21
-520.5999999999996817
 31
0.0
  0
LINE
  5
1AF
100
AcDbEntity
  8
0
 62
256
370
-1
 48
1.0
  6
BYLAYER
100
AcDbLine
 10
-993.9499999999998181
 20
-500.5999999999996817
 30
0.0
 11
-993.9499999999998181
 21
-485.0999999999997954
 31
0.0
  0
LINE
  5
1B0
100
AcDbEntity
  8
0
 62
256
370
-1
 48
1.0
  6
BYLAYER
100
AcDbLine
 10
-993.9499999999998181
 20
-485.0999999999997954
 30
0.0
 11
-1006.0499999999997272
 21
-485.0999999999997954
 31
0.0
  0
LINE
  5
1B1
100
AcDbEntity
  8
0
 62
256
370
-1
 48
1.0
  6
BYLAYER
100
AcDbLine
 10
-993.9499999999998181
 20
-530.7999999999997272
 30
0.0
 11
-993.9499999999998181
 21
-546.3000000000002956
 31
0.0
  0
LINE
  5
1B2
100
AcDbEntity
  8
0
 62
256
370
-1
 48
1.0
  6
BYLAYER
100
AcDbLine
 10
-993.9499999999998181
 20
-546.3000000000002956
 30
0.0
 11
-1006.0500000000001819
 21
-546.2999999999996135
 31
0.0
  0
LINE
  5
1B3
100
AcDbEntity
  8
0
 62
256
370
-1
 48
1.0
  6
BYLAYER
100
AcDbLine
 10
-993.9499999999998181
 20
-510.7999999999997272
 30
0.0
 11
-993.9499999999998181
 21
-520.5999999999996817
 31
0.0
  0
INSERT
  5
1B4
100
AcDbEntity
  8
0
 62
256
370
-1
 48
1.0
  6
BYLAYER
100
AcDbBlockReference
  2
tab
 10
56.0
 20
-6.0000000000000284
 30
0.0
 41
1.0
 42
-1.0
 43
1.0
 50
270.0
  0
INSERT
  5
1B5
100
AcDbEntity
  8
0
 62
256
370
-1
 48
1.0
  6
BYLAYER
100
AcDbBlockReference
  2
tab
 10
256.0
 20
-6.0000000000000284
 30
0.0
 41
1.0
 42
-1.0
 43
1.0
 50
270.0
  0
INSERT
  5
1B6
100
AcDbEntity
  8
0
 62
256
370
-1
 48
1.0
  6
BYLAYER
100
AcDbBlockReference
  2
tab
 10
-256.0
 20
-6.0
 30
0.0
 50
270.0
  0
INSERT
  5
1B7
100
AcDbEntity
  8
0
 62
256
370
-1
 48
1.0
  6
BYLAYER
100
AcDbBlockReference
  2
tab
 10
-156.5
 20
223.0000000000000284
 30
0.0
 41
1.0
 42
-1.0
 43
1.0
 50
360.0
  0
INSERT
  5
1B8
100
AcDbEntity
  8
0
 62
256
370
-1
 48
1.0
  6
BYLAYER
100
AcDbBlockReference
  2
tab
 10
-43.5
 20
-543.0
 30
0.0
 50
180.0
  0
INSERT
  5
1B9
100
AcDbEntity
  8
0
 62
256
370
-1
 48
1.0
  6
BYLAYER
100
AcDbBlockReference
  2
tab-hole-middle
 10
-145.0
 20
213.0000000000001421
 30
0.0
  0
INSERT
  5
1BA
100
AcDbEntity
  8
0
 62
256
370
-1
 48
1.0
  6
BYLAYER
100
AcDbBlockReference
  2
tab-hole-middle
 10
-145.0
 20
413.0
 30
0.0
  0
INSERT
  5
1BB
100
AcDbEntity
  8
0
 62
256
370
-1
 48
1.0
  6
BYLAYER
100
AcDbBlockReference
  2
tab-hole-middle
 10
-145.0
 20
192.9999999999999716
 30
0.0
  0
INSERT
  5
1BC
100
AcDbEntity
  8
0
 62
256
370
-1
 48
1.0
  6
BYLAYER
100
AcDbBlockReference
  2
tab-hole-middle
 10
-145.0
 20
393.0
 30
0.0
  0
INSERT
  5
1BD
100
AcDbEntity
  8
0
 62
256
370
-1
 48
1.0
  6
BYLAYER
100
AcDbBlockReference
  2
tab-hole-middle
 10
-145.0
 20
172.9999999999999716
 30
0.0
  0
INSERT
  5
1BE
100
AcDbEntity
  8
0
 62
256
370
-1
 48
1.0
  6
BYLAYER
100
AcDbBlockReference
  2
tab-hole-middle
 10
-145.0
 20
373.0
 30
0.0
  0
INSERT
  5
1BF
100
AcDbEntity
  8
0
 62
256
370
-1
 48
1.0
  6
BYLAYER
100
AcDbBlockReference
  2
tab-hole-middle
 10
-145.0
 20
153.0000000000000853
 30
0.0
  0
INSERT
  5
1C0
100
AcDbEntity
  8
0
 62
256
370
-1
 48
1.0
  6
BYLAYER
100
AcDbBlockReference
  2
tab-hole-middle
 10
-145.0
 20
353.0
 30
0.0
  0
INSERT
  5
1C1
100
AcDbEntity
  8
0
 62
256
370
-1
 48
1.0
  6
BYLAYER
100
AcDbBlockReference
  2
tab-hole-middle
 10
-145.0
 20
133.0000000000000853
 30
0.0
  0
INSERT
  5
1C2
100
AcDbEntity
  8
0
 62
256
370
-1
 48
1.0
  6
BYLAYER
100
AcDbBlockReference
  2
tab-hole-middle
 10
-145.0
 20
333.0
 30
0.0
  0
INSERT
  5
1C3
100
AcDbEntity
  8
0
 62
256
370
-1
 48
1.0
  6
BYLAYER
100
AcDbBlockReference
  2
tab-hole-middle
 10
-145.0
 20
433.0
 30
0.0
  0
LINE
  5
1C4
100
AcDbEntity
  8
0
 62
256
370
-1
 48
1.0
  6
BYLAYER
100
AcDbLine
 10
-159.6000000000003638
 20
249.0000000000000853
 30
0.0
 11
-40.3999999999996362
 21
249.0000000000000853
 31
0.0
  0
LINE
  5
1C5
100
AcDbEntity
  8
0
 62
256
370
-1
 48
1.0
  6
BYLAYER
100
AcDbLine
 10
-40.3999999999996362
 20
-517.0
 30
0.0
 11
-159.6000000000003638
 21
-517.0
 31
0.0
  0
LINE
  5
1C6
100
AcDbEntity
  8
0
 62
256
370
-1
 48
1.0
  6
BYLAYER
100
AcDbLine
 10
-159.6000000000003638
 20
117.0000000000000284
 30
0.0
 11
-40.3999999999991815
 21
117.0000000000000284
 31
0.0
  0
LINE
  5
1C7
100
AcDbEntity
  8
0
 62
256
370
-1
 48
1.0
  6
BYLAYER
100
AcDbLine
 10
-40.3999999999996362
 20
-649.0
 30
0.0
 11
-159.6000000000008185
 21
-649.0
 31
0.0
  0
INSERT
  5
1C8
100
AcDbEntity
  8
0
 62
256
370
-1
 48
1.0
  6
BYLAYER
100
AcDbBlockReference
  2
tab
 10
-156.5
 20
433.0
 30
0.0
  0
INSERT
  5
1C9
100
AcDbEntity
  8
0
 62
256
370
-1
 48
1.0
  6
BYLAYER
100
AcDbBlockReference
  2
tab
 10
-156.5
 20
413.0
 30
0.0
  0
INSERT
  5
1CA
100
AcDbEntity
  8
0
 62
256
370
-1
 48
1.0
  6
BYLAYER
100
AcDbBlockReference
  2
tab
 10
-143.5
 20
613.0
 30
0.0
  0
INSERT
  5
1CB
100
AcDbEntity
  8
0
 62
256
370
-1
 48
1.0
  6
BYLAYER
100
AcDbBlockReference
  2
tab
 10
-156.5
 20
393.0
 30
0.0
  0
INSERT
  5
1CC
100
AcDbEntity
  8
0
 62
256
370
-1
 48
1.0
  6
BYLAYER
100
AcDbBlockReference
  2
tab
 10
-156.5
 20
373.0
 30
0.0
  0
INSERT
  5
1CD
100
AcDbEntity
  8
0
 62
256
370
-1
 48
1.0
  6
BYLAYER
100
AcDbBlockReference
  2
tab
 10
-156.5
 20
353.0
 30
0.0
  0
INSERT
  5
1CE
100
AcDbEntity
  8
0
 62
256
370
-1
 48
1.0
  6
BYLAYER
100
AcDbBlockReference
  2
tab
 10
-156.5
 20
333.0
 30
0.0
  0
INSERT
  5
1CF
100
AcDbEntity
  8
0
 62
256
370
-1
 48
1.0
  6
BYLAYER
100
AcDbBlockReference
  2
tab
 10
-43.5
 20
433.0
 30
0.0
 50
180.0
  0
INSERT
  5
1D0
100
AcDbEntity
  8
0
 62
256
370
-1
 48
1.0
  6
BYLAYER
100
AcDbBlockReference
  2
tab
 10
-43.5
 20
633.0
 30
0.0
 50
180.0
  0
INSERT
  5
1D1
100
AcDbEntity
  8
0
 62
256
370
-1
 48
1.0
  6
BYLAYER
100
AcDbBlockReference
  2
tab
 10
-43.5
 20
413.0
 30
0.0
 50
180.0
  0
INSERT
  5
1D2
100
AcDbEntity
  8
0
 62
256
370
-1
 48
1.0
  6
BYLAYER
100
AcDbBlockReference
  2
tab
 10
-43.5
 20
613.0
 30
0.0
 50
180.0
  0
INSERT
  5
1D3
100
AcDbEntity
  8
0
 62
256
370
-1
 48
1.0
  6
BYLAYER
100
AcDbBlockReference
  2
tab
 10
-43.5
 20
393.0
 30
0.0
 50
180.0
  0
INSERT
  5
1D4
100
AcDbEntity
  8
0
 62
256
370
-1
 48
1.0
  6
BYLAYER
100
AcDbBlockReference
  2
tab
 10
-43.5
 20
373.0
 30
0.0
 50
180.0
  0
INSERT
  5
1D5
100
AcDbEntity
  8
0
 62
256
370
-1
 48
1.0
  6
BYLAYER
100
AcDbBlockReference
  2
tab
 10
-43.5
 20
353.0
 30
0.0
 50
180.0
  0
INSERT
  5
1D6
100
AcDbEntity
  8
0
 62
256
370
-1
 48
1.0
  6
BYLAYER
100
AcDbBlockReference
  2
tab
 10
-43.5
 20
333.0
 30
0.0
 50
180.0
  0
LINE
  5
1D7
100
AcDbEntity
  8
0
 62
256
370
-1
 48
1.0
  6
BYLAYER
100
AcDbLine
 10
-156.4999999999995453
 20
438.1000000000000227
 30
0.0
 11
-156.5
 21
449.0
 31
0.0
  0
LINE
  5
1D8
100
AcDbEntity
  8
0
 62
256
370
-1
 48
1.0
  6
BYLAYER
100
AcDbLine
 10
-143.4999999999995453
 20
638.1000000000000227
 30
0.0
 11
-143.5
 21
649.0
 31
0.0
  0
LINE
  5
1D9
100
AcDbEntity
  8
0
 62
256
370
-1
 48
1.0
  6
BYLAYER
100
AcDbLine
 10
-156.5
 20
449.0
 30
0.0
 11
-43.5
 21
449.0
 31
0.0
  0
LINE
  5
1DA
100
AcDbEntity
  8
0
 62
256
370
-1
 48
1.0
  6
BYLAYER
100
AcDbLine
 10
-43.5
 20
449.0
 30
0.0
 11
-43.5
 21
438.1000000000000227
 31
0.0
  0
LINE
  5
1DB
100
AcDbEntity
  8
0
 62
256
370
-1
 48
1.0
  6
BYLAYER
100
AcDbLine
 10
-43.5
 20
649.0
 30
0.0
 11
-43.5
 21
638.1000000000000227
 31
0.0
  0
LINE
  5
1DC
100
AcDbEntity
  8
0
 62
256
370
-1
 48
1.0
  6
BYLAYER
100
AcDbLine
 10
-43.5
 20
427.8999999999999773
 30
0.0
 11
-43.5
 21
418.1000000000000227
 31
0.0
  0
LINE
  5
1DD
100
AcDbEntity
  8
0
 62
256
370
-1
 48
1.0
  6
BYLAYER
100
AcDbLine
 10
-43.5
 20
627.8999999999999773
 30
0.0
 11
-43.5
 21
618.1000000000000227
 31
0.0
  0
LINE
  5
1DE
100
AcDbEntity
  8
0
 62
256
370
-1
 48
1.0
  6
BYLAYER
100
AcDbLine
 10
-43.5
 20
407.8999999999998636
 30
0.0
 11
-43.5
 21
398.1000000000000227
 31
0.0
  0
LINE
  5
1DF
100
AcDbEntity
  8
0
 62
256
370
-1
 48
1.0
  6
BYLAYER
100
AcDbLine
 10
-43.4999999999995453
 20
387.8999999999999773
 30
0.0
 11
-43.4999999999995453
 21
378.1000000000000227
 31
0.0
  0
LINE
  5
1E0
100
AcDbEntity
  8
0
 62
256
370
-1
 48
1.0
  6
BYLAYER
100
AcDbLine
 10
-43.5
 20
367.8999999999999773
 30
0.0
 11
-43.4999999999995453
 21
358.1000000000001364
 31
0.0
  0
LINE
  5
1E1
100
AcDbEntity
  8
0
 62
256
370
-1
 48
1.0
  6
BYLAYER
100
AcDbLine
 10
-43.5
 20
347.8999999999999773
 30
0.0
 11
-43.4999999999995453
 21
338.1000000000001364
 31
0.0
  0
LINE
  5
1E2
100
AcDbEntity
  8
0
 62
256
370
-1
 48
1.0
  6
BYLAYER
100
AcDbLine
 10
-43.4999999999995453
 20
327.8999999999999773
 30
0.0
 11
-43.5
 21
317.0
 31
0.0
  0
LINE
  5
1E3
100
AcDbEntity
  8
0
 62
256
370
-1
 48
1.0
  6
BYLAYER
100
AcDbLine
 10
-43.5
 20
317.0
 30
0.0
 11
-156.5
 21
317.0
 31
0.0
  0
LINE
  5
1E4
100
AcDbEntity
  8
0
 62
256
370
-1
 48
1.0
  6
BYLAYER
100
AcDbLine
 10
-156.5
 20
317.0
 30
0.0
 11
-156.4999999999995453
 21
327.8999999999999773
 31
0.0
  0
LINE
  5
1E5
100
AcDbEntity
  8
0
 62
256
370
-1
 48
1.0
  6
BYLAYER
100
AcDbLine
 10
-156.4999999999995453
 20
338.1000000000001364
 30
0.0
 11
-156.4999999999995453
 21
347.8999999999998636
 31
0.0
  0
LINE
  5
1E6
100
AcDbEntity
  8
0
 62
256
370
-1
 48
1.0
  6
BYLAYER
100
AcDbLine
 10
-156.4999999999995453
 20
358.1000000000001364
 30
0.0
 11
-156.5000000000004547
 21
367.8999999999999773
 31
0.0
  0
LINE
  5
1E7
100
AcDbEntity
  8
0
 62
256
370
-1
 48
1.0
  6
BYLAYER
100
AcDbLine
 10
-156.4999999999995453
 20
378.1000000000000227
 30
0.0
 11
-156.4999999999995453
 21
387.8999999999999773
 31
0.0
  0
LINE
  5
1E8
100
AcDbEntity
  8
0
 62
256
370
-1
 48
1.0
  6
BYLAYER
100
AcDbLine
 10
-156.5000000000004547
 20
398.1000000000000227
 30
0.0
 11
-156.5000000000004547
 21
407.8999999999998636
 31
0.0
  0
LINE
  5
1E9
100
AcDbEntity
  8
0
 62
256
370
-1
 48
1.0
  6
BYLAYER
100
AcDbLine
 10
-156.5000000000004547
 20
418.1000000000000227
 30
0.0
 11
-156.4999999999995453
 21
427.8999999999999773
 31
0.0
  0
LINE
  5
1EA
100
AcDbEntity
  8
0
 62
256
370
-1
 48
1.0
  6
BYLAYER
100
AcDbLine
 10
-143.5000000000004547
 20
618.1000000000000227
 30
0.0
 11
-143.4999999999995453
 21
627.8999999999999773
 31
0.0
  0
INSERT
  5
1EB
100
AcDbEntity
  8
0
 62
256
370
-1
 48
1.0
  6
BYLAYER
100
AcDbBlockReference
  2
tab-hole-middle
 10
16.0
 20
-267.5
 30
0.0
 50
90.0
  0
INSERT
  5
1EC
100
AcDbEntity
  8
0
 62
256
370
-1
 48
1.0
  6
BYLAYER
100
AcDbBlockReference
  2
tab-hole-middle
 10
36.0
 20
-267.5
 30
0.0
 50
90.0
  0
INSERT
  5
1ED
100
AcDbEntity
  8
0
 62
256
370
-1
 48
1.0
  6
BYLAYER
100
AcDbBlockReference
  2
tab-hole-middle
 10
56.0
 20
-267.5
 30
0.0
 50
90.0
  0
INSERT
  5
1EE
100
AcDbEntity
  8
0
 62
256
370
-1
 48
1.0
  6
BYLAYER
100
AcDbBlockReference
  2
tab-hole-middle
 10
-256.0
 20
-267.4999999999999432
 30
0.0
 41
1.0
 42
-1.0
 43
1.0
 50
90.0
  0
INSERT
  5
1EF
100
AcDbEntity
  8
0
 62
256
370
-1
 48
1.0
  6
BYLAYER
100
AcDbBlockReference
  2
tab-hole-middle
 10
76.0
 20
-267.5
 30
0.0
 50
90.0
  0
INSERT
  5
1F0
100
AcDbEntity
  8
0
 62
256
370
-1
 48
1.0
  6
BYLAYER
100
AcDbBlockReference
  2
tab-hole-middle
 10
-276.0
 20
-267.4999999999999432
 30
0.0
 41
1.0
 42
-1.0
 43
1.0
 50
90.0
  0
INSERT
  5
1F1
100
AcDbEntity
  8
0
 62
256
370
-1
 48
1.0
  6
BYLAYER
100
AcDbBlockReference
  2
tab-hole-middle
 10
96.0
 20
-267.5
 30
0.0
 50
90.0
  0
INSERT
  5
1F2
100
AcDbEntity
  8
0
 62
256
370
-1
 48
1.0
  6
BYLAYER
100
AcDbBlockReference
  2
tab-hole-middle
 10
-296.0
 20
-267.5
 30
0.0
 41
1.0
 42
-1.0
 43
1.0
 50
90.0
  0
INSERT
  5
1F3
100
AcDbEntity
  8
0
 62
256
370
-1
 48
1.0
  6
BYLAYER
100
AcDbBlockReference
  2
tab-hole-middle
 10
116.0
 20
-267.5
 30
0.0
 50
90.0
  0
INSERT
  5
1F4
100
AcDbEntity
  8
0
 62
256
370
-1
 48
1.0
  6
BYLAYER
100
AcDbBlockReference
  2
tab-hole-middle
 10
-316.0
 20
-267.4999999999999432
 30
0.0
 41
1.0
 42
-1.0
 43
1.0
 50
90.0
  0
INSERT
  5
1F5
100
AcDbEntity
  8
0
 62
256
370
-1
 48
1.0
  6
BYLAYER
100
AcDbBlockReference
  2
tab-hole-middle
 10
96.0
 20
-224.4999999999999716
 30
0.0
 50
90.0
  0
INSERT
  5
1F6
100
AcDbEntity
  8
0
 62
256
370
-1
 48
1.0
  6
BYLAYER
100
AcDbBlockReference
  2
tab-hole-middle
 10
296.0
 20
-224.4999999999999716
 30
0.0
 50
90.0
  0
INSERT
  5
1F7
100
AcDbEntity
  8
0
 62
256
370
-1
 48
1.0
  6
BYLAYER
100
AcDbBlockReference
  2
tab-hole-middle
 10
116.0
 20
-224.4999999999999716
 30
0.0
 50
90.0
  0
INSERT
  5
1F8
100
AcDbEntity
  8
0
 62
256
370
-1
 48
1.0
  6
BYLAYER
100
AcDbBlockReference
  2
tab-hole-middle
 10
316.0
 20
-224.4999999999999716
 30
0.0
 50
90.0
  0
INSERT
  5
1F9
100
AcDbEntity
  8
0
 62
256
370
-1
 48
1.0
  6
BYLAYER
100
AcDbBlockReference
  2
tab
 10
276.0
 20
-6.0000000000000284
 30
0.0
 41
1.0
 42
-1.0
 43
1.0
 50
270.0
  0
LINE
  5
1FA
100
AcDbEntity
  8
0
 62
256
370
-1
 48
1.0
  6
BYLAYER
100
AcDbLine
 10
200.0
 20
-5.9999999999999716
 30
0.0
 11
200.0000000000009095
 21
-266.0
 31
0.0
  0
LINE
  5
1FB
100
AcDbEntity
  8
0
 62
256
370
-1
 48
1.0
  6
BYLAYER
100
AcDbLine
 10
332.0
 20
-266.0
 30
0.0
 11
332.0
 21
-5.9999999999999716
 31
0.0
  0
INSERT
  5
1FC
100
AcDbEntity
  8
0
 62
256
370
-1
 48
1.0
  6
BYLAYER
100
AcDbBlockReference
  2
tab
 10
-143.5
 20
633.0
 30
0.0
  0
LINE
  5
1FD
100
AcDbEntity
  8
0
 62
256
370
-1
 48
1.0
  6
BYLAYER
100
AcDbLine
 10
-143.5
 20
649.0
 30
0.0
 11
-43.5
 21
649.0
 31
0.0
  0
INSERT
  5
1FE
100
AcDbEntity
  8
0
 62
256
370
-1
 48
1.0
  6
BYLAYER
100
AcDbBlockReference
  2
tab
 10
-276.0
 20
-6.0
 30
0.0
 50
270.0
  0
INSERT
  5
1FF
100
AcDbEntity
  8
0
 62
256
370
-1
 48
1.0
  6
BYLAYER
100
AcDbBlockReference
  2
tab-hole-middle
 10
-216.0
 20
-267.4999999999999432
 30
0.0
 41
1.0
 42
-1.0
 43
1.0
 50
90.0
  0
INSERT
  5
200
100
AcDbEntity
  8
0
 62
256
370
-1
 48
1.0
  6
BYLAYER
100
AcDbBlockReference
  2
tab
 10
-296.0
 20
-6.0
 30
0.0
 50
270.0
  0
INSERT
  5
201
100
AcDbEntity
  8
0
 62
256
370
-1
 48
1.0
  6
BYLAYER
100
AcDbBlockReference
  2
tab-hole-middle
 10
-236.0
 20
-267.5
 30
0.0
 41
1.0
 42
-1.0
 43
1.0
 50
90.0
  0
INSERT
  5
202
100
AcDbEntity
  8
0
 62
256
370
-1
 48
1.0
  6
BYLAYER
100
AcDbBlockReference
  2
tab
 10
-156.5
 20
-563.0
 30
0.0
  0
INSERT
  5
203
100
AcDbEntity
  8
0
 62
256
370
-1
 48
1.0
  6
BYLAYER
100
AcDbBlockReference
  2
tab
 10
-133.5000000000009095
 20
-5.9999999999999716
 30
0.0
 50
270.0
  0
INSERT
  5
204
100
AcDbEntity
  8
0
 62
256
370
-1
 48
1.0
  6
BYLAYER
100
AcDbBlockReference
  2
tab
 10
-113.5
 20
-5.9999999999999716
 30
0.0
 50
270.0
  0
INSERT
  5
205
100
AcDbEntity
  8
0
 62
256
370
-1
 48
1.0
  6
BYLAYER
100
AcDbBlockReference
  2
tab
 10
-93.5
 20
-5.9999999999999716
 30
0.0
 50
270.0
  0
INSERT
  5
206
100
AcDbEntity
  8
0
 62
256
370
-1
 48
1.0
  6
BYLAYER
100
AcDbBlockReference
  2
tab
 10
-93.5
 20
-266.0
 30
0.0
 50
90.0000000000000142
  0
INSERT
  5
207
100
AcDbEntity
  8
0
 62
256
370
-1
 48
1.0
  6
BYLAYER
100
AcDbBlockReference
  2
tab
 10
-73.4999999999990905
 20
-5.9999999999999716
 30
0.0
 50
270.0
  0
INSERT
  5
208
100
AcDbEntity
  8
0
 62
256
370
-1
 48
1.0
  6
BYLAYER
100
AcDbBlockReference
  2
tab
 10
-113.5000000000009095
 20
-266.0
 30
0.0
 50
90.0000000000000142
  0
INSERT
  5
209
100
AcDbEntity
  8
0
 62
256
370
-1
 48
1.0
  6
BYLAYER
100
AcDbBlockReference
  2
tab
 10
-53.4999999999990905
 20
-5.9999999999999716
 30
0.0
 50
270.0
  0
INSERT
  5
20A
100
AcDbEntity
  8
0
 62
256
370
-1
 48
1.0
  6
BYLAYER
100
AcDbBlockReference
  2
tab
 10
-133.5000000000009095
 20
-266.0
 30
0.0
 50
90.0000000000000142
  0
LINE
  5
20B
100
AcDbEntity
  8
0
 62
256
370
-1
 48
1.0
  6
BYLAYER
100
AcDbLine
 10
-143.5
 20
-5.9999999999999716
 30
0.0
 11
-138.6000000000012733
 21
-5.9999999999999716
 31
0.0
  0
LINE
  5
20C
100
AcDbEntity
  8
0
 62
256
370
-1
 48
1.0
  6
BYLAYER
100
AcDbLine
 10
-43.5
 20
-266.0
 30
0.0
 11
-48.3999999999987267
 21
-266.0
 31
0.0
  0
LINE
  5
20D
100
AcDbEntity
  8
0
 62
256
370
-1
 48
1.0
  6
BYLAYER
100
AcDbLine
 10
-128.4000000000014552
 20
-5.9999999999999716
 30
0.0
 11
-118.5999999999999091
 21
-5.9999999999999716
 31
0.0
  0
LINE
  5
20E
100
AcDbEntity
  8
0
 62
256
370
-1
 48
1.0
  6
BYLAYER
100
AcDbLine
 10
-58.5999999999985448
 20
-266.0
 30
0.0
 11
-68.3999999999996362
 21
-266.0
 31
0.0
  0
LINE
  5
20F
100
AcDbEntity
  8
0
 62
256
370
-1
 48
1.0
  6
BYLAYER
100
AcDbLine
 10
-108.4000000000005457
 20
-5.9999999999999716
 30
0.0
 11
-98.5999999999999091
 21
-5.9999999999999716
 31
0.0
  0
LINE
  5
210
100
AcDbEntity
  8
0
 62
256
370
-1
 48
1.0
  6
BYLAYER
100
AcDbLine
 10
-78.5999999999994543
 20
-266.0
 30
0.0
 11
-88.3999999999996362
 21
-266.0
 31
0.0
  0
LINE
  5
211
100
AcDbEntity
  8
0
 62
256
370
-1
 48
1.0
  6
BYLAYER
100
AcDbLine
 10
-88.4000000000005457
 20
-5.9999999999999716
 30
0.0
 11
-78.5999999999989996
 21
-5.9999999999999716
 31
0.0
  0
LINE
  5
212
100
AcDbEntity
  8
0
 62
256
370
-1
 48
1.0
  6
BYLAYER
100
AcDbLine
 10
-98.5999999999994543
 20
-266.0
 30
0.0
 11
-108.4000000000005457
 21
-266.0
 31
0.0
  0
LINE
  5
213
100
AcDbEntity
  8
0
 62
256
370
-1
 48
1.0
  6
BYLAYER
100
AcDbLine
 10
-68.3999999999996362
 20
-5.9999999999999716
 30
0.0
 11
-58.5999999999989996
 21
-5.9999999999999716
 31
0.0
  0
LINE
  5
214
100
AcDbEntity
  8
0
 62
256
370
-1
 48
1.0
  6
BYLAYER
100
AcDbLine
 10
-118.6000000000003638
 20
-266.0
 30
0.0
 11
-128.4000000000005457
 21
-266.0
 31
0.0
  0
LINE
  5
215
100
AcDbEntity
  8
0
 62
256
370
-1
 48
1.0
  6
BYLAYER
100
AcDbLine
 10
-48.3999999999996362
 20
-5.9999999999999716
 30
0.0
 11
-43.5
 21
-5.9999999999999716
 31
0.0
  0
LINE
  5
216
100
AcDbEntity
  8
0
 62
256
370
-1
 48
1.0
  6
BYLAYER
100
AcDbLine
 10
-138.6000000000003638
 20
-266.0
 30
0.0
 11
-143.5
 21
-266.0
 31
0.0
  0
INSERT
  5
217
100
AcDbEntity
  8
0
 62
256
370
-1
 48
1.0
  6
BYLAYER
100
AcDbBlockReference
  2
tab
 10
-53.4999999999990905
 20
-266.0
 30
0.0
 50
90.0000000000000142
  0
INSERT
  5
218
100
AcDbEntity
  8
0
 62
256
370
-1
 48
1.0
  6
BYLAYER
100
AcDbBlockReference
  2
tab-hole
 10
72.0
 20
-44.4999999999973568
 30
0.0
  0
INSERT
  5
219
100
AcDbEntity
  8
0
 62
256
370
-1
 48
1.0
  6
BYLAYER
100
AcDbBlockReference
  2
tab-hole
 10
72.0
 20
-64.4999999999995737
 30
0.0
  0
INSERT
  5
21A
100
AcDbEntity
  8
0
 62
256
370
-1
 48
1.0
  6
BYLAYER
100
AcDbBlockReference
  2
tab-hole
 10
72.0
 20
-84.499999999999261
 30
0.0
  0
INSERT
  5
21B
100
AcDbEntity
  8
0
 62
256
370
-1
 48
1.0
  6
BYLAYER
100
AcDbBlockReference
  2
tab-hole
 10
72.0
 20
-104.5000000000089102
 30
0.0
  0
INSERT
  5
21C
100
AcDbEntity
  8
0
 62
256
370
-1
 48
1.0
  6
BYLAYER
100
AcDbBlockReference
  2
tab-hole
 10
72.0
 20
-124.4999999999913314
 30
0.0
  0
INSERT
  5
21D
100
AcDbEntity
  8
0
 62
256
370
-1
 48
1.0
  6
BYLAYER
100
AcDbBlockReference
  2
tab-hole
 10
72.0
 20
-144.5000000000009663
 30
0.0
  0
INSERT
  5
21E
100
AcDbEntity
  8
0
 62
256
370
-1
 48
1.0
  6
BYLAYER
100
AcDbBlockReference
  2
tab-hole
 10
72.0
 20
-164.5000000000000853
 30
0.0
  0
INSERT
  5
21F
100
AcDbEntity
  8
0
 62
256
370
-1
 48
1.0
  6
BYLAYER
100
AcDbBlockReference
  2
tab-hole
 10
72.0
 20
-184.5000000000028706
 30
0.0
  0
INSERT
  5
220
100
AcDbEntity
  8
0
 62
256
370
-1
 48
1.0
  6
BYLAYER
100
AcDbBlockReference
  2
tab-hole
 10
72.0
 20
-204.500000000002359
 30
0.0
  0
INSERT
  5
221
100
AcDbEntity
  8
0
 62
256
370
-1
 48
1.0
  6
BYLAYER
100
AcDbBlockReference
  2
tab-hole
 10
272.0
 20
-204.5000000000023306
 30
0.0
  0
INSERT
  5
222
100
AcDbEntity
  8
0
 62
256
370
-1
 48
1.0
  6
BYLAYER
100
AcDbBlockReference
  2
tab-hole
 10
272.0
 20
-184.5000000000028137
 30
0.0
  0
INSERT
  5
223
100
AcDbEntity
  8
0
 62
256
370
-1
 48
1.0
  6
BYLAYER
100
AcDbBlockReference
  2
tab-hole
 10
272.0
 20
-164.5000000000000568
 30
0.0
  0
INSERT
  5
224
100
AcDbEntity
  8
0
 62
256
370
-1
 48
1.0
  6
BYLAYER
100
AcDbBlockReference
  2
tab-hole
 10
272.0
 20
-144.5000000000009095
 30
0.0
  0
INSERT
  5
225
100
AcDbEntity
  8
0
 62
256
370
-1
 48
1.0
  6
BYLAYER
100
AcDbBlockReference
  2
tab-hole
 10
272.0
 20
-124.4999999999912745
 30
0.0
  0
INSERT
  5
226
100
AcDbEntity
  8
0
 62
256
370
-1
 48
1.0
  6
BYLAYER
100
AcDbBlockReference
  2
tab-hole
 10
272.0
 20
-104.5000000000089244
 30
0.0
  0
INSERT
  5
227
100
AcDbEntity
  8
0
 62
256
370
-1
 48
1.0
  6
BYLAYER
100
AcDbBlockReference
  2
tab-hole
 10
272.0
 20
-84.4999999999992752
 30
0.0
  0
INSERT
  5
228
100
AcDbEntity
  8
0
 62
256
370
-1
 48
1.0
  6
BYLAYER
100
AcDbBlockReference
  2
tab-hole
 10
272.0
 20
-64.4999999999996305
 30
0.0
  0
INSERT
  5
229
100
AcDbEntity
  8
0
 62
256
370
-1
 48
1.0
  6
BYLAYER
100
AcDbBlockReference
  2
tab-hole
 10
272.0
 20
-44.4999999999973568
 30
0.0
  0
INSERT
  5
22A
100
AcDbEntity
  8
0
 62
256
370
-1
 48
1.0
  6
BYLAYER
100
AcDbBlockReference
  2
tab-hole
 10
272.0
 20
-24.4999999999975842
 30
0.0
  0
INSERT
  5
22B
100
AcDbEntity
  8
0
 62
256
370
-1
 48
1.0
  6
BYLAYER
100
AcDbBlockReference
  2
tab
 10
-73.5
 20
-266.0
 30
0.0
 50
90.0000000000000142
  0
INSERT
  5
22C
100
AcDbEntity
  8
0
 62
256
370
-1
 48
1.0
  6
BYLAYER
100
AcDbBlockReference
  2
tab
 10
-143.5
 20
-24.4999999999975557
 30
0.0
  0
INSERT
  5
22D
100
AcDbEntity
  8
0
 62
256
370
-1
 48
1.0
  6
BYLAYER
100
AcDbBlockReference
  2
tab
 10
-143.5
 20
-44.4999999999973568
 30
0.0
  0
INSERT
  5
22E
100
AcDbEntity
  8
0
 62
256
370
-1
 48
1.0
  6
BYLAYER
100
AcDbBlockReference
  2
tab
 10
-143.5
 20
-64.4999999999995168
 30
0.0
  0
INSERT
  5
22F
100
AcDbEntity
  8
0
 62
256
370
-1
 48
1.0
  6
BYLAYER
100
AcDbBlockReference
  2
tab
 10
-143.5
 20
-84.4999999999992468
 30
0.0
  0
INSERT
  5
230
100
AcDbEntity
  8
0
 62
256
370
-1
 48
1.0
  6
BYLAYER
100
AcDbBlockReference
  2
tab
 10
-143.5
 20
-104.500000000008896
 30
0.0
  0
INSERT
  5
231
100
AcDbEntity
  8
0
 62
256
370
-1
 48
1.0
  6
BYLAYER
100
AcDbBlockReference
  2
tab
 10
-143.5
 20
-124.4999999999913882
 30
0.0
  0
INSERT
  5
232
100
AcDbEntity
  8
0
 62
256
370
-1
 48
1.0
  6
BYLAYER
100
AcDbBlockReference
  2
tab
 10
-143.5
 20
-144.5000000000010516
 30
0.0
  0
INSERT
  5
233
100
AcDbEntity
  8
0
 62
256
370
-1
 48
1.0
  6
BYLAYER
100
AcDbBlockReference
  2
tab
 10
-143.5
 20
-164.5000000000000853
 30
0.0
  0
INSERT
  5
234
100
AcDbEntity
  8
0
 62
256
370
-1
 48
1.0
  6
BYLAYER
100
AcDbBlockReference
  2
tab
 10
-143.5
 20
-184.5000000000029559
 30
0.0
  0
INSERT
  5
235
100
AcDbEntity
  8
0
 62
256
370
-1
 48
1.0
  6
BYLAYER
100
AcDbBlockReference
  2
tab
 10
-143.5
 20
-204.500000000002359
 30
0.0
  0
INSERT
  5
236
100
AcDbEntity
  8
0
 62
256
370
-1
 48
1.0
  6
BYLAYER
100
AcDbBlockReference
  2
tab
 10
-143.5
 20
-244.500000000002359
 30
0.0
  0
INSERT
  5
237
100
AcDbEntity
  8
0
 62
256
370
-1
 48
1.0
  6
BYLAYER
100
AcDbBlockReference
  2
tab
 10
-43.5
 20
-244.500000000002359
 30
0.0
 50
180.0
  0
INSERT
  5
238
100
AcDbEntity
  8
0
 62
256
370
-1
 48
1.0
  6
BYLAYER
100
AcDbBlockReference
  2
tab
 10
-43.5
 20
-204.500000000002359
 30
0.0
 50
180.0
  0
INSERT
  5
239
100
AcDbEntity
  8
0
 62
256
370
-1
 48
1.0
  6
BYLAYER
100
AcDbBlockReference
  2
tab
 10
-43.5
 20
-184.500000000002899
 30
0.0
 50
180.0
  0
INSERT
  5
23A
100
AcDbEntity
  8
0
 62
256
370
-1
 48
1.0
  6
BYLAYER
100
AcDbBlockReference
  2
tab
 10
-43.5
 20
-164.5000000000000853
 30
0.0
 50
180.0
  0
INSERT
  5
23B
100
AcDbEntity
  8
0
 62
256
370
-1
 48
1.0
  6
BYLAYER
100
AcDbBlockReference
  2
tab
 10
-43.5
 20
-144.5000000000010232
 30
0.0
 50
180.0
  0
INSERT
  5
23C
100
AcDbEntity
  8
0
 62
256
370
-1
 48
1.0
  6
BYLAYER
100
AcDbBlockReference
  2
tab
 10
-43.5
 20
-124.4999999999913598
 30
0.0
 50
180.0
  0
INSERT
  5
23D
100
AcDbEntity
  8
0
 62
256
370
-1
 48
1.0
  6
BYLAYER
100
AcDbBlockReference
  2
tab
 10
-43.5
 20
-104.500000000008896
 30
0.0
 50
180.0
  0
INSERT
  5
23E
100
AcDbEntity
  8
0
 62
256
370
-1
 48
1.0
  6
BYLAYER
100
AcDbBlockReference
  2
tab
 10
-43.5
 20
-84.4999999999992468
 30
0.0
 50
180.0
  0
INSERT
  5
23F
100
AcDbEntity
  8
0
 62
256
370
-1
 48
1.0
  6
BYLAYER
100
AcDbBlockReference
  2
tab
 10
-43.5
 20
-64.499999999999531
 30
0.0
 50
180.0
  0
INSERT
  5
240
100
AcDbEntity
  8
0
 62
256
370
-1
 48
1.0
  6
BYLAYER
100
AcDbBlockReference
  2
tab
 10
-43.5
 20
-44.4999999999973568
 30
0.0
 50
180.0
  0
INSERT
  5
241
100
AcDbEntity
  8
0
 62
256
370
-1
 48
1.0
  6
BYLAYER
100
AcDbBlockReference
  2
tab
 10
-43.5
 20
-24.4999999999975842
 30
0.0
 50
180.0
  0
LINE
  5
242
100
AcDbEntity
  8
0
 62
256
370
-1
 48
1.0
  6
BYLAYER
100
AcDbLine
 10
-143.4999999999995453
 20
-5.9999999999999716
 30
0.0
 11
-143.5
 21
-19.3999999999975898
 31
0.0
  0
LINE
  5
243
100
AcDbEntity
  8
0
 62
256
370
-1
 48
1.0
  6
BYLAYER
100
AcDbLine
 10
-143.5
 20
-29.59999999999755
 30
0.0
 11
-143.5
 21
-39.3999999999973625
 31
0.0
  0
LINE
  5
244
100
AcDbEntity
  8
0
 62
256
370
-1
 48
1.0
  6
BYLAYER
100
AcDbLine
 10
-143.5
 20
-49.5999999999973511
 30
0.0
 11
-143.5
 21
-59.3999999999995367
 31
0.0
  0
LINE
  5
245
100
AcDbEntity
  8
0
 62
256
370
-1
 48
1.0
  6
BYLAYER
100
AcDbLine
 10
-143.5000000000004547
 20
-69.5999999999995254
 30
0.0
 11
-143.5
 21
-79.3999999999992525
 31
0.0
  0
LINE
  5
246
100
AcDbEntity
  8
0
 62
256
370
-1
 48
1.0
  6
BYLAYER
100
AcDbLine
 10
-143.5
 20
-89.5999999999992411
 30
0.0
 11
-143.5
 21
-99.4000000000089017
 31
0.0
  0
LINE
  5
247
100
AcDbEntity
  8
0
 62
256
370
-1
 48
1.0
  6
BYLAYER
100
AcDbLine
 10
-143.5
 20
-109.6000000000088903
 30
0.0
 11
-143.5
 21
-119.3999999999913939
 31
0.0
  0
LINE
  5
248
100
AcDbEntity
  8
0
 62
256
370
-1
 48
1.0
  6
BYLAYER
100
AcDbLine
 10
-143.5
 20
-129.5999999999913825
 30
0.0
 11
-143.5
 21
-139.4000000000010289
 31
0.0
  0
LINE
  5
249
100
AcDbEntity
  8
0
 62
256
370
-1
 48
1.0
  6
BYLAYER
100
AcDbLine
 10
-143.5
 20
-149.6000000000010459
 30
0.0
 11
-143.5
 21
-159.4000000000000909
 31
0.0
  0
LINE
  5
24A
100
AcDbEntity
  8
0
 62
256
370
-1
 48
1.0
  6
BYLAYER
100
AcDbLine
 10
-143.5
 20
-169.6000000000000796
 30
0.0
 11
-143.5
 21
-179.4000000000029331
 31
0.0
  0
LINE
  5
24B
100
AcDbEntity
  8
0
 62
256
370
-1
 48
1.0
  6
BYLAYER
100
AcDbLine
 10
-143.5
 20
-189.6000000000029502
 30
0.0
 11
-143.5
 21
-199.4000000000023647
 31
0.0
  0
LINE
  5
24C
100
AcDbEntity
  8
0
 62
256
370
-1
 48
1.0
  6
BYLAYER
100
AcDbLine
 10
-143.5
 20
-209.6000000000023817
 30
0.0
 11
-143.5
 21
-239.4000000000023647
 31
0.0
  0
LINE
  5
24D
100
AcDbEntity
  8
0
 62
256
370
-1
 48
1.0
  6
BYLAYER
100
AcDbLine
 10
-143.5
 20
-249.6000000000023533
 30
0.0
 11
-143.4999999999995453
 21
-266.0
 31
0.0
  0
LINE
  5
24E
100
AcDbEntity
  8
0
 62
256
370
-1
 48
1.0
  6
BYLAYER
100
AcDbLine
 10
-43.5000000000004547
 20
-249.6000000000023533
 30
0.0
 11
-43.5
 21
-266.0
 31
0.0
  0
LINE
  5
24F
100
AcDbEntity
  8
0
 62
256
370
-1
 48
1.0
  6
BYLAYER
100
AcDbLine
 10
-43.5000000000004547
 20
-239.4000000000023647
 30
0.0
 11
-43.5000000000004547
 21
-209.6000000000023533
 31
0.0
  0
LINE
  5
250
100
AcDbEntity
  8
0
 62
256
370
-1
 48
1.0
  6
BYLAYER
100
AcDbLine
 10
-43.5000000000004547
 20
-199.4000000000023647
 30
0.0
 11
-43.5
 21
-189.6000000000029218
 31
0.0
  0
LINE
  5
251
100
AcDbEntity
  8
0
 62
256
370
-1
 48
1.0
  6
BYLAYER
100
AcDbLine
 10
-43.5
 20
-179.4000000000029047
 30
0.0
 11
-43.5000000000004547
 21
-169.6000000000000796
 31
0.0
  0
LINE
  5
252
100
AcDbEntity
  8
0
 62
256
370
-1
 48
1.0
  6
BYLAYER
100
AcDbLine
 10
-43.5000000000004547
 20
-159.4000000000000909
 30
0.0
 11
-43.5
 21
-149.6000000000010175
 31
0.0
  0
LINE
  5
253
100
AcDbEntity
  8
0
 62
256
370
-1
 48
1.0
  6
BYLAYER
100
AcDbLine
 10
-43.5
 20
-139.4000000000010004
 30
0.0
 11
-43.5
 21
-129.5999999999913825
 31
0.0
  0
LINE
  5
254
100
AcDbEntity
  8
0
 62
256
370
-1
 48
1.0
  6
BYLAYER
100
AcDbLine
 10
-43.5
 20
-119.3999999999913655
 30
0.0
 11
-43.5000000000004547
 21
-109.6000000000088903
 31
0.0
  0
LINE
  5
255
100
AcDbEntity
  8
0
 62
256
370
-1
 48
1.0
  6
BYLAYER
100
AcDbLine
 10
-43.5
 20
-99.4000000000089017
 30
0.0
 11
-43.5000000000004547
 21
-89.5999999999992411
 31
0.0
  0
LINE
  5
256
100
AcDbEntity
  8
0
 62
256
370
-1
 48
1.0
  6
BYLAYER
100
AcDbLine
 10
-43.5000000000004547
 20
-79.3999999999992525
 30
0.0
 11
-43.5
 21
-69.5999999999995254
 31
0.0
  0
LINE
  5
257
100
AcDbEntity
  8
0
 62
256
370
-1
 48
1.0
  6
BYLAYER
100
AcDbLine
 10
-43.5
 20
-59.3999999999995083
 30
0.0
 11
-43.5
 21
-49.5999999999973511
 31
0.0
  0
LINE
  5
258
100
AcDbEntity
  8
0
 62
256
370
-1
 48
1.0
  6
BYLAYER
100
AcDbLine
 10
-43.5000000000004547
 20
-39.3999999999973625
 30
0.0
 11
-43.5
 21
-29.59999999999755
 31
0.0
  0
LINE
  5
259
100
AcDbEntity
  8
0
 62
256
370
-1
 48
1.0
  6
BYLAYER
100
AcDbLine
 10
-43.5000000000004547
 20
-19.3999999999975898
 30
0.0
 11
-43.5
 21
-5.9999999999999716
 31
0.0
  0
INSERT
  5
25A
100
AcDbEntity
  8
0
 62
256
370
-1
 48
1.0
  6
BYLAYER
100
AcDbBlockReference
  2
tab-hole-middle
 10
-133.5000000000004547
 20
-224.4999999999999716
 30
0.0
 50
90.0
  0
INSERT
  5
25B
100
AcDbEntity
  8
0
 62
256
370
-1
 48
1.0
  6
BYLAYER
100
AcDbBlockReference
  2
tab-hole-middle
 10
-113.5
 20
-224.4999999999999716
 30
0.0
 50
90.0
  0
INSERT
  5
25C
100
AcDbEntity
  8
0
 62
256
370
-1
 48
1.0
  6
BYLAYER
100
AcDbBlockReference
  2
tab-hole-middle
 10
-93.5
 20
-224.4999999999999716
 30
0.0
 50
90.0
  0
INSERT
  5
25D
100
AcDbEntity
  8
0
 62
256
370
-1
 48
1.0
  6
BYLAYER
100
AcDbBlockReference
  2
tab-hole-middle
 10
-73.4999999999995453
 20
-224.4999999999999716
 30
0.0
 50
90.0
  0
INSERT
  5
25E
100
AcDbEntity
  8
0
 62
256
370
-1
 48
1.0
  6
BYLAYER
100
AcDbBlockReference
  2
tab-hole-middle
 10
-53.5000000000004547
 20
-224.4999999999999716
 30
0.0
 50
90.0
  0
INSERT
  5
25F
100
AcDbEntity
  8
0
 62
256
370
-1
 48
1.0
  6
BYLAYER
100
AcDbBlockReference
  2
tab-hole-middle
 10
70.5
 20
-244.4999999999999716
 30
0.0
  0
INSERT
  5
260
100
AcDbEntity
  8
0
 62
256
370
-1
 48
1.0
  6
BYLAYER
100
AcDbBlockReference
  2
tab-hole-middle
 10
270.5
 20
-244.4999999999999716
 30
0.0
  0
INSERT
  5
261
100
AcDbEntity
  8
0
 62
256
370
-1
 48
1.0
  6
BYLAYER
100
AcDbBlockReference
  2
tab
 10
-133.5000000000009095
 20
589.0
 30
0.0
 50
90.0
  0
INSERT
  5
262
100
AcDbEntity
  8
0
 62
256
370
-1
 48
1.0
  6
BYLAYER
100
AcDbBlockReference
  2
tab
 10
-113.5
 20
589.0
 30
0.0
 50
90.0
  0
INSERT
  5
263
100
AcDbEntity
  8
0
 62
256
370
-1
 48
1.0
  6
BYLAYER
100
AcDbBlockReference
  2
tab
 10
-93.5
 20
589.0
 30
0.0
 50
90.0
  0
INSERT
  5
264
100
AcDbEntity
  8
0
 62
256
370
-1
 48
1.0
  6
BYLAYER
100
AcDbBlockReference
  2
tab
 10
-73.4999999999990905
 20
589.0
 30
0.0
 50
90.0
  0
INSERT
  5
265
100
AcDbEntity
  8
0
 62
256
370
-1
 48
1.0
  6
BYLAYER
100
AcDbBlockReference
  2
tab
 10
-53.4999999999990905
 20
589.0
 30
0.0
 50
90.0
  0
LINE
  5
266
100
AcDbEntity
  8
0
 62
256
370
-1
 48
1.0
  6
BYLAYER
100
AcDbLine
 10
-143.5
 20
607.9000000000000909
 30
0.0
 11
-143.5
 21
589.0
 31
0.0
  0
LINE
  5
267
100
AcDbEntity
  8
0
 62
256
370
-1
 48
1.0
  6
BYLAYER
100
AcDbLine
 10
-143.5
 20
589.0
 30
0.0
 11
-138.6000000000003638
 21
589.0
 31
0.0
  0
LINE
  5
268
100
AcDbEntity
  8
0
 62
256
370
-1
 48
1.0
  6
BYLAYER
100
AcDbLine
 10
-128.4000000000010004
 20
589.0000000000001137
 30
0.0
 11
-118.5999999999999091
 21
589.0
 31
0.0
  0
LINE
  5
269
100
AcDbEntity
  8
0
 62
256
370
-1
 48
1.0
  6
BYLAYER
100
AcDbLine
 10
-108.4000000000000909
 20
589.0000000000001137
 30
0.0
 11
-98.5999999999999091
 21
589.0000000000001137
 31
0.0
  0
LINE
  5
26A
100
AcDbEntity
  8
0
 62
256
370
-1
 48
1.0
  6
BYLAYER
100
AcDbLine
 10
-88.4000000000000909
 20
589.0000000000001137
 30
0.0
 11
-78.5999999999989996
 21
589.0000000000001137
 31
0.0
  0
LINE
  5
26B
100
AcDbEntity
  8
0
 62
256
370
-1
 48
1.0
  6
BYLAYER
100
AcDbLine
 10
-68.3999999999991815
 20
589.0000000000001137
 30
0.0
 11
-58.5999999999989996
 21
589.0000000000001137
 31
0.0
  0
LINE
  5
26C
100
AcDbEntity
  8
0
 62
256
370
-1
 48
1.0
  6
BYLAYER
100
AcDbLine
 10
-48.3999999999987267
 20
589.0000000000001137
 30
0.0
 11
-43.5
 21
589.0
 31
0.0
  0
LINE
  5
26D
100
AcDbEntity
  8
0
 62
256
370
-1
 48
1.0
  6
BYLAYER
100
AcDbLine
 10
-43.5
 20
589.0
 30
0.0
 11
-43.5
 21
607.9000000000000909
 31
0.0
  0
INSERT
  5
26E
100
AcDbEntity
  8
0
 62
256
370
-1
 48
1.0
  6
BYLAYER
100
AcDbBlockReference
  2
tab
 10
-784.9499999999998181
 20
291.3000000000002956
 30
0.0
 41
1.0
 42
-1.0
 43
1.0
 50
270.0
  0
INSERT
  5
26F
100
AcDbEntity
  8
0
 62
256
370
-1
 48
1.0
  6
BYLAYER
100
AcDbBlockReference
  2
tab-hole
 10
-768.9499999999998181
 20
124.3000000000002672
 30
0.0
  0
INSERT
  5
270
100
AcDbEntity
  8
0
 62
256
370
-1
 48
1.0
  6
BYLAYER
100
AcDbBlockReference
  2
tab
 10
76.0
 20
-6.0000000000000284
 30
0.0
 41
1.0
 42
-1.0
 43
1.0
 50
270.0
  0
INSERT
  5
271
100
AcDbEntity
  8
0
 62
256
370
-1
 48
1.0
  6
BYLAYER
100
AcDbBlockReference
  2
tab-hole-middle
 10
-145.0
 20
233.0000000000000284
 30
0.0
  0
INSERT
  5
272
100
AcDbEntity
  8
0
 62
256
370
-1
 48
1.0
  6
BYLAYER
100
AcDbBlockReference
  2
tab-hole
 10
72.0
 20
-24.4999999999975557
 30
0.0
  0
ENDSEC
  0
SECTION
  2
OBJECTS
  0
DICTIONARY
  5
C
100
AcDbDictionary
280
0
281
1
  3
ACAD_GROUP
350
D
  3
ACAD_LAYOUT
350
1A
  3
ACAD_MLINESTYLE
350
17
  3
ACAD_PLOTSETTINGS
350
19
  3
ACAD_PLOTSTYLENAME
350
E
  3
AcDbVariableDictionary
350
273
  3
QCAD_OBJECTS
350
274
  0
DICTIONARY
  5
D
100
AcDbDictionary
280
0
281
1
  0
ACDBDICTIONARYWDFLT
  5
E
100
AcDbDictionary
281
1
  3
Normal
350
F
100
AcDbDictionaryWithDefault
340
F
  0
ACDBPLACEHOLDER
  5
F
  0
DICTIONARY
  5
17
100
AcDbDictionary
280
0
281
1
  3
Standard
350
18
  0
MLINESTYLE
  5
18
100
AcDbMlineStyle
  2
STANDARD
 70
0
  3

 62
256
 51
90.0
 52
90.0
 71
2
 49
0.5
 62
256
  6
BYLAYER
 49
-0.5
 62
256
  6
BYLAYER
  0
DICTIONARY
  5
19
100
AcDbDictionary
280
0
281
1
  0
DICTIONARY
  5
1A
100
AcDbDictionary
281
1
  3
Layout1
350
1E
  3
Layout2
350
26
  3
Model
350
22
  0
LAYOUT
  5
1E
100
AcDbPlotSettings
  1

  2
none_device
  4

  6

 40
0.0
 41
0.0
 42
0.0
 43
0.0
 44
0.0
 45
0.0
 46
0.0
 47
0.0
 48
0.0
 49
0.0
140
0.0
141
0.0
142
1.0
143
1.0
 70
688
 72
0
 73
0
 74
5
  7

 75
16
147
1.0
148
0.0
149
0.0
100
AcDbLayout
  1
Layout1
 70
1
 71
1
 10
0.0
 20
0.0
 11
420.0
 21
297.0
 12
0.0
 22
0.0
 32
0.0
 14
100000000000000000000.0
 24
100000000000000000000.0
 34
100000000000000000000.0
 15
-100000000000000000000.0
 25
-100000000000000000000.0
 35
-100000000000000000000.0
146
0.0
 13
0.0
 23
0.0
 33
0.0
 16
1.0
 26
0.0
 36
0.0
 17
0.0
 27
1.0
 37
0.0
 76
0
330
1B
  0
LAYOUT
  5
22
100
AcDbPlotSettings
  1

  2
none_device
  4

  6

 40
0.0
 41
0.0
 42
0.0
 43
0.0
 44
0.0
 45
0.0
 46
0.0
 47
0.0
 48
0.0
 49
0.0
140
0.0
141
0.0
142
1.0
143
1.0
 70
1712
 72
0
 73
0
 74
0
  7

 75
0
147
1.0
148
0.0
149
0.0
100
AcDbLayout
  1
Model
 70
1
 71
0
 10
0.0
 20
0.0
 11
12.0
 21
9.0
 12
0.0
 22
0.0
 32
0.0
 14
0.0
 24
0.0
 34
0.0
 15
0.0
 25
0.0
 35
0.0
146
0.0
 13
0.0
 23
0.0
 33
0.0
 16
1.0
 26
0.0
 36
0.0
 17
0.0
 27
1.0
 37
0.0
 76
0
330
1F
  0
LAYOUT
  5
26
100
AcDbPlotSettings
  1

  2
none_device
  4

  6

 40
0.0
 41
0.0
 42
0.0
 43
0.0
 44
0.0
 45
0.0
 46
0.0
 47
0.0
 48
0.0
 49
0.0
140
0.0
141
0.0
142
1.0
143
1.0
 70
688
 72
0
 73
0
 74
5
  7

 75
16
147
1.0
148
0.0
149
0.0
100
AcDbLayout
  1
Layout2
 70
1
 71
2
 10
0.0
 20
0.0
 11
12.0
 21
9.0
 12
0.0
 22
0.0
 32
0.0
 14
0.0
 24
0.0
 34
0.0
 15
0.0
 25
0.0
 35
0.0
146
0.0
 13
0.0
 23
0.0
 33
0.0
 16
1.0
 26
0.0
 36
0.0
 17
0.0
 27
1.0
 37
0.0
 76
0
330
23
  0
DICTIONARY
  5
273
100
AcDbDictionary
281
1
  3
DIMASSOC
350
276
  3
HIDETEXT
350
275
  0
DICTIONARYVAR
  5
275
100
DictionaryVariables
280
0
  1
2
  0
DICTIONARYVAR
  5
276
100
DictionaryVariables
280
0
  1
1
  0
DICTIONARY
  5
274
100
AcDbDictionary
281
1
  3
ColorSettings/BackgroundColor
350
277
  3
ColorSettings/ColorMode
350
278
  3
Grid/DisplayGrid00
350
279
  3
Grid/DisplayGrid01
350
27A
  3
Grid/DisplayGrid02
350
27B
  3
Grid/DisplayGrid03
350
27C
  3
Grid/GridSpacingX00
350
27D
  3
Grid/GridSpacingX01
350
27E
  3
Grid/GridSpacingX02
350
27F
  3
Grid/GridSpacingX03
350
280
  3
Grid/GridSpacingY00
350
281
  3
Grid/GridSpacingY01
350
282
  3
Grid/GridSpacingY02
350
283
  3
Grid/GridSpacingY03
350
284
  3
Grid/IsometricGrid00
350
285
  3
Grid/IsometricGrid01
350
286
  3
Grid/IsometricGrid02
350
287
  3
Grid/IsometricGrid03
350
288
  3
Grid/IsometricProjection00
350
289
  3
Grid/IsometricProjection01
350
28A
  3
Grid/IsometricProjection02
350
28B
  3
Grid/IsometricProjection03
350
28C
  3
Grid/MetaGridSpacingX00
350
28D
  3
Grid/MetaGridSpacingX01
350
28E
  3
Grid/MetaGridSpacingX02
350
28F
  3
Grid/MetaGridSpacingX03
350
290
  3
Grid/MetaGridSpacingY00
350
291
  3
Grid/MetaGridSpacingY01
350
292
  3
Grid/MetaGridSpacingY02
350
293
  3
Grid/MetaGridSpacingY03
350
294
  3
MultiPageSettings/Columns
350
295
  3
MultiPageSettings/GlueMarginsBottom
350
296
  3
MultiPageSettings/GlueMarginsLeft
350
297
  3
MultiPageSettings/GlueMarginsRight
350
298
  3
MultiPageSettings/GlueMarginsTop
350
299
  3
MultiPageSettings/PrintCropMarks
350
29A
  3
MultiPageSettings/Rows
350
29B
  3
PageSettings/OffsetX
350
29C
  3
PageSettings/OffsetY
350
29D
  3
PageSettings/PageOrientation
350
29E
  3
PageSettings/PaperHeight
350
29F
  3
PageSettings/PaperWidth
350
2A0
  3
PageSettings/Scale
350
2A1
  3
PageSettings/ShowPaperBorders
350
2A2
  3
PageTagSettings/EnablePageTags
350
2A3
  3
PageTagSettings/TagAlignment
350
2A4
  3
PageTagSettings/TagFont
350
2A5
  3
PageTagSettings/TagPosition
350
2A6
  3
QCADVersion
350
2A7
  3
UnitSettings/PaperUnit
350
2A8
  3
ViewportCenter
350
2A9
  3
ViewportHeight
350
2AA
  3
ViewportWidth
350
2AB
  0
XRECORD
  5
277
330
274
100
AcDbXrecord
280
1
1000
White
  0
XRECORD
  5
278
330
274
100
AcDbXrecord
280
1
1000
FullColor
  0
XRECORD
  5
279
330
274
100
AcDbXrecord
280
1
290
1
  0
XRECORD
  5
27A
330
274
100
AcDbXrecord
280
1
290
1
  0
XRECORD
  5
27B
330
274
100
AcDbXrecord
280
1
290
1
  0
XRECORD
  5
27C
330
274
100
AcDbXrecord
280
1
290
1
  0
XRECORD
  5
27D
330
274
100
AcDbXrecord
280
1
1000
auto
  0
XRECORD
  5
27E
330
274
100
AcDbXrecord
280
1
1000
auto
  0
XRECORD
  5
27F
330
274
100
AcDbXrecord
280
1
1000
auto
  0
XRECORD
  5
280
330
274
100
AcDbXrecord
280
1
1000
auto
  0
XRECORD
  5
281
330
274
100
AcDbXrecord
280
1
1000
auto
  0
XRECORD
  5
282
330
274
100
AcDbXrecord
280
1
1000
auto
  0
XRECORD
  5
283
330
274
100
AcDbXrecord
280
1
1000
auto
  0
XRECORD
  5
284
330
274
100
AcDbXrecord
280
1
1000
auto
  0
XRECORD
  5
285
330
274
100
AcDbXrecord
280
1
290
0
  0
XRECORD
  5
286
330
274
100
AcDbXrecord
280
1
290
0
  0
XRECORD
  5
287
330
274
100
AcDbXrecord
280
1
290
0
  0
XRECORD
  5
288
330
274
100
AcDbXrecord
280
1
290
0
  0
XRECORD
  5
289
330
274
100
AcDbXrecord
280
1
 90
65537
  0
XRECORD
  5
28A
330
274
100
AcDbXrecord
280
1
 90
65537
  0
XRECORD
  5
28B
330
274
100
AcDbXrecord
280
1
 90
65537
  0
XRECORD
  5
28C
330
274
100
AcDbXrecord
280
1
 90
65537
  0
XRECORD
  5
28D
330
274
100
AcDbXrecord
280
1
1000
auto
  0
XRECORD
  5
28E
330
274
100
AcDbXrecord
280
1
1000
auto
  0
XRECORD
  5
28F
330
274
100
AcDbXrecord
280
1
1000
auto
  0
XRECORD
  5
290
330
274
100
AcDbXrecord
280
1
1000
auto
  0
XRECORD
  5
291
330
274
100
AcDbXrecord
280
1
1000
auto
  0
XRECORD
  5
292
330
274
100
AcDbXrecord
280
1
1000
auto
  0
XRECORD
  5
293
330
274
100
AcDbXrecord
280
1
1000
auto
  0
XRECORD
  5
294
330
274
100
AcDbXrecord
280
1
1000
auto
  0
XRECORD
  5
295
330
274
100
AcDbXrecord
280
1
 90
1
  0
XRECORD
  5
296
330
274
100
AcDbXrecord
280
1
 40
10.0
  0
XRECORD
  5
297
330
274
100
AcDbXrecord
280
1
 40
10.0
  0
XRECORD
  5
298
330
274
100
AcDbXrecord
280
1
 40
10.0
  0
XRECORD
  5
299
330
274
100
AcDbXrecord
280
1
 40
10.0
  0
XRECORD
  5
29A
330
274
100
AcDbXrecord
280
1
290
0
  0
XRECORD
  5
29B
330
274
100
AcDbXrecord
280
1
 90
1
  0
XRECORD
  5
29C
330
274
100
AcDbXrecord
280
1
 40
0.0
  0
XRECORD
  5
29D
330
274
100
AcDbXrecord
280
1
 40
0.0
  0
XRECORD
  5
29E
330
274
100
AcDbXrecord
280
1
1000
Portrait
  0
XRECORD
  5
29F
330
274
100
AcDbXrecord
280
1
 40
297.0
  0
XRECORD
  5
2A0
330
274
100
AcDbXrecord
280
1
 40
210.0
  0
XRECORD
  5
2A1
330
274
100
AcDbXrecord
280
1
1000
1:1
  0
XRECORD
  5
2A2
330
274
100
AcDbXrecord
280
1
290
1
  0
XRECORD
  5
2A3
330
274
100
AcDbXrecord
280
1
290
0
  0
XRECORD
  5
2A4
330
274
100
AcDbXrecord
280
1
1000
Inside
  0
XRECORD
  5
2A5
330
274
100
AcDbXrecord
280
1
1000
Arial,10,-1,5,50,0,0,0,0,0
  0
XRECORD
  5
2A6
330
274
100
AcDbXrecord
280
1
1000
TopLeft
  0
XRECORD
  5
2A7
330
274
100
AcDbXrecord
280
1
1000
3.32.4
  0
XRECORD
  5
2A8
330
274
100
AcDbXrecord
280
1
 90
4
  0
XRECORD
  5
2AA
330
274
100
AcDbXrecord
280
1
 40
1586.394876431369994
  0
XRECORD
  5
2AB
330
274
100
AcDbXrecord
280
1
 40
2901.8460734722339112
  0
ENDSEC
  0
EOF
