999
dxflib 3.26.4.0
  0
SECTION
  2
HEADER
  9
$ACADVER
  1
AC1015
  9
$HANDSEED
  5
FFFF
  9
$DIMADEC
 70
0
  9
$DIMASZ
 40
2.5
  9
$DIMATFIT
 70
0
  9
$DIMAUNIT
 70
0
  9
$DIMAZIN
 70
2
  9
$DIMBLK
  1
0
  9
$DIMBLK1
  1
0
  9
$DIMBLK2
  1
0
  9
$DIMDEC
 70
4
  9
$DIMDLI
 40
5.0
  9
$DIMDSEP
 70
46
  9
$DIMEXE
 40
1.25
  9
$DIMEXO
 40
0.625
  9
$DIMGAP
 40
0.625
  9
$DIMLFAC
 40
1.0
  9
$DIMLUNIT
 70
2
  9
$DIMSCALE
 40
1.0
  9
$DIMTAD
 70
1
  9
$DIMTIH
 70
0
  9
$DIMTSZ
 40
0.0
  9
$DIMTXT
 40
2.5
  9
$DIMZIN
 70
8
  9
$DWGCODEPAGE
  3
ANSI_1252
  9
$INSUNITS
 70
4
  9
$LTSCALE
 40
1.0
  9
$MAXACTVP
 70
64
  9
$MEASUREMENT
 70
1
  9
$MIRRTEXT
 70
0
  9
$PDMODE
 70
0
  9
$PDSIZE
 40
0.0
  0
ENDSEC
  0
SECTION
  2
TABLES
  0
TABLE
  2
VPORT
  5
8
100
AcDbSymbolTable
 70
1
  0
VPORT
  5
30
100
AcDbSymbolTableRecord
100
AcDbViewportTableRecord
  2
*Active
 70
0
 10
0.0
 20
0.0
 11
1.0
 21
1.0
 12
286.3055555555554861
 22
148.5
 13
0.0
 23
0.0
 14
10.0
 24
10.0
 15
10.0
 25
10.0
 16
0.0
 26
0.0
 36
1.0
 17
0.0
 27
0.0
 37
0.0
 40
297.0
 41
1.92798353909465
 42
50.0
 43
0.0
 44
0.0
 50
0.0
 51
0.0
 71
0
 72
100
 73
1
 74
3
 75
1
 76
1
 77
0
 78
0
281
0
 65
1
110
0.0
120
0.0
130
0.0
111
1.0
121
0.0
131
0.0
112
0.0
122
1.0
132
0.0
 79
0
146
0.0
  0
ENDTAB
  0
TABLE
  2
LTYPE
  5
5
100
AcDbSymbolTable
 70
41
  0
LTYPE
  5
16
100
AcDbSymbolTableRecord
100
AcDbLinetypeTableRecord
  2
Continuous
 70
0
  3
Solid line
 72
65
 73
0
 40
0.0
  0
LTYPE
  5
31
100
AcDbSymbolTableRecord
100
AcDbLinetypeTableRecord
  2
DASHEDX2
 70
0
  3
Dashed (2x) ____  ____  ____  ____  ____  ___
 72
65
 73
2
 40
38.0999999999999943
 49
25.3999999999999986
 74
0
 49
-12.6999999999999993
 74
0
  0
LTYPE
  5
14
100
AcDbSymbolTableRecord
100
AcDbLinetypeTableRecord
  2
BYBLOCK
 70
0
  3

 72
65
 73
0
 40
0.0
  0
LTYPE
  5
32
100
AcDbSymbolTableRecord
100
AcDbLinetypeTableRecord
  2
PHANTOM
 70
0
  3
Phantom ______  __  __  ______  __  __  ______ 
 72
65
 73
6
 40
63.5000000000000071
 49
31.75
 74
0
 49
-6.3499999999999996
 74
0
 49
6.3499999999999996
 74
0
 49
-6.3499999999999996
 74
0
 49
6.3499999999999996
 74
0
 49
-6.3499999999999996
 74
0
  0
LTYPE
  5
33
100
AcDbSymbolTableRecord
100
AcDbLinetypeTableRecord
  2
DASHDOTX2
 70
0
  3
Dash dot (2x) ____  .  ____  .  ____  .  ___
 72
65
 73
4
 40
50.7999999999999972
 49
25.3999999999999986
 74
0
 49
-12.6499999999999986
 74
0
 49
0.1
 74
0
 49
-12.6499999999999986
 74
0
  0
LTYPE
  5
34
100
AcDbSymbolTableRecord
100
AcDbLinetypeTableRecord
  2
ACAD_ISO11W100
 70
0
  3
ISO double-dash dot __ __ . __ __ . __ __ . __ _
 72
65
 73
6
 40
33.0
 49
12.0
 74
0
 49
-3.0
 74
0
 49
12.0
 74
0
 49
-2.9500000000000002
 74
0
 49
0.1
 74
0
 49
-2.9500000000000002
 74
0
  0
LTYPE
  5
35
100
AcDbSymbolTableRecord
100
AcDbLinetypeTableRecord
  2
HIDDEN
 70
0
  3
Hidden __ __ __ __ __ __ __ __ __ __ __ __ __ __
 72
65
 73
2
 40
9.5249999999999986
 49
6.3499999999999996
 74
0
 49
-3.1749999999999998
 74
0
  0
LTYPE
  5
36
100
AcDbSymbolTableRecord
100
AcDbLinetypeTableRecord
  2
CENTERX2
 70
0
  3
Center (2x) ________  __  ________  __  _____
 72
65
 73
4
 40
101.6000000000000085
 49
63.5
 74
0
 49
-12.6999999999999993
 74
0
 49
12.6999999999999993
 74
0
 49
-12.6999999999999993
 74
0
  0
LTYPE
  5
37
100
AcDbSymbolTableRecord
100
AcDbLinetypeTableRecord
  2
ACAD_ISO15W100
 70
0
  3
ISO double-dash triple-dot __ __ . . . __ __ . .
 72
65
 73
10
 40
39.0000000000000071
 49
12.0
 74
0
 49
-3.0
 74
0
 49
12.0
 74
0
 49
-2.9500000000000002
 74
0
 49
0.1
 74
0
 49
-2.9000000000000004
 74
0
 49
0.1
 74
0
 49
-2.9000000000000004
 74
0
 49
0.1
 74
0
 49
-2.9500000000000002
 74
0
  0
LTYPE
  5
38
100
AcDbSymbolTableRecord
100
AcDbLinetypeTableRecord
  2
DASHDOT
 70
0
  3
Dash dot __ . __ . __ . __ . __ . __ . __ . __
 72
65
 73
4
 40
25.4000000000000021
 49
12.6999999999999993
 74
0
 49
-6.2999999999999998
 74
0
 49
0.1
 74
0
 49
-6.2999999999999998
 74
0
  0
LTYPE
  5
39
100
AcDbSymbolTableRecord
100
AcDbLinetypeTableRecord
  2
ACAD_ISO06W100
 70
0
  3
ISO long-dash triple-dot ____ ... ____ ... ____
 72
65
 73
8
 40
36.0000000000000071
 49
24.0
 74
0
 49
-2.9500000000000002
 74
0
 49
0.1
 74
0
 49
-2.9000000000000004
 74
0
 49
0.1
 74
0
 49
-2.9000000000000004
 74
0
 49
0.1
 74
0
 49
-2.9500000000000002
 74
0
  0
LTYPE
  5
3A
100
AcDbSymbolTableRecord
100
AcDbLinetypeTableRecord
  2
ACAD_ISO14W100
 70
0
  3
ISO dash triple-dot __ . . . __ . . . __ . . . _
 72
65
 73
8
 40
24.0000000000000036
 49
12.0
 74
0
 49
-2.9500000000000002
 74
0
 49
0.1
 74
0
 49
-2.9000000000000004
 74
0
 49
0.1
 74
0
 49
-2.9000000000000004
 74
0
 49
0.1
 74
0
 49
-2.9500000000000002
 74
0
  0
LTYPE
  5
3B
100
AcDbSymbolTableRecord
100
AcDbLinetypeTableRecord
  2
ACAD_ISO09W100
 70
0
  3
ISO long-dash double-short-dash ____ __ __ ____
 72
65
 73
6
 40
45.0
 49
24.0
 74
0
 49
-3.0
 74
0
 49
6.0
 74
0
 49
-3.0
 74
0
 49
6.0
 74
0
 49
-3.0
 74
0
  0
LTYPE
  5
3C
100
AcDbSymbolTableRecord
100
AcDbLinetypeTableRecord
  2
ACAD_ISO04W100
 70
0
  3
ISO long-dash dot ____ . ____ . ____ . ____ . _
 72
65
 73
4
 40
30.0
 49
24.0
 74
0
 49
-2.9500000000000002
 74
0
 49
0.1
 74
0
 49
-2.9500000000000002
 74
0
  0
LTYPE
  5
3D
100
AcDbSymbolTableRecord
100
AcDbLinetypeTableRecord
  2
ACAD_ISO13W100
 70
0
  3
ISO double-dash double-dot __ __ . . __ __ . . _
 72
65
 73
8
 40
36.0000000000000071
 49
12.0
 74
0
 49
-3.0
 74
0
 49
12.0
 74
0
 49
-2.9500000000000002
 74
0
 49
0.1
 74
0
 49
-2.9000000000000004
 74
0
 49
0.1
 74
0
 49
-2.9500000000000002
 74
0
  0
LTYPE
  5
3E
100
AcDbSymbolTableRecord
100
AcDbLinetypeTableRecord
  2
DOT
 70
0
  3
Dot . . . . . . . . . . . . . . . . . . . . . . . .
 72
65
 73
2
 40
6.3499999999999996
 49
0.1
 74
0
 49
-6.25
 74
0
  0
LTYPE
  5
3F
100
AcDbSymbolTableRecord
100
AcDbLinetypeTableRecord
  2
HIDDENX2
 70
0
  3
Hidden (2x) ____ ____ ____ ____ ____ ____ ____ 
 72
65
 73
2
 40
19.0499999999999972
 49
12.6999999999999993
 74
0
 49
-6.3499999999999996
 74
0
  0
LTYPE
  5
40
100
AcDbSymbolTableRecord
100
AcDbLinetypeTableRecord
  2
DIVIDE
 70
0
  3
Divide ____ . . ____ . . ____ . . ____ . . ____
 72
65
 73
6
 40
31.7500000000000036
 49
12.6999999999999993
 74
0
 49
-6.2999999999999998
 74
0
 49
0.1
 74
0
 49
-6.25
 74
0
 49
0.1
 74
0
 49
-6.2999999999999998
 74
0
  0
LTYPE
  5
41
100
AcDbSymbolTableRecord
100
AcDbLinetypeTableRecord
  2
CENTER
 70
0
  3
Center ____ _ ____ _ ____ _ ____ _ ____ _ ____
 72
65
 73
4
 40
50.8000000000000043
 49
31.75
 74
0
 49
-6.3499999999999996
 74
0
 49
6.3499999999999996
 74
0
 49
-6.3499999999999996
 74
0
  0
LTYPE
  5
42
100
AcDbSymbolTableRecord
100
AcDbLinetypeTableRecord
  2
ACAD_ISO05W100
 70
0
  3
ISO long-dash double-dot ____ .. ____ .. ____ . 
 72
65
 73
6
 40
33.0000000000000071
 49
24.0
 74
0
 49
-2.9500000000000002
 74
0
 49
0.1
 74
0
 49
-2.9000000000000004
 74
0
 49
0.1
 74
0
 49
-2.9500000000000002
 74
0
  0
LTYPE
  5
43
100
AcDbSymbolTableRecord
100
AcDbLinetypeTableRecord
  2
DIVIDEX2
 70
0
  3
Divide (2x) ________  .  .  ________  .  .  _
 72
65
 73
6
 40
63.5
 49
25.3999999999999986
 74
0
 49
-12.6499999999999986
 74
0
 49
0.1
 74
0
 49
-12.5999999999999979
 74
0
 49
0.1
 74
0
 49
-12.6499999999999986
 74
0
  0
LTYPE
  5
44
100
AcDbSymbolTableRecord
100
AcDbLinetypeTableRecord
  2
DOT2
 70
0
  3
Dot (.5x) ........................................
 72
65
 73
2
 40
3.1749999999999998
 49
0.1
 74
0
 49
-3.0749999999999997
 74
0
  0
LTYPE
  5
45
100
AcDbSymbolTableRecord
100
AcDbLinetypeTableRecord
  2
DOTX2
 70
0
  3
Dot (2x) .  .  .  .  .  .  .  .  .  .  .  .  .  .
 72
65
 73
2
 40
12.6999999999999993
 49
0.1
 74
0
 49
-12.5999999999999996
 74
0
  0
LTYPE
  5
46
100
AcDbSymbolTableRecord
100
AcDbLinetypeTableRecord
  2
DASHED
 70
0
  3
Dashed __ __ __ __ __ __ __ __ __ __ __ __ __ _
 72
65
 73
2
 40
19.0499999999999972
 49
12.6999999999999993
 74
0
 49
-6.3499999999999996
 74
0
  0
LTYPE
  5
47
100
AcDbSymbolTableRecord
100
AcDbLinetypeTableRecord
  2
PHANTOMX2
 70
0
  3
Phantom (2x) ____________    ____    ____   _
 72
65
 73
6
 40
127.0000000000000142
 49
63.5
 74
0
 49
-12.6999999999999993
 74
0
 49
12.6999999999999993
 74
0
 49
-12.6999999999999993
 74
0
 49
12.6999999999999993
 74
0
 49
-12.6999999999999993
 74
0
  0
LTYPE
  5
48
100
AcDbSymbolTableRecord
100
AcDbLinetypeTableRecord
  2
ACAD_ISO08W100
 70
0
  3
ISO long-dash short-dash ____ __ ____ __ ____ _
 72
65
 73
4
 40
36.0
 49
24.0
 74
0
 49
-3.0
 74
0
 49
6.0
 74
0
 49
-3.0
 74
0
  0
LTYPE
  5
49
100
AcDbSymbolTableRecord
100
AcDbLinetypeTableRecord
  2
ACAD_ISO07W100
 70
0
  3
ISO dot . . . . . . . . . . . . . . . . . . . . 
 72
65
 73
2
 40
3.0
 49
0.1
 74
0
 49
-2.8999999999999999
 74
0
  0
LTYPE
  5
4A
100
AcDbSymbolTableRecord
100
AcDbLinetypeTableRecord
  2
BORDER2
 70
0
  3
Border (.5x) __.__.__.__.__.__.__.__.__.__.__.
 72
65
 73
6
 40
22.2250000000000014
 49
6.3499999999999996
 74
0
 49
-3.1749999999999998
 74
0
 49
6.3499999999999996
 74
0
 49
-3.125
 74
0
 49
0.1
 74
0
 49
-3.125
 74
0
  0
LTYPE
  5
15
100
AcDbSymbolTableRecord
100
AcDbLinetypeTableRecord
  2
BYLAYER
 70
0
  3

 72
65
 73
0
 40
0.0
  0
LTYPE
  5
4B
100
AcDbSymbolTableRecord
100
AcDbLinetypeTableRecord
  2
CENTER2
 70
0
  3
Center (.5x) ___ _ ___ _ ___ _ ___ _ ___ _ ___
 72
65
 73
4
 40
28.5750000000000028
 49
19.0500000000000007
 74
0
 49
-3.1749999999999998
 74
0
 49
3.1749999999999998
 74
0
 49
-3.1749999999999998
 74
0
  0
LTYPE
  5
4C
100
AcDbSymbolTableRecord
100
AcDbLinetypeTableRecord
  2
PHANTOM2
 70
0
  3
Phantom (.5x) ___ _ _ ___ _ _ ___ _ _ ___ _ _
 72
65
 73
6
 40
31.7500000000000036
 49
15.875
 74
0
 49
-3.1749999999999998
 74
0
 49
3.1749999999999998
 74
0
 49
-3.1749999999999998
 74
0
 49
3.1749999999999998
 74
0
 49
-3.1749999999999998
 74
0
  0
LTYPE
  5
4D
100
AcDbSymbolTableRecord
100
AcDbLinetypeTableRecord
  2
ACAD_ISO10W100
 70
0
  3
ISO dash dot __ . __ . __ . __ . __ . __ . __ . 
 72
65
 73
4
 40
18.0
 49
12.0
 74
0
 49
-2.9500000000000002
 74
0
 49
0.1
 74
0
 49
-2.9500000000000002
 74
0
  0
LTYPE
  5
4E
100
AcDbSymbolTableRecord
100
AcDbLinetypeTableRecord
  2
BORDERX2
 70
0
  3
Border (2x) ____  ____  .  ____  ____  .  ___
 72
65
 73
6
 40
88.8999999999999773
 49
25.3999999999999986
 74
0
 49
-12.6999999999999993
 74
0
 49
25.3999999999999986
 74
0
 49
-12.6499999999999986
 74
0
 49
0.1
 74
0
 49
-12.6499999999999986
 74
0
  0
LTYPE
  5
4F
100
AcDbSymbolTableRecord
100
AcDbLinetypeTableRecord
  2
ACAD_ISO12W100
 70
0
  3
ISO dash double-dot __ . . __ . . __ . . __ . . 
 72
65
 73
6
 40
21.0
 49
12.0
 74
0
 49
-2.9500000000000002
 74
0
 49
0.1
 74
0
 49
-2.9000000000000004
 74
0
 49
0.1
 74
0
 49
-2.9500000000000002
 74
0
  0
LTYPE
  5
50
100
AcDbSymbolTableRecord
100
AcDbLinetypeTableRecord
  2
DASHED2
 70
0
  3
Dashed (.5x) _ _ _ _ _ _ _ _ _ _ _ _ _ _ _ _ _ 
 72
65
 73
2
 40
9.5249999999999986
 49
6.3499999999999996
 74
0
 49
-3.1749999999999998
 74
0
  0
LTYPE
  5
51
100
AcDbSymbolTableRecord
100
AcDbLinetypeTableRecord
  2
BORDER
 70
0
  3
Border __ __ . __ __ . __ __ . __ __ . __ __ .
 72
65
 73
6
 40
44.4499999999999957
 49
12.6999999999999993
 74
0
 49
-6.3499999999999996
 74
0
 49
12.6999999999999993
 74
0
 49
-6.2999999999999998
 74
0
 49
0.1
 74
0
 49
-6.2999999999999998
 74
0
  0
LTYPE
  5
52
100
AcDbSymbolTableRecord
100
AcDbLinetypeTableRecord
  2
DASHDOT2
 70
0
  3
Dash dot (.5x) _._._._._._._._._._._._._._._.
 72
65
 73
4
 40
12.6999999999999993
 49
6.3499999999999996
 74
0
 49
-3.125
 74
0
 49
0.1
 74
0
 49
-3.125
 74
0
  0
LTYPE
  5
53
100
AcDbSymbolTableRecord
100
AcDbLinetypeTableRecord
  2
ACAD_ISO02W100
 70
0
  3
ISO dash __ __ __ __ __ __ __ __ __ __ __ __ __
 72
65
 73
2
 40
15.0
 49
12.0
 74
0
 49
-3.0
 74
0
  0
LTYPE
  5
54
100
AcDbSymbolTableRecord
100
AcDbLinetypeTableRecord
  2
ACAD_ISO03W100
 70
0
  3
ISO dash space __    __    __    __    __    __
 72
65
 73
2
 40
30.0
 49
12.0
 74
0
 49
-18.0
 74
0
  0
LTYPE
  5
55
100
AcDbSymbolTableRecord
100
AcDbLinetypeTableRecord
  2
HIDDEN2
 70
0
  3
Hidden (.5x) _ _ _ _ _ _ _ _ _ _ _ _ _ _ _ _ _ 
 72
65
 73
2
 40
4.7624999999999993
 49
3.1749999999999998
 74
0
 49
-1.5874999999999999
 74
0
  0
LTYPE
  5
56
100
AcDbSymbolTableRecord
100
AcDbLinetypeTableRecord
  2
DIVIDE2
 70
0
  3
Divide (.5x) __..__..__..__..__..__..__..__.._
 72
65
 73
6
 40
15.8749999999999982
 49
6.3499999999999996
 74
0
 49
-3.125
 74
0
 49
0.1
 74
0
 49
-3.0750000000000002
 74
0
 49
0.1
 74
0
 49
-3.125
 74
0
  0
ENDTAB
  0
TABLE
  2
LAYER
  5
2
100
AcDbSymbolTable
 70
5
  0
LAYER
  5
57
100
AcDbSymbolTableRecord
100
AcDbLayerTableRecord
  2
tab-sketch
 70
0
 62
14
420
8388608
  6
Continuous
370
0
390
F
  0
LAYER
  5
58
100
AcDbSymbolTableRecord
100
AcDbLayerTableRecord
  2
sketch
 70
0
 62
1
420
16711680
  6
HIDDEN
370
0
390
F
  0
LAYER
  5
59
100
AcDbSymbolTableRecord
100
AcDbLayerTableRecord
  2
wall-sketch
 70
0
 62
5
420
255
  6
Continuous
370
0
390
F
  0
LAYER
  5
10
100
AcDbSymbolTableRecord
100
AcDbLayerTableRecord
  2
0
 70
0
 62
7
420
16777215
  6
Continuous
370
25
390
F
  0
LAYER
  5
5A
100
AcDbSymbolTableRecord
100
AcDbLayerTableRecord
  2
dimensions
 70
0
 62
6
420
16711935
  6
Continuous
370
0
390
F
  0
ENDTAB
  0
TABLE
  2
STYLE
  5
3
100
AcDbSymbolTable
 70
1
  0
STYLE
  5
5B
100
AcDbSymbolTableRecord
100
AcDbTextStyleTableRecord
  2
Standard
 70
0
 40
0.0
 41
1.0
 50
0.0
 71
0
 42
2.5
  3

  4

1001
ACAD
1000
txt
1071
0
  0
ENDTAB
  0
TABLE
  2
VIEW
  5
6
100
AcDbSymbolTable
 70
0
  0
ENDTAB
  0
TABLE
  2
UCS
  5
7
100
AcDbSymbolTable
 70
0
  0
ENDTAB
  0
TABLE
  2
APPID
  5
9
100
AcDbSymbolTable
 70
1
  0
APPID
  5
12
100
AcDbSymbolTableRecord
100
AcDbRegAppTableRecord
  2
ACAD
 70
0
  0
APPID
  5
5C
100
AcDbSymbolTableRecord
100
AcDbRegAppTableRecord
  2
QCAD
 70
0
  0
ENDTAB
  0
TABLE
  2
DIMSTYLE
  5
A
100
AcDbSymbolTable
 70
1
100
AcDbDimStyleTable
 71
0
  0
DIMSTYLE
105
27
100
AcDbSymbolTableRecord
100
AcDbDimStyleTableRecord
  2
Standard
 41
2.5
 42
0.625
 43
3.75
 44
1.25
 70
0
 73
0
 74
0
 77
1
 78
8
140
2.5
141
2.5
143
0.03937007874016
147
0.625
171
3
172
1
271
2
272
2
274
3
278
44
283
0
284
8
340
5B
  0
ENDTAB
  0
TABLE
  2
BLOCK_RECORD
  5
1
100
AcDbSymbolTable
 70
1
  0
BLOCK_RECORD
  5
1F
100
AcDbSymbolTableRecord
100
AcDbBlockTableRecord
  2
*Model_Space
340
22
  0
BLOCK_RECORD
  5
1B
100
AcDbSymbolTableRecord
100
AcDbBlockTableRecord
  2
*Paper_Space
340
1E
  0
BLOCK_RECORD
  5
23
100
AcDbSymbolTableRecord
100
AcDbBlockTableRecord
  2
*Paper_Space0
340
26
  0
BLOCK_RECORD
  5
5D
100
AcDbSymbolTableRecord
100
AcDbBlockTableRecord
  2
tab
340
0
  0
BLOCK_RECORD
  5
5E
100
AcDbSymbolTableRecord
100
AcDbBlockTableRecord
  2
tab-hole
340
0
  0
BLOCK_RECORD
  5
5F
100
AcDbSymbolTableRecord
100
AcDbBlockTableRecord
  2
tab-hole-middle
340
0
  0
BLOCK_RECORD
  5
60
100
AcDbSymbolTableRecord
100
AcDbBlockTableRecord
  2
spot-sketch
340
0
  0
ENDTAB
  0
ENDSEC
  0
SECTION
  2
BLOCKS
  0
BLOCK
  5
20
100
AcDbEntity
  8
0
100
AcDbBlockBegin
  2
*Model_Space
 70
0
 10
0.0
 20
0.0
 30
0.0
  3
*Model_Space
  1

  0
ENDBLK
  5
21
100
AcDbEntity
  8
0
100
AcDbBlockEnd
  0
BLOCK
  5
1C
100
AcDbEntity
 67
1
  8
0
100
AcDbBlockBegin
  2
*Paper_Space
 70
0
 10
0.0
 20
0.0
 30
0.0
  3
*Paper_Space
  1

  0
ENDBLK
  5
1D
100
AcDbEntity
 67
1
  8
0
100
AcDbBlockEnd
  0
BLOCK
  5
24
100
AcDbEntity
  8
0
100
AcDbBlockBegin
  2
*Paper_Space0
 70
0
 10
0.0
 20
0.0
 30
0.0
  3
*Paper_Space0
  1

  0
ENDBLK
  5
25
100
AcDbEntity
  8
0
100
AcDbBlockEnd
  0
BLOCK
  5
61
100
AcDbEntity
  8
0
100
AcDbBlockBegin
  2
tab
 70
0
 10
0.0
 20
0.0
 30
0.0
  3
tab
  1

  0
LINE
  5
62
100
AcDbEntity
  8
tab-sketch
 62
256
370
-1
 48
1.0
  6
BYLAYER
100
AcDbLine
 10
-3.1000000000000001
 20
-5.0999999999999996
 30
0.0
 11
0.0
 21
-5.0999999999999996
 31
0.0
  0
LINE
  5
63
100
AcDbEntity
  8
tab-sketch
 62
256
370
-1
 48
1.0
  6
BYLAYER
100
AcDbLine
 10
0.0
 20
-5.0999999999999996
 30
0.0
 11
0.0
 21
5.0999999999999996
 31
0.0
  0
LINE
  5
64
100
AcDbEntity
  8
tab-sketch
 62
256
370
-1
 48
1.0
  6
BYLAYER
100
AcDbLine
 10
0.0
 20
5.0999999999999996
 30
0.0
 11
-3.1000000000000001
 21
5.0999999999999996
 31
0.0
  0
LINE
  5
65
100
AcDbEntity
  8
tab-sketch
 62
256
370
-1
 48
1.0
  6
BYLAYER
100
AcDbLine
 10
-3.1000000000000001
 20
5.0999999999999996
 30
0.0
 11
-3.1000000000000001
 21
-5.0999999999999996
 31
0.0
  0
LINE
  5
66
100
AcDbEntity
  8
0
 62
256
370
-1
 48
1.0
  6
BYLAYER
100
AcDbLine
 10
0.0
 20
5.0999999999999996
 30
0.0
 11
-3.1000000000000001
 21
5.0999999999999996
 31
0.0
  0
LINE
  5
67
100
AcDbEntity
  8
0
 62
256
370
-1
 48
1.0
  6
BYLAYER
100
AcDbLine
 10
-3.1000000000000001
 20
5.0999999999999996
 30
0.0
 11
-3.1000000000000001
 21
-5.0999999999999996
 31
0.0
  0
LINE
  5
68
100
AcDbEntity
  8
0
 62
256
370
-1
 48
1.0
  6
BYLAYER
100
AcDbLine
 10
-3.1000000000000001
 20
-5.0999999999999996
 30
0.0
 11
0.0
 21
-5.0999999999999996
 31
0.0
  0
ENDBLK
  5
69
100
AcDbEntity
  8
0
100
AcDbBlockEnd
  0
BLOCK
  5
6A
100
AcDbEntity
  8
0
100
AcDbBlockBegin
  2
tab-hole
 70
0
 10
0.0
 20
0.0
 30
0.0
  3
tab-hole
  1

  0
LINE
  5
6B
100
AcDbEntity
  8
0
 62
256
370
-1
 48
1.0
  6
BYLAYER
100
AcDbLine
 10
-3.1000000000000001
 20
-5.0499999999999998
 30
0.0
 11
0.0
 21
-5.0499999999999998
 31
0.0
  0
LINE
  5
6C
100
AcDbEntity
  8
0
 62
256
370
-1
 48
1.0
  6
BYLAYER
100
AcDbLine
 10
0.0
 20
-5.0499999999999998
 30
0.0
 11
0.0
 21
5.0499999999999998
 31
0.0
  0
LINE
  5
6D
100
AcDbEntity
  8
0
 62
256
370
-1
 48
1.0
  6
BYLAYER
100
AcDbLine
 10
0.0
 20
5.0499999999999998
 30
0.0
 11
-3.1000000000000001
 21
5.0499999999999998
 31
0.0
  0
LINE
  5
6E
100
AcDbEntity
  8
0
 62
256
370
-1
 48
1.0
  6
BYLAYER
100
AcDbLine
 10
-3.1000000000000001
 20
5.0499999999999998
 30
0.0
 11
-3.1000000000000001
 21
-5.0499999999999998
 31
0.0
  0
ENDBLK
  5
6F
100
AcDbEntity
  8
0
100
AcDbBlockEnd
  0
BLOCK
  5
70
100
AcDbEntity
  8
0
100
AcDbBlockBegin
  2
tab-hole-middle
 70
0
 10
0.0
 20
0.0
 30
0.0
  3
tab-hole-middle
  1

  0
LINE
  5
71
100
AcDbEntity
  8
0
 62
256
370
-1
 48
1.0
  6
BYLAYER
100
AcDbLine
 10
1.5499999999999998
 20
5.0499999999999998
 30
0.0
 11
-1.5499999999999969
 21
5.0500000000000007
 31
0.0
  0
LINE
  5
72
100
AcDbEntity
  8
0
 62
256
370
-1
 48
1.0
  6
BYLAYER
100
AcDbLine
 10
-1.5499999999999969
 20
5.0500000000000007
 30
0.0
 11
-1.5499999999999992
 21
-5.0499999999999998
 31
0.0
  0
LINE
  5
73
100
AcDbEntity
  8
0
 62
256
370
-1
 48
1.0
  6
BYLAYER
100
AcDbLine
 10
-1.5499999999999992
 20
-5.0499999999999998
 30
0.0
 11
1.5499999999999974
 21
-5.0500000000000007
 31
0.0
  0
LINE
  5
74
100
AcDbEntity
  8
0
 62
256
370
-1
 48
1.0
  6
BYLAYER
100
AcDbLine
 10
1.5499999999999974
 20
-5.0500000000000007
 30
0.0
 11
1.5499999999999998
 21
5.0499999999999998
 31
0.0
  0
ENDBLK
  5
75
100
AcDbEntity
  8
0
100
AcDbBlockEnd
  0
BLOCK
  5
76
100
AcDbEntity
  8
0
100
AcDbBlockBegin
  2
spot-sketch
 70
0
 10
0.0
 20
0.0
 30
0.0
  3
spot-sketch
  1

  0
LINE
  5
77
100
AcDbEntity
  8
dimensions
 62
256
370
-1
 48
1.0
  6
BYLAYER
100
AcDbLine
 10
-106.5
 20
0.0
 30
0.0
 11
13.5
 21
0.0
 31
0.0
  0
LINE
  5
78
100
AcDbEntity
  8
dimensions
 62
256
370
-1
 48
1.0
  6
BYLAYER
100
AcDbLine
 10
13.5
 20
0.0
 30
0.0
 11
13.5
 21
180.0
 31
0.0
  0
LINE
  5
79
100
AcDbEntity
  8
dimensions
 62
256
370
-1
 48
1.0
  6
BYLAYER
100
AcDbLine
 10
13.5
 20
180.0
 30
0.0
 11
-106.5
 21
180.0
 31
0.0
  0
LINE
  5
7A
100
AcDbEntity
  8
dimensions
 62
256
370
-1
 48
1.0
  6
BYLAYER
100
AcDbLine
 10
-106.5
 20
180.0
 30
0.0
 11
-106.5
 21
0.0
 31
0.0
  0
LINE
  5
7B
100
AcDbEntity
  8
dimensions
 62
256
370
-1
 48
1.0
  6
BYLAYER
100
AcDbLine
 10
-36.5
 20
0.0000000000000071
 30
0.0
 11
-36.5
 21
180.0
 31
0.0
  0
LINE
  5
7C
100
AcDbEntity
  8
dimensions
 62
256
370
-1
 48
1.0
  6
BYLAYER
100
AcDbLine
 10
13.5
 20
90.0
 30
0.0
 11
-106.5000000000000284
 21
90.0
 31
0.0
  0
LINE
  5
7D
100
AcDbEntity
  8
dimensions
 62
256
370
-1
 48
1.0
  6
BYLAYER
100
AcDbLine
 10
-56.5
 20
-87.0
 30
0.0
 11
-16.5
 21
-87.0
 31
0.0
  0
LINE
  5
7E
100
AcDbEntity
  8
dimensions
 62
256
370
-1
 48
1.0
  6
BYLAYER
100
AcDbLine
 10
-16.5
 20
-87.0
 30
0.0
 11
-16.5
 21
0.0
 31
0.0
  0
LINE
  5
7F
100
AcDbEntity
  8
dimensions
 62
256
370
-1
 48
1.0
  6
BYLAYER
100
AcDbLine
 10
-16.5
 20
0.0
 30
0.0
 11
-56.5
 21
0.0
 31
0.0
  0
LINE
  5
80
100
AcDbEntity
  8
dimensions
 62
256
370
-1
 48
1.0
  6
BYLAYER
100
AcDbLine
 10
-56.5
 20
0.0
 30
0.0
 11
-56.5
 21
-87.0
 31
0.0
  0
LINE
  5
81
100
AcDbEntity
  8
wall-sketch
 62
256
370
-1
 48
1.0
  6
BYLAYER
100
AcDbLine
 10
-109.5000000000000142
 20
-180.0
 30
0.0
 11
-109.4999999999999858
 21
180.0
 31
0.0
  0
LINE
  5
82
100
AcDbEntity
  8
wall-sketch
 62
256
370
-1
 48
1.0
  6
BYLAYER
100
AcDbLine
 10
-56.5
 20
-87.0
 30
0.0
 11
-56.5
 21
-90.0
 31
0.0
  0
LINE
  5
83
100
AcDbEntity
  8
wall-sketch
 62
256
370
-1
 48
1.0
  6
BYLAYER
100
AcDbLine
 10
-56.5
 20
-90.0
 30
0.0
 11
-16.5
 21
-90.0
 31
0.0
  0
LINE
  5
84
100
AcDbEntity
  8
wall-sketch
 62
256
370
-1
 48
1.0
  6
BYLAYER
100
AcDbLine
 10
-16.5
 20
-90.0
 30
0.0
 11
-13.5
 21
-90.0
 31
0.0
  0
LINE
  5
85
100
AcDbEntity
  8
wall-sketch
 62
256
370
-1
 48
1.0
  6
BYLAYER
100
AcDbLine
 10
-106.5
 20
177.0
 30
0.0
 11
13.5
 21
177.0
 31
0.0
  0
LINE
  5
86
100
AcDbEntity
  8
wall-sketch
 62
256
370
-1
 48
1.0
  6
BYLAYER
100
AcDbLine
 10
16.5
 20
180.0
 30
0.0
 11
16.5
 21
-1.5
 31
0.0
  0
LINE
  5
87
100
AcDbEntity
  8
wall-sketch
 62
256
370
-1
 48
1.0
  6
BYLAYER
100
AcDbLine
 10
-56.5
 20
1.5
 30
0.0
 11
-109.5
 21
1.5
 31
0.0
  0
LINE
  5
88
100
AcDbEntity
  8
wall-sketch
 62
256
370
-1
 48
1.0
  6
BYLAYER
100
AcDbLine
 10
-56.5
 20
-1.5
 30
0.0
 11
-109.5
 21
-1.5
 31
0.0
  0
LINE
  5
89
100
AcDbEntity
  8
wall-sketch
 62
256
370
-1
 48
1.0
  6
BYLAYER
100
AcDbLine
 10
-56.5
 20
1.5
 30
0.0
 11
-56.5
 21
-1.5
 31
0.0
  0
LINE
  5
8A
100
AcDbEntity
  8
wall-sketch
 62
256
370
-1
 48
1.0
  6
BYLAYER
100
AcDbLine
 10
-109.4999999999999858
 20
180.0
 30
0.0
 11
16.5
 21
180.0
 31
0.0
  0
LINE
  5
8B
100
AcDbEntity
  8
wall-sketch
 62
256
370
-1
 48
1.0
  6
BYLAYER
100
AcDbLine
 10
13.5
 20
177.0
 30
0.0
 11
13.5
 21
-1.5
 31
0.0
  0
LINE
  5
8C
100
AcDbEntity
  8
wall-sketch
 62
256
370
-1
 48
1.0
  6
BYLAYER
100
AcDbLine
 10
-56.5
 20
-87.0
 30
0.0
 11
-16.5
 21
-87.0
 31
0.0
  0
LINE
  5
8D
100
AcDbEntity
  8
wall-sketch
 62
256
370
-1
 48
1.0
  6
BYLAYER
100
AcDbLine
 10
-109.5000000000000142
 20
-180.0
 30
0.0
 11
-106.5
 21
-180.0
 31
0.0
  0
LINE
  5
8E
100
AcDbEntity
  8
wall-sketch
 62
256
370
-1
 48
1.0
  6
BYLAYER
100
AcDbLine
 10
-13.5
 20
-90.0
 30
0.0
 11
-13.5
 21
-87.0
 31
0.0
  0
LINE
  5
8F
100
AcDbEntity
  8
wall-sketch
 62
256
370
-1
 48
1.0
  6
BYLAYER
100
AcDbLine
 10
-13.5
 20
-87.0
 30
0.0
 11
-16.5
 21
-87.0
 31
0.0
  0
LINE
  5
90
100
AcDbEntity
  8
wall-sketch
 62
256
370
-1
 48
1.0
  6
BYLAYER
100
AcDbLine
 10
-106.5
 20
177.0
 30
0.0
 11
-106.5
 21
-180.0
 31
0.0
  0
LINE
  5
91
100
AcDbEntity
  8
wall-sketch
 62
256
370
-1
 48
1.0
  6
BYLAYER
100
AcDbLine
 10
-106.5
 20
-180.0
 30
0.0
 11
-13.5
 21
-180.0
 31
0.0
  0
LINE
  5
92
100
AcDbEntity
  8
wall-sketch
 62
256
370
-1
 48
1.0
  6
BYLAYER
100
AcDbLine
 10
-13.5
 20
-180.0
 30
0.0
 11
-13.5
 21
-177.0
 31
0.0
  0
LINE
  5
93
100
AcDbEntity
  8
wall-sketch
 62
256
370
-1
 48
1.0
  6
BYLAYER
100
AcDbLine
 10
-13.5
 20
-177.0
 30
0.0
 11
-109.5000000000000142
 21
-177.0
 31
0.0
  0
LINE
  5
94
100
AcDbEntity
  8
wall-sketch
 62
256
370
-1
 48
1.0
  6
BYLAYER
100
AcDbLine
 10
0.0
 20
1.5
 30
0.0
 11
16.5
 21
1.5
 31
0.0
  0
LINE
  5
95
100
AcDbEntity
  8
wall-sketch
 62
256
370
-1
 48
1.0
  6
BYLAYER
100
AcDbLine
 10
0.0
 20
-1.5
 30
0.0
 11
16.5
 21
-1.5
 31
0.0
  0
ENDBLK
  5
96
100
AcDbEntity
  8
0
100
AcDbBlockEnd
  0
ENDSEC
  0
SECTION
  2
ENTITIES
  0
LINE
  5
97
100
AcDbEntity
  8
sketch
 62
256
370
-1
 48
1.0
  6
BYLAYER
100
AcDbLine
 10
-653.0
 20
-100.0
 30
0.0
 11
-653.0
 21
400.0
 31
0.0
  0
LINE
  5
98
100
AcDbEntity
  8
sketch
 62
256
370
-1
 48
1.0
  6
BYLAYER
100
AcDbLine
 10
1949.0
 20
5.7499999999999432
 30
0.0
 11
1949.0
 21
505.7499999999999432
 31
0.0
  0
LINE
  5
99
100
AcDbEntity
  8
sketch
 62
256
370
-1
 48
1.0
  6
BYLAYER
100
AcDbLine
 10
2149.0
 20
5.7499999999999432
 30
0.0
 11
2149.0
 21
505.7499999999999432
 31
0.0
  0
LINE
  5
9A
100
AcDbEntity
  8
sketch
 62
256
370
-1
 48
1.0
  6
BYLAYER
100
AcDbLine
 10
1485.0
 20
5.75
 30
0.0
 11
1485.0
 21
505.75
 31
0.0
  0
LINE
  5
9B
100
AcDbEntity
  8
sketch
 62
256
370
-1
 48
1.0
  6
BYLAYER
100
AcDbLine
 10
-656.0
 20
-100.0
 30
0.0
 11
-656.0
 21
400.0
 31
0.0
  0
LINE
  5
9C
100
AcDbEntity
  8
sketch
 62
256
370
-1
 48
1.0
  6
BYLAYER
100
AcDbLine
 10
1946.0
 20
5.7499999999999432
 30
0.0
 11
1946.0
 21
505.7499999999999432
 31
0.0
  0
LINE
  5
9D
100
AcDbEntity
  8
sketch
 62
256
370
-1
 48
1.0
  6
BYLAYER
100
AcDbLine
 10
2146.0
 20
5.7499999999999432
 30
0.0
 11
2146.0
 21
505.7499999999999432
 31
0.0
  0
LINE
  5
9E
100
AcDbEntity
  8
sketch
 62
256
370
-1
 48
1.0
  6
BYLAYER
100
AcDbLine
 10
1488.0
 20
5.75
 30
0.0
 11
1488.0
 21
505.75
 31
0.0
  0
LINE
  5
9F
100
AcDbEntity
  8
sketch
 62
256
370
-1
 48
1.0
  6
BYLAYER
100
AcDbLine
 10
-713.0
 20
-100.0
 30
0.0
 11
-713.0
 21
400.0
 31
0.0
  0
LINE
  5
A0
100
AcDbEntity
  8
sketch
 62
256
370
-1
 48
1.0
  6
BYLAYER
100
AcDbLine
 10
1889.0
 20
5.7499999999999432
 30
0.0
 11
1889.0
 21
505.7499999999999432
 31
0.0
  0
LINE
  5
A1
100
AcDbEntity
  8
sketch
 62
256
370
-1
 48
1.0
  6
BYLAYER
100
AcDbLine
 10
2089.0
 20
5.7499999999999432
 30
0.0
 11
2089.0
 21
505.7499999999999432
 31
0.0
  0
LINE
  5
A2
100
AcDbEntity
  8
sketch
 62
256
370
-1
 48
1.0
  6
BYLAYER
100
AcDbLine
 10
1545.0
 20
5.75
 30
0.0
 11
1545.0
 21
505.75
 31
0.0
  0
LINE
  5
A3
100
AcDbEntity
  8
sketch
 62
256
370
-1
 48
1.0
  6
BYLAYER
100
AcDbLine
 10
-659.0
 20
-100.0
 30
0.0
 11
-659.0
 21
400.0
 31
0.0
  0
LINE
  5
A4
100
AcDbEntity
  8
sketch
 62
256
370
-1
 48
1.0
  6
BYLAYER
100
AcDbLine
 10
1943.0
 20
5.7499999999999432
 30
0.0
 11
1943.0
 21
505.7499999999999432
 31
0.0
  0
LINE
  5
A5
100
AcDbEntity
  8
sketch
 62
256
370
-1
 48
1.0
  6
BYLAYER
100
AcDbLine
 10
2143.0
 20
5.7499999999999432
 30
0.0
 11
2143.0
 21
505.7499999999999432
 31
0.0
  0
LINE
  5
A6
100
AcDbEntity
  8
sketch
 62
256
370
-1
 48
1.0
  6
BYLAYER
100
AcDbLine
 10
1491.0
 20
5.75
 30
0.0
 11
1491.0
 21
505.75
 31
0.0
  0
LINE
  5
A7
100
AcDbEntity
  8
sketch
 62
256
370
-1
 48
1.0
  6
BYLAYER
100
AcDbLine
 10
-779.0
 20
-100.0
 30
0.0
 11
-779.0
 21
400.0000000000000568
 31
0.0
  0
LINE
  5
A8
100
AcDbEntity
  8
sketch
 62
256
370
-1
 48
1.0
  6
BYLAYER
100
AcDbLine
 10
1823.0
 20
5.7499999999999432
 30
0.0
 11
1823.0
 21
505.75
 31
0.0
  0
LINE
  5
A9
100
AcDbEntity
  8
sketch
 62
256
370
-1
 48
1.0
  6
BYLAYER
100
AcDbLine
 10
2023.0
 20
5.7499999999999432
 30
0.0
 11
2023.0
 21
505.75
 31
0.0
  0
LINE
  5
AA
100
AcDbEntity
  8
sketch
 62
256
370
-1
 48
1.0
  6
BYLAYER
100
AcDbLine
 10
1611.0
 20
5.75
 30
0.0
 11
1611.0
 21
505.75
 31
0.0
  0
LINE
  5
AB
100
AcDbEntity
  8
sketch
 62
256
370
-1
 48
1.0
  6
BYLAYER
100
AcDbLine
 10
-782.0
 20
-100.0
 30
0.0
 11
-782.0
 21
400.0000000000000568
 31
0.0
  0
LINE
  5
AC
100
AcDbEntity
  8
sketch
 62
256
370
-1
 48
1.0
  6
BYLAYER
100
AcDbLine
 10
1820.0
 20
5.7499999999999432
 30
0.0
 11
1820.0
 21
505.75
 31
0.0
  0
LINE
  5
AD
100
AcDbEntity
  8
sketch
 62
256
370
-1
 48
1.0
  6
BYLAYER
100
AcDbLine
 10
2020.0
 20
5.7499999999999432
 30
0.0
 11
2020.0
 21
505.75
 31
0.0
  0
LINE
  5
AE
100
AcDbEntity
  8
sketch
 62
256
370
-1
 48
1.0
  6
BYLAYER
100
AcDbLine
 10
1614.0
 20
5.75
 30
0.0
 11
1614.0
 21
505.7500000000000568
 31
0.0
  0
LINE
  5
AF
100
AcDbEntity
  8
sketch
 62
256
370
-1
 48
1.0
  6
BYLAYER
100
AcDbLine
 10
-785.0
 20
-100.0
 30
0.0
 11
-785.0
 21
400.0000000000000568
 31
0.0
  0
LINE
  5
B0
100
AcDbEntity
  8
sketch
 62
256
370
-1
 48
1.0
  6
BYLAYER
100
AcDbLine
 10
1817.0
 20
5.7499999999999432
 30
0.0
 11
1817.0
 21
505.75
 31
0.0
  0
LINE
  5
B1
100
AcDbEntity
  8
sketch
 62
256
370
-1
 48
1.0
  6
BYLAYER
100
AcDbLine
 10
2017.0
 20
5.7499999999999432
 30
0.0
 11
2017.0
 21
505.75
 31
0.0
  0
LINE
  5
B2
100
AcDbEntity
  8
sketch
 62
256
370
-1
 48
1.0
  6
BYLAYER
100
AcDbLine
 10
1617.0
 20
5.75
 30
0.0
 11
1617.0
 21
505.75
 31
0.0
  0
DIMENSION
  5
B3
100
AcDbEntity
  8
sketch
 62
256
370
-1
 48
1.0
  6
BYLAYER
100
AcDbDimension
 10
-779.0
 20
439.9999999999990905
 30
0.0
 11
-719.0
 21
441.8749999999990905
 31
0.0
 70
0
 71
8
 72
2
 74
0
 75
0
 41
1.0
 42
0.0
  1

  3
Standard
100
AcDbAlignedDimension
 13
-779.0
 23
400.0000000000009663
 33
0.0
 14
-659.0
 24
399.9999999999977263
 34
0.0
 50
0.0
100
AcDbRotatedDimension
1001
ACAD
1000
DSTYLE
1002
{
1070
144
1040
1.0
1070
40
1040
1.0
1002
}
  0
DIMENSION
  5
B4
100
AcDbEntity
  8
sketch
 62
256
370
-1
 48
1.0
  6
BYLAYER
100
AcDbDimension
 10
1823.0
 20
545.7500000000042064
 30
0.0
 11
1883.0
 21
547.6250000000042064
 31
0.0
 70
0
 71
8
 72
2
 74
0
 75
0
 41
1.0
 42
0.0
  1

  3
Standard
100
AcDbAlignedDimension
 13
1823.0
 23
505.7500000000031264
 33
0.0
 14
1943.0
 24
505.7499999999949978
 34
0.0
 50
0.0
100
AcDbRotatedDimension
1001
ACAD
1000
DSTYLE
1002
{
1070
144
1040
1.0
1070
40
1040
1.0
1002
}
  0
DIMENSION
  5
B5
100
AcDbEntity
  8
sketch
 62
256
370
-1
 48
1.0
  6
BYLAYER
100
AcDbDimension
 10
2023.0
 20
545.750000000003979
 30
0.0
 11
2083.0
 21
547.625000000003979
 31
0.0
 70
0
 71
8
 72
2
 74
0
 75
0
 41
1.0
 42
0.0
  1

  3
Standard
100
AcDbAlignedDimension
 13
2023.0
 23
505.7499999999757847
 33
0.0
 14
2143.0
 24
505.7499999999980105
 34
0.0
 50
0.0
100
AcDbRotatedDimension
1001
ACAD
1000
DSTYLE
1002
{
1070
144
1040
1.0
1070
40
1040
1.0
1002
}
  0
DIMENSION
  5
B6
100
AcDbEntity
  8
sketch
 62
256
370
-1
 48
1.0
  6
BYLAYER
100
AcDbDimension
 10
1611.0
 20
545.7499999999931788
 30
0.0
 11
1551.0
 21
547.6249999999931788
 31
0.0
 70
0
 71
8
 72
2
 74
0
 75
0
 41
1.0
 42
0.0
  1

  3
Standard
100
AcDbAlignedDimension
 13
1611.0
 23
505.7499999999839133
 33
0.0
 14
1491.0
 24
505.7499999999888587
 34
0.0
 50
180.0
100
AcDbRotatedDimension
1001
ACAD
1000
DSTYLE
1002
{
1070
144
1040
1.0
1070
40
1040
1.0
1002
}
  0
LINE
  5
B7
100
AcDbEntity
  8
tab-sketch
 62
256
370
-1
 48
1.0
  6
BYLAYER
100
AcDbLine
 10
-669.0
 20
-100.0
 30
0.0
 11
-669.0
 21
400.0
 31
0.0
  0
LINE
  5
B8
100
AcDbEntity
  8
tab-sketch
 62
256
370
-1
 48
1.0
  6
BYLAYER
100
AcDbLine
 10
1933.0
 20
5.7499999999999432
 30
0.0
 11
1933.0
 21
505.7499999999999432
 31
0.0
  0
LINE
  5
B9
100
AcDbEntity
  8
tab-sketch
 62
256
370
-1
 48
1.0
  6
BYLAYER
100
AcDbLine
 10
2133.0
 20
5.7499999999999432
 30
0.0
 11
2133.0
 21
505.7499999999999432
 31
0.0
  0
LINE
  5
BA
100
AcDbEntity
  8
tab-sketch
 62
256
370
-1
 48
1.0
  6
BYLAYER
100
AcDbLine
 10
1501.0
 20
5.75
 30
0.0
 11
1501.0
 21
505.75
 31
0.0
  0
LINE
  5
BB
100
AcDbEntity
  8
tab-sketch
 62
256
370
-1
 48
1.0
  6
BYLAYER
100
AcDbLine
 10
-689.0
 20
-100.0
 30
0.0
 11
-689.0
 21
400.0
 31
0.0
  0
LINE
  5
BC
100
AcDbEntity
  8
tab-sketch
 62
256
370
-1
 48
1.0
  6
BYLAYER
100
AcDbLine
 10
1913.0
 20
5.7499999999999432
 30
0.0
 11
1913.0
 21
505.7499999999999432
 31
0.0
  0
LINE
  5
BD
100
AcDbEntity
  8
tab-sketch
 62
256
370
-1
 48
1.0
  6
BYLAYER
100
AcDbLine
 10
2113.0
 20
5.7499999999999432
 30
0.0
 11
2113.0
 21
505.7499999999999432
 31
0.0
  0
LINE
  5
BE
100
AcDbEntity
  8
tab-sketch
 62
256
370
-1
 48
1.0
  6
BYLAYER
100
AcDbLine
 10
1521.0
 20
5.75
 30
0.0
 11
1521.0
 21
505.75
 31
0.0
  0
LINE
  5
BF
100
AcDbEntity
  8
tab-sketch
 62
256
370
-1
 48
1.0
  6
BYLAYER
100
AcDbLine
 10
-709.0
 20
-100.0
 30
0.0
 11
-709.0
 21
400.0
 31
0.0
  0
LINE
  5
C0
100
AcDbEntity
  8
tab-sketch
 62
256
370
-1
 48
1.0
  6
BYLAYER
100
AcDbLine
 10
1893.0
 20
5.7499999999999432
 30
0.0
 11
1893.0
 21
505.7499999999999432
 31
0.0
  0
LINE
  5
C1
100
AcDbEntity
  8
tab-sketch
 62
256
370
-1
 48
1.0
  6
BYLAYER
100
AcDbLine
 10
2093.0
 20
5.7499999999999432
 30
0.0
 11
2093.0
 21
505.7499999999999432
 31
0.0
  0
LINE
  5
C2
100
AcDbEntity
  8
tab-sketch
 62
256
370
-1
 48
1.0
  6
BYLAYER
100
AcDbLine
 10
1541.0
 20
5.7499999999998863
 30
0.0
 11
1541.0
 21
505.75
 31
0.0
  0
LINE
  5
C3
100
AcDbEntity
  8
tab-sketch
 62
256
370
-1
 48
1.0
  6
BYLAYER
100
AcDbLine
 10
-729.0
 20
-100.0
 30
0.0
 11
-729.0
 21
400.0
 31
0.0
  0
LINE
  5
C4
100
AcDbEntity
  8
tab-sketch
 62
256
370
-1
 48
1.0
  6
BYLAYER
100
AcDbLine
 10
1873.0
 20
5.7499999999999432
 30
0.0
 11
1873.0
 21
505.7499999999999432
 31
0.0
  0
LINE
  5
C5
100
AcDbEntity
  8
tab-sketch
 62
256
370
-1
 48
1.0
  6
BYLAYER
100
AcDbLine
 10
2073.0
 20
5.7499999999999432
 30
0.0
 11
2073.0
 21
505.7499999999999432
 31
0.0
  0
LINE
  5
C6
100
AcDbEntity
  8
tab-sketch
 62
256
370
-1
 48
1.0
  6
BYLAYER
100
AcDbLine
 10
1561.0
 20
5.7499999999998863
 30
0.0
 11
1561.0
 21
505.75
 31
0.0
  0
LINE
  5
C7
100
AcDbEntity
  8
tab-sketch
 62
256
370
-1
 48
1.0
  6
BYLAYER
100
AcDbLine
 10
-749.0
 20
-100.0
 30
0.0
 11
-749.0
 21
400.0
 31
0.0
  0
LINE
  5
C8
100
AcDbEntity
  8
tab-sketch
 62
256
370
-1
 48
1.0
  6
BYLAYER
100
AcDbLine
 10
1853.0
 20
5.7499999999999432
 30
0.0
 11
1853.0
 21
505.7499999999999432
 31
0.0
  0
LINE
  5
C9
100
AcDbEntity
  8
tab-sketch
 62
256
370
-1
 48
1.0
  6
BYLAYER
100
AcDbLine
 10
2053.0
 20
5.7499999999999432
 30
0.0
 11
2053.0
 21
505.7499999999999432
 31
0.0
  0
LINE
  5
CA
100
AcDbEntity
  8
tab-sketch
 62
256
370
-1
 48
1.0
  6
BYLAYER
100
AcDbLine
 10
1581.0
 20
5.75
 30
0.0
 11
1581.0
 21
505.7499999999999432
 31
0.0
  0
LINE
  5
CB
100
AcDbEntity
  8
tab-sketch
 62
256
370
-1
 48
1.0
  6
BYLAYER
100
AcDbLine
 10
-769.0
 20
-100.0
 30
0.0
 11
-769.0
 21
400.0
 31
0.0
  0
LINE
  5
CC
100
AcDbEntity
  8
tab-sketch
 62
256
370
-1
 48
1.0
  6
BYLAYER
100
AcDbLine
 10
1833.0
 20
5.7499999999999432
 30
0.0
 11
1833.0
 21
505.7499999999999432
 31
0.0
  0
LINE
  5
CD
100
AcDbEntity
  8
tab-sketch
 62
256
370
-1
 48
1.0
  6
BYLAYER
100
AcDbLine
 10
2033.0
 20
5.7499999999999432
 30
0.0
 11
2033.0
 21
505.7499999999999432
 31
0.0
  0
LINE
  5
CE
100
AcDbEntity
  8
tab-sketch
 62
256
370
-1
 48
1.0
  6
BYLAYER
100
AcDbLine
 10
1601.0
 20
5.75
 30
0.0
 11
1601.0
 21
505.75
 31
0.0
  0
INSERT
  5
CF
100
AcDbEntity
  8
0
 62
256
370
-1
 48
1.0
  6
BYLAYER
100
AcDbBlockReference
  2
tab
 10
-689.0
 20
377.0
 30
0.0
 41
1.0
 42
-1.0
 43
1.0
 50
270.0
  0
INSERT
  5
D0
100
AcDbEntity
  8
0
 62
256
370
-1
 48
1.0
  6
BYLAYER
100
AcDbBlockReference
  2
tab
 10
1913.0
 20
482.7499999999999432
 30
0.0
 41
1.0
 42
-1.0
 43
1.0
 50
270.0
  0
INSERT
  5
D1
100
AcDbEntity
  8
0
 62
256
370
-1
 48
1.0
  6
BYLAYER
100
AcDbBlockReference
  2
tab
 10
2113.0
 20
482.7499999999999432
 30
0.0
 41
1.0
 42
-1.0
 43
1.0
 50
270.0
  0
INSERT
  5
D2
100
AcDbEntity
  8
0
 62
256
370
-1
 48
1.0
  6
BYLAYER
100
AcDbBlockReference
  2
tab
 10
-669.0
 20
377.0
 30
0.0
 41
1.0
 42
-1.0
 43
1.0
 50
270.0
  0
INSERT
  5
D3
100
AcDbEntity
  8
0
 62
256
370
-1
 48
1.0
  6
BYLAYER
100
AcDbBlockReference
  2
tab
 10
1933.0
 20
482.7499999999999432
 30
0.0
 41
1.0
 42
-1.0
 43
1.0
 50
270.0
  0
INSERT
  5
D4
100
AcDbEntity
  8
0
 62
256
370
-1
 48
1.0
  6
BYLAYER
100
AcDbBlockReference
  2
tab
 10
2133.0
 20
482.7499999999999432
 30
0.0
 41
1.0
 42
-1.0
 43
1.0
 50
270.0
  0
INSERT
  5
D5
100
AcDbEntity
  8
0
 62
256
370
-1
 48
1.0
  6
BYLAYER
100
AcDbBlockReference
  2
tab
 10
1501.0
 20
482.75
 30
0.0
 50
270.0
  0
INSERT
  5
D6
100
AcDbEntity
  8
0
 62
256
370
-1
 48
1.0
  6
BYLAYER
100
AcDbBlockReference
  2
tab
 10
-769.0
 20
23.0
 30
0.0
 41
1.0
 42
-1.0
 43
1.0
 50
90.0
  0
INSERT
  5
D7
100
AcDbEntity
  8
0
 62
256
370
-1
 48
1.0
  6
BYLAYER
100
AcDbBlockReference
  2
tab
 10
1833.0
 20
128.7499999999999432
 30
0.0
 41
1.0
 42
-1.0
 43
1.0
 50
90.0
  0
INSERT
  5
D8
100
AcDbEntity
  8
0
 62
256
370
-1
 48
1.0
  6
BYLAYER
100
AcDbBlockReference
  2
tab
 10
2033.0
 20
222.75
 30
0.0
 41
1.0
 42
-1.0
 43
1.0
 50
90.0
  0
INSERT
  5
D9
100
AcDbEntity
  8
0
 62
256
370
-1
 48
1.0
  6
BYLAYER
100
AcDbBlockReference
  2
tab
 10
1601.0
 20
128.75
 30
0.0
 50
90.0
  0
INSERT
  5
DA
100
AcDbEntity
  8
0
 62
256
370
-1
 48
1.0
  6
BYLAYER
100
AcDbBlockReference
  2
tab
 10
-749.0
 20
23.0
 30
0.0
 41
1.0
 42
-1.0
 43
1.0
 50
90.0
  0
INSERT
  5
DB
100
AcDbEntity
  8
0
 62
256
370
-1
 48
1.0
  6
BYLAYER
100
AcDbBlockReference
  2
tab
 10
1853.0
 20
128.7499999999999432
 30
0.0
 41
1.0
 42
-1.0
 43
1.0
 50
90.0
  0
INSERT
  5
DC
100
AcDbEntity
  8
0
 62
256
370
-1
 48
1.0
  6
BYLAYER
100
AcDbBlockReference
  2
tab
 10
2053.0
 20
222.75
 30
0.0
 41
1.0
 42
-1.0
 43
1.0
 50
90.0
  0
INSERT
  5
DD
100
AcDbEntity
  8
0
 62
256
370
-1
 48
1.0
  6
BYLAYER
100
AcDbBlockReference
  2
tab
 10
1581.0
 20
128.7499999999999716
 30
0.0
 50
90.0
  0
INSERT
  5
DE
100
AcDbEntity
  8
0
 62
256
370
-1
 48
1.0
  6
BYLAYER
100
AcDbBlockReference
  2
tab
 10
-729.0
 20
23.0
 30
0.0
 41
1.0
 42
-1.0
 43
1.0
 50
90.0
  0
INSERT
  5
DF
100
AcDbEntity
  8
0
 62
256
370
-1
 48
1.0
  6
BYLAYER
100
AcDbBlockReference
  2
tab
 10
1873.0
 20
128.7499999999999432
 30
0.0
 41
1.0
 42
-1.0
 43
1.0
 50
90.0
  0
INSERT
  5
E0
100
AcDbEntity
  8
0
 62
256
370
-1
 48
1.0
  6
BYLAYER
100
AcDbBlockReference
  2
tab
 10
2073.0
 20
222.75
 30
0.0
 41
1.0
 42
-1.0
 43
1.0
 50
90.0
  0
INSERT
  5
E1
100
AcDbEntity
  8
0
 62
256
370
-1
 48
1.0
  6
BYLAYER
100
AcDbBlockReference
  2
tab
 10
1561.0
 20
128.7499999999999432
 30
0.0
 50
90.0
  0
INSERT
  5
E2
100
AcDbEntity
  8
0
 62
256
370
-1
 48
1.0
  6
BYLAYER
100
AcDbBlockReference
  2
tab
 10
-709.0
 20
23.0
 30
0.0
 41
1.0
 42
-1.0
 43
1.0
 50
90.0
  0
INSERT
  5
E3
100
AcDbEntity
  8
0
 62
256
370
-1
 48
1.0
  6
BYLAYER
100
AcDbBlockReference
  2
tab
 10
1893.0
 20
128.7499999999999432
 30
0.0
 41
1.0
 42
-1.0
 43
1.0
 50
90.0
  0
INSERT
  5
E4
100
AcDbEntity
  8
0
 62
256
370
-1
 48
1.0
  6
BYLAYER
100
AcDbBlockReference
  2
tab
 10
2093.0
 20
222.75
 30
0.0
 41
1.0
 42
-1.0
 43
1.0
 50
90.0
  0
INSERT
  5
E5
100
AcDbEntity
  8
0
 62
256
370
-1
 48
1.0
  6
BYLAYER
100
AcDbBlockReference
  2
tab
 10
1541.0
 20
128.7499999999999432
 30
0.0
 50
90.0
  0
INSERT
  5
E6
100
AcDbEntity
  8
0
 62
256
370
-1
 48
1.0
  6
BYLAYER
100
AcDbBlockReference
  2
tab
 10
-689.0
 20
23.0
 30
0.0
 41
1.0
 42
-1.0
 43
1.0
 50
90.0
  0
INSERT
  5
E7
100
AcDbEntity
  8
0
 62
256
370
-1
 48
1.0
  6
BYLAYER
100
AcDbBlockReference
  2
tab
 10
1913.0
 20
128.7499999999999432
 30
0.0
 41
1.0
 42
-1.0
 43
1.0
 50
90.0
  0
INSERT
  5
E8
100
AcDbEntity
  8
0
 62
256
370
-1
 48
1.0
  6
BYLAYER
100
AcDbBlockReference
  2
tab
 10
2113.0
 20
222.75
 30
0.0
 41
1.0
 42
-1.0
 43
1.0
 50
90.0
  0
INSERT
  5
E9
100
AcDbEntity
  8
0
 62
256
370
-1
 48
1.0
  6
BYLAYER
100
AcDbBlockReference
  2
tab
 10
1521.0
 20
128.7499999999999432
 30
0.0
 50
90.0
  0
INSERT
  5
EA
100
AcDbEntity
  8
0
 62
256
370
-1
 48
1.0
  6
BYLAYER
100
AcDbBlockReference
  2
tab
 10
-669.0
 20
23.0
 30
0.0
 41
1.0
 42
-1.0
 43
1.0
 50
90.0
  0
INSERT
  5
EB
100
AcDbEntity
  8
0
 62
256
370
-1
 48
1.0
  6
BYLAYER
100
AcDbBlockReference
  2
tab
 10
1933.0
 20
128.7499999999999432
 30
0.0
 41
1.0
 42
-1.0
 43
1.0
 50
90.0
  0
INSERT
  5
EC
100
AcDbEntity
  8
0
 62
256
370
-1
 48
1.0
  6
BYLAYER
100
AcDbBlockReference
  2
tab
 10
2133.0
 20
222.75
 30
0.0
 41
1.0
 42
-1.0
 43
1.0
 50
90.0
  0
INSERT
  5
ED
100
AcDbEntity
  8
0
 62
256
370
-1
 48
1.0
  6
BYLAYER
100
AcDbBlockReference
  2
tab
 10
1501.0
 20
128.7499999999999716
 30
0.0
 50
90.0
  0
LINE
  5
EE
100
AcDbEntity
  8
0
 62
256
370
-1
 48
1.0
  6
BYLAYER
100
AcDbLine
 10
-653.0
 20
377.0
 30
0.0
 11
-663.9000000000000909
 21
377.0
 31
0.0
  0
LINE
  5
EF
100
AcDbEntity
  8
0
 62
256
370
-1
 48
1.0
  6
BYLAYER
100
AcDbLine
 10
1949.0
 20
482.7499999999999432
 30
0.0
 11
1938.1000000000003638
 21
482.7499999999999432
 31
0.0
  0
LINE
  5
F0
100
AcDbEntity
  8
0
 62
256
370
-1
 48
1.0
  6
BYLAYER
100
AcDbLine
 10
2149.0
 20
482.7499999999999432
 30
0.0
 11
2138.1000000000003638
 21
482.7499999999999432
 31
0.0
  0
LINE
  5
F1
100
AcDbEntity
  8
0
 62
256
370
-1
 48
1.0
  6
BYLAYER
100
AcDbLine
 10
1485.0
 20
482.75
 30
0.0
 11
1495.8999999999996362
 21
482.75
 31
0.0
  0
LINE
  5
F2
100
AcDbEntity
  8
0
 62
256
370
-1
 48
1.0
  6
BYLAYER
100
AcDbLine
 10
-674.0999999999999091
 20
377.0
 30
0.0
 11
-683.9000000000000909
 21
377.0
 31
0.0
  0
LINE
  5
F3
100
AcDbEntity
  8
0
 62
256
370
-1
 48
1.0
  6
BYLAYER
100
AcDbLine
 10
1927.8999999999996362
 20
482.7499999999999432
 30
0.0
 11
1918.1000000000003638
 21
482.7499999999999432
 31
0.0
  0
LINE
  5
F4
100
AcDbEntity
  8
0
 62
256
370
-1
 48
1.0
  6
BYLAYER
100
AcDbLine
 10
2127.8999999999996362
 20
482.7499999999999432
 30
0.0
 11
2118.1000000000003638
 21
482.7499999999999432
 31
0.0
  0
LINE
  5
F5
100
AcDbEntity
  8
0
 62
256
370
-1
 48
1.0
  6
BYLAYER
100
AcDbLine
 10
1506.1000000000003638
 20
482.75
 30
0.0
 11
1515.8999999999996362
 21
482.75
 31
0.0
  0
LINE
  5
F6
100
AcDbEntity
  8
0
 62
256
370
-1
 48
1.0
  6
BYLAYER
100
AcDbLine
 10
-694.0999999999999091
 20
377.0
 30
0.0
 11
-703.9000000000000909
 21
377.0
 31
0.0
  0
LINE
  5
F7
100
AcDbEntity
  8
0
 62
256
370
-1
 48
1.0
  6
BYLAYER
100
AcDbLine
 10
1907.8999999999996362
 20
482.7499999999999432
 30
0.0
 11
1898.1000000000003638
 21
482.7499999999999432
 31
0.0
  0
LINE
  5
F8
100
AcDbEntity
  8
0
 62
256
370
-1
 48
1.0
  6
BYLAYER
100
AcDbLine
 10
2107.8999999999996362
 20
482.7499999999999432
 30
0.0
 11
2098.1000000000003638
 21
482.7499999999999432
 31
0.0
  0
LINE
  5
F9
100
AcDbEntity
  8
0
 62
256
370
-1
 48
1.0
  6
BYLAYER
100
AcDbLine
 10
1526.1000000000003638
 20
482.75
 30
0.0
 11
1535.8999999999996362
 21
482.75
 31
0.0
  0
LINE
  5
FA
100
AcDbEntity
  8
0
 62
256
370
-1
 48
1.0
  6
BYLAYER
100
AcDbLine
 10
-714.0999999999999091
 20
377.0
 30
0.0
 11
-723.9000000000000909
 21
377.0
 31
0.0
  0
LINE
  5
FB
100
AcDbEntity
  8
0
 62
256
370
-1
 48
1.0
  6
BYLAYER
100
AcDbLine
 10
1887.8999999999996362
 20
482.7499999999999432
 30
0.0
 11
1878.1000000000003638
 21
482.7499999999999432
 31
0.0
  0
LINE
  5
FC
100
AcDbEntity
  8
0
 62
256
370
-1
 48
1.0
  6
BYLAYER
100
AcDbLine
 10
2087.8999999999996362
 20
482.7499999999999432
 30
0.0
 11
2078.1000000000003638
 21
482.7499999999999432
 31
0.0
  0
LINE
  5
FD
100
AcDbEntity
  8
0
 62
256
370
-1
 48
1.0
  6
BYLAYER
100
AcDbLine
 10
1546.1000000000003638
 20
482.75
 30
0.0
 11
1555.8999999999996362
 21
482.75
 31
0.0
  0
LINE
  5
FE
100
AcDbEntity
  8
0
 62
256
370
-1
 48
1.0
  6
BYLAYER
100
AcDbLine
 10
-734.0999999999999091
 20
377.0
 30
0.0
 11
-743.9000000000000909
 21
377.0
 31
0.0
  0
LINE
  5
FF
100
AcDbEntity
  8
0
 62
256
370
-1
 48
1.0
  6
BYLAYER
100
AcDbLine
 10
1867.8999999999996362
 20
482.7499999999999432
 30
0.0
 11
1858.1000000000003638
 21
482.7499999999999432
 31
0.0
  0
LINE
  5
100
100
AcDbEntity
  8
0
 62
256
370
-1
 48
1.0
  6
BYLAYER
100
AcDbLine
 10
2067.8999999999996362
 20
482.7499999999999432
 30
0.0
 11
2058.1000000000003638
 21
482.7499999999999432
 31
0.0
  0
LINE
  5
101
100
AcDbEntity
  8
0
 62
256
370
-1
 48
1.0
  6
BYLAYER
100
AcDbLine
 10
1566.1000000000003638
 20
482.7499999999999432
 30
0.0
 11
1575.8999999999996362
 21
482.75
 31
0.0
  0
LINE
  5
102
100
AcDbEntity
  8
0
 62
256
370
-1
 48
1.0
  6
BYLAYER
100
AcDbLine
 10
-754.0999999999999091
 20
377.0
 30
0.0
 11
-763.9000000000000909
 21
377.0
 31
0.0
  0
LINE
  5
103
100
AcDbEntity
  8
0
 62
256
370
-1
 48
1.0
  6
BYLAYER
100
AcDbLine
 10
1847.8999999999996362
 20
482.7499999999999432
 30
0.0
 11
1838.1000000000003638
 21
482.7499999999999432
 31
0.0
  0
LINE
  5
104
100
AcDbEntity
  8
0
 62
256
370
-1
 48
1.0
  6
BYLAYER
100
AcDbLine
 10
2047.8999999999996362
 20
482.7499999999999432
 30
0.0
 11
2038.1000000000003638
 21
482.7499999999999432
 31
0.0
  0
LINE
  5
105
100
AcDbEntity
  8
0
 62
256
370
-1
 48
1.0
  6
BYLAYER
100
AcDbLine
 10
1586.1000000000003638
 20
482.7499999999999432
 30
0.0
 11
1595.8999999999996362
 21
482.7499999999999432
 31
0.0
  0
LINE
  5
106
100
AcDbEntity
  8
0
 62
256
370
-1
 48
1.0
  6
BYLAYER
100
AcDbLine
 10
-774.0999999999999091
 20
377.0
 30
0.0
 11
-785.0
 21
377.0
 31
0.0
  0
LINE
  5
107
100
AcDbEntity
  8
0
 62
256
370
-1
 48
1.0
  6
BYLAYER
100
AcDbLine
 10
1827.8999999999996362
 20
482.7499999999999432
 30
0.0
 11
1817.0
 21
482.7499999999999432
 31
0.0
  0
LINE
  5
108
100
AcDbEntity
  8
0
 62
256
370
-1
 48
1.0
  6
BYLAYER
100
AcDbLine
 10
2027.8999999999996362
 20
482.7499999999999432
 30
0.0
 11
2017.0
 21
482.7499999999999432
 31
0.0
  0
LINE
  5
109
100
AcDbEntity
  8
0
 62
256
370
-1
 48
1.0
  6
BYLAYER
100
AcDbLine
 10
1606.1000000000003638
 20
482.75
 30
0.0
 11
1617.0
 21
482.75
 31
0.0
  0
INSERT
  5
10A
100
AcDbEntity
  8
0
 62
256
370
-1
 48
1.0
  6
BYLAYER
100
AcDbBlockReference
  2
tab
 10
-1232.0000000000002274
 20
606.0
 30
0.0
 41
1.0
 42
-1.0
 43
1.0
 50
360.0
  0
INSERT
  5
10B
100
AcDbEntity
  8
0
 62
256
370
-1
 48
1.0
  6
BYLAYER
100
AcDbBlockReference
  2
tab
 10
-938.0
 20
585.9999999999997726
 30
0.0
 41
1.0
 42
-1.0
 43
1.0
 50
180.0
  0
INSERT
  5
10C
100
AcDbEntity
  8
0
 62
256
370
-1
 48
1.0
  6
BYLAYER
100
AcDbBlockReference
  2
tab
 10
1773.5
 20
691.75
 30
0.0
 41
1.0
 42
-1.0
 43
1.0
 50
180.0
  0
INSERT
  5
10D
100
AcDbEntity
  8
0
 62
256
370
-1
 48
1.0
  6
BYLAYER
100
AcDbBlockReference
  2
tab
 10
-1232.0000000000002274
 20
546.0
 30
0.0
 41
1.0
 42
-1.0
 43
1.0
 50
360.0
  0
INSERT
  5
10E
100
AcDbEntity
  8
0
 62
256
370
-1
 48
1.0
  6
BYLAYER
100
AcDbBlockReference
  2
tab
 10
1660.5
 20
651.75
 30
0.0
 41
1.0
 42
-1.0
 43
1.0
 50
360.0
  0
INSERT
  5
10F
100
AcDbEntity
  8
0
 62
256
370
-1
 48
1.0
  6
BYLAYER
100
AcDbBlockReference
  2
tab
 10
1773.5
 20
-114.25
 30
0.0
 50
180.0
  0
INSERT
  5
110
100
AcDbEntity
  8
0
 62
256
370
-1
 48
1.0
  6
BYLAYER
100
AcDbBlockReference
  2
tab
 10
-938.0
 20
606.0
 30
0.0
 41
1.0
 42
-1.0
 43
1.0
 50
180.0
  0
INSERT
  5
111
100
AcDbEntity
  8
0
 62
256
370
-1
 48
1.0
  6
BYLAYER
100
AcDbBlockReference
  2
tab
 10
1773.5
 20
711.7500000000002274
 30
0.0
 41
1.0
 42
-1.0
 43
1.0
 50
180.0
  0
INSERT
  5
112
100
AcDbEntity
  8
0
 62
256
370
-1
 48
1.0
  6
BYLAYER
100
AcDbBlockReference
  2
tab
 10
1660.5
 20
-54.2499999999998863
 30
0.0
  0
INSERT
  5
113
100
AcDbEntity
  8
0
 62
256
370
-1
 48
1.0
  6
BYLAYER
100
AcDbBlockReference
  2
tab
 10
-1232.0000000000002274
 20
526.0
 30
0.0
 41
1.0
 42
-1.0
 43
1.0
 50
360.0
  0
INSERT
  5
114
100
AcDbEntity
  8
0
 62
256
370
-1
 48
1.0
  6
BYLAYER
100
AcDbBlockReference
  2
tab
 10
1660.5
 20
631.75
 30
0.0
 41
1.0
 42
-1.0
 43
1.0
 50
360.0
  0
INSERT
  5
115
100
AcDbEntity
  8
0
 62
256
370
-1
 48
1.0
  6
BYLAYER
100
AcDbBlockReference
  2
tab
 10
1773.5
 20
-134.25
 30
0.0
 50
180.0
  0
LINE
  5
116
100
AcDbEntity
  8
0
 62
256
370
-1
 48
1.0
  6
BYLAYER
100
AcDbLine
 10
-938.0
 20
511.0999999999999091
 30
0.0
 11
-934.9000000000000909
 21
511.0999999999999659
 31
0.0
  0
LINE
  5
117
100
AcDbEntity
  8
0
 62
256
370
-1
 48
1.0
  6
BYLAYER
100
AcDbLine
 10
1773.5
 20
616.8500000000001364
 30
0.0
 11
1776.6000000000003638
 21
616.8500000000001364
 31
0.0
  0
LINE
  5
118
100
AcDbEntity
  8
0
 62
256
370
-1
 48
1.0
  6
BYLAYER
100
AcDbLine
 10
1660.5
 20
-149.1499999999999773
 30
0.0
 11
1657.3999999999996362
 21
-149.1499999999999773
 31
0.0
  0
LINE
  5
119
100
AcDbEntity
  8
0
 62
256
370
-1
 48
1.0
  6
BYLAYER
100
AcDbLine
 10
-1232.0
 20
620.9000000000000909
 30
0.0
 11
-1235.1000000000001364
 21
620.9000000000000909
 31
0.0
  0
LINE
  5
11A
100
AcDbEntity
  8
0
 62
256
370
-1
 48
1.0
  6
BYLAYER
100
AcDbLine
 10
1660.5
 20
726.6500000000000909
 30
0.0
 11
1657.3999999999996362
 21
726.6500000000000909
 31
0.0
  0
LINE
  5
11B
100
AcDbEntity
  8
0
 62
256
370
-1
 48
1.0
  6
BYLAYER
100
AcDbLine
 10
1773.5
 20
-39.3499999999999659
 30
0.0
 11
1776.6000000000003638
 21
-39.3500000000000227
 31
0.0
  0
LINE
  5
11C
100
AcDbEntity
  8
0
 62
256
370
-1
 48
1.0
  6
BYLAYER
100
AcDbLine
 10
-934.9000000000000909
 20
511.0999999999999659
 30
0.0
 11
-934.9000000000000909
 21
500.0
 31
0.0
  0
LINE
  5
11D
100
AcDbEntity
  8
0
 62
256
370
-1
 48
1.0
  6
BYLAYER
100
AcDbLine
 10
1776.6000000000003638
 20
616.8500000000001364
 30
0.0
 11
1776.6000000000003638
 21
605.7500000000002274
 31
0.0
  0
LINE
  5
11E
100
AcDbEntity
  8
0
 62
256
370
-1
 48
1.0
  6
BYLAYER
100
AcDbLine
 10
1657.3999999999996362
 20
-149.1499999999999773
 30
0.0
 11
1657.3999999999996362
 21
-160.2499999999998863
 31
0.0
  0
LINE
  5
11F
100
AcDbEntity
  8
0
 62
256
370
-1
 48
1.0
  6
BYLAYER
100
AcDbLine
 10
-1235.1000000000001364
 20
620.9000000000000909
 30
0.0
 11
-1235.1000000000001364
 21
632.0
 31
0.0
  0
LINE
  5
120
100
AcDbEntity
  8
0
 62
256
370
-1
 48
1.0
  6
BYLAYER
100
AcDbLine
 10
1657.3999999999996362
 20
726.6500000000000909
 30
0.0
 11
1657.3999999999996362
 21
737.75
 31
0.0
  0
LINE
  5
121
100
AcDbEntity
  8
0
 62
256
370
-1
 48
1.0
  6
BYLAYER
100
AcDbLine
 10
1776.6000000000003638
 20
-39.3500000000000227
 30
0.0
 11
1776.6000000000003638
 21
-28.2500000000000568
 31
0.0
  0
LINE
  5
122
100
AcDbEntity
  8
0
 62
256
370
-1
 48
1.0
  6
BYLAYER
100
AcDbLine
 10
-938.0
 20
620.8999999999999773
 30
0.0
 11
-934.9000000000000909
 21
620.8999999999998636
 31
0.0
  0
LINE
  5
123
100
AcDbEntity
  8
0
 62
256
370
-1
 48
1.0
  6
BYLAYER
100
AcDbLine
 10
1773.5
 20
726.6500000000000909
 30
0.0
 11
1776.6000000000003638
 21
726.6500000000000909
 31
0.0
  0
LINE
  5
124
100
AcDbEntity
  8
0
 62
256
370
-1
 48
1.0
  6
BYLAYER
100
AcDbLine
 10
1660.5
 20
-39.3499999999999091
 30
0.0
 11
1657.3999999999996362
 21
-39.3500000000000227
 31
0.0
  0
LINE
  5
125
100
AcDbEntity
  8
0
 62
256
370
-1
 48
1.0
  6
BYLAYER
100
AcDbLine
 10
-1232.0000000000002274
 20
511.1000000000000796
 30
0.0
 11
-1235.1000000000003638
 21
511.1000000000000796
 31
0.0
  0
LINE
  5
126
100
AcDbEntity
  8
0
 62
256
370
-1
 48
1.0
  6
BYLAYER
100
AcDbLine
 10
1660.5
 20
616.8500000000001364
 30
0.0
 11
1657.3999999999996362
 21
616.8500000000001364
 31
0.0
  0
LINE
  5
127
100
AcDbEntity
  8
0
 62
256
370
-1
 48
1.0
  6
BYLAYER
100
AcDbLine
 10
1773.5
 20
-149.1499999999999773
 30
0.0
 11
1776.6000000000003638
 21
-149.1499999999999773
 31
0.0
  0
LINE
  5
128
100
AcDbEntity
  8
0
 62
256
370
-1
 48
1.0
  6
BYLAYER
100
AcDbLine
 10
-934.9000000000000909
 20
620.8999999999998636
 30
0.0
 11
-934.9000000000000909
 21
632.0
 31
0.0
  0
LINE
  5
129
100
AcDbEntity
  8
0
 62
256
370
-1
 48
1.0
  6
BYLAYER
100
AcDbLine
 10
1776.6000000000003638
 20
726.6500000000000909
 30
0.0
 11
1776.6000000000003638
 21
737.7500000000001137
 31
0.0
  0
LINE
  5
12A
100
AcDbEntity
  8
0
 62
256
370
-1
 48
1.0
  6
BYLAYER
100
AcDbLine
 10
1657.3999999999996362
 20
-39.3500000000000227
 30
0.0
 11
1657.3999999999996362
 21
-28.2499999999999432
 31
0.0
  0
LINE
  5
12B
100
AcDbEntity
  8
0
 62
256
370
-1
 48
1.0
  6
BYLAYER
100
AcDbLine
 10
-1235.1000000000003638
 20
511.1000000000000796
 30
0.0
 11
-1235.1000000000003638
 21
500.0000000000000568
 31
0.0
  0
LINE
  5
12C
100
AcDbEntity
  8
0
 62
256
370
-1
 48
1.0
  6
BYLAYER
100
AcDbLine
 10
1657.3999999999996362
 20
616.8500000000001364
 30
0.0
 11
1657.3999999999996362
 21
605.75
 31
0.0
  0
LINE
  5
12D
100
AcDbEntity
  8
0
 62
256
370
-1
 48
1.0
  6
BYLAYER
100
AcDbLine
 10
1776.6000000000003638
 20
-149.1499999999999773
 30
0.0
 11
1776.6000000000003638
 21
-160.25
 31
0.0
  0
INSERT
  5
12E
100
AcDbEntity
  8
0
 62
256
370
-1
 48
1.0
  6
BYLAYER
100
AcDbBlockReference
  2
tab
 10
-1232.0
 20
566.0
 30
0.0
 41
1.0
 42
-1.0
 43
1.0
 50
360.0
  0
INSERT
  5
12F
100
AcDbEntity
  8
0
 62
256
370
-1
 48
1.0
  6
BYLAYER
100
AcDbBlockReference
  2
tab
 10
1660.5
 20
671.75
 30
0.0
 41
1.0
 42
-1.0
 43
1.0
 50
360.0
  0
INSERT
  5
130
100
AcDbEntity
  8
0
 62
256
370
-1
 48
1.0
  6
BYLAYER
100
AcDbBlockReference
  2
tab
 10
1773.5
 20
-94.25
 30
0.0
 50
180.0
  0
LINE
  5
131
100
AcDbEntity
  8
0
 62
256
370
-1
 48
1.0
  6
BYLAYER
100
AcDbLine
 10
-938.0
 20
511.0999999999999091
 30
0.0
 11
-938.0
 21
520.8999999999999773
 31
0.0
  0
LINE
  5
132
100
AcDbEntity
  8
0
 62
256
370
-1
 48
1.0
  6
BYLAYER
100
AcDbLine
 10
1773.5
 20
616.8500000000001364
 30
0.0
 11
1773.5
 21
626.6500000000000909
 31
0.0
  0
LINE
  5
133
100
AcDbEntity
  8
0
 62
256
370
-1
 48
1.0
  6
BYLAYER
100
AcDbLine
 10
1660.5
 20
-149.1499999999999773
 30
0.0
 11
1660.5
 21
-139.3499999999999091
 31
0.0
  0
LINE
  5
134
100
AcDbEntity
  8
0
 62
256
370
-1
 48
1.0
  6
BYLAYER
100
AcDbLine
 10
-938.0
 20
531.1000000000000227
 30
0.0
 11
-938.0
 21
540.8999999999998636
 31
0.0
  0
LINE
  5
135
100
AcDbEntity
  8
0
 62
256
370
-1
 48
1.0
  6
BYLAYER
100
AcDbLine
 10
1773.5
 20
636.8500000000001364
 30
0.0
 11
1773.5
 21
646.6500000000000909
 31
0.0
  0
LINE
  5
136
100
AcDbEntity
  8
0
 62
256
370
-1
 48
1.0
  6
BYLAYER
100
AcDbLine
 10
1660.5
 20
-129.1499999999998636
 30
0.0
 11
1660.5
 21
-119.3500000000000796
 31
0.0
  0
LINE
  5
137
100
AcDbEntity
  8
0
 62
256
370
-1
 48
1.0
  6
BYLAYER
100
AcDbLine
 10
-938.0
 20
551.0999999999999091
 30
0.0
 11
-938.0
 21
560.8999999999998636
 31
0.0
  0
LINE
  5
138
100
AcDbEntity
  8
0
 62
256
370
-1
 48
1.0
  6
BYLAYER
100
AcDbLine
 10
1773.5
 20
656.8500000000000227
 30
0.0
 11
1773.5
 21
666.6500000000000909
 31
0.0
  0
LINE
  5
139
100
AcDbEntity
  8
0
 62
256
370
-1
 48
1.0
  6
BYLAYER
100
AcDbLine
 10
1660.5
 20
-109.1500000000000341
 30
0.0
 11
1660.5
 21
-99.3499999999999659
 31
0.0
  0
LINE
  5
13A
100
AcDbEntity
  8
0
 62
256
370
-1
 48
1.0
  6
BYLAYER
100
AcDbLine
 10
-938.0
 20
571.1000000000000227
 30
0.0
 11
-938.0
 21
580.9000000000000909
 31
0.0
  0
LINE
  5
13B
100
AcDbEntity
  8
0
 62
256
370
-1
 48
1.0
  6
BYLAYER
100
AcDbLine
 10
1773.5
 20
676.8500000000001364
 30
0.0
 11
1773.5
 21
686.6500000000003183
 31
0.0
  0
LINE
  5
13C
100
AcDbEntity
  8
0
 62
256
370
-1
 48
1.0
  6
BYLAYER
100
AcDbLine
 10
1660.5
 20
-89.1499999999998067
 30
0.0
 11
1660.5
 21
-79.3499999999997954
 31
0.0
  0
LINE
  5
13D
100
AcDbEntity
  8
0
 62
256
370
-1
 48
1.0
  6
BYLAYER
100
AcDbLine
 10
-938.0
 20
591.0999999999999091
 30
0.0
 11
-937.9999999999995453
 21
600.8999999999998636
 31
0.0
  0
LINE
  5
13E
100
AcDbEntity
  8
0
 62
256
370
-1
 48
1.0
  6
BYLAYER
100
AcDbLine
 10
1773.5
 20
696.8500000000001364
 30
0.0
 11
1773.5
 21
706.6500000000000909
 31
0.0
  0
LINE
  5
13F
100
AcDbEntity
  8
0
 62
256
370
-1
 48
1.0
  6
BYLAYER
100
AcDbLine
 10
1660.5
 20
-69.1499999999999773
 30
0.0
 11
1660.5
 21
-59.3499999999999659
 31
0.0
  0
LINE
  5
140
100
AcDbEntity
  8
0
 62
256
370
-1
 48
1.0
  6
BYLAYER
100
AcDbLine
 10
-938.0
 20
611.0999999999999091
 30
0.0
 11
-938.0
 21
620.8999999999999773
 31
0.0
  0
LINE
  5
141
100
AcDbEntity
  8
0
 62
256
370
-1
 48
1.0
  6
BYLAYER
100
AcDbLine
 10
1773.5
 20
716.8500000000001364
 30
0.0
 11
1773.5
 21
726.6500000000000909
 31
0.0
  0
LINE
  5
142
100
AcDbEntity
  8
0
 62
256
370
-1
 48
1.0
  6
BYLAYER
100
AcDbLine
 10
1660.5
 20
-49.1499999999999204
 30
0.0
 11
1660.5
 21
-39.3499999999999091
 31
0.0
  0
LINE
  5
143
100
AcDbEntity
  8
0
 62
256
370
-1
 48
1.0
  6
BYLAYER
100
AcDbLine
 10
-1232.0
 20
620.9000000000000909
 30
0.0
 11
-1232.0
 21
611.1000000000000227
 31
0.0
  0
LINE
  5
144
100
AcDbEntity
  8
0
 62
256
370
-1
 48
1.0
  6
BYLAYER
100
AcDbLine
 10
1660.5
 20
726.6500000000000909
 30
0.0
 11
1660.5
 21
716.8500000000000227
 31
0.0
  0
LINE
  5
145
100
AcDbEntity
  8
0
 62
256
370
-1
 48
1.0
  6
BYLAYER
100
AcDbLine
 10
1773.5
 20
-39.3499999999999659
 30
0.0
 11
1773.5
 21
-49.1500000000000341
 31
0.0
  0
LINE
  5
146
100
AcDbEntity
  8
0
 62
256
370
-1
 48
1.0
  6
BYLAYER
100
AcDbLine
 10
-1232.0
 20
600.9000000000000909
 30
0.0
 11
-1232.0
 21
591.1000000000001364
 31
0.0
  0
LINE
  5
147
100
AcDbEntity
  8
0
 62
256
370
-1
 48
1.0
  6
BYLAYER
100
AcDbLine
 10
1660.5
 20
706.6500000000000909
 30
0.0
 11
1660.5
 21
696.8500000000001364
 31
0.0
  0
LINE
  5
148
100
AcDbEntity
  8
0
 62
256
370
-1
 48
1.0
  6
BYLAYER
100
AcDbLine
 10
1773.5
 20
-59.3500000000000227
 30
0.0
 11
1773.5
 21
-69.1499999999999773
 31
0.0
  0
LINE
  5
149
100
AcDbEntity
  8
0
 62
256
370
-1
 48
1.0
  6
BYLAYER
100
AcDbLine
 10
-1232.0
 20
580.9000000000000909
 30
0.0
 11
-1232.0
 21
571.1000000000000227
 31
0.0
  0
LINE
  5
14A
100
AcDbEntity
  8
0
 62
256
370
-1
 48
1.0
  6
BYLAYER
100
AcDbLine
 10
1660.5
 20
686.6500000000000909
 30
0.0
 11
1660.5
 21
676.8500000000000227
 31
0.0
  0
LINE
  5
14B
100
AcDbEntity
  8
0
 62
256
370
-1
 48
1.0
  6
BYLAYER
100
AcDbLine
 10
1773.5
 20
-79.3500000000000227
 30
0.0
 11
1773.5
 21
-89.1500000000000341
 31
0.0
  0
LINE
  5
14C
100
AcDbEntity
  8
0
 62
256
370
-1
 48
1.0
  6
BYLAYER
100
AcDbLine
 10
-1232.0
 20
560.9000000000000909
 30
0.0
 11
-1232.0
 21
551.1000000000001364
 31
0.0
  0
LINE
  5
14D
100
AcDbEntity
  8
0
 62
256
370
-1
 48
1.0
  6
BYLAYER
100
AcDbLine
 10
1660.5
 20
666.6500000000000909
 30
0.0
 11
1660.5
 21
656.8500000000001364
 31
0.0
  0
LINE
  5
14E
100
AcDbEntity
  8
0
 62
256
370
-1
 48
1.0
  6
BYLAYER
100
AcDbLine
 10
1773.5
 20
-99.3500000000000227
 30
0.0
 11
1773.5
 21
-109.1499999999999204
 31
0.0
  0
LINE
  5
14F
100
AcDbEntity
  8
0
 62
256
370
-1
 48
1.0
  6
BYLAYER
100
AcDbLine
 10
-1232.0000000000002274
 20
540.8999999999999773
 30
0.0
 11
-1232.0
 21
531.1000000000001364
 31
0.0
  0
LINE
  5
150
100
AcDbEntity
  8
0
 62
256
370
-1
 48
1.0
  6
BYLAYER
100
AcDbLine
 10
1660.5
 20
646.6499999999999773
 30
0.0
 11
1660.5
 21
636.8500000000001364
 31
0.0
  0
LINE
  5
151
100
AcDbEntity
  8
0
 62
256
370
-1
 48
1.0
  6
BYLAYER
100
AcDbLine
 10
1773.5
 20
-119.3500000000000796
 30
0.0
 11
1773.5
 21
-129.1499999999999773
 31
0.0
  0
LINE
  5
152
100
AcDbEntity
  8
0
 62
256
370
-1
 48
1.0
  6
BYLAYER
100
AcDbLine
 10
-1232.0000000000002274
 20
520.8999999999999773
 30
0.0
 11
-1232.0
 21
511.1000000000000796
 31
0.0
  0
LINE
  5
153
100
AcDbEntity
  8
0
 62
256
370
-1
 48
1.0
  6
BYLAYER
100
AcDbLine
 10
1660.5
 20
626.6499999999999773
 30
0.0
 11
1660.5
 21
616.8500000000001364
 31
0.0
  0
LINE
  5
154
100
AcDbEntity
  8
0
 62
256
370
-1
 48
1.0
  6
BYLAYER
100
AcDbLine
 10
1773.5
 20
-139.3500000000000796
 30
0.0
 11
1773.5
 21
-149.1499999999999773
 31
0.0
  0
LINE
  5
155
100
AcDbEntity
  8
0
 62
256
370
-1
 48
1.0
  6
BYLAYER
100
AcDbLine
 10
-653.0
 20
377.0
 30
0.0
 11
-653.0
 21
23.0
 31
0.0
  0
LINE
  5
156
100
AcDbEntity
  8
0
 62
256
370
-1
 48
1.0
  6
BYLAYER
100
AcDbLine
 10
1949.0
 20
482.7499999999999432
 30
0.0
 11
1949.0
 21
128.7499999999999432
 31
0.0
  0
LINE
  5
157
100
AcDbEntity
  8
0
 62
256
370
-1
 48
1.0
  6
BYLAYER
100
AcDbLine
 10
1485.0
 20
482.75
 30
0.0
 11
1485.0
 21
128.7499999999999432
 31
0.0
  0
LINE
  5
158
100
AcDbEntity
  8
0
 62
256
370
-1
 48
1.0
  6
BYLAYER
100
AcDbLine
 10
-653.0
 20
23.0
 30
0.0
 11
-663.9000000000000909
 21
23.0
 31
0.0
  0
LINE
  5
159
100
AcDbEntity
  8
0
 62
256
370
-1
 48
1.0
  6
BYLAYER
100
AcDbLine
 10
1949.0
 20
128.7499999999999432
 30
0.0
 11
1938.1000000000003638
 21
128.7499999999999432
 31
0.0
  0
LINE
  5
15A
100
AcDbEntity
  8
0
 62
256
370
-1
 48
1.0
  6
BYLAYER
100
AcDbLine
 10
2149.0
 20
222.75
 30
0.0
 11
2138.1000000000003638
 21
222.75
 31
0.0
  0
LINE
  5
15B
100
AcDbEntity
  8
0
 62
256
370
-1
 48
1.0
  6
BYLAYER
100
AcDbLine
 10
1485.0
 20
128.7499999999999432
 30
0.0
 11
1495.8999999999996362
 21
128.7499999999999716
 31
0.0
  0
LINE
  5
15C
100
AcDbEntity
  8
0
 62
256
370
-1
 48
1.0
  6
BYLAYER
100
AcDbLine
 10
-674.0999999999999091
 20
23.0000000000000568
 30
0.0
 11
-683.9000000000000909
 21
23.0
 31
0.0
  0
LINE
  5
15D
100
AcDbEntity
  8
0
 62
256
370
-1
 48
1.0
  6
BYLAYER
100
AcDbLine
 10
1927.8999999999996362
 20
128.75
 30
0.0
 11
1918.1000000000003638
 21
128.7499999999999432
 31
0.0
  0
LINE
  5
15E
100
AcDbEntity
  8
0
 62
256
370
-1
 48
1.0
  6
BYLAYER
100
AcDbLine
 10
2127.8999999999996362
 20
222.7500000000000568
 30
0.0
 11
2118.1000000000003638
 21
222.75
 31
0.0
  0
LINE
  5
15F
100
AcDbEntity
  8
0
 62
256
370
-1
 48
1.0
  6
BYLAYER
100
AcDbLine
 10
1506.1000000000003638
 20
128.7500000000000284
 30
0.0
 11
1515.8999999999996362
 21
128.75
 31
0.0
  0
LINE
  5
160
100
AcDbEntity
  8
0
 62
256
370
-1
 48
1.0
  6
BYLAYER
100
AcDbLine
 10
-694.0999999999999091
 20
23.0000000000000568
 30
0.0
 11
-703.9000000000000909
 21
23.0000000000000568
 31
0.0
  0
LINE
  5
161
100
AcDbEntity
  8
0
 62
256
370
-1
 48
1.0
  6
BYLAYER
100
AcDbLine
 10
1907.8999999999996362
 20
128.75
 30
0.0
 11
1898.1000000000003638
 21
128.75
 31
0.0
  0
LINE
  5
162
100
AcDbEntity
  8
0
 62
256
370
-1
 48
1.0
  6
BYLAYER
100
AcDbLine
 10
2107.8999999999996362
 20
222.7500000000000568
 30
0.0
 11
2098.1000000000003638
 21
222.7500000000000568
 31
0.0
  0
LINE
  5
163
100
AcDbEntity
  8
0
 62
256
370
-1
 48
1.0
  6
BYLAYER
100
AcDbLine
 10
1526.1000000000003638
 20
128.7500000000000284
 30
0.0
 11
1535.8999999999996362
 21
128.7500000000000284
 31
0.0
  0
LINE
  5
164
100
AcDbEntity
  8
0
 62
256
370
-1
 48
1.0
  6
BYLAYER
100
AcDbLine
 10
-714.0999999999999091
 20
23.0000000000000568
 30
0.0
 11
-723.9000000000000909
 21
23.0000000000000568
 31
0.0
  0
LINE
  5
165
100
AcDbEntity
  8
0
 62
256
370
-1
 48
1.0
  6
BYLAYER
100
AcDbLine
 10
1887.8999999999996362
 20
128.75
 30
0.0
 11
1878.1000000000003638
 21
128.75
 31
0.0
  0
LINE
  5
166
100
AcDbEntity
  8
0
 62
256
370
-1
 48
1.0
  6
BYLAYER
100
AcDbLine
 10
2087.8999999999996362
 20
222.7500000000000568
 30
0.0
 11
2078.1000000000003638
 21
222.7500000000000568
 31
0.0
  0
LINE
  5
167
100
AcDbEntity
  8
0
 62
256
370
-1
 48
1.0
  6
BYLAYER
100
AcDbLine
 10
1546.1000000000003638
 20
128.7500000000000284
 30
0.0
 11
1555.8999999999996362
 21
128.7500000000000284
 31
0.0
  0
LINE
  5
168
100
AcDbEntity
  8
0
 62
256
370
-1
 48
1.0
  6
BYLAYER
100
AcDbLine
 10
-734.0999999999999091
 20
23.0
 30
0.0
 11
-743.9000000000000909
 21
23.0000000000000568
 31
0.0
  0
LINE
  5
169
100
AcDbEntity
  8
0
 62
256
370
-1
 48
1.0
  6
BYLAYER
100
AcDbLine
 10
1867.8999999999996362
 20
128.7499999999999432
 30
0.0
 11
1858.1000000000003638
 21
128.75
 31
0.0
  0
LINE
  5
16A
100
AcDbEntity
  8
0
 62
256
370
-1
 48
1.0
  6
BYLAYER
100
AcDbLine
 10
2067.8999999999996362
 20
222.75
 30
0.0
 11
2058.1000000000003638
 21
222.7500000000000568
 31
0.0
  0
LINE
  5
16B
100
AcDbEntity
  8
0
 62
256
370
-1
 48
1.0
  6
BYLAYER
100
AcDbLine
 10
1566.1000000000003638
 20
128.75
 30
0.0
 11
1575.8999999999996362
 21
128.7500000000000284
 31
0.0
  0
LINE
  5
16C
100
AcDbEntity
  8
0
 62
256
370
-1
 48
1.0
  6
BYLAYER
100
AcDbLine
 10
-754.0999999999999091
 20
23.0000000000000568
 30
0.0
 11
-763.9000000000000909
 21
23.0000000000000568
 31
0.0
  0
LINE
  5
16D
100
AcDbEntity
  8
0
 62
256
370
-1
 48
1.0
  6
BYLAYER
100
AcDbLine
 10
1847.8999999999996362
 20
128.75
 30
0.0
 11
1838.1000000000003638
 21
128.75
 31
0.0
  0
LINE
  5
16E
100
AcDbEntity
  8
0
 62
256
370
-1
 48
1.0
  6
BYLAYER
100
AcDbLine
 10
2047.8999999999996362
 20
222.7500000000000568
 30
0.0
 11
2038.1000000000003638
 21
222.7500000000000568
 31
0.0
  0
LINE
  5
16F
100
AcDbEntity
  8
0
 62
256
370
-1
 48
1.0
  6
BYLAYER
100
AcDbLine
 10
1586.1000000000003638
 20
128.7500000000000568
 30
0.0
 11
1595.8999999999996362
 21
128.7500000000000284
 31
0.0
  0
LINE
  5
170
100
AcDbEntity
  8
0
 62
256
370
-1
 48
1.0
  6
BYLAYER
100
AcDbLine
 10
-774.0999999999999091
 20
23.0
 30
0.0
 11
-785.0
 21
23.0
 31
0.0
  0
LINE
  5
171
100
AcDbEntity
  8
0
 62
256
370
-1
 48
1.0
  6
BYLAYER
100
AcDbLine
 10
1827.8999999999996362
 20
128.7499999999999432
 30
0.0
 11
1817.0
 21
128.7499999999999432
 31
0.0
  0
LINE
  5
172
100
AcDbEntity
  8
0
 62
256
370
-1
 48
1.0
  6
BYLAYER
100
AcDbLine
 10
2027.8999999999996362
 20
222.75
 30
0.0
 11
2017.0
 21
222.75
 31
0.0
  0
LINE
  5
173
100
AcDbEntity
  8
0
 62
256
370
-1
 48
1.0
  6
BYLAYER
100
AcDbLine
 10
1606.1000000000003638
 20
128.75
 30
0.0
 11
1617.0
 21
128.7499999999999716
 31
0.0
  0
LINE
  5
174
100
AcDbEntity
  8
0
 62
256
370
-1
 48
1.0
  6
BYLAYER
100
AcDbLine
 10
-785.0
 20
23.0
 30
0.0
 11
-785.0
 21
377.0
 31
0.0
  0
LINE
  5
175
100
AcDbEntity
  8
0
 62
256
370
-1
 48
1.0
  6
BYLAYER
100
AcDbLine
 10
1817.0
 20
128.7499999999999432
 30
0.0
 11
1817.0
 21
482.7499999999999432
 31
0.0
  0
LINE
  5
176
100
AcDbEntity
  8
0
 62
256
370
-1
 48
1.0
  6
BYLAYER
100
AcDbLine
 10
1617.0
 20
128.7499999999999716
 30
0.0
 11
1617.0
 21
482.75
 31
0.0
  0
LINE
  5
177
100
AcDbEntity
  8
tab-sketch
 62
256
370
-1
 48
1.0
  6
BYLAYER
100
AcDbLine
 10
-515.0
 20
230.0
 30
0.0
 11
-1115.0
 21
230.0
 31
0.0
  0
LINE
  5
178
100
AcDbEntity
  8
tab-sketch
 62
256
370
-1
 48
1.0
  6
BYLAYER
100
AcDbLine
 10
-515.0
 20
210.0
 30
0.0
 11
-1115.0
 21
210.0
 31
0.0
  0
LINE
  5
179
100
AcDbEntity
  8
tab-sketch
 62
256
370
-1
 48
1.0
  6
BYLAYER
100
AcDbLine
 10
-885.0
 20
-420.0
 30
0.0
 11
-1485.0
 21
-420.0
 31
0.0
  0
LINE
  5
17A
100
AcDbEntity
  8
tab-sketch
 62
256
370
-1
 48
1.0
  6
BYLAYER
100
AcDbLine
 10
-515.0
 20
190.0
 30
0.0
 11
-1115.0
 21
190.0
 31
0.0
  0
LINE
  5
17B
100
AcDbEntity
  8
tab-sketch
 62
256
370
-1
 48
1.0
  6
BYLAYER
100
AcDbLine
 10
-885.0
 20
-440.0
 30
0.0
 11
-1485.0
 21
-440.0
 31
0.0
  0
LINE
  5
17C
100
AcDbEntity
  8
tab-sketch
 62
256
370
-1
 48
1.0
  6
BYLAYER
100
AcDbLine
 10
-515.0
 20
170.0
 30
0.0
 11
-1115.0
 21
170.0
 31
0.0
  0
INSERT
  5
17D
100
AcDbEntity
  8
0
 62
256
370
-1
 48
1.0
  6
BYLAYER
100
AcDbBlockReference
  2
tab
 10
-769.0
 20
377.0
 30
0.0
 41
1.0
 42
-1.0
 43
1.0
 50
270.0
  0
INSERT
  5
17E
100
AcDbEntity
  8
0
 62
256
370
-1
 48
1.0
  6
BYLAYER
100
AcDbBlockReference
  2
tab
 10
1833.0
 20
482.7499999999999432
 30
0.0
 41
1.0
 42
-1.0
 43
1.0
 50
270.0
  0
INSERT
  5
17F
100
AcDbEntity
  8
0
 62
256
370
-1
 48
1.0
  6
BYLAYER
100
AcDbBlockReference
  2
tab
 10
2033.0
 20
482.7499999999999432
 30
0.0
 41
1.0
 42
-1.0
 43
1.0
 50
270.0
  0
INSERT
  5
180
100
AcDbEntity
  8
0
 62
256
370
-1
 48
1.0
  6
BYLAYER
100
AcDbBlockReference
  2
tab
 10
1601.0
 20
482.7499999999999432
 30
0.0
 50
270.0
  0
INSERT
  5
181
100
AcDbEntity
  8
0
 62
256
370
-1
 48
1.0
  6
BYLAYER
100
AcDbBlockReference
  2
tab
 10
-938.0
 20
566.0
 30
0.0
 41
1.0
 42
-1.0
 43
1.0
 50
180.0
  0
INSERT
  5
182
100
AcDbEntity
  8
0
 62
256
370
-1
 48
1.0
  6
BYLAYER
100
AcDbBlockReference
  2
tab
 10
1773.5
 20
671.7500000000001137
 30
0.0
 41
1.0
 42
-1.0
 43
1.0
 50
180.0
  0
INSERT
  5
183
100
AcDbEntity
  8
0
 62
256
370
-1
 48
1.0
  6
BYLAYER
100
AcDbBlockReference
  2
tab
 10
1660.5
 20
-94.25
 30
0.0
  0
LINE
  5
184
100
AcDbEntity
  8
dimensions
 62
256
370
-1
 48
1.0
  6
BYLAYER
100
AcDbLine
 10
-1235.0
 20
172.5
 30
0.0
 11
-935.0
 21
172.5
 31
0.0
  0
LINE
  5
185
100
AcDbEntity
  8
dimensions
 62
256
370
-1
 48
1.0
  6
BYLAYER
100
AcDbLine
 10
-935.0
 20
172.5
 30
0.0
 11
-935.0
 21
227.5
 31
0.0
  0
LINE
  5
186
100
AcDbEntity
  8
dimensions
 62
256
370
-1
 48
1.0
  6
BYLAYER
100
AcDbLine
 10
-935.0
 20
227.5
 30
0.0
 11
-1235.0
 21
227.5
 31
0.0
  0
LINE
  5
187
100
AcDbEntity
  8
dimensions
 62
256
370
-1
 48
1.0
  6
BYLAYER
100
AcDbLine
 10
-1235.0
 20
227.5
 30
0.0
 11
-1235.0
 21
172.5
 31
0.0
  0
LINE
  5
188
100
AcDbEntity
  8
dimensions
 62
256
370
-1
 48
1.0
  6
BYLAYER
100
AcDbLine
 10
-1235.0
 20
20.0
 30
0.0
 11
-935.0
 21
20.0
 31
0.0
  0
LINE
  5
189
100
AcDbEntity
  8
dimensions
 62
256
370
-1
 48
1.0
  6
BYLAYER
100
AcDbLine
 10
-935.0
 20
20.0
 30
0.0
 11
-935.0
 21
380.0
 31
0.0
  0
LINE
  5
18A
100
AcDbEntity
  8
dimensions
 62
256
370
-1
 48
1.0
  6
BYLAYER
100
AcDbLine
 10
-935.0
 20
380.0
 30
0.0
 11
-1235.0
 21
380.0
 31
0.0
  0
LINE
  5
18B
100
AcDbEntity
  8
dimensions
 62
256
370
-1
 48
1.0
  6
BYLAYER
100
AcDbLine
 10
-1235.0
 20
380.0
 30
0.0
 11
-1235.0
 21
20.0
 31
0.0
  0
LINE
  5
18C
100
AcDbEntity
  8
wall-sketch
 62
256
370
-1
 48
1.0
  6
BYLAYER
100
AcDbLine
 10
-1235.0
 20
227.5
 30
0.0
 11
-935.0
 21
227.5
 31
0.0
  0
LINE
  5
18D
100
AcDbEntity
  8
wall-sketch
 62
256
370
-1
 48
1.0
  6
BYLAYER
100
AcDbLine
 10
-935.0
 20
227.5
 30
0.0
 11
-935.0
 21
230.5
 31
0.0
  0
LINE
  5
18E
100
AcDbEntity
  8
wall-sketch
 62
256
370
-1
 48
1.0
  6
BYLAYER
100
AcDbLine
 10
-935.0
 20
230.5
 30
0.0
 11
-1235.0
 21
230.5
 31
0.0
  0
LINE
  5
18F
100
AcDbEntity
  8
wall-sketch
 62
256
370
-1
 48
1.0
  6
BYLAYER
100
AcDbLine
 10
-1235.0
 20
230.5
 30
0.0
 11
-1235.0
 21
227.5
 31
0.0
  0
LINE
  5
190
100
AcDbEntity
  8
wall-sketch
 62
256
370
-1
 48
1.0
  6
BYLAYER
100
AcDbLine
 10
-1235.0
 20
377.0
 30
0.0
 11
-935.0
 21
377.0
 31
0.0
  0
LINE
  5
191
100
AcDbEntity
  8
wall-sketch
 62
256
370
-1
 48
1.0
  6
BYLAYER
100
AcDbLine
 10
-935.0
 20
377.0
 30
0.0
 11
-935.0
 21
380.0
 31
0.0
  0
LINE
  5
192
100
AcDbEntity
  8
wall-sketch
 62
256
370
-1
 48
1.0
  6
BYLAYER
100
AcDbLine
 10
-935.0
 20
380.0
 30
0.0
 11
-1235.0
 21
380.0
 31
0.0
  0
LINE
  5
193
100
AcDbEntity
  8
wall-sketch
 62
256
370
-1
 48
1.0
  6
BYLAYER
100
AcDbLine
 10
-1235.0
 20
380.0
 30
0.0
 11
-1235.0
 21
377.0
 31
0.0
  0
LINE
  5
194
100
AcDbEntity
  8
wall-sketch
 62
256
370
-1
 48
1.0
  6
BYLAYER
100
AcDbLine
 10
-1235.0
 20
169.5
 30
0.0
 11
-935.0
 21
169.5
 31
0.0
  0
LINE
  5
195
100
AcDbEntity
  8
wall-sketch
 62
256
370
-1
 48
1.0
  6
BYLAYER
100
AcDbLine
 10
-935.0
 20
169.5
 30
0.0
 11
-935.0
 21
172.5
 31
0.0
  0
LINE
  5
196
100
AcDbEntity
  8
wall-sketch
 62
256
370
-1
 48
1.0
  6
BYLAYER
100
AcDbLine
 10
-935.0
 20
172.5
 30
0.0
 11
-1235.0
 21
172.5
 31
0.0
  0
LINE
  5
197
100
AcDbEntity
  8
wall-sketch
 62
256
370
-1
 48
1.0
  6
BYLAYER
100
AcDbLine
 10
-1235.0
 20
172.5
 30
0.0
 11
-1235.0
 21
169.5
 31
0.0
  0
LINE
  5
198
100
AcDbEntity
  8
wall-sketch
 62
256
370
-1
 48
1.0
  6
BYLAYER
100
AcDbLine
 10
-1235.0
 20
20.0
 30
0.0
 11
-935.0
 21
20.0
 31
0.0
  0
LINE
  5
199
100
AcDbEntity
  8
wall-sketch
 62
256
370
-1
 48
1.0
  6
BYLAYER
100
AcDbLine
 10
-935.0
 20
20.0
 30
0.0
 11
-935.0
 21
23.0
 31
0.0
  0
LINE
  5
19A
100
AcDbEntity
  8
wall-sketch
 62
256
370
-1
 48
1.0
  6
BYLAYER
100
AcDbLine
 10
-935.0
 20
23.0
 30
0.0
 11
-1235.0
 21
23.0
 31
0.0
  0
LINE
  5
19B
100
AcDbEntity
  8
wall-sketch
 62
256
370
-1
 48
1.0
  6
BYLAYER
100
AcDbLine
 10
-1235.0
 20
23.0
 30
0.0
 11
-1235.0
 21
20.0
 31
0.0
  0
LINE
  5
19C
100
AcDbEntity
  8
wall-sketch
 62
256
370
-1
 48
1.0
  6
BYLAYER
100
AcDbLine
 10
-1235.0
 20
94.75
 30
0.0
 11
-935.0
 21
94.75
 31
0.0
  0
LINE
  5
19D
100
AcDbEntity
  8
wall-sketch
 62
256
370
-1
 48
1.0
  6
BYLAYER
100
AcDbLine
 10
-935.0
 20
94.75
 30
0.0
 11
-935.0
 21
97.75
 31
0.0
  0
LINE
  5
19E
100
AcDbEntity
  8
wall-sketch
 62
256
370
-1
 48
1.0
  6
BYLAYER
100
AcDbLine
 10
-935.0
 20
97.75
 30
0.0
 11
-1235.0
 21
97.75
 31
0.0
  0
LINE
  5
19F
100
AcDbEntity
  8
wall-sketch
 62
256
370
-1
 48
1.0
  6
BYLAYER
100
AcDbLine
 10
-1235.0
 20
97.75
 30
0.0
 11
-1235.0
 21
94.75
 31
0.0
  0
LINE
  5
1A0
100
AcDbEntity
  8
wall-sketch
 62
256
370
-1
 48
1.0
  6
BYLAYER
100
AcDbLine
 10
-1235.0
 20
302.25
 30
0.0
 11
-935.0
 21
302.25
 31
0.0
  0
LINE
  5
1A1
100
AcDbEntity
  8
wall-sketch
 62
256
370
-1
 48
1.0
  6
BYLAYER
100
AcDbLine
 10
-935.0
 20
302.25
 30
0.0
 11
-935.0
 21
305.25
 31
0.0
  0
LINE
  5
1A2
100
AcDbEntity
  8
wall-sketch
 62
256
370
-1
 48
1.0
  6
BYLAYER
100
AcDbLine
 10
-935.0
 20
305.25
 30
0.0
 11
-1235.0
 21
305.25
 31
0.0
  0
LINE
  5
1A3
100
AcDbEntity
  8
wall-sketch
 62
256
370
-1
 48
1.0
  6
BYLAYER
100
AcDbLine
 10
-1235.0
 20
305.25
 30
0.0
 11
-1235.0
 21
302.25
 31
0.0
  0
LINE
  5
1A4
100
AcDbEntity
  8
wall-sketch
 62
256
370
-1
 48
1.0
  6
BYLAYER
100
AcDbLine
 10
-1235.0
 20
20.0
 30
0.0
 11
-1232.0
 21
20.0
 31
0.0
  0
LINE
  5
1A5
100
AcDbEntity
  8
wall-sketch
 62
256
370
-1
 48
1.0
  6
BYLAYER
100
AcDbLine
 10
-1232.0
 20
20.0
 30
0.0
 11
-1232.0
 21
380.0
 31
0.0
  0
LINE
  5
1A6
100
AcDbEntity
  8
wall-sketch
 62
256
370
-1
 48
1.0
  6
BYLAYER
100
AcDbLine
 10
-1232.0
 20
380.0
 30
0.0
 11
-1235.0
 21
380.0
 31
0.0
  0
LINE
  5
1A7
100
AcDbEntity
  8
wall-sketch
 62
256
370
-1
 48
1.0
  6
BYLAYER
100
AcDbLine
 10
-1235.0
 20
380.0
 30
0.0
 11
-1235.0
 21
20.0
 31
0.0
  0
LINE
  5
1A8
100
AcDbEntity
  8
wall-sketch
 62
256
370
-1
 48
1.0
  6
BYLAYER
100
AcDbLine
 10
-938.0
 20
20.0
 30
0.0
 11
-935.0
 21
20.0
 31
0.0
  0
LINE
  5
1A9
100
AcDbEntity
  8
wall-sketch
 62
256
370
-1
 48
1.0
  6
BYLAYER
100
AcDbLine
 10
-935.0
 20
20.0
 30
0.0
 11
-935.0
 21
380.0
 31
0.0
  0
LINE
  5
1AA
100
AcDbEntity
  8
wall-sketch
 62
256
370
-1
 48
1.0
  6
BYLAYER
100
AcDbLine
 10
-935.0
 20
380.0
 30
0.0
 11
-938.0
 21
380.0
 31
0.0
  0
LINE
  5
1AB
100
AcDbEntity
  8
wall-sketch
 62
256
370
-1
 48
1.0
  6
BYLAYER
100
AcDbLine
 10
-938.0
 20
380.0
 30
0.0
 11
-938.0
 21
20.0
 31
0.0
  0
INSERT
  5
1AC
100
AcDbEntity
  8
0
 62
256
370
-1
 48
1.0
  6
BYLAYER
100
AcDbBlockReference
  2
tab
 10
-749.0
 20
377.0
 30
0.0
 41
1.0
 42
-1.0
 43
1.0
 50
270.0
  0
INSERT
  5
1AD
100
AcDbEntity
  8
0
 62
256
370
-1
 48
1.0
  6
BYLAYER
100
AcDbBlockReference
  2
tab
 10
1853.0
 20
482.7499999999999432
 30
0.0
 41
1.0
 42
-1.0
 43
1.0
 50
270.0
  0
INSERT
  5
1AE
100
AcDbEntity
  8
0
 62
256
370
-1
 48
1.0
  6
BYLAYER
100
AcDbBlockReference
  2
tab
 10
2053.0
 20
482.7499999999999432
 30
0.0
 41
1.0
 42
-1.0
 43
1.0
 50
270.0
  0
INSERT
  5
1AF
100
AcDbEntity
  8
0
 62
256
370
-1
 48
1.0
  6
BYLAYER
100
AcDbBlockReference
  2
tab
 10
1581.0
 20
482.75
 30
0.0
 50
270.0
  0
LINE
  5
1B0
100
AcDbEntity
  8
sketch
 62
256
370
-1
 48
1.0
  6
BYLAYER
100
AcDbLine
 10
-935.0
 20
377.0
 30
0.0
 11
-535.0
 21
377.0
 31
0.0
  0
LINE
  5
1B1
100
AcDbEntity
  8
sketch
 62
256
370
-1
 48
1.0
  6
BYLAYER
100
AcDbLine
 10
-935.0
 20
380.0
 30
0.0
 11
-535.0
 21
380.0
 31
0.0
  0
LINE
  5
1B2
100
AcDbEntity
  8
sketch
 62
256
370
-1
 48
1.0
  6
BYLAYER
100
AcDbLine
 10
-935.0
 20
20.0
 30
0.0
 11
-535.0
 21
20.0
 31
0.0
  0
LINE
  5
1B3
100
AcDbEntity
  8
sketch
 62
256
370
-1
 48
1.0
  6
BYLAYER
100
AcDbLine
 10
-935.0
 20
23.0
 30
0.0
 11
-535.0
 21
23.0
 31
0.0
  0
INSERT
  5
1B4
100
AcDbEntity
  8
0
 62
256
370
-1
 48
1.0
  6
BYLAYER
100
AcDbBlockReference
  2
tab
 10
-938.0
 20
546.0
 30
0.0
 41
1.0
 42
-1.0
 43
1.0
 50
180.0
  0
INSERT
  5
1B5
100
AcDbEntity
  8
0
 62
256
370
-1
 48
1.0
  6
BYLAYER
100
AcDbBlockReference
  2
tab
 10
1773.5
 20
651.7500000000002274
 30
0.0
 41
1.0
 42
-1.0
 43
1.0
 50
180.0
  0
INSERT
  5
1B6
100
AcDbEntity
  8
0
 62
256
370
-1
 48
1.0
  6
BYLAYER
100
AcDbBlockReference
  2
tab
 10
1660.5
 20
-114.2499999999998863
 30
0.0
  0
LINE
  5
1B7
100
AcDbEntity
  8
sketch
 62
256
370
-1
 48
1.0
  6
BYLAYER
100
AcDbLine
 10
-1285.0
 20
500.0
 30
0.0
 11
-885.0
 21
500.0
 31
0.0
  0
LINE
  5
1B8
100
AcDbEntity
  8
sketch
 62
256
370
-1
 48
1.0
  6
BYLAYER
100
AcDbLine
 10
1517.0
 20
605.75
 30
0.0
 11
1917.0
 21
605.75
 31
0.0
  0
LINE
  5
1B9
100
AcDbEntity
  8
sketch
 62
256
370
-1
 48
1.0
  6
BYLAYER
100
AcDbLine
 10
1517.0
 20
805.75
 30
0.0
 11
1917.0
 21
805.75
 31
0.0
  0
LINE
  5
1BA
100
AcDbEntity
  8
sketch
 62
256
370
-1
 48
1.0
  6
BYLAYER
100
AcDbLine
 10
1517.0
 20
1005.75
 30
0.0
 11
1917.0
 21
1005.75
 31
0.0
  0
LINE
  5
1BB
100
AcDbEntity
  8
sketch
 62
256
370
-1
 48
1.0
  6
BYLAYER
100
AcDbLine
 10
1917.0
 20
-160.2500000000000568
 30
0.0
 11
1517.0
 21
-160.2500000000001705
 31
0.0
  0
LINE
  5
1BC
100
AcDbEntity
  8
sketch
 62
256
370
-1
 48
1.0
  6
BYLAYER
100
AcDbLine
 10
-1285.0
 20
632.0
 30
0.0
 11
-885.0
 21
632.0
 31
0.0
  0
LINE
  5
1BD
100
AcDbEntity
  8
sketch
 62
256
370
-1
 48
1.0
  6
BYLAYER
100
AcDbLine
 10
1517.0
 20
737.75
 30
0.0
 11
1917.0
 21
737.75
 31
0.0
  0
LINE
  5
1BE
100
AcDbEntity
  8
sketch
 62
256
370
-1
 48
1.0
  6
BYLAYER
100
AcDbLine
 10
1517.0
 20
937.75
 30
0.0
 11
1917.0
 21
937.75
 31
0.0
  0
LINE
  5
1BF
100
AcDbEntity
  8
sketch
 62
256
370
-1
 48
1.0
  6
BYLAYER
100
AcDbLine
 10
1517.0
 20
1137.75
 30
0.0
 11
1917.0
 21
1137.75
 31
0.0
  0
LINE
  5
1C0
100
AcDbEntity
  8
sketch
 62
256
370
-1
 48
1.0
  6
BYLAYER
100
AcDbLine
 10
1917.0
 20
-28.2500000000000568
 30
0.0
 11
1517.0
 21
-28.25
 31
0.0
  0
LINE
  5
1C1
100
AcDbEntity
  8
tab-sketch
 62
256
370
-1
 48
1.0
  6
BYLAYER
100
AcDbLine
 10
-1285.0
 20
626.0
 30
0.0
 11
-885.0
 21
626.0
 31
0.0
  0
LINE
  5
1C2
100
AcDbEntity
  8
tab-sketch
 62
256
370
-1
 48
1.0
  6
BYLAYER
100
AcDbLine
 10
1517.0
 20
731.75
 30
0.0
 11
1917.0
 21
731.75
 31
0.0
  0
LINE
  5
1C3
100
AcDbEntity
  8
tab-sketch
 62
256
370
-1
 48
1.0
  6
BYLAYER
100
AcDbLine
 10
1917.0
 20
-34.2500000000001705
 30
0.0
 11
1517.0
 21
-34.2500000000001705
 31
0.0
  0
LINE
  5
1C4
100
AcDbEntity
  8
tab-sketch
 62
256
370
-1
 48
1.0
  6
BYLAYER
100
AcDbLine
 10
-1285.0
 20
586.0000000000001137
 30
0.0
 11
-885.0
 21
586.0000000000001137
 31
0.0
  0
LINE
  5
1C5
100
AcDbEntity
  8
tab-sketch
 62
256
370
-1
 48
1.0
  6
BYLAYER
100
AcDbLine
 10
1517.0
 20
691.7500000000001137
 30
0.0
 11
1917.0
 21
691.7500000000001137
 31
0.0
  0
LINE
  5
1C6
100
AcDbEntity
  8
tab-sketch
 62
256
370
-1
 48
1.0
  6
BYLAYER
100
AcDbLine
 10
1517.0
 20
701.7500000000001137
 30
0.0
 11
1917.0
 21
701.7500000000001137
 31
0.0
  0
LINE
  5
1C7
100
AcDbEntity
  8
tab-sketch
 62
256
370
-1
 48
1.0
  6
BYLAYER
100
AcDbLine
 10
1517.0
 20
901.75
 30
0.0
 11
1917.0
 21
901.75
 31
0.0
  0
LINE
  5
1C8
100
AcDbEntity
  8
tab-sketch
 62
256
370
-1
 48
1.0
  6
BYLAYER
100
AcDbLine
 10
1517.0
 20
1101.75
 30
0.0
 11
1917.0
 21
1101.75
 31
0.0
  0
LINE
  5
1C9
100
AcDbEntity
  8
tab-sketch
 62
256
370
-1
 48
1.0
  6
BYLAYER
100
AcDbLine
 10
1917.0
 20
-74.2500000000000568
 30
0.0
 11
1517.0
 21
-74.25
 31
0.0
  0
LINE
  5
1CA
100
AcDbEntity
  8
tab-sketch
 62
256
370
-1
 48
1.0
  6
BYLAYER
100
AcDbLine
 10
-1285.0
 20
546.0
 30
0.0
 11
-885.0
 21
546.0
 31
0.0
  0
LINE
  5
1CB
100
AcDbEntity
  8
tab-sketch
 62
256
370
-1
 48
1.0
  6
BYLAYER
100
AcDbLine
 10
1517.0
 20
651.75
 30
0.0
 11
1917.0
 21
651.75
 31
0.0
  0
LINE
  5
1CC
100
AcDbEntity
  8
tab-sketch
 62
256
370
-1
 48
1.0
  6
BYLAYER
100
AcDbLine
 10
1517.0
 20
661.75
 30
0.0
 11
1917.0
 21
661.75
 31
0.0
  0
LINE
  5
1CD
100
AcDbEntity
  8
tab-sketch
 62
256
370
-1
 48
1.0
  6
BYLAYER
100
AcDbLine
 10
1517.0
 20
861.75
 30
0.0
 11
1917.0
 21
861.75
 31
0.0
  0
LINE
  5
1CE
100
AcDbEntity
  8
tab-sketch
 62
256
370
-1
 48
1.0
  6
BYLAYER
100
AcDbLine
 10
1517.0
 20
1061.75
 30
0.0
 11
1917.0
 21
1061.75
 31
0.0
  0
LINE
  5
1CF
100
AcDbEntity
  8
tab-sketch
 62
256
370
-1
 48
1.0
  6
BYLAYER
100
AcDbLine
 10
1917.0
 20
-114.2500000000001705
 30
0.0
 11
1517.0
 21
-114.2500000000001705
 31
0.0
  0
LINE
  5
1D0
100
AcDbEntity
  8
tab-sketch
 62
256
370
-1
 48
1.0
  6
BYLAYER
100
AcDbLine
 10
-1285.0
 20
526.0
 30
0.0
 11
-885.0
 21
526.0
 31
0.0
  0
LINE
  5
1D1
100
AcDbEntity
  8
tab-sketch
 62
256
370
-1
 48
1.0
  6
BYLAYER
100
AcDbLine
 10
1517.0
 20
631.75
 30
0.0
 11
1917.0
 21
631.75
 31
0.0
  0
LINE
  5
1D2
100
AcDbEntity
  8
tab-sketch
 62
256
370
-1
 48
1.0
  6
BYLAYER
100
AcDbLine
 10
1517.0
 20
641.75
 30
0.0
 11
1917.0
 21
641.75
 31
0.0
  0
LINE
  5
1D3
100
AcDbEntity
  8
tab-sketch
 62
256
370
-1
 48
1.0
  6
BYLAYER
100
AcDbLine
 10
1517.0
 20
841.75
 30
0.0
 11
1917.0
 21
841.75
 31
0.0
  0
LINE
  5
1D4
100
AcDbEntity
  8
tab-sketch
 62
256
370
-1
 48
1.0
  6
BYLAYER
100
AcDbLine
 10
1517.0
 20
1041.75
 30
0.0
 11
1917.0
 21
1041.75
 31
0.0
  0
LINE
  5
1D5
100
AcDbEntity
  8
tab-sketch
 62
256
370
-1
 48
1.0
  6
BYLAYER
100
AcDbLine
 10
1917.0
 20
-134.25
 30
0.0
 11
1517.0
 21
-134.2500000000001137
 31
0.0
  0
LINE
  5
1D6
100
AcDbEntity
  8
tab-sketch
 62
256
370
-1
 48
1.0
  6
BYLAYER
100
AcDbLine
 10
-1285.0
 20
506.0000000000000568
 30
0.0
 11
-885.0
 21
506.0000000000000568
 31
0.0
  0
LINE
  5
1D7
100
AcDbEntity
  8
tab-sketch
 62
256
370
-1
 48
1.0
  6
BYLAYER
100
AcDbLine
 10
1517.0
 20
611.75
 30
0.0
 11
1917.0
 21
611.75
 31
0.0
  0
LINE
  5
1D8
100
AcDbEntity
  8
tab-sketch
 62
256
370
-1
 48
1.0
  6
BYLAYER
100
AcDbLine
 10
1517.0
 20
621.75
 30
0.0
 11
1917.0
 21
621.75
 31
0.0
  0
LINE
  5
1D9
100
AcDbEntity
  8
tab-sketch
 62
256
370
-1
 48
1.0
  6
BYLAYER
100
AcDbLine
 10
1517.0
 20
821.75
 30
0.0
 11
1917.0
 21
821.75
 31
0.0
  0
LINE
  5
1DA
100
AcDbEntity
  8
tab-sketch
 62
256
370
-1
 48
1.0
  6
BYLAYER
100
AcDbLine
 10
1517.0
 20
1021.75
 30
0.0
 11
1917.0
 21
1021.75
 31
0.0
  0
LINE
  5
1DB
100
AcDbEntity
  8
tab-sketch
 62
256
370
-1
 48
1.0
  6
BYLAYER
100
AcDbLine
 10
1917.0
 20
-154.2499999999999432
 30
0.0
 11
1517.0
 21
-154.2499999999999432
 31
0.0
  0
LINE
  5
1DC
100
AcDbEntity
  8
tab-sketch
 62
256
370
-1
 48
1.0
  6
BYLAYER
100
AcDbLine
 10
-1285.0
 20
606.0
 30
0.0
 11
-885.0
 21
606.0
 31
0.0
  0
LINE
  5
1DD
100
AcDbEntity
  8
tab-sketch
 62
256
370
-1
 48
1.0
  6
BYLAYER
100
AcDbLine
 10
1517.0
 20
711.75
 30
0.0
 11
1917.0
 21
711.75
 31
0.0
  0
LINE
  5
1DE
100
AcDbEntity
  8
tab-sketch
 62
256
370
-1
 48
1.0
  6
BYLAYER
100
AcDbLine
 10
1517.0
 20
721.75
 30
0.0
 11
1917.0
 21
721.75
 31
0.0
  0
LINE
  5
1DF
100
AcDbEntity
  8
tab-sketch
 62
256
370
-1
 48
1.0
  6
BYLAYER
100
AcDbLine
 10
1517.0
 20
921.75
 30
0.0
 11
1917.0
 21
921.75
 31
0.0
  0
LINE
  5
1E0
100
AcDbEntity
  8
tab-sketch
 62
256
370
-1
 48
1.0
  6
BYLAYER
100
AcDbLine
 10
1517.0
 20
1121.75
 30
0.0
 11
1917.0
 21
1121.75
 31
0.0
  0
LINE
  5
1E1
100
AcDbEntity
  8
tab-sketch
 62
256
370
-1
 48
1.0
  6
BYLAYER
100
AcDbLine
 10
1917.0
 20
-54.2500000000002274
 30
0.0
 11
1517.0
 21
-54.2500000000002274
 31
0.0
  0
LINE
  5
1E2
100
AcDbEntity
  8
tab-sketch
 62
256
370
-1
 48
1.0
  6
BYLAYER
100
AcDbLine
 10
-1285.0
 20
566.0
 30
0.0
 11
-885.0
 21
566.0
 31
0.0
  0
LINE
  5
1E3
100
AcDbEntity
  8
tab-sketch
 62
256
370
-1
 48
1.0
  6
BYLAYER
100
AcDbLine
 10
1517.0
 20
671.75
 30
0.0
 11
1917.0
 21
671.75
 31
0.0
  0
LINE
  5
1E4
100
AcDbEntity
  8
tab-sketch
 62
256
370
-1
 48
1.0
  6
BYLAYER
100
AcDbLine
 10
1517.0
 20
681.75
 30
0.0
 11
1917.0
 21
681.75
 31
0.0
  0
LINE
  5
1E5
100
AcDbEntity
  8
tab-sketch
 62
256
370
-1
 48
1.0
  6
BYLAYER
100
AcDbLine
 10
1517.0
 20
881.75
 30
0.0
 11
1917.0
 21
881.75
 31
0.0
  0
LINE
  5
1E6
100
AcDbEntity
  8
tab-sketch
 62
256
370
-1
 48
1.0
  6
BYLAYER
100
AcDbLine
 10
1517.0
 20
1081.75
 30
0.0
 11
1917.0
 21
1081.75
 31
0.0
  0
LINE
  5
1E7
100
AcDbEntity
  8
tab-sketch
 62
256
370
-1
 48
1.0
  6
BYLAYER
100
AcDbLine
 10
1917.0
 20
-94.25
 30
0.0
 11
1517.0
 21
-94.25
 31
0.0
  0
LINE
  5
1E8
100
AcDbEntity
  8
sketch
 62
256
370
-1
 48
1.0
  6
BYLAYER
100
AcDbLine
 10
-1235.0
 20
380.0
 30
0.0
 11
-1235.0
 21
780.0
 31
0.0
  0
LINE
  5
1E9
100
AcDbEntity
  8
sketch
 62
256
370
-1
 48
1.0
  6
BYLAYER
100
AcDbLine
 10
-1232.0
 20
380.0
 30
0.0
 11
-1232.0
 21
780.0
 31
0.0
  0
LINE
  5
1EA
100
AcDbEntity
  8
sketch
 62
256
370
-1
 48
1.0
  6
BYLAYER
100
AcDbLine
 10
-938.0
 20
380.0
 30
0.0
 11
-938.0
 21
780.0
 31
0.0
  0
LINE
  5
1EB
100
AcDbEntity
  8
sketch
 62
256
370
-1
 48
1.0
  6
BYLAYER
100
AcDbLine
 10
-935.0
 20
380.0
 30
0.0
 11
-935.0
 21
780.0
 31
0.0
  0
INSERT
  5
1EC
100
AcDbEntity
  8
0
 62
256
370
-1
 48
1.0
  6
BYLAYER
100
AcDbBlockReference
  2
tab
 10
-1232.0
 20
586.0000000000001137
 30
0.0
 41
1.0
 42
-1.0
 43
1.0
 50
360.0
  0
INSERT
  5
1ED
100
AcDbEntity
  8
0
 62
256
370
-1
 48
1.0
  6
BYLAYER
100
AcDbBlockReference
  2
tab
 10
1660.5
 20
691.7500000000001137
 30
0.0
 41
1.0
 42
-1.0
 43
1.0
 50
360.0
  0
INSERT
  5
1EE
100
AcDbEntity
  8
0
 62
256
370
-1
 48
1.0
  6
BYLAYER
100
AcDbBlockReference
  2
tab
 10
1773.5
 20
-74.2499999999999432
 30
0.0
 50
180.0
  0
INSERT
  5
1EF
100
AcDbEntity
  8
0
 62
256
370
-1
 48
1.0
  6
BYLAYER
100
AcDbBlockReference
  2
tab
 10
-938.0
 20
525.9999999999998863
 30
0.0
 41
1.0
 42
-1.0
 43
1.0
 50
180.0
  0
INSERT
  5
1F0
100
AcDbEntity
  8
0
 62
256
370
-1
 48
1.0
  6
BYLAYER
100
AcDbBlockReference
  2
tab
 10
1773.5
 20
631.75
 30
0.0
 41
1.0
 42
-1.0
 43
1.0
 50
180.0
  0
INSERT
  5
1F1
100
AcDbEntity
  8
0
 62
256
370
-1
 48
1.0
  6
BYLAYER
100
AcDbBlockReference
  2
tab
 10
1660.5
 20
-134.25
 30
0.0
  0
LINE
  5
1F2
100
AcDbEntity
  8
0
 62
256
370
-1
 48
1.0
  6
BYLAYER
100
AcDbLine
 10
-1235.1000000000001364
 20
632.0
 30
0.0
 11
-934.9000000000000909
 21
632.0
 31
0.0
  0
LINE
  5
1F3
100
AcDbEntity
  8
0
 62
256
370
-1
 48
1.0
  6
BYLAYER
100
AcDbLine
 10
-1235.1000000000001364
 20
500.0
 30
0.0
 11
-934.9000000000000909
 21
500.0
 31
0.0
  0
DIMENSION
  5
1F4
100
AcDbEntity
  8
sketch
 62
256
370
-1
 48
1.0
  6
BYLAYER
100
AcDbDimension
 10
-653.0
 20
420.0000000000022737
 30
0.0
 11
-683.0
 21
421.8750000000022737
 31
0.0
 70
1
 71
8
 72
2
 74
0
 75
0
 41
1.0
 42
0.0
  1

  3
Standard
100
AcDbAlignedDimension
 13
-653.0
 23
380.0000000000014211
 33
0.0
 14
-713.0
 24
380.0000000000014779
 34
0.0
1001
ACAD
1000
DSTYLE
1002
{
1070
144
1040
1.0
1070
40
1040
1.0
1002
}
  0
DIMENSION
  5
1F5
100
AcDbEntity
  8
sketch
 62
256
370
-1
 48
1.0
  6
BYLAYER
100
AcDbDimension
 10
1949.0
 20
525.7499999999922693
 30
0.0
 11
1919.0
 21
527.6249999999928377
 31
0.0
 70
1
 71
8
 72
2
 74
0
 75
0
 41
1.0
 42
0.0
  1

  3
Standard
100
AcDbAlignedDimension
 13
1949.0
 23
485.7499999999991473
 33
0.0
 14
1889.0
 24
485.7500000000002842
 34
0.0
1001
ACAD
1000
DSTYLE
1002
{
1070
144
1040
1.0
1070
40
1040
1.0
1002
}
  0
DIMENSION
  5
1F6
100
AcDbEntity
  8
sketch
 62
256
370
-1
 48
1.0
  6
BYLAYER
100
AcDbDimension
 10
2149.0
 20
525.7500000000173941
 30
0.0
 11
2119.0
 21
527.6250000000122782
 31
0.0
 70
1
 71
8
 72
2
 74
0
 75
0
 41
1.0
 42
0.0
  1

  3
Standard
100
AcDbAlignedDimension
 13
2149.0
 23
485.749999999993463
 33
0.0
 14
2089.0
 24
485.749999999983288
 34
0.0
1001
ACAD
1000
DSTYLE
1002
{
1070
144
1040
1.0
1070
40
1040
1.0
1002
}
  0
DIMENSION
  5
1F7
100
AcDbEntity
  8
sketch
 62
256
370
-1
 48
1.0
  6
BYLAYER
100
AcDbDimension
 10
1485.0
 20
525.7500000000034106
 30
0.0
 11
1515.0
 21
527.6250000000052296
 31
0.0
 70
1
 71
8
 72
2
 74
0
 75
0
 41
1.0
 42
0.0
  1

  3
Standard
100
AcDbAlignedDimension
 13
1485.0
 23
485.7499999999861302
 33
0.0
 14
1545.0
 24
485.7499999999897113
 34
0.0
1001
ACAD
1000
DSTYLE
1002
{
1070
144
1040
1.0
1070
40
1040
1.0
1002
}
  0
LINE
  5
1F8
100
AcDbEntity
  8
sketch
 62
256
370
-1
 48
1.0
  6
BYLAYER
100
AcDbLine
 10
-716.0
 20
-100.0
 30
0.0
 11
-716.0
 21
400.0
 31
0.0
  0
LINE
  5
1F9
100
AcDbEntity
  8
sketch
 62
256
370
-1
 48
1.0
  6
BYLAYER
100
AcDbLine
 10
1886.0
 20
5.7499999999999432
 30
0.0
 11
1886.0
 21
505.7499999999999432
 31
0.0
  0
LINE
  5
1FA
100
AcDbEntity
  8
sketch
 62
256
370
-1
 48
1.0
  6
BYLAYER
100
AcDbLine
 10
2086.0
 20
5.7499999999999432
 30
0.0
 11
2086.0
 21
505.7499999999999432
 31
0.0
  0
LINE
  5
1FB
100
AcDbEntity
  8
sketch
 62
256
370
-1
 48
1.0
  6
BYLAYER
100
AcDbLine
 10
1548.0
 20
5.75
 30
0.0
 11
1548.0
 21
505.75
 31
0.0
  0
LINE
  5
1FC
100
AcDbEntity
  8
sketch
 62
256
370
-1
 48
1.0
  6
BYLAYER
100
AcDbLine
 10
-935.0
 20
227.5
 30
0.0
 11
-535.0
 21
227.5
 31
0.0
  0
LINE
  5
1FD
100
AcDbEntity
  8
sketch
 62
256
370
-1
 48
1.0
  6
BYLAYER
100
AcDbLine
 10
-1305.0
 20
-402.5
 30
0.0
 11
-905.0
 21
-402.5
 31
0.0
  0
LINE
  5
1FE
100
AcDbEntity
  8
sketch
 62
256
370
-1
 48
1.0
  6
BYLAYER
100
AcDbLine
 10
-935.0
 20
302.25
 30
0.0
 11
-535.0
 21
302.25
 31
0.0
  0
LINE
  5
1FF
100
AcDbEntity
  8
sketch
 62
256
370
-1
 48
1.0
  6
BYLAYER
100
AcDbLine
 10
-935.0
 20
172.5
 30
0.0
 11
-535.0
 21
172.5
 31
0.0
  0
LINE
  5
200
100
AcDbEntity
  8
sketch
 62
256
370
-1
 48
1.0
  6
BYLAYER
100
AcDbLine
 10
-1305.0
 20
-457.5
 30
0.0
 11
-905.0
 21
-457.5
 31
0.0
  0
LINE
  5
201
100
AcDbEntity
  8
sketch
 62
256
370
-1
 48
1.0
  6
BYLAYER
100
AcDbLine
 10
-935.0
 20
97.75
 30
0.0
 11
-535.0
 21
97.75
 31
0.0
  0
INSERT
  5
202
100
AcDbEntity
  8
0
 62
256
370
-1
 48
1.0
  6
BYLAYER
100
AcDbBlockReference
  2
tab-hole
 10
-689.0
 20
172.5
 30
0.0
 50
90.0
  0
INSERT
  5
203
100
AcDbEntity
  8
0
 62
256
370
-1
 48
1.0
  6
BYLAYER
100
AcDbBlockReference
  2
tab-hole
 10
-669.0
 20
172.5
 30
0.0
 50
90.0
  0
INSERT
  5
204
100
AcDbEntity
  8
0
 62
256
370
-1
 48
1.0
  6
BYLAYER
100
AcDbBlockReference
  2
tab-hole
 10
-689.0
 20
97.75
 30
0.0
 50
90.0
  0
INSERT
  5
205
100
AcDbEntity
  8
0
 62
256
370
-1
 48
1.0
  6
BYLAYER
100
AcDbBlockReference
  2
tab-hole
 10
-669.0
 20
97.75
 30
0.0
 50
90.0
  0
INSERT
  5
206
100
AcDbEntity
  8
0
 62
256
370
-1
 48
1.0
  6
BYLAYER
100
AcDbBlockReference
  2
tab-hole
 10
-689.0
 20
227.5
 30
0.0
 50
270.0
  0
INSERT
  5
207
100
AcDbEntity
  8
0
 62
256
370
-1
 48
1.0
  6
BYLAYER
100
AcDbBlockReference
  2
tab-hole
 10
-669.0
 20
227.5
 30
0.0
 50
270.0
  0
INSERT
  5
208
100
AcDbEntity
  8
0
 62
256
370
-1
 48
1.0
  6
BYLAYER
100
AcDbBlockReference
  2
tab-hole
 10
-689.0
 20
302.25
 30
0.0
 50
270.0
  0
INSERT
  5
209
100
AcDbEntity
  8
0
 62
256
370
-1
 48
1.0
  6
BYLAYER
100
AcDbBlockReference
  2
tab-hole
 10
-669.0
 20
302.25
 30
0.0
 50
270.0
  0
ARC
  5
20A
100
AcDbEntity
  8
sketch
 62
256
370
-1
 48
1.0
  6
BYLAYER
100
AcDbCircle
 10
-935.0
 20
20.0
 30
0.0
 40
222.0
100
AcDbArc
 50
270.0
 51
0.0
  0
ARC
  5
20B
100
AcDbEntity
  8
sketch
 62
256
370
-1
 48
1.0
  6
BYLAYER
100
AcDbCircle
 10
-935.0
 20
20.0
 30
0.0
 40
219.0
100
AcDbArc
 50
270.0
 51
0.0
  0
ARC
  5
20C
100
AcDbEntity
  8
sketch
 62
256
370
-1
 48
1.0
  6
BYLAYER
100
AcDbCircle
 10
-935.0
 20
20.0
 30
0.0
 40
282.0
100
AcDbArc
 50
270.0
 51
0.0
  0
LINE
  5
20D
100
AcDbEntity
  8
sketch
 62
256
370
-1
 48
1.0
  6
BYLAYER
100
AcDbLine
 10
-935.0
 20
-380.0
 30
0.0
 11
-935.0
 21
20.0
 31
0.0
  0
LINE
  5
20E
100
AcDbEntity
  8
sketch
 62
256
370
-1
 48
1.0
  6
BYLAYER
100
AcDbLine
 10
-938.0
 20
-380.0
 30
0.0
 11
-938.0
 21
20.0
 31
0.0
  0
LINE
  5
20F
100
AcDbEntity
  8
sketch
 62
256
370
-1
 48
1.0
  6
BYLAYER
100
AcDbLine
 10
-1232.0
 20
-380.0
 30
0.0
 11
-1232.0
 21
20.0
 31
0.0
  0
LINE
  5
210
100
AcDbEntity
  8
sketch
 62
256
370
-1
 48
1.0
  6
BYLAYER
100
AcDbLine
 10
-1235.0
 20
-380.0
 30
0.0
 11
-1235.0
 21
20.0
 31
0.0
  0
LINE
  5
211
100
AcDbEntity
  8
sketch
 62
256
370
-1
 48
1.0
  6
BYLAYER
100
AcDbLine
 10
-1335.0
 20
-199.0
 30
0.0
 11
-935.0
 21
-199.0
 31
0.0
  0
LINE
  5
212
100
AcDbEntity
  8
sketch
 62
256
370
-1
 48
1.0
  6
BYLAYER
100
AcDbLine
 10
-1334.9999999999997726
 20
-50.0
 30
0.0
 11
-935.0
 21
-50.0
 31
0.0
  0
LINE
  5
213
100
AcDbEntity
  8
sketch
 62
256
370
-1
 48
1.0
  6
BYLAYER
100
AcDbLine
 10
-1335.0
 20
-202.0
 30
0.0
 11
-935.0
 21
-202.0
 31
0.0
  0
LINE
  5
214
100
AcDbEntity
  8
sketch
 62
256
370
-1
 48
1.0
  6
BYLAYER
100
AcDbLine
 10
-1334.9999999999997726
 20
-53.0
 30
0.0
 11
-935.0
 21
-53.0
 31
0.0
  0
LINE
  5
215
100
AcDbEntity
  8
sketch
 62
256
370
-1
 48
1.0
  6
BYLAYER
100
AcDbLine
 10
-1335.0
 20
-262.0
 30
0.0
 11
-935.0
 21
-262.0
 31
0.0
  0
LINE
  5
216
100
AcDbEntity
  8
sketch
 62
256
370
-1
 48
1.0
  6
BYLAYER
100
AcDbLine
 10
-1334.9999999999997726
 20
-113.0
 30
0.0
 11
-935.0
 21
-113.0
 31
0.0
  0
ARC
  5
217
100
AcDbEntity
  8
tab-sketch
 62
256
370
-1
 48
1.0
  6
BYLAYER
100
AcDbCircle
 10
-935.0
 20
20.0
 30
0.0
 40
246.0
100
AcDbArc
 50
270.0
 51
0.0
  0
ARC
  5
218
100
AcDbEntity
  8
tab-sketch
 62
256
370
-1
 48
1.0
  6
BYLAYER
100
AcDbCircle
 10
-935.0
 20
20.0
 30
0.0
 40
266.0
100
AcDbArc
 50
270.0
 51
0.0
  0
LINE
  5
219
100
AcDbEntity
  8
tab-sketch
 62
256
370
-1
 48
1.0
  6
BYLAYER
100
AcDbLine
 10
-1335.0
 20
-226.0
 30
0.0
 11
-935.0
 21
-226.0
 31
0.0
  0
LINE
  5
21A
100
AcDbEntity
  8
tab-sketch
 62
256
370
-1
 48
1.0
  6
BYLAYER
100
AcDbLine
 10
-1334.9999999999997726
 20
-77.0
 30
0.0
 11
-935.0
 21
-77.0
 31
0.0
  0
LINE
  5
21B
100
AcDbEntity
  8
tab-sketch
 62
256
370
-1
 48
1.0
  6
BYLAYER
100
AcDbLine
 10
-1335.0
 20
-246.0
 30
0.0
 11
-935.0
 21
-246.0
 31
0.0
  0
LINE
  5
21C
100
AcDbEntity
  8
tab-sketch
 62
256
370
-1
 48
1.0
  6
BYLAYER
100
AcDbLine
 10
-1334.9999999999997726
 20
-97.0
 30
0.0
 11
-935.0
 21
-97.0
 31
0.0
  0
INSERT
  5
21D
100
AcDbEntity
  8
0
 62
256
370
-1
 48
1.0
  6
BYLAYER
100
AcDbBlockReference
  2
tab
 10
-938.0
 20
-226.0
 30
0.0
 50
180.0
  0
INSERT
  5
21E
100
AcDbEntity
  8
0
 62
256
370
-1
 48
1.0
  6
BYLAYER
100
AcDbBlockReference
  2
tab
 10
-938.0
 20
-246.0
 30
0.0
 50
180.0
  0
INSERT
  5
21F
100
AcDbEntity
  8
0
 62
256
370
-1
 48
1.0
  6
BYLAYER
100
AcDbBlockReference
  2
tab
 10
-938.0
 20
-97.0
 30
0.0
 50
180.0
  0
INSERT
  5
220
100
AcDbEntity
  8
0
 62
256
370
-1
 48
1.0
  6
BYLAYER
100
AcDbBlockReference
  2
tab
 10
-1232.0
 20
-226.0
 30
0.0
  0
INSERT
  5
221
100
AcDbEntity
  8
0
 62
256
370
-1
 48
1.0
  6
BYLAYER
100
AcDbBlockReference
  2
tab
 10
-1231.9999999999997726
 20
-77.0
 30
0.0
  0
INSERT
  5
222
100
AcDbEntity
  8
0
 62
256
370
-1
 48
1.0
  6
BYLAYER
100
AcDbBlockReference
  2
tab
 10
-1232.0
 20
-246.0
 30
0.0
  0
INSERT
  5
223
100
AcDbEntity
  8
0
 62
256
370
-1
 48
1.0
  6
BYLAYER
100
AcDbBlockReference
  2
tab
 10
-1231.9999999999997726
 20
-97.0
 30
0.0
  0
LINE
  5
224
100
AcDbEntity
  8
tab-sketch
 62
256
370
-1
 48
1.0
  6
BYLAYER
100
AcDbLine
 10
-1095.0
 20
-170.0
 30
0.0
 11
-1095.0
 21
-290.0
 31
0.0
  0
LINE
  5
225
100
AcDbEntity
  8
tab-sketch
 62
256
370
-1
 48
1.0
  6
BYLAYER
100
AcDbLine
 10
-1094.9999999999997726
 20
-21.0
 30
0.0
 11
-1094.9999999999997726
 21
-141.0
 31
0.0
  0
LINE
  5
226
100
AcDbEntity
  8
tab-sketch
 62
256
370
-1
 48
1.0
  6
BYLAYER
100
AcDbLine
 10
-1085.0
 20
-370.0
 30
0.0
 11
-1085.0
 21
-490.0
 31
0.0
  0
LINE
  5
227
100
AcDbEntity
  8
tab-sketch
 62
256
370
-1
 48
1.0
  6
BYLAYER
100
AcDbLine
 10
-1075.0
 20
-170.0
 30
0.0
 11
-1075.0
 21
-290.0
 31
0.0
  0
LINE
  5
228
100
AcDbEntity
  8
tab-sketch
 62
256
370
-1
 48
1.0
  6
BYLAYER
100
AcDbLine
 10
-1074.9999999999997726
 20
-21.0
 30
0.0
 11
-1074.9999999999997726
 21
-141.0
 31
0.0
  0
LINE
  5
229
100
AcDbEntity
  8
tab-sketch
 62
256
370
-1
 48
1.0
  6
BYLAYER
100
AcDbLine
 10
-1065.0
 20
-370.0
 30
0.0
 11
-1065.0
 21
-490.0
 31
0.0
  0
LINE
  5
22A
100
AcDbEntity
  8
tab-sketch
 62
256
370
-1
 48
1.0
  6
BYLAYER
100
AcDbLine
 10
-1055.0
 20
-170.0
 30
0.0
 11
-1055.0
 21
-290.0
 31
0.0
  0
LINE
  5
22B
100
AcDbEntity
  8
tab-sketch
 62
256
370
-1
 48
1.0
  6
BYLAYER
100
AcDbLine
 10
-1054.9999999999997726
 20
-21.0
 30
0.0
 11
-1054.9999999999997726
 21
-141.0
 31
0.0
  0
LINE
  5
22C
100
AcDbEntity
  8
tab-sketch
 62
256
370
-1
 48
1.0
  6
BYLAYER
100
AcDbLine
 10
-1045.0
 20
-370.0
 30
0.0
 11
-1045.0
 21
-490.0
 31
0.0
  0
LINE
  5
22D
100
AcDbEntity
  8
tab-sketch
 62
256
370
-1
 48
1.0
  6
BYLAYER
100
AcDbLine
 10
-1035.0
 20
-170.0
 30
0.0
 11
-1035.0
 21
-290.0
 31
0.0
  0
LINE
  5
22E
100
AcDbEntity
  8
tab-sketch
 62
256
370
-1
 48
1.0
  6
BYLAYER
100
AcDbLine
 10
-1035.0
 20
-21.0
 30
0.0
 11
-1035.0
 21
-141.0
 31
0.0
  0
LINE
  5
22F
100
AcDbEntity
  8
tab-sketch
 62
256
370
-1
 48
1.0
  6
BYLAYER
100
AcDbLine
 10
-1025.0
 20
-370.0
 30
0.0
 11
-1025.0
 21
-490.0
 31
0.0
  0
LINE
  5
230
100
AcDbEntity
  8
tab-sketch
 62
256
370
-1
 48
1.0
  6
BYLAYER
100
AcDbLine
 10
-1015.0
 20
-170.0
 30
0.0
 11
-1015.0
 21
-290.0
 31
0.0
  0
LINE
  5
231
100
AcDbEntity
  8
tab-sketch
 62
256
370
-1
 48
1.0
  6
BYLAYER
100
AcDbLine
 10
-1015.0
 20
-21.0
 30
0.0
 11
-1015.0
 21
-141.0
 31
0.0
  0
LINE
  5
232
100
AcDbEntity
  8
tab-sketch
 62
256
370
-1
 48
1.0
  6
BYLAYER
100
AcDbLine
 10
-1005.0
 20
-370.0
 30
0.0
 11
-1005.0
 21
-490.0
 31
0.0
  0
LINE
  5
233
100
AcDbEntity
  8
tab-sketch
 62
256
370
-1
 48
1.0
  6
BYLAYER
100
AcDbLine
 10
-995.0
 20
-170.0
 30
0.0
 11
-995.0
 21
-290.0
 31
0.0
  0
LINE
  5
234
100
AcDbEntity
  8
tab-sketch
 62
256
370
-1
 48
1.0
  6
BYLAYER
100
AcDbLine
 10
-995.0
 20
-21.0
 30
0.0
 11
-995.0
 21
-141.0
 31
0.0
  0
LINE
  5
235
100
AcDbEntity
  8
tab-sketch
 62
256
370
-1
 48
1.0
  6
BYLAYER
100
AcDbLine
 10
-985.0
 20
-370.0
 30
0.0
 11
-985.0
 21
-490.0
 31
0.0
  0
LINE
  5
236
100
AcDbEntity
  8
tab-sketch
 62
256
370
-1
 48
1.0
  6
BYLAYER
100
AcDbLine
 10
-1115.0
 20
-170.0
 30
0.0
 11
-1115.0
 21
-290.0
 31
0.0
  0
LINE
  5
237
100
AcDbEntity
  8
tab-sketch
 62
256
370
-1
 48
1.0
  6
BYLAYER
100
AcDbLine
 10
-1114.9999999999997726
 20
-21.0
 30
0.0
 11
-1114.9999999999997726
 21
-141.0
 31
0.0
  0
LINE
  5
238
100
AcDbEntity
  8
tab-sketch
 62
256
370
-1
 48
1.0
  6
BYLAYER
100
AcDbLine
 10
-1105.0
 20
-370.0
 30
0.0
 11
-1105.0
 21
-490.0
 31
0.0
  0
LINE
  5
239
100
AcDbEntity
  8
tab-sketch
 62
256
370
-1
 48
1.0
  6
BYLAYER
100
AcDbLine
 10
-1135.0
 20
-170.0
 30
0.0
 11
-1135.0
 21
-290.0
 31
0.0
  0
LINE
  5
23A
100
AcDbEntity
  8
tab-sketch
 62
256
370
-1
 48
1.0
  6
BYLAYER
100
AcDbLine
 10
-1134.9999999999997726
 20
-21.0
 30
0.0
 11
-1134.9999999999997726
 21
-141.0
 31
0.0
  0
LINE
  5
23B
100
AcDbEntity
  8
tab-sketch
 62
256
370
-1
 48
1.0
  6
BYLAYER
100
AcDbLine
 10
-1125.0
 20
-370.0
 30
0.0
 11
-1125.0
 21
-490.0
 31
0.0
  0
LINE
  5
23C
100
AcDbEntity
  8
tab-sketch
 62
256
370
-1
 48
1.0
  6
BYLAYER
100
AcDbLine
 10
-1155.0
 20
-170.0
 30
0.0
 11
-1155.0
 21
-290.0
 31
0.0
  0
LINE
  5
23D
100
AcDbEntity
  8
tab-sketch
 62
256
370
-1
 48
1.0
  6
BYLAYER
100
AcDbLine
 10
-1154.9999999999997726
 20
-21.0
 30
0.0
 11
-1154.9999999999997726
 21
-141.0
 31
0.0
  0
LINE
  5
23E
100
AcDbEntity
  8
tab-sketch
 62
256
370
-1
 48
1.0
  6
BYLAYER
100
AcDbLine
 10
-1145.0
 20
-370.0
 30
0.0
 11
-1145.0
 21
-490.0
 31
0.0
  0
LINE
  5
23F
100
AcDbEntity
  8
tab-sketch
 62
256
370
-1
 48
1.0
  6
BYLAYER
100
AcDbLine
 10
-1175.0
 20
-170.0
 30
0.0
 11
-1175.0
 21
-290.0
 31
0.0
  0
LINE
  5
240
100
AcDbEntity
  8
tab-sketch
 62
256
370
-1
 48
1.0
  6
BYLAYER
100
AcDbLine
 10
-1174.9999999999997726
 20
-21.0
 30
0.0
 11
-1174.9999999999997726
 21
-141.0
 31
0.0
  0
LINE
  5
241
100
AcDbEntity
  8
tab-sketch
 62
256
370
-1
 48
1.0
  6
BYLAYER
100
AcDbLine
 10
-1165.0
 20
-370.0
 30
0.0
 11
-1165.0
 21
-490.0
 31
0.0
  0
LINE
  5
242
100
AcDbEntity
  8
tab-sketch
 62
256
370
-1
 48
1.0
  6
BYLAYER
100
AcDbLine
 10
-1195.0
 20
-170.0
 30
0.0
 11
-1195.0
 21
-290.0
 31
0.0
  0
LINE
  5
243
100
AcDbEntity
  8
tab-sketch
 62
256
370
-1
 48
1.0
  6
BYLAYER
100
AcDbLine
 10
-1194.9999999999997726
 20
-21.0
 30
0.0
 11
-1194.9999999999997726
 21
-141.0
 31
0.0
  0
LINE
  5
244
100
AcDbEntity
  8
tab-sketch
 62
256
370
-1
 48
1.0
  6
BYLAYER
100
AcDbLine
 10
-1185.0
 20
-370.0
 30
0.0
 11
-1185.0
 21
-490.0
 31
0.0
  0
LINE
  5
245
100
AcDbEntity
  8
tab-sketch
 62
256
370
-1
 48
1.0
  6
BYLAYER
100
AcDbLine
 10
-1175.0
 20
-170.0
 30
0.0
 11
-1175.0
 21
-290.0
 31
0.0
  0
LINE
  5
246
100
AcDbEntity
  8
tab-sketch
 62
256
370
-1
 48
1.0
  6
BYLAYER
100
AcDbLine
 10
-1174.9999999999997726
 20
-21.0
 30
0.0
 11
-1174.9999999999997726
 21
-141.0
 31
0.0
  0
LINE
  5
247
100
AcDbEntity
  8
tab-sketch
 62
256
370
-1
 48
1.0
  6
BYLAYER
100
AcDbLine
 10
-1165.0
 20
-370.0
 30
0.0
 11
-1165.0
 21
-490.0
 31
0.0
  0
LINE
  5
248
100
AcDbEntity
  8
tab-sketch
 62
256
370
-1
 48
1.0
  6
BYLAYER
100
AcDbLine
 10
-975.0
 20
-170.0
 30
0.0
 11
-975.0
 21
-290.0
 31
0.0
  0
LINE
  5
249
100
AcDbEntity
  8
tab-sketch
 62
256
370
-1
 48
1.0
  6
BYLAYER
100
AcDbLine
 10
-975.0
 20
-21.0
 30
0.0
 11
-975.0
 21
-141.0
 31
0.0
  0
LINE
  5
24A
100
AcDbEntity
  8
tab-sketch
 62
256
370
-1
 48
1.0
  6
BYLAYER
100
AcDbLine
 10
-965.0
 20
-370.0
 30
0.0
 11
-965.0
 21
-490.0
 31
0.0
  0
LINE
  5
24B
100
AcDbEntity
  8
tab-sketch
 62
256
370
-1
 48
1.0
  6
BYLAYER
100
AcDbLine
 10
-1215.0
 20
-170.0
 30
0.0
 11
-1215.0
 21
-290.0
 31
0.0
  0
LINE
  5
24C
100
AcDbEntity
  8
tab-sketch
 62
256
370
-1
 48
1.0
  6
BYLAYER
100
AcDbLine
 10
-1214.9999999999997726
 20
-21.0
 30
0.0
 11
-1214.9999999999997726
 21
-141.0
 31
0.0
  0
LINE
  5
24D
100
AcDbEntity
  8
tab-sketch
 62
256
370
-1
 48
1.0
  6
BYLAYER
100
AcDbLine
 10
-1205.0
 20
-370.0
 30
0.0
 11
-1205.0
 21
-490.0
 31
0.0
  0
LINE
  5
24E
100
AcDbEntity
  8
tab-sketch
 62
256
370
-1
 48
1.0
  6
BYLAYER
100
AcDbLine
 10
-955.0
 20
-170.0
 30
0.0
 11
-955.0
 21
-290.0
 31
0.0
  0
LINE
  5
24F
100
AcDbEntity
  8
tab-sketch
 62
256
370
-1
 48
1.0
  6
BYLAYER
100
AcDbLine
 10
-955.0
 20
-21.0
 30
0.0
 11
-955.0
 21
-141.0
 31
0.0
  0
LINE
  5
250
100
AcDbEntity
  8
tab-sketch
 62
256
370
-1
 48
1.0
  6
BYLAYER
100
AcDbLine
 10
-945.0
 20
-370.0
 30
0.0
 11
-945.0
 21
-490.0
 31
0.0
  0
LINE
  5
251
100
AcDbEntity
  8
tab-sketch
 62
256
370
-1
 48
1.0
  6
BYLAYER
100
AcDbLine
 10
-1225.0
 20
-370.0
 30
0.0
 11
-1225.0
 21
-490.0
 31
0.0
  0
INSERT
  5
252
100
AcDbEntity
  8
0
 62
256
370
-1
 48
1.0
  6
BYLAYER
100
AcDbBlockReference
  2
tab
 10
-1215.0
 20
-202.0
 30
0.0
 50
270.0
  0
INSERT
  5
253
100
AcDbEntity
  8
0
 62
256
370
-1
 48
1.0
  6
BYLAYER
100
AcDbBlockReference
  2
tab
 10
-1195.0
 20
-202.0
 30
0.0
 50
270.0
  0
INSERT
  5
254
100
AcDbEntity
  8
0
 62
256
370
-1
 48
1.0
  6
BYLAYER
100
AcDbBlockReference
  2
tab
 10
-1175.0
 20
-202.0
 30
0.0
 50
270.0
  0
INSERT
  5
255
100
AcDbEntity
  8
0
 62
256
370
-1
 48
1.0
  6
BYLAYER
100
AcDbBlockReference
  2
tab
 10
-1155.0
 20
-202.0
 30
0.0
 50
270.0
  0
INSERT
  5
256
100
AcDbEntity
  8
0
 62
256
370
-1
 48
1.0
  6
BYLAYER
100
AcDbBlockReference
  2
tab
 10
-1135.0
 20
-202.0
 30
0.0
 50
270.0
  0
INSERT
  5
257
100
AcDbEntity
  8
0
 62
256
370
-1
 48
1.0
  6
BYLAYER
100
AcDbBlockReference
  2
tab
 10
-1115.0
 20
-202.0
 30
0.0
 50
270.0
  0
INSERT
  5
258
100
AcDbEntity
  8
0
 62
256
370
-1
 48
1.0
  6
BYLAYER
100
AcDbBlockReference
  2
tab
 10
-1095.0
 20
-202.0
 30
0.0
 50
270.0
  0
INSERT
  5
259
100
AcDbEntity
  8
0
 62
256
370
-1
 48
1.0
  6
BYLAYER
100
AcDbBlockReference
  2
tab
 10
-1075.0
 20
-202.0
 30
0.0
 50
270.0
  0
INSERT
  5
25A
100
AcDbEntity
  8
0
 62
256
370
-1
 48
1.0
  6
BYLAYER
100
AcDbBlockReference
  2
tab
 10
-1055.0
 20
-202.0
 30
0.0
 50
270.0
  0
INSERT
  5
25B
100
AcDbEntity
  8
0
 62
256
370
-1
 48
1.0
  6
BYLAYER
100
AcDbBlockReference
  2
tab
 10
-1035.0
 20
-202.0
 30
0.0
 50
270.0
  0
INSERT
  5
25C
100
AcDbEntity
  8
0
 62
256
370
-1
 48
1.0
  6
BYLAYER
100
AcDbBlockReference
  2
tab
 10
-1015.0
 20
-202.0
 30
0.0
 50
270.0
  0
INSERT
  5
25D
100
AcDbEntity
  8
0
 62
256
370
-1
 48
1.0
  6
BYLAYER
100
AcDbBlockReference
  2
tab
 10
-995.0
 20
-202.0
 30
0.0
 50
270.0
  0
INSERT
  5
25E
100
AcDbEntity
  8
0
 62
256
370
-1
 48
1.0
  6
BYLAYER
100
AcDbBlockReference
  2
tab
 10
-975.0
 20
-202.0
 30
0.0
 50
270.0
  0
INSERT
  5
25F
100
AcDbEntity
  8
0
 62
256
370
-1
 48
1.0
  6
BYLAYER
100
AcDbBlockReference
  2
tab
 10
-955.0
 20
-202.0
 30
0.0
 50
270.0
  0
LINE
  5
260
100
AcDbEntity
  8
0
 62
256
370
-1
 48
1.0
  6
BYLAYER
100
AcDbLine
 10
-1231.9999999999997726
 20
-220.8999999999999773
 30
0.0
 11
-1232.0
 21
-202.0
 31
0.0
  0
LINE
  5
261
100
AcDbEntity
  8
0
 62
256
370
-1
 48
1.0
  6
BYLAYER
100
AcDbLine
 10
-1232.0
 20
-202.0
 30
0.0
 11
-1220.0999999999999091
 21
-202.0
 31
0.0
  0
LINE
  5
262
100
AcDbEntity
  8
0
 62
256
370
-1
 48
1.0
  6
BYLAYER
100
AcDbLine
 10
-1209.9000000000000909
 20
-202.0
 30
0.0
 11
-1200.0999999999999091
 21
-202.0
 31
0.0
  0
LINE
  5
263
100
AcDbEntity
  8
0
 62
256
370
-1
 48
1.0
  6
BYLAYER
100
AcDbLine
 10
-1189.9000000000000909
 20
-202.0
 30
0.0
 11
-1180.1000000000001364
 21
-202.0
 31
0.0
  0
LINE
  5
264
100
AcDbEntity
  8
0
 62
256
370
-1
 48
1.0
  6
BYLAYER
100
AcDbLine
 10
-1169.9000000000000909
 20
-202.0
 30
0.0
 11
-1160.0999999999999091
 21
-202.0
 31
0.0
  0
LINE
  5
265
100
AcDbEntity
  8
0
 62
256
370
-1
 48
1.0
  6
BYLAYER
100
AcDbLine
 10
-1149.8999999999998636
 20
-202.0
 30
0.0
 11
-1140.0999999999999091
 21
-202.0
 31
0.0
  0
LINE
  5
266
100
AcDbEntity
  8
0
 62
256
370
-1
 48
1.0
  6
BYLAYER
100
AcDbLine
 10
-1129.9000000000000909
 20
-202.0
 30
0.0
 11
-1120.0999999999996817
 21
-202.0
 31
0.0
  0
LINE
  5
267
100
AcDbEntity
  8
0
 62
256
370
-1
 48
1.0
  6
BYLAYER
100
AcDbLine
 10
-1109.8999999999998636
 20
-202.0
 30
0.0
 11
-1100.0999999999999091
 21
-202.0
 31
0.0
  0
LINE
  5
268
100
AcDbEntity
  8
0
 62
256
370
-1
 48
1.0
  6
BYLAYER
100
AcDbLine
 10
-1089.9000000000000909
 20
-202.0
 30
0.0
 11
-1080.0999999999996817
 21
-202.0
 31
0.0
  0
LINE
  5
269
100
AcDbEntity
  8
0
 62
256
370
-1
 48
1.0
  6
BYLAYER
100
AcDbLine
 10
-1069.8999999999998636
 20
-202.0
 30
0.0
 11
-1060.0999999999999091
 21
-202.0
 31
0.0
  0
LINE
  5
26A
100
AcDbEntity
  8
0
 62
256
370
-1
 48
1.0
  6
BYLAYER
100
AcDbLine
 10
-1049.9000000000000909
 20
-202.0
 30
0.0
 11
-1040.0999999999996817
 21
-202.0
 31
0.0
  0
LINE
  5
26B
100
AcDbEntity
  8
0
 62
256
370
-1
 48
1.0
  6
BYLAYER
100
AcDbLine
 10
-1029.9000000000000909
 20
-202.0
 30
0.0
 11
-1020.0999999999999091
 21
-202.0
 31
0.0
  0
LINE
  5
26C
100
AcDbEntity
  8
0
 62
256
370
-1
 48
1.0
  6
BYLAYER
100
AcDbLine
 10
-1009.9000000000000909
 20
-202.0
 30
0.0
 11
-1000.0999999999999091
 21
-202.0
 31
0.0
  0
LINE
  5
26D
100
AcDbEntity
  8
0
 62
256
370
-1
 48
1.0
  6
BYLAYER
100
AcDbLine
 10
-989.9000000000000909
 20
-202.0
 30
0.0
 11
-980.0999999999999091
 21
-202.0
 31
0.0
  0
LINE
  5
26E
100
AcDbEntity
  8
0
 62
256
370
-1
 48
1.0
  6
BYLAYER
100
AcDbLine
 10
-969.8999999999996362
 20
-202.0
 30
0.0
 11
-960.0999999999999091
 21
-202.0
 31
0.0
  0
LINE
  5
26F
100
AcDbEntity
  8
0
 62
256
370
-1
 48
1.0
  6
BYLAYER
100
AcDbLine
 10
-949.8999999999996362
 20
-202.0
 30
0.0
 11
-938.0
 21
-202.0
 31
0.0
  0
LINE
  5
270
100
AcDbEntity
  8
0
 62
256
370
-1
 48
1.0
  6
BYLAYER
100
AcDbLine
 10
-938.0
 20
-202.0
 30
0.0
 11
-938.0
 21
-220.8999999999999773
 31
0.0
  0
LINE
  5
271
100
AcDbEntity
  8
0
 62
256
370
-1
 48
1.0
  6
BYLAYER
100
AcDbLine
 10
-938.0
 20
-231.1000000000000796
 30
0.0
 11
-938.0
 21
-240.8999999999999773
 31
0.0
  0
LINE
  5
272
100
AcDbEntity
  8
0
 62
256
370
-1
 48
1.0
  6
BYLAYER
100
AcDbLine
 10
-938.0
 20
-82.1000000000000796
 30
0.0
 11
-938.0
 21
-91.8999999999999773
 31
0.0
  0
LINE
  5
273
100
AcDbEntity
  8
0
 62
256
370
-1
 48
1.0
  6
BYLAYER
100
AcDbLine
 10
-938.0
 20
-251.1000000000000796
 30
0.0
 11
-938.0
 21
-262.0
 31
0.0
  0
LINE
  5
274
100
AcDbEntity
  8
0
 62
256
370
-1
 48
1.0
  6
BYLAYER
100
AcDbLine
 10
-938.0
 20
-102.1000000000000796
 30
0.0
 11
-938.0
 21
-113.0
 31
0.0
  0
LINE
  5
275
100
AcDbEntity
  8
0
 62
256
370
-1
 48
1.0
  6
BYLAYER
100
AcDbLine
 10
-938.0
 20
-262.0
 30
0.0
 11
-1232.0
 21
-262.0
 31
0.0
  0
LINE
  5
276
100
AcDbEntity
  8
0
 62
256
370
-1
 48
1.0
  6
BYLAYER
100
AcDbLine
 10
-938.0
 20
-113.0
 30
0.0
 11
-1231.9999999999997726
 21
-113.0
 31
0.0
  0
LINE
  5
277
100
AcDbEntity
  8
0
 62
256
370
-1
 48
1.0
  6
BYLAYER
100
AcDbLine
 10
-1232.0
 20
-262.0
 30
0.0
 11
-1231.9999999999997726
 21
-251.1000000000000796
 31
0.0
  0
LINE
  5
278
100
AcDbEntity
  8
0
 62
256
370
-1
 48
1.0
  6
BYLAYER
100
AcDbLine
 10
-1231.9999999999997726
 20
-113.0
 30
0.0
 11
-1231.9999999999995453
 21
-102.1000000000000796
 31
0.0
  0
LINE
  5
279
100
AcDbEntity
  8
0
 62
256
370
-1
 48
1.0
  6
BYLAYER
100
AcDbLine
 10
-1231.9999999999997726
 20
-240.8999999999999204
 30
0.0
 11
-1231.9999999999997726
 21
-231.1000000000000796
 31
0.0
  0
LINE
  5
27A
100
AcDbEntity
  8
0
 62
256
370
-1
 48
1.0
  6
BYLAYER
100
AcDbLine
 10
-1231.9999999999995453
 20
-91.8999999999999204
 30
0.0
 11
-1231.9999999999995453
 21
-82.1000000000000796
 31
0.0
  0
INSERT
  5
27B
100
AcDbEntity
  8
0
 62
256
370
-1
 48
1.0
  6
BYLAYER
100
AcDbBlockReference
  2
tab
 10
-938.0
 20
-77.0
 30
0.0
 50
180.0
  0
LINE
  5
27C
100
AcDbEntity
  8
0
 62
256
370
-1
 48
1.0
  6
BYLAYER
100
AcDbLine
 10
-1231.9999999999997726
 20
-71.8999999999999773
 30
0.0
 11
-1232.0
 21
-50.0
 31
0.0
  0
LINE
  5
27D
100
AcDbEntity
  8
0
 62
256
370
-1
 48
1.0
  6
BYLAYER
100
AcDbLine
 10
-1232.0
 20
-50.0
 30
0.0
 11
-938.0
 21
-50.0
 31
0.0
  0
LINE
  5
27E
100
AcDbEntity
  8
0
 62
256
370
-1
 48
1.0
  6
BYLAYER
100
AcDbLine
 10
-938.0
 20
-50.0
 30
0.0
 11
-938.0
 21
-71.8999999999999773
 31
0.0
  0
LINE
  5
27F
100
AcDbEntity
  8
sketch
 62
256
370
-1
 48
1.0
  6
BYLAYER
100
AcDbLine
 10
-1232.0
 20
-780.0
 30
0.0
 11
-1232.0
 21
-380.0
 31
0.0
  0
LINE
  5
280
100
AcDbEntity
  8
sketch
 62
256
370
-1
 48
1.0
  6
BYLAYER
100
AcDbLine
 10
-1235.0
 20
-780.0
 30
0.0
 11
-1235.0
 21
-380.0
 31
0.0
  0
LINE
  5
281
100
AcDbEntity
  8
sketch
 62
256
370
-1
 48
1.0
  6
BYLAYER
100
AcDbLine
 10
-938.0
 20
-780.0
 30
0.0
 11
-938.0
 21
-380.0
 31
0.0
  0
LINE
  5
282
100
AcDbEntity
  8
sketch
 62
256
370
-1
 48
1.0
  6
BYLAYER
100
AcDbLine
 10
-935.0
 20
-780.0
 30
0.0
 11
-935.0
 21
-380.0
 31
0.0
  0
INSERT
  5
283
100
AcDbEntity
  8
0
 62
256
370
-1
 48
1.0
  6
BYLAYER
100
AcDbBlockReference
  2
tab
 10
-1205.0
 20
-402.5
 30
0.0
 50
270.0
  0
INSERT
  5
284
100
AcDbEntity
  8
0
 62
256
370
-1
 48
1.0
  6
BYLAYER
100
AcDbBlockReference
  2
tab
 10
-1185.0
 20
-402.5
 30
0.0
 50
270.0
  0
INSERT
  5
285
100
AcDbEntity
  8
0
 62
256
370
-1
 48
1.0
  6
BYLAYER
100
AcDbBlockReference
  2
tab
 10
-985.0
 20
-457.5000000000001137
 30
0.0
 50
450.0
  0
INSERT
  5
286
100
AcDbEntity
  8
0
 62
256
370
-1
 48
1.0
  6
BYLAYER
100
AcDbBlockReference
  2
tab
 10
-1165.0
 20
-402.5
 30
0.0
 50
270.0
  0
INSERT
  5
287
100
AcDbEntity
  8
0
 62
256
370
-1
 48
1.0
  6
BYLAYER
100
AcDbBlockReference
  2
tab
 10
-1005.0
 20
-457.5000000000001137
 30
0.0
 50
450.0
  0
INSERT
  5
288
100
AcDbEntity
  8
0
 62
256
370
-1
 48
1.0
  6
BYLAYER
100
AcDbBlockReference
  2
tab
 10
-1145.0
 20
-402.5
 30
0.0
 50
270.0
  0
INSERT
  5
289
100
AcDbEntity
  8
0
 62
256
370
-1
 48
1.0
  6
BYLAYER
100
AcDbBlockReference
  2
tab
 10
-1025.0
 20
-457.5
 30
0.0
 50
450.0
  0
INSERT
  5
28A
100
AcDbEntity
  8
0
 62
256
370
-1
 48
1.0
  6
BYLAYER
100
AcDbBlockReference
  2
tab
 10
-1125.0
 20
-402.5
 30
0.0
 50
270.0
  0
INSERT
  5
28B
100
AcDbEntity
  8
0
 62
256
370
-1
 48
1.0
  6
BYLAYER
100
AcDbBlockReference
  2
tab
 10
-1045.0
 20
-457.4999999999998863
 30
0.0
 50
450.0
  0
INSERT
  5
28C
100
AcDbEntity
  8
0
 62
256
370
-1
 48
1.0
  6
BYLAYER
100
AcDbBlockReference
  2
tab
 10
-1105.0
 20
-402.5
 30
0.0
 50
270.0
  0
INSERT
  5
28D
100
AcDbEntity
  8
0
 62
256
370
-1
 48
1.0
  6
BYLAYER
100
AcDbBlockReference
  2
tab
 10
-1065.0
 20
-457.4999999999997726
 30
0.0
 50
450.0
  0
INSERT
  5
28E
100
AcDbEntity
  8
0
 62
256
370
-1
 48
1.0
  6
BYLAYER
100
AcDbBlockReference
  2
tab
 10
-1085.0
 20
-402.5
 30
0.0
 50
270.0
  0
INSERT
  5
28F
100
AcDbEntity
  8
0
 62
256
370
-1
 48
1.0
  6
BYLAYER
100
AcDbBlockReference
  2
tab
 10
-1085.0
 20
-457.4999999999997726
 30
0.0
 50
450.0
  0
INSERT
  5
290
100
AcDbEntity
  8
0
 62
256
370
-1
 48
1.0
  6
BYLAYER
100
AcDbBlockReference
  2
tab
 10
-1065.0
 20
-402.5
 30
0.0
 50
270.0
  0
INSERT
  5
291
100
AcDbEntity
  8
0
 62
256
370
-1
 48
1.0
  6
BYLAYER
100
AcDbBlockReference
  2
tab
 10
-1105.0
 20
-457.4999999999997726
 30
0.0
 50
450.0
  0
INSERT
  5
292
100
AcDbEntity
  8
0
 62
256
370
-1
 48
1.0
  6
BYLAYER
100
AcDbBlockReference
  2
tab
 10
-1045.0
 20
-402.5
 30
0.0
 50
270.0
  0
INSERT
  5
293
100
AcDbEntity
  8
0
 62
256
370
-1
 48
1.0
  6
BYLAYER
100
AcDbBlockReference
  2
tab
 10
-1125.0
 20
-457.4999999999997726
 30
0.0
 50
450.0
  0
INSERT
  5
294
100
AcDbEntity
  8
0
 62
256
370
-1
 48
1.0
  6
BYLAYER
100
AcDbBlockReference
  2
tab
 10
-1025.0
 20
-402.5
 30
0.0
 50
270.0
  0
INSERT
  5
295
100
AcDbEntity
  8
0
 62
256
370
-1
 48
1.0
  6
BYLAYER
100
AcDbBlockReference
  2
tab
 10
-1145.0
 20
-457.4999999999998863
 30
0.0
 50
450.0
  0
INSERT
  5
296
100
AcDbEntity
  8
0
 62
256
370
-1
 48
1.0
  6
BYLAYER
100
AcDbBlockReference
  2
tab
 10
-1005.0
 20
-402.5
 30
0.0
 50
270.0
  0
INSERT
  5
297
100
AcDbEntity
  8
0
 62
256
370
-1
 48
1.0
  6
BYLAYER
100
AcDbBlockReference
  2
tab
 10
-1165.0
 20
-457.5000000000001137
 30
0.0
 50
450.0
  0
INSERT
  5
298
100
AcDbEntity
  8
0
 62
256
370
-1
 48
1.0
  6
BYLAYER
100
AcDbBlockReference
  2
tab
 10
-985.0
 20
-402.5
 30
0.0
 50
270.0
  0
INSERT
  5
299
100
AcDbEntity
  8
0
 62
256
370
-1
 48
1.0
  6
BYLAYER
100
AcDbBlockReference
  2
tab
 10
-1185.0
 20
-457.4999999999998863
 30
0.0
 50
450.0
  0
INSERT
  5
29A
100
AcDbEntity
  8
0
 62
256
370
-1
 48
1.0
  6
BYLAYER
100
AcDbBlockReference
  2
tab
 10
-965.0
 20
-402.5
 30
0.0
 50
270.0
  0
INSERT
  5
29B
100
AcDbEntity
  8
0
 62
256
370
-1
 48
1.0
  6
BYLAYER
100
AcDbBlockReference
  2
tab
 10
-1205.0
 20
-457.5000000000004547
 30
0.0
 50
450.0
  0
LINE
  5
29C
100
AcDbEntity
  8
0
 62
256
370
-1
 48
1.0
  6
BYLAYER
100
AcDbLine
 10
-950.0999999999999091
 20
-402.5
 30
0.0
 11
-950.0999999999999091
 21
-399.4000000000000909
 31
0.0
  0
LINE
  5
29D
100
AcDbEntity
  8
0
 62
256
370
-1
 48
1.0
  6
BYLAYER
100
AcDbLine
 10
-1219.9000000000000909
 20
-457.4999999999995453
 30
0.0
 11
-1219.9000000000000909
 21
-460.5999999999999091
 31
0.0
  0
LINE
  5
29E
100
AcDbEntity
  8
0
 62
256
370
-1
 48
1.0
  6
BYLAYER
100
AcDbLine
 10
-1219.9000000000000909
 20
-402.5
 30
0.0
 11
-1219.8999999999998636
 21
-399.4000000000000909
 31
0.0
  0
LINE
  5
29F
100
AcDbEntity
  8
0
 62
256
370
-1
 48
1.0
  6
BYLAYER
100
AcDbLine
 10
-950.0999999999999091
 20
-457.4999999999995453
 30
0.0
 11
-950.1000000000003638
 21
-460.5999999999999091
 31
0.0
  0
LINE
  5
2A0
100
AcDbEntity
  8
0
 62
256
370
-1
 48
1.0
  6
BYLAYER
100
AcDbLine
 10
-1219.9000000000000909
 20
-402.5
 30
0.0
 11
-1210.0999999999996817
 21
-402.5000000000001137
 31
0.0
  0
LINE
  5
2A1
100
AcDbEntity
  8
0
 62
256
370
-1
 48
1.0
  6
BYLAYER
100
AcDbLine
 10
-950.0999999999999091
 20
-457.4999999999995453
 30
0.0
 11
-959.9000000000005457
 21
-457.5000000000001137
 31
0.0
  0
LINE
  5
2A2
100
AcDbEntity
  8
0
 62
256
370
-1
 48
1.0
  6
BYLAYER
100
AcDbLine
 10
-1199.9000000000000909
 20
-402.5000000000001137
 30
0.0
 11
-1190.0999999999999091
 21
-402.5
 31
0.0
  0
LINE
  5
2A3
100
AcDbEntity
  8
0
 62
256
370
-1
 48
1.0
  6
BYLAYER
100
AcDbLine
 10
-970.0999999999999091
 20
-457.4999999999997726
 30
0.0
 11
-979.9000000000000909
 21
-457.5
 31
0.0
  0
LINE
  5
2A4
100
AcDbEntity
  8
0
 62
256
370
-1
 48
1.0
  6
BYLAYER
100
AcDbLine
 10
-1179.8999999999998636
 20
-402.5000000000001137
 30
0.0
 11
-1170.0999999999996817
 21
-402.5
 31
0.0
  0
LINE
  5
2A5
100
AcDbEntity
  8
0
 62
256
370
-1
 48
1.0
  6
BYLAYER
100
AcDbLine
 10
-990.1000000000003638
 20
-457.4999999999992042
 30
0.0
 11
-999.9000000000005457
 21
-457.4999999999995453
 31
0.0
  0
LINE
  5
2A6
100
AcDbEntity
  8
0
 62
256
370
-1
 48
1.0
  6
BYLAYER
100
AcDbLine
 10
-1159.9000000000000909
 20
-402.5000000000001137
 30
0.0
 11
-1150.0999999999999091
 21
-402.5000000000001137
 31
0.0
  0
LINE
  5
2A7
100
AcDbEntity
  8
0
 62
256
370
-1
 48
1.0
  6
BYLAYER
100
AcDbLine
 10
-1010.0999999999999091
 20
-457.4999999999995453
 30
0.0
 11
-1019.9000000000000909
 21
-457.5000000000001137
 31
0.0
  0
LINE
  5
2A8
100
AcDbEntity
  8
0
 62
256
370
-1
 48
1.0
  6
BYLAYER
100
AcDbLine
 10
-1139.9000000000000909
 20
-402.5000000000001137
 30
0.0
 11
-1130.0999999999999091
 21
-402.5000000000001137
 31
0.0
  0
LINE
  5
2A9
100
AcDbEntity
  8
0
 62
256
370
-1
 48
1.0
  6
BYLAYER
100
AcDbLine
 10
-1030.0999999999999091
 20
-457.4999999999996589
 30
0.0
 11
-1039.9000000000000909
 21
-457.4999999999996589
 31
0.0
  0
LINE
  5
2AA
100
AcDbEntity
  8
0
 62
256
370
-1
 48
1.0
  6
BYLAYER
100
AcDbLine
 10
-1119.9000000000000909
 20
-402.5000000000001137
 30
0.0
 11
-1110.0999999999999091
 21
-402.5000000000001137
 31
0.0
  0
LINE
  5
2AB
100
AcDbEntity
  8
0
 62
256
370
-1
 48
1.0
  6
BYLAYER
100
AcDbLine
 10
-1050.0999999999999091
 20
-457.4999999999996589
 30
0.0
 11
-1059.9000000000000909
 21
-457.4999999999996589
 31
0.0
  0
LINE
  5
2AC
100
AcDbEntity
  8
0
 62
256
370
-1
 48
1.0
  6
BYLAYER
100
AcDbLine
 10
-1099.9000000000000909
 20
-402.5000000000001137
 30
0.0
 11
-1090.0999999999996817
 21
-402.5000000000001137
 31
0.0
  0
LINE
  5
2AD
100
AcDbEntity
  8
0
 62
256
370
-1
 48
1.0
  6
BYLAYER
100
AcDbLine
 10
-1070.0999999999999091
 20
-457.4999999999996589
 30
0.0
 11
-1079.9000000000003183
 21
-457.4999999999996589
 31
0.0
  0
LINE
  5
2AE
100
AcDbEntity
  8
0
 62
256
370
-1
 48
1.0
  6
BYLAYER
100
AcDbLine
 10
-1079.9000000000000909
 20
-402.5
 30
0.0
 11
-1070.0999999999999091
 21
-402.5000000000001137
 31
0.0
  0
LINE
  5
2AF
100
AcDbEntity
  8
0
 62
256
370
-1
 48
1.0
  6
BYLAYER
100
AcDbLine
 10
-1090.0999999999999091
 20
-457.4999999999997726
 30
0.0
 11
-1099.9000000000000909
 21
-457.4999999999996589
 31
0.0
  0
LINE
  5
2B0
100
AcDbEntity
  8
0
 62
256
370
-1
 48
1.0
  6
BYLAYER
100
AcDbLine
 10
-1059.8999999999998636
 20
-402.5000000000001137
 30
0.0
 11
-1050.0999999999996817
 21
-402.5000000000001137
 31
0.0
  0
LINE
  5
2B1
100
AcDbEntity
  8
0
 62
256
370
-1
 48
1.0
  6
BYLAYER
100
AcDbLine
 10
-1110.1000000000001364
 20
-457.4999999999996589
 30
0.0
 11
-1119.9000000000003183
 21
-457.4999999999996589
 31
0.0
  0
LINE
  5
2B2
100
AcDbEntity
  8
0
 62
256
370
-1
 48
1.0
  6
BYLAYER
100
AcDbLine
 10
-1039.9000000000003183
 20
-402.5
 30
0.0
 11
-1030.0999999999999091
 21
-402.5000000000001137
 31
0.0
  0
LINE
  5
2B3
100
AcDbEntity
  8
0
 62
256
370
-1
 48
1.0
  6
BYLAYER
100
AcDbLine
 10
-1130.0999999999996817
 20
-457.4999999999996589
 30
0.0
 11
-1139.9000000000000909
 21
-457.4999999999995453
 31
0.0
  0
LINE
  5
2B4
100
AcDbEntity
  8
0
 62
256
370
-1
 48
1.0
  6
BYLAYER
100
AcDbLine
 10
-1019.9000000000000909
 20
-402.5000000000001137
 30
0.0
 11
-1010.0999999999994543
 21
-402.5000000000001137
 31
0.0
  0
LINE
  5
2B5
100
AcDbEntity
  8
0
 62
256
370
-1
 48
1.0
  6
BYLAYER
100
AcDbLine
 10
-1150.0999999999999091
 20
-457.5
 30
0.0
 11
-1159.9000000000005457
 21
-457.4999999999994316
 31
0.0
  0
LINE
  5
2B6
100
AcDbEntity
  8
0
 62
256
370
-1
 48
1.0
  6
BYLAYER
100
AcDbLine
 10
-999.9000000000000909
 20
-402.5
 30
0.0
 11
-990.0999999999999091
 21
-402.5000000000001137
 31
0.0
  0
LINE
  5
2B7
100
AcDbEntity
  8
0
 62
256
370
-1
 48
1.0
  6
BYLAYER
100
AcDbLine
 10
-1170.0999999999999091
 20
-457.4999999999995453
 30
0.0
 11
-1179.9000000000000909
 21
-457.4999999999997726
 31
0.0
  0
LINE
  5
2B8
100
AcDbEntity
  8
0
 62
256
370
-1
 48
1.0
  6
BYLAYER
100
AcDbLine
 10
-979.8999999999996362
 20
-402.5000000000001137
 30
0.0
 11
-970.0999999999994543
 21
-402.5000000000001137
 31
0.0
  0
LINE
  5
2B9
100
AcDbEntity
  8
0
 62
256
370
-1
 48
1.0
  6
BYLAYER
100
AcDbLine
 10
-1190.1000000000003638
 20
-457.5
 30
0.0
 11
-1199.9000000000005457
 21
-457.4999999999988631
 31
0.0
  0
LINE
  5
2BA
100
AcDbEntity
  8
0
 62
256
370
-1
 48
1.0
  6
BYLAYER
100
AcDbLine
 10
-959.9000000000000909
 20
-402.5000000000001137
 30
0.0
 11
-950.0999999999999091
 21
-402.5
 31
0.0
  0
LINE
  5
2BB
100
AcDbEntity
  8
0
 62
256
370
-1
 48
1.0
  6
BYLAYER
100
AcDbLine
 10
-1210.0999999999999091
 20
-457.4999999999998863
 30
0.0
 11
-1219.9000000000000909
 21
-457.4999999999995453
 31
0.0
  0
INSERT
  5
2BC
100
AcDbEntity
  8
0
 62
256
370
-1
 48
1.0
  6
BYLAYER
100
AcDbBlockReference
  2
tab
 10
-965.0
 20
-457.5000000000005684
 30
0.0
 50
450.0
  0
INSERT
  5
2BD
100
AcDbEntity
  8
0
 62
256
370
-1
 48
1.0
  6
BYLAYER
100
AcDbBlockReference
  2
tab
 10
-938.0
 20
-420.0
 30
0.0
 50
180.0
  0
INSERT
  5
2BE
100
AcDbEntity
  8
0
 62
256
370
-1
 48
1.0
  6
BYLAYER
100
AcDbBlockReference
  2
tab
 10
-938.0
 20
-440.0
 30
0.0
 50
180.0
  0
INSERT
  5
2BF
100
AcDbEntity
  8
0
 62
256
370
-1
 48
1.0
  6
BYLAYER
100
AcDbBlockReference
  2
tab
 10
-1232.0
 20
-420.0
 30
0.0
  0
INSERT
  5
2C0
100
AcDbEntity
  8
0
 62
256
370
-1
 48
1.0
  6
BYLAYER
100
AcDbBlockReference
  2
tab
 10
-1232.0
 20
-440.0
 30
0.0
  0
LINE
  5
2C1
100
AcDbEntity
  8
0
 62
256
370
-1
 48
1.0
  6
BYLAYER
100
AcDbLine
 10
-1232.0
 20
-445.1000000000000227
 30
0.0
 11
-1232.0
 21
-460.6000000000004775
 31
0.0
  0
LINE
  5
2C2
100
AcDbEntity
  8
0
 62
256
370
-1
 48
1.0
  6
BYLAYER
100
AcDbLine
 10
-1232.0
 20
-460.6000000000004775
 30
0.0
 11
-1219.9000000000000909
 21
-460.5999999999999091
 31
0.0
  0
LINE
  5
2C3
100
AcDbEntity
  8
0
 62
256
370
-1
 48
1.0
  6
BYLAYER
100
AcDbLine
 10
-1231.9999999999997726
 20
-414.8999999999999773
 30
0.0
 11
-1232.0
 21
-399.4000000000000909
 31
0.0
  0
LINE
  5
2C4
100
AcDbEntity
  8
0
 62
256
370
-1
 48
1.0
  6
BYLAYER
100
AcDbLine
 10
-1232.0
 20
-399.4000000000000909
 30
0.0
 11
-1219.8999999999996362
 21
-399.4000000000000909
 31
0.0
  0
LINE
  5
2C5
100
AcDbEntity
  8
0
 62
256
370
-1
 48
1.0
  6
BYLAYER
100
AcDbLine
 10
-1231.9999999999997726
 20
-425.1000000000000227
 30
0.0
 11
-1231.9999999999997726
 21
-434.8999999999999773
 31
0.0
  0
LINE
  5
2C6
100
AcDbEntity
  8
0
 62
256
370
-1
 48
1.0
  6
BYLAYER
100
AcDbLine
 10
-938.0
 20
-414.8999999999999773
 30
0.0
 11
-938.0
 21
-399.4000000000000909
 31
0.0
  0
LINE
  5
2C7
100
AcDbEntity
  8
0
 62
256
370
-1
 48
1.0
  6
BYLAYER
100
AcDbLine
 10
-938.0
 20
-399.4000000000000909
 30
0.0
 11
-950.0999999999999091
 21
-399.4000000000000909
 31
0.0
  0
LINE
  5
2C8
100
AcDbEntity
  8
0
 62
256
370
-1
 48
1.0
  6
BYLAYER
100
AcDbLine
 10
-938.0
 20
-445.1000000000000227
 30
0.0
 11
-938.0
 21
-460.6000000000005912
 31
0.0
  0
LINE
  5
2C9
100
AcDbEntity
  8
0
 62
256
370
-1
 48
1.0
  6
BYLAYER
100
AcDbLine
 10
-938.0
 20
-460.6000000000005912
 30
0.0
 11
-950.1000000000003638
 21
-460.5999999999999091
 31
0.0
  0
LINE
  5
2CA
100
AcDbEntity
  8
0
 62
256
370
-1
 48
1.0
  6
BYLAYER
100
AcDbLine
 10
-938.0
 20
-425.1000000000000227
 30
0.0
 11
-938.0
 21
-434.8999999999999773
 31
0.0
  0
LINE
  5
2CB
100
AcDbEntity
  8
wall-sketch
 62
256
370
-1
 48
1.0
  6
BYLAYER
100
AcDbLine
 10
1657.5
 20
125.75
 30
0.0
 11
1776.5
 21
125.75
 31
0.0
  0
LINE
  5
2CC
100
AcDbEntity
  8
wall-sketch
 62
256
370
-1
 48
1.0
  6
BYLAYER
100
AcDbLine
 10
1776.5
 20
125.75
 30
0.0
 11
1776.5
 21
485.75
 31
0.0
  0
LINE
  5
2CD
100
AcDbEntity
  8
wall-sketch
 62
256
370
-1
 48
1.0
  6
BYLAYER
100
AcDbLine
 10
1776.5
 20
485.75
 30
0.0
 11
1657.5
 21
485.75
 31
0.0
  0
LINE
  5
2CE
100
AcDbEntity
  8
wall-sketch
 62
256
370
-1
 48
1.0
  6
BYLAYER
100
AcDbLine
 10
1657.5
 20
485.75
 30
0.0
 11
1657.5
 21
125.75
 31
0.0
  0
LINE
  5
2CF
100
AcDbEntity
  8
wall-sketch
 62
256
370
-1
 48
1.0
  6
BYLAYER
100
AcDbLine
 10
1660.5
 20
128.75
 30
0.0
 11
1773.5
 21
128.75
 31
0.0
  0
LINE
  5
2D0
100
AcDbEntity
  8
wall-sketch
 62
256
370
-1
 48
1.0
  6
BYLAYER
100
AcDbLine
 10
1773.5
 20
128.75
 30
0.0
 11
1773.5
 21
482.75
 31
0.0
  0
LINE
  5
2D1
100
AcDbEntity
  8
wall-sketch
 62
256
370
-1
 48
1.0
  6
BYLAYER
100
AcDbLine
 10
1773.5
 20
482.75
 30
0.0
 11
1660.5
 21
482.75
 31
0.0
  0
LINE
  5
2D2
100
AcDbEntity
  8
wall-sketch
 62
256
370
-1
 48
1.0
  6
BYLAYER
100
AcDbLine
 10
1660.5
 20
482.75
 30
0.0
 11
1660.5
 21
128.75
 31
0.0
  0
LINE
  5
2D3
100
AcDbEntity
  8
wall-sketch
 62
256
370
-1
 48
1.0
  6
BYLAYER
100
AcDbLine
 10
1660.5
 20
219.75
 30
0.0
 11
1773.5
 21
219.75
 31
0.0
  0
LINE
  5
2D4
100
AcDbEntity
  8
wall-sketch
 62
256
370
-1
 48
1.0
  6
BYLAYER
100
AcDbLine
 10
1773.5
 20
219.75
 30
0.0
 11
1773.5
 21
222.75
 31
0.0
  0
LINE
  5
2D5
100
AcDbEntity
  8
wall-sketch
 62
256
370
-1
 48
1.0
  6
BYLAYER
100
AcDbLine
 10
1773.5
 20
222.75
 30
0.0
 11
1660.5
 21
222.75
 31
0.0
  0
LINE
  5
2D6
100
AcDbEntity
  8
wall-sketch
 62
256
370
-1
 48
1.0
  6
BYLAYER
100
AcDbLine
 10
1660.5
 20
222.75
 30
0.0
 11
1660.5
 21
219.75
 31
0.0
  0
LINE
  5
2D7
100
AcDbEntity
  8
dimensions
 62
256
370
-1
 48
1.0
  6
BYLAYER
100
AcDbLine
 10
1660.5
 20
482.75
 30
0.0
 11
1670.5
 21
482.75
 31
0.0
  0
LINE
  5
2D8
100
AcDbEntity
  8
dimensions
 62
256
370
-1
 48
1.0
  6
BYLAYER
100
AcDbLine
 10
1660.5
 20
222.75
 30
0.0
 11
1673.5
 21
222.75
 31
0.0
  0
LINE
  5
2D9
100
AcDbEntity
  8
wall-sketch
 62
256
370
-1
 48
1.0
  6
BYLAYER
100
AcDbLine
 10
1673.5
 20
222.75
 30
0.0
 11
1670.5
 21
222.75
 31
0.0
  0
LINE
  5
2DA
100
AcDbEntity
  8
wall-sketch
 62
256
370
-1
 48
1.0
  6
BYLAYER
100
AcDbLine
 10
1670.5
 20
222.75
 30
0.0
 11
1670.5
 21
482.75
 31
0.0
  0
LINE
  5
2DB
100
AcDbEntity
  8
wall-sketch
 62
256
370
-1
 48
1.0
  6
BYLAYER
100
AcDbLine
 10
1670.5
 20
482.75
 30
0.0
 11
1673.5
 21
482.75
 31
0.0
  0
LINE
  5
2DC
100
AcDbEntity
  8
wall-sketch
 62
256
370
-1
 48
1.0
  6
BYLAYER
100
AcDbLine
 10
1673.5
 20
482.75
 30
0.0
 11
1673.5
 21
222.75
 31
0.0
  0
LINE
  5
2DD
100
AcDbEntity
  8
dimensions
 62
256
370
-1
 48
1.0
  6
BYLAYER
100
AcDbLine
 10
1773.5
 20
222.75
 30
0.0
 11
1773.5
 21
262.75
 31
0.0
  0
LINE
  5
2DE
100
AcDbEntity
  8
dimensions
 62
256
370
-1
 48
1.0
  6
BYLAYER
100
AcDbLine
 10
1673.5
 20
222.75
 30
0.0
 11
1673.5
 21
265.75
 31
0.0
  0
LINE
  5
2DF
100
AcDbEntity
  8
wall-sketch
 62
256
370
-1
 48
1.0
  6
BYLAYER
100
AcDbLine
 10
1673.5
 20
265.75
 30
0.0
 11
1773.5
 21
265.75
 31
0.0
  0
LINE
  5
2E0
100
AcDbEntity
  8
wall-sketch
 62
256
370
-1
 48
1.0
  6
BYLAYER
100
AcDbLine
 10
1773.5
 20
265.75
 30
0.0
 11
1773.5
 21
262.75
 31
0.0
  0
LINE
  5
2E1
100
AcDbEntity
  8
wall-sketch
 62
256
370
-1
 48
1.0
  6
BYLAYER
100
AcDbLine
 10
1773.5
 20
262.75
 30
0.0
 11
1673.5
 21
262.75
 31
0.0
  0
LINE
  5
2E2
100
AcDbEntity
  8
wall-sketch
 62
256
370
-1
 48
1.0
  6
BYLAYER
100
AcDbLine
 10
1673.5
 20
262.75
 30
0.0
 11
1673.5
 21
265.75
 31
0.0
  0
LINE
  5
2E3
100
AcDbEntity
  8
sketch
 62
256
370
-1
 48
1.0
  6
BYLAYER
100
AcDbLine
 10
1776.5
 20
485.75
 30
0.0
 11
3776.5
 21
485.75
 31
0.0
  0
LINE
  5
2E4
100
AcDbEntity
  8
sketch
 62
256
370
-1
 48
1.0
  6
BYLAYER
100
AcDbLine
 10
1773.5
 20
482.75
 30
0.0
 11
3773.5
 21
482.75
 31
0.0
  0
LINE
  5
2E5
100
AcDbEntity
  8
sketch
 62
256
370
-1
 48
1.0
  6
BYLAYER
100
AcDbLine
 10
1773.5
 20
265.75
 30
0.0
 11
3773.5
 21
265.75
 31
0.0
  0
LINE
  5
2E6
100
AcDbEntity
  8
sketch
 62
256
370
-1
 48
1.0
  6
BYLAYER
100
AcDbLine
 10
1773.5
 20
262.75
 30
0.0
 11
3773.5
 21
262.75
 31
0.0
  0
LINE
  5
2E7
100
AcDbEntity
  8
sketch
 62
256
370
-1
 48
1.0
  6
BYLAYER
100
AcDbLine
 10
1773.5
 20
222.75
 30
0.0
 11
3773.5
 21
222.75
 31
0.0
  0
LINE
  5
2E8
100
AcDbEntity
  8
sketch
 62
256
370
-1
 48
1.0
  6
BYLAYER
100
AcDbLine
 10
1773.5
 20
219.75
 30
0.0
 11
3773.5
 21
219.75
 31
0.0
  0
LINE
  5
2E9
100
AcDbEntity
  8
sketch
 62
256
370
-1
 48
1.0
  6
BYLAYER
100
AcDbLine
 10
1773.5
 20
128.75
 30
0.0
 11
3773.5
 21
128.75
 31
0.0
  0
LINE
  5
2EA
100
AcDbEntity
  8
sketch
 62
256
370
-1
 48
1.0
  6
BYLAYER
100
AcDbLine
 10
1776.5
 20
125.75
 30
0.0
 11
3776.5
 21
125.75
 31
0.0
  0
LINE
  5
2EB
100
AcDbEntity
  8
sketch
 62
256
370
-1
 48
1.0
  6
BYLAYER
100
AcDbLine
 10
1657.5
 20
-1874.25
 30
0.0
 11
1657.5
 21
125.75
 31
0.0
  0
LINE
  5
2EC
100
AcDbEntity
  8
sketch
 62
256
370
-1
 48
1.0
  6
BYLAYER
100
AcDbLine
 10
1660.5
 20
-1871.25
 30
0.0
 11
1660.5
 21
128.75
 31
0.0
  0
LINE
  5
2ED
100
AcDbEntity
  8
sketch
 62
256
370
-1
 48
1.0
  6
BYLAYER
100
AcDbLine
 10
1773.5
 20
-1871.25
 30
0.0
 11
1773.5
 21
128.75
 31
0.0
  0
LINE
  5
2EE
100
AcDbEntity
  8
sketch
 62
256
370
-1
 48
1.0
  6
BYLAYER
100
AcDbLine
 10
1776.5
 20
-1874.25
 30
0.0
 11
1776.5
 21
125.75
 31
0.0
  0
LINE
  5
2EF
100
AcDbEntity
  8
sketch
 62
256
370
-1
 48
1.0
  6
BYLAYER
100
AcDbLine
 10
1670.5
 20
-1777.25
 30
0.0
 11
1670.5
 21
222.75
 31
0.0
  0
LINE
  5
2F0
100
AcDbEntity
  8
sketch
 62
256
370
-1
 48
1.0
  6
BYLAYER
100
AcDbLine
 10
1673.5
 20
-1777.25
 30
0.0
 11
1673.5
 21
222.75
 31
0.0
  0
LINE
  5
2F1
100
AcDbEntity
  8
sketch
 62
256
370
-1
 48
1.0
  6
BYLAYER
100
AcDbLine
 10
657.5
 20
125.75
 30
0.0
 11
1657.5
 21
125.75
 31
0.0
  0
LINE
  5
2F2
100
AcDbEntity
  8
sketch
 62
256
370
-1
 48
1.0
  6
BYLAYER
100
AcDbLine
 10
660.5
 20
128.75
 30
0.0
 11
1660.5
 21
128.75
 31
0.0
  0
LINE
  5
2F3
100
AcDbEntity
  8
sketch
 62
256
370
-1
 48
1.0
  6
BYLAYER
100
AcDbLine
 10
660.5
 20
219.75
 30
0.0
 11
1660.5
 21
219.75
 31
0.0
  0
LINE
  5
2F4
100
AcDbEntity
  8
sketch
 62
256
370
-1
 48
1.0
  6
BYLAYER
100
AcDbLine
 10
660.5
 20
222.75
 30
0.0
 11
1660.5
 21
222.75
 31
0.0
  0
LINE
  5
2F5
100
AcDbEntity
  8
sketch
 62
256
370
-1
 48
1.0
  6
BYLAYER
100
AcDbLine
 10
673.5
 20
262.75
 30
0.0
 11
1673.5
 21
262.75
 31
0.0
  0
LINE
  5
2F6
100
AcDbEntity
  8
sketch
 62
256
370
-1
 48
1.0
  6
BYLAYER
100
AcDbLine
 10
673.5
 20
265.75
 30
0.0
 11
1673.5
 21
265.75
 31
0.0
  0
LINE
  5
2F7
100
AcDbEntity
  8
sketch
 62
256
370
-1
 48
1.0
  6
BYLAYER
100
AcDbLine
 10
657.5
 20
485.75
 30
0.0
 11
1657.5
 21
485.75
 31
0.0
  0
LINE
  5
2F8
100
AcDbEntity
  8
sketch
 62
256
370
-1
 48
1.0
  6
BYLAYER
100
AcDbLine
 10
660.5
 20
482.75
 30
0.0
 11
1660.5
 21
482.75
 31
0.0
  0
INSERT
  5
2F9
100
AcDbEntity
  8
0
 62
256
370
-1
 48
1.0
  6
BYLAYER
100
AcDbBlockReference
  2
tab
 10
1873.0
 20
482.7499999999999432
 30
0.0
 41
1.0
 42
-1.0
 43
1.0
 50
270.0
  0
INSERT
  5
2FA
100
AcDbEntity
  8
0
 62
256
370
-1
 48
1.0
  6
BYLAYER
100
AcDbBlockReference
  2
tab
 10
2073.0
 20
482.7499999999999432
 30
0.0
 41
1.0
 42
-1.0
 43
1.0
 50
270.0
  0
INSERT
  5
2FB
100
AcDbEntity
  8
0
 62
256
370
-1
 48
1.0
  6
BYLAYER
100
AcDbBlockReference
  2
tab
 10
1561.0
 20
482.75
 30
0.0
 50
270.0
  0
INSERT
  5
2FC
100
AcDbEntity
  8
0
 62
256
370
-1
 48
1.0
  6
BYLAYER
100
AcDbBlockReference
  2
tab
 10
1660.5
 20
711.75
 30
0.0
 41
1.0
 42
-1.0
 43
1.0
 50
360.0
  0
INSERT
  5
2FD
100
AcDbEntity
  8
0
 62
256
370
-1
 48
1.0
  6
BYLAYER
100
AcDbBlockReference
  2
tab
 10
1773.5
 20
-54.2500000000000568
 30
0.0
 50
180.0
  0
LINE
  5
2FE
100
AcDbEntity
  8
sketch
 62
256
370
-1
 48
1.0
  6
BYLAYER
100
AcDbLine
 10
1657.5
 20
485.75
 30
0.0
 11
1657.5
 21
1485.75
 31
0.0
  0
LINE
  5
2FF
100
AcDbEntity
  8
sketch
 62
256
370
-1
 48
1.0
  6
BYLAYER
100
AcDbLine
 10
1660.5
 20
482.75
 30
0.0
 11
1660.5
 21
1482.75
 31
0.0
  0
LINE
  5
300
100
AcDbEntity
  8
sketch
 62
256
370
-1
 48
1.0
  6
BYLAYER
100
AcDbLine
 10
1670.5
 20
482.75
 30
0.0
 11
1670.5
 21
1482.75
 31
0.0
  0
LINE
  5
301
100
AcDbEntity
  8
sketch
 62
256
370
-1
 48
1.0
  6
BYLAYER
100
AcDbLine
 10
1673.5
 20
482.75
 30
0.0
 11
1673.5
 21
1482.75
 31
0.0
  0
LINE
  5
302
100
AcDbEntity
  8
sketch
 62
256
370
-1
 48
1.0
  6
BYLAYER
100
AcDbLine
 10
1773.5
 20
482.75
 30
0.0
 11
1773.5
 21
1482.75
 31
0.0
  0
LINE
  5
303
100
AcDbEntity
  8
sketch
 62
256
370
-1
 48
1.0
  6
BYLAYER
100
AcDbLine
 10
1776.5
 20
485.75
 30
0.0
 11
1776.5
 21
1485.75
 31
0.0
  0
INSERT
  5
304
100
AcDbEntity
  8
0
 62
256
370
-1
 48
1.0
  6
BYLAYER
100
AcDbBlockReference
  2
tab-hole-middle
 10
1672.0
 20
701.7500000000001137
 30
0.0
  0
INSERT
  5
305
100
AcDbEntity
  8
0
 62
256
370
-1
 48
1.0
  6
BYLAYER
100
AcDbBlockReference
  2
tab-hole-middle
 10
1672.0
 20
901.75
 30
0.0
  0
INSERT
  5
306
100
AcDbEntity
  8
0
 62
256
370
-1
 48
1.0
  6
BYLAYER
100
AcDbBlockReference
  2
tab-hole-middle
 10
1672.0
 20
681.75
 30
0.0
  0
INSERT
  5
307
100
AcDbEntity
  8
0
 62
256
370
-1
 48
1.0
  6
BYLAYER
100
AcDbBlockReference
  2
tab-hole-middle
 10
1672.0
 20
881.75
 30
0.0
  0
INSERT
  5
308
100
AcDbEntity
  8
0
 62
256
370
-1
 48
1.0
  6
BYLAYER
100
AcDbBlockReference
  2
tab-hole-middle
 10
1672.0
 20
661.75
 30
0.0
  0
INSERT
  5
309
100
AcDbEntity
  8
0
 62
256
370
-1
 48
1.0
  6
BYLAYER
100
AcDbBlockReference
  2
tab-hole-middle
 10
1672.0
 20
861.75
 30
0.0
  0
INSERT
  5
30A
100
AcDbEntity
  8
0
 62
256
370
-1
 48
1.0
  6
BYLAYER
100
AcDbBlockReference
  2
tab-hole-middle
 10
1672.0
 20
641.75
 30
0.0
  0
INSERT
  5
30B
100
AcDbEntity
  8
0
 62
256
370
-1
 48
1.0
  6
BYLAYER
100
AcDbBlockReference
  2
tab-hole-middle
 10
1672.0
 20
841.75
 30
0.0
  0
INSERT
  5
30C
100
AcDbEntity
  8
0
 62
256
370
-1
 48
1.0
  6
BYLAYER
100
AcDbBlockReference
  2
tab-hole-middle
 10
1672.0
 20
621.75
 30
0.0
  0
INSERT
  5
30D
100
AcDbEntity
  8
0
 62
256
370
-1
 48
1.0
  6
BYLAYER
100
AcDbBlockReference
  2
tab-hole-middle
 10
1672.0
 20
821.75
 30
0.0
  0
INSERT
  5
30E
100
AcDbEntity
  8
0
 62
256
370
-1
 48
1.0
  6
BYLAYER
100
AcDbBlockReference
  2
tab-hole-middle
 10
1672.0
 20
921.75
 30
0.0
  0
LINE
  5
30F
100
AcDbEntity
  8
0
 62
256
370
-1
 48
1.0
  6
BYLAYER
100
AcDbLine
 10
1657.3999999999996362
 20
737.75
 30
0.0
 11
1776.6000000000003638
 21
737.75
 31
0.0
  0
LINE
  5
310
100
AcDbEntity
  8
0
 62
256
370
-1
 48
1.0
  6
BYLAYER
100
AcDbLine
 10
1776.6000000000003638
 20
-28.25
 30
0.0
 11
1657.3999999999996362
 21
-28.25
 31
0.0
  0
LINE
  5
311
100
AcDbEntity
  8
0
 62
256
370
-1
 48
1.0
  6
BYLAYER
100
AcDbLine
 10
1657.3999999999996362
 20
605.75
 30
0.0
 11
1776.6000000000008185
 21
605.75
 31
0.0
  0
LINE
  5
312
100
AcDbEntity
  8
0
 62
256
370
-1
 48
1.0
  6
BYLAYER
100
AcDbLine
 10
1776.6000000000003638
 20
-160.2500000000000568
 30
0.0
 11
1657.3999999999991815
 21
-160.2500000000000568
 31
0.0
  0
INSERT
  5
313
100
AcDbEntity
  8
0
 62
256
370
-1
 48
1.0
  6
BYLAYER
100
AcDbBlockReference
  2
tab
 10
1660.5
 20
921.75
 30
0.0
  0
INSERT
  5
314
100
AcDbEntity
  8
0
 62
256
370
-1
 48
1.0
  6
BYLAYER
100
AcDbBlockReference
  2
tab
 10
1660.5
 20
901.75
 30
0.0
  0
INSERT
  5
315
100
AcDbEntity
  8
0
 62
256
370
-1
 48
1.0
  6
BYLAYER
100
AcDbBlockReference
  2
tab
 10
1673.5
 20
1101.75
 30
0.0
  0
INSERT
  5
316
100
AcDbEntity
  8
0
 62
256
370
-1
 48
1.0
  6
BYLAYER
100
AcDbBlockReference
  2
tab
 10
1660.5
 20
881.75
 30
0.0
  0
INSERT
  5
317
100
AcDbEntity
  8
0
 62
256
370
-1
 48
1.0
  6
BYLAYER
100
AcDbBlockReference
  2
tab
 10
1660.5
 20
861.75
 30
0.0
  0
INSERT
  5
318
100
AcDbEntity
  8
0
 62
256
370
-1
 48
1.0
  6
BYLAYER
100
AcDbBlockReference
  2
tab
 10
1660.5
 20
841.75
 30
0.0
  0
INSERT
  5
319
100
AcDbEntity
  8
0
 62
256
370
-1
 48
1.0
  6
BYLAYER
100
AcDbBlockReference
  2
tab
 10
1660.5
 20
821.75
 30
0.0
  0
INSERT
  5
31A
100
AcDbEntity
  8
0
 62
256
370
-1
 48
1.0
  6
BYLAYER
100
AcDbBlockReference
  2
tab
 10
1773.5
 20
921.75
 30
0.0
 50
180.0
  0
INSERT
  5
31B
100
AcDbEntity
  8
0
 62
256
370
-1
 48
1.0
  6
BYLAYER
100
AcDbBlockReference
  2
tab
 10
1773.5
 20
1121.75
 30
0.0
 50
180.0
  0
INSERT
  5
31C
100
AcDbEntity
  8
0
 62
256
370
-1
 48
1.0
  6
BYLAYER
100
AcDbBlockReference
  2
tab
 10
1773.5
 20
901.75
 30
0.0
 50
180.0
  0
INSERT
  5
31D
100
AcDbEntity
  8
0
 62
256
370
-1
 48
1.0
  6
BYLAYER
100
AcDbBlockReference
  2
tab
 10
1773.5
 20
1101.75
 30
0.0
 50
180.0
  0
INSERT
  5
31E
100
AcDbEntity
  8
0
 62
256
370
-1
 48
1.0
  6
BYLAYER
100
AcDbBlockReference
  2
tab
 10
1773.5
 20
881.75
 30
0.0
 50
180.0
  0
INSERT
  5
31F
100
AcDbEntity
  8
0
 62
256
370
-1
 48
1.0
  6
BYLAYER
100
AcDbBlockReference
  2
tab
 10
1773.5
 20
861.75
 30
0.0
 50
180.0
  0
INSERT
  5
320
100
AcDbEntity
  8
0
 62
256
370
-1
 48
1.0
  6
BYLAYER
100
AcDbBlockReference
  2
tab
 10
1773.5
 20
841.75
 30
0.0
 50
180.0
  0
INSERT
  5
321
100
AcDbEntity
  8
0
 62
256
370
-1
 48
1.0
  6
BYLAYER
100
AcDbBlockReference
  2
tab
 10
1773.5
 20
821.75
 30
0.0
 50
180.0
  0
LINE
  5
322
100
AcDbEntity
  8
0
 62
256
370
-1
 48
1.0
  6
BYLAYER
100
AcDbLine
 10
1660.5000000000004547
 20
926.8500000000000227
 30
0.0
 11
1660.5
 21
937.75
 31
0.0
  0
LINE
  5
323
100
AcDbEntity
  8
0
 62
256
370
-1
 48
1.0
  6
BYLAYER
100
AcDbLine
 10
1673.5000000000004547
 20
1126.8499999999999091
 30
0.0
 11
1673.5
 21
1137.75
 31
0.0
  0
LINE
  5
324
100
AcDbEntity
  8
0
 62
256
370
-1
 48
1.0
  6
BYLAYER
100
AcDbLine
 10
1660.5
 20
937.75
 30
0.0
 11
1773.5
 21
937.75
 31
0.0
  0
LINE
  5
325
100
AcDbEntity
  8
0
 62
256
370
-1
 48
1.0
  6
BYLAYER
100
AcDbLine
 10
1773.5
 20
937.75
 30
0.0
 11
1773.5
 21
926.8500000000000227
 31
0.0
  0
LINE
  5
326
100
AcDbEntity
  8
0
 62
256
370
-1
 48
1.0
  6
BYLAYER
100
AcDbLine
 10
1773.5
 20
1137.75
 30
0.0
 11
1773.5
 21
1126.8499999999999091
 31
0.0
  0
LINE
  5
327
100
AcDbEntity
  8
0
 62
256
370
-1
 48
1.0
  6
BYLAYER
100
AcDbLine
 10
1773.5
 20
916.6499999999999773
 30
0.0
 11
1773.5
 21
906.8500000000000227
 31
0.0
  0
LINE
  5
328
100
AcDbEntity
  8
0
 62
256
370
-1
 48
1.0
  6
BYLAYER
100
AcDbLine
 10
1773.5
 20
1116.6500000000000909
 30
0.0
 11
1773.5
 21
1106.8499999999999091
 31
0.0
  0
LINE
  5
329
100
AcDbEntity
  8
0
 62
256
370
-1
 48
1.0
  6
BYLAYER
100
AcDbLine
 10
1773.5
 20
896.6499999999998636
 30
0.0
 11
1773.5
 21
886.8500000000000227
 31
0.0
  0
LINE
  5
32A
100
AcDbEntity
  8
0
 62
256
370
-1
 48
1.0
  6
BYLAYER
100
AcDbLine
 10
1773.5000000000004547
 20
876.6499999999999773
 30
0.0
 11
1773.5000000000004547
 21
866.8500000000000227
 31
0.0
  0
LINE
  5
32B
100
AcDbEntity
  8
0
 62
256
370
-1
 48
1.0
  6
BYLAYER
100
AcDbLine
 10
1773.5
 20
856.6499999999999773
 30
0.0
 11
1773.5000000000004547
 21
846.8500000000001364
 31
0.0
  0
LINE
  5
32C
100
AcDbEntity
  8
0
 62
256
370
-1
 48
1.0
  6
BYLAYER
100
AcDbLine
 10
1773.5
 20
836.6499999999999773
 30
0.0
 11
1773.5000000000004547
 21
826.8500000000001364
 31
0.0
  0
LINE
  5
32D
100
AcDbEntity
  8
0
 62
256
370
-1
 48
1.0
  6
BYLAYER
100
AcDbLine
 10
1773.5000000000004547
 20
816.6499999999998636
 30
0.0
 11
1773.5
 21
805.75
 31
0.0
  0
LINE
  5
32E
100
AcDbEntity
  8
0
 62
256
370
-1
 48
1.0
  6
BYLAYER
100
AcDbLine
 10
1773.5
 20
805.75
 30
0.0
 11
1660.5
 21
805.75
 31
0.0
  0
LINE
  5
32F
100
AcDbEntity
  8
0
 62
256
370
-1
 48
1.0
  6
BYLAYER
100
AcDbLine
 10
1660.5
 20
805.75
 30
0.0
 11
1660.5000000000004547
 21
816.6499999999998636
 31
0.0
  0
LINE
  5
330
100
AcDbEntity
  8
0
 62
256
370
-1
 48
1.0
  6
BYLAYER
100
AcDbLine
 10
1660.5000000000004547
 20
826.8500000000001364
 30
0.0
 11
1660.5000000000004547
 21
836.6499999999998636
 31
0.0
  0
LINE
  5
331
100
AcDbEntity
  8
0
 62
256
370
-1
 48
1.0
  6
BYLAYER
100
AcDbLine
 10
1660.5000000000004547
 20
846.8500000000001364
 30
0.0
 11
1660.4999999999995453
 21
856.6499999999999773
 31
0.0
  0
LINE
  5
332
100
AcDbEntity
  8
0
 62
256
370
-1
 48
1.0
  6
BYLAYER
100
AcDbLine
 10
1660.5000000000004547
 20
866.8500000000000227
 30
0.0
 11
1660.5000000000004547
 21
876.6499999999999773
 31
0.0
  0
LINE
  5
333
100
AcDbEntity
  8
0
 62
256
370
-1
 48
1.0
  6
BYLAYER
100
AcDbLine
 10
1660.4999999999995453
 20
886.8500000000000227
 30
0.0
 11
1660.4999999999995453
 21
896.6499999999998636
 31
0.0
  0
LINE
  5
334
100
AcDbEntity
  8
0
 62
256
370
-1
 48
1.0
  6
BYLAYER
100
AcDbLine
 10
1660.4999999999995453
 20
906.8500000000000227
 30
0.0
 11
1660.5000000000004547
 21
916.6499999999999773
 31
0.0
  0
LINE
  5
335
100
AcDbEntity
  8
0
 62
256
370
-1
 48
1.0
  6
BYLAYER
100
AcDbLine
 10
1673.4999999999995453
 20
1106.8499999999999091
 30
0.0
 11
1673.5000000000004547
 21
1116.6500000000000909
 31
0.0
  0
INSERT
  5
336
100
AcDbEntity
  8
0
 62
256
370
-1
 48
1.0
  6
BYLAYER
100
AcDbBlockReference
  2
tab-hole-middle
 10
1833.0
 20
221.25
 30
0.0
 50
90.0
  0
INSERT
  5
337
100
AcDbEntity
  8
0
 62
256
370
-1
 48
1.0
  6
BYLAYER
100
AcDbBlockReference
  2
tab-hole-middle
 10
1853.0
 20
221.25
 30
0.0
 50
90.0
  0
INSERT
  5
338
100
AcDbEntity
  8
0
 62
256
370
-1
 48
1.0
  6
BYLAYER
100
AcDbBlockReference
  2
tab-hole-middle
 10
1873.0
 20
221.25
 30
0.0
 50
90.0
  0
INSERT
  5
339
100
AcDbEntity
  8
0
 62
256
370
-1
 48
1.0
  6
BYLAYER
100
AcDbBlockReference
  2
tab-hole-middle
 10
1561.0
 20
221.25
 30
0.0
 41
1.0
 42
-1.0
 43
1.0
 50
90.0
  0
INSERT
  5
33A
100
AcDbEntity
  8
0
 62
256
370
-1
 48
1.0
  6
BYLAYER
100
AcDbBlockReference
  2
tab-hole-middle
 10
1893.0
 20
221.25
 30
0.0
 50
90.0
  0
INSERT
  5
33B
100
AcDbEntity
  8
0
 62
256
370
-1
 48
1.0
  6
BYLAYER
100
AcDbBlockReference
  2
tab-hole-middle
 10
1541.0
 20
221.25
 30
0.0
 41
1.0
 42
-1.0
 43
1.0
 50
90.0
  0
INSERT
  5
33C
100
AcDbEntity
  8
0
 62
256
370
-1
 48
1.0
  6
BYLAYER
100
AcDbBlockReference
  2
tab-hole-middle
 10
1913.0
 20
221.25
 30
0.0
 50
90.0
  0
INSERT
  5
33D
100
AcDbEntity
  8
0
 62
256
370
-1
 48
1.0
  6
BYLAYER
100
AcDbBlockReference
  2
tab-hole-middle
 10
1521.0
 20
221.25
 30
0.0
 41
1.0
 42
-1.0
 43
1.0
 50
90.0
  0
INSERT
  5
33E
100
AcDbEntity
  8
0
 62
256
370
-1
 48
1.0
  6
BYLAYER
100
AcDbBlockReference
  2
tab-hole-middle
 10
1933.0
 20
221.25
 30
0.0
 50
90.0
  0
INSERT
  5
33F
100
AcDbEntity
  8
0
 62
256
370
-1
 48
1.0
  6
BYLAYER
100
AcDbBlockReference
  2
tab-hole-middle
 10
1501.0
 20
221.25
 30
0.0
 41
1.0
 42
-1.0
 43
1.0
 50
90.0
  0
INSERT
  5
340
100
AcDbEntity
  8
0
 62
256
370
-1
 48
1.0
  6
BYLAYER
100
AcDbBlockReference
  2
tab-hole-middle
 10
1913.0
 20
264.25
 30
0.0
 50
90.0
  0
INSERT
  5
341
100
AcDbEntity
  8
0
 62
256
370
-1
 48
1.0
  6
BYLAYER
100
AcDbBlockReference
  2
tab-hole-middle
 10
2113.0
 20
264.25
 30
0.0
 50
90.0
  0
INSERT
  5
342
100
AcDbEntity
  8
0
 62
256
370
-1
 48
1.0
  6
BYLAYER
100
AcDbBlockReference
  2
tab-hole-middle
 10
1933.0
 20
264.25
 30
0.0
 50
90.0
  0
INSERT
  5
343
100
AcDbEntity
  8
0
 62
256
370
-1
 48
1.0
  6
BYLAYER
100
AcDbBlockReference
  2
tab-hole-middle
 10
2133.0
 20
264.25
 30
0.0
 50
90.0
  0
INSERT
  5
344
100
AcDbEntity
  8
0
 62
256
370
-1
 48
1.0
  6
BYLAYER
100
AcDbBlockReference
  2
tab
 10
2093.0
 20
482.7499999999999432
 30
0.0
 41
1.0
 42
-1.0
 43
1.0
 50
270.0
  0
LINE
  5
345
100
AcDbEntity
  8
0
 62
256
370
-1
 48
1.0
  6
BYLAYER
100
AcDbLine
 10
2017.0
 20
482.75
 30
0.0
 11
2017.0000000000009095
 21
222.75
 31
0.0
  0
LINE
  5
346
100
AcDbEntity
  8
0
 62
256
370
-1
 48
1.0
  6
BYLAYER
100
AcDbLine
 10
2149.0
 20
222.75
 30
0.0
 11
2149.0
 21
482.75
 31
0.0
  0
INSERT
  5
347
100
AcDbEntity
  8
0
 62
256
370
-1
 48
1.0
  6
BYLAYER
100
AcDbBlockReference
  2
tab
 10
1673.5
 20
1121.75
 30
0.0
  0
LINE
  5
348
100
AcDbEntity
  8
0
 62
256
370
-1
 48
1.0
  6
BYLAYER
100
AcDbLine
 10
1673.5
 20
1137.75
 30
0.0
 11
1773.5
 21
1137.75
 31
0.0
  0
INSERT
  5
349
100
AcDbEntity
  8
0
 62
256
370
-1
 48
1.0
  6
BYLAYER
100
AcDbBlockReference
  2
tab
 10
1541.0
 20
482.75
 30
0.0
 50
270.0
  0
INSERT
  5
34A
100
AcDbEntity
  8
0
 62
256
370
-1
 48
1.0
  6
BYLAYER
100
AcDbBlockReference
  2
tab-hole-middle
 10
1601.0
 20
221.25
 30
0.0
 41
1.0
 42
-1.0
 43
1.0
 50
90.0
  0
INSERT
  5
34B
100
AcDbEntity
  8
0
 62
256
370
-1
 48
1.0
  6
BYLAYER
100
AcDbBlockReference
  2
tab
 10
1521.0
 20
482.75
 30
0.0
 50
270.0
  0
INSERT
  5
34C
100
AcDbEntity
  8
0
 62
256
370
-1
 48
1.0
  6
BYLAYER
100
AcDbBlockReference
  2
tab-hole-middle
 10
1581.0
 20
221.25
 30
0.0
 41
1.0
 42
-1.0
 43
1.0
 50
90.0
  0
INSERT
  5
34D
100
AcDbEntity
  8
0
 62
256
370
-1
 48
1.0
  6
BYLAYER
100
AcDbBlockReference
  2
tab
 10
1660.5
 20
-74.2500000000000568
 30
0.0
  0
LINE
  5
34E
100
AcDbEntity
  8
tab-sketch
 62
256
370
-1
 48
1.0
  6
BYLAYER
100
AcDbLine
 10
1763.5000000000004547
 20
-1125.75
 30
0.0
 11
1763.5
 21
1874.25
 31
0.0
  0
LINE
  5
34F
100
AcDbEntity
  8
tab-sketch
 62
256
370
-1
 48
1.0
  6
BYLAYER
100
AcDbLine
 10
1743.5000000000004547
 20
-1125.75
 30
0.0
 11
1743.5000000000004547
 21
1874.25
 31
0.0
  0
LINE
  5
350
100
AcDbEntity
  8
tab-sketch
 62
256
370
-1
 48
1.0
  6
BYLAYER
100
AcDbLine
 10
1723.5
 20
-1125.75
 30
0.0
 11
1723.5
 21
1874.25
 31
0.0
  0
LINE
  5
351
100
AcDbEntity
  8
tab-sketch
 62
256
370
-1
 48
1.0
  6
BYLAYER
100
AcDbLine
 10
1703.5
 20
-1125.75
 30
0.0
 11
1703.5000000000004547
 21
1874.25
 31
0.0
  0
LINE
  5
352
100
AcDbEntity
  8
tab-sketch
 62
256
370
-1
 48
1.0
  6
BYLAYER
100
AcDbLine
 10
1683.4999999999995453
 20
-1125.75
 30
0.0
 11
1683.5
 21
1874.25
 31
0.0
  0
LINE
  5
353
100
AcDbEntity
  8
tab-sketch
 62
256
370
-1
 48
1.0
  6
BYLAYER
100
AcDbLine
 10
3223.5
 20
284.2499999999977263
 30
0.0
 11
223.5
 21
284.2499999999974989
 31
0.0
  0
LINE
  5
354
100
AcDbEntity
  8
tab-sketch
 62
256
370
-1
 48
1.0
  6
BYLAYER
100
AcDbLine
 10
3223.5
 20
304.2499999999974989
 30
0.0
 11
223.5
 21
304.2499999999965894
 31
0.0
  0
LINE
  5
355
100
AcDbEntity
  8
tab-sketch
 62
256
370
-1
 48
1.0
  6
BYLAYER
100
AcDbLine
 10
3223.5
 20
324.25
 30
0.0
 11
223.5
 21
324.2499999999997726
 31
0.0
  0
LINE
  5
356
100
AcDbEntity
  8
tab-sketch
 62
256
370
-1
 48
1.0
  6
BYLAYER
100
AcDbLine
 10
3223.5
 20
344.2499999999993747
 30
0.0
 11
223.5
 21
344.2499999999985221
 31
0.0
  0
LINE
  5
357
100
AcDbEntity
  8
tab-sketch
 62
256
370
-1
 48
1.0
  6
BYLAYER
100
AcDbLine
 10
3223.5
 20
364.2500000000090381
 30
0.0
 11
223.5
 21
364.2500000000081855
 31
0.0
  0
LINE
  5
358
100
AcDbEntity
  8
tab-sketch
 62
256
370
-1
 48
1.0
  6
BYLAYER
100
AcDbLine
 10
3223.5
 20
384.2499999999910187
 30
0.0
 11
223.5
 21
384.2499999999911324
 31
0.0
  0
LINE
  5
359
100
AcDbEntity
  8
tab-sketch
 62
256
370
-1
 48
1.0
  6
BYLAYER
100
AcDbLine
 10
3223.5
 20
404.2500000000006253
 30
0.0
 11
223.5
 21
404.2500000000007958
 31
0.0
  0
LINE
  5
35A
100
AcDbEntity
  8
tab-sketch
 62
256
370
-1
 48
1.0
  6
BYLAYER
100
AcDbLine
 10
3223.5
 20
424.25
 30
0.0
 11
223.5
 21
424.2500000000009095
 31
0.0
  0
LINE
  5
35B
100
AcDbEntity
  8
tab-sketch
 62
256
370
-1
 48
1.0
  6
BYLAYER
100
AcDbLine
 10
3223.5
 20
444.2500000000025011
 30
0.0
 11
223.5
 21
444.2500000000027285
 31
0.0
  0
LINE
  5
35C
100
AcDbEntity
  8
tab-sketch
 62
256
370
-1
 48
1.0
  6
BYLAYER
100
AcDbLine
 10
3223.5
 20
464.2500000000022737
 30
0.0
 11
223.5
 21
464.2500000000025011
 31
0.0
  0
INSERT
  5
35D
100
AcDbEntity
  8
0
 62
256
370
-1
 48
1.0
  6
BYLAYER
100
AcDbBlockReference
  2
tab
 10
1683.4999999999990905
 20
482.75
 30
0.0
 50
270.0
  0
INSERT
  5
35E
100
AcDbEntity
  8
0
 62
256
370
-1
 48
1.0
  6
BYLAYER
100
AcDbBlockReference
  2
tab
 10
1703.5
 20
482.75
 30
0.0
 50
270.0
  0
INSERT
  5
35F
100
AcDbEntity
  8
0
 62
256
370
-1
 48
1.0
  6
BYLAYER
100
AcDbBlockReference
  2
tab
 10
1723.5
 20
482.75
 30
0.0
 50
270.0
  0
INSERT
  5
360
100
AcDbEntity
  8
0
 62
256
370
-1
 48
1.0
  6
BYLAYER
100
AcDbBlockReference
  2
tab
 10
1723.5
 20
222.75
 30
0.0
 50
90.0000000000000142
  0
INSERT
  5
361
100
AcDbEntity
  8
0
 62
256
370
-1
 48
1.0
  6
BYLAYER
100
AcDbBlockReference
  2
tab
 10
1743.5000000000009095
 20
482.75
 30
0.0
 50
270.0
  0
INSERT
  5
362
100
AcDbEntity
  8
0
 62
256
370
-1
 48
1.0
  6
BYLAYER
100
AcDbBlockReference
  2
tab
 10
1703.4999999999990905
 20
222.75
 30
0.0
 50
90.0000000000000142
  0
INSERT
  5
363
100
AcDbEntity
  8
0
 62
256
370
-1
 48
1.0
  6
BYLAYER
100
AcDbBlockReference
  2
tab
 10
1763.5000000000009095
 20
482.75
 30
0.0
 50
270.0
  0
INSERT
  5
364
100
AcDbEntity
  8
0
 62
256
370
-1
 48
1.0
  6
BYLAYER
100
AcDbBlockReference
  2
tab
 10
1683.4999999999990905
 20
222.75
 30
0.0
 50
90.0000000000000142
  0
LINE
  5
365
100
AcDbEntity
  8
0
 62
256
370
-1
 48
1.0
  6
BYLAYER
100
AcDbLine
 10
1673.5
 20
482.75
 30
0.0
 11
1678.3999999999987267
 21
482.75
 31
0.0
  0
LINE
  5
366
100
AcDbEntity
  8
0
 62
256
370
-1
 48
1.0
  6
BYLAYER
100
AcDbLine
 10
1773.5
 20
222.75
 30
0.0
 11
1768.6000000000012733
 21
222.75
 31
0.0
  0
LINE
  5
367
100
AcDbEntity
  8
0
 62
256
370
-1
 48
1.0
  6
BYLAYER
100
AcDbLine
 10
1688.5999999999985448
 20
482.75
 30
0.0
 11
1698.4000000000000909
 21
482.75
 31
0.0
  0
LINE
  5
368
100
AcDbEntity
  8
0
 62
256
370
-1
 48
1.0
  6
BYLAYER
100
AcDbLine
 10
1758.4000000000014552
 20
222.75
 30
0.0
 11
1748.6000000000003638
 21
222.75
 31
0.0
  0
LINE
  5
369
100
AcDbEntity
  8
0
 62
256
370
-1
 48
1.0
  6
BYLAYER
100
AcDbLine
 10
1708.5999999999994543
 20
482.75
 30
0.0
 11
1718.4000000000000909
 21
482.75
 31
0.0
  0
LINE
  5
36A
100
AcDbEntity
  8
0
 62
256
370
-1
 48
1.0
  6
BYLAYER
100
AcDbLine
 10
1738.4000000000005457
 20
222.75
 30
0.0
 11
1728.6000000000003638
 21
222.75
 31
0.0
  0
LINE
  5
36B
100
AcDbEntity
  8
0
 62
256
370
-1
 48
1.0
  6
BYLAYER
100
AcDbLine
 10
1728.5999999999994543
 20
482.75
 30
0.0
 11
1738.4000000000010004
 21
482.75
 31
0.0
  0
LINE
  5
36C
100
AcDbEntity
  8
0
 62
256
370
-1
 48
1.0
  6
BYLAYER
100
AcDbLine
 10
1718.4000000000005457
 20
222.75
 30
0.0
 11
1708.5999999999994543
 21
222.75
 31
0.0
  0
LINE
  5
36D
100
AcDbEntity
  8
0
 62
256
370
-1
 48
1.0
  6
BYLAYER
100
AcDbLine
 10
1748.6000000000003638
 20
482.75
 30
0.0
 11
1758.4000000000010004
 21
482.75
 31
0.0
  0
LINE
  5
36E
100
AcDbEntity
  8
0
 62
256
370
-1
 48
1.0
  6
BYLAYER
100
AcDbLine
 10
1698.3999999999996362
 20
222.7499999999999432
 30
0.0
 11
1688.5999999999994543
 21
222.7499999999999432
 31
0.0
  0
LINE
  5
36F
100
AcDbEntity
  8
0
 62
256
370
-1
 48
1.0
  6
BYLAYER
100
AcDbLine
 10
1768.6000000000003638
 20
482.75
 30
0.0
 11
1773.5
 21
482.75
 31
0.0
  0
LINE
  5
370
100
AcDbEntity
  8
0
 62
256
370
-1
 48
1.0
  6
BYLAYER
100
AcDbLine
 10
1678.3999999999996362
 20
222.75
 30
0.0
 11
1673.5
 21
222.75
 31
0.0
  0
INSERT
  5
371
100
AcDbEntity
  8
0
 62
256
370
-1
 48
1.0
  6
BYLAYER
100
AcDbBlockReference
  2
tab
 10
1763.5000000000009095
 20
222.75
 30
0.0
 50
90.0000000000000142
  0
INSERT
  5
372
100
AcDbEntity
  8
0
 62
256
370
-1
 48
1.0
  6
BYLAYER
100
AcDbBlockReference
  2
tab-hole
 10
1889.0
 20
444.2500000000026148
 30
0.0
  0
INSERT
  5
373
100
AcDbEntity
  8
0
 62
256
370
-1
 48
1.0
  6
BYLAYER
100
AcDbBlockReference
  2
tab-hole
 10
1889.0
 20
424.2500000000003979
 30
0.0
  0
INSERT
  5
374
100
AcDbEntity
  8
0
 62
256
370
-1
 48
1.0
  6
BYLAYER
100
AcDbBlockReference
  2
tab-hole
 10
1889.0
 20
404.2500000000006821
 30
0.0
  0
INSERT
  5
375
100
AcDbEntity
  8
0
 62
256
370
-1
 48
1.0
  6
BYLAYER
100
AcDbBlockReference
  2
tab-hole
 10
1889.0
 20
384.2499999999910756
 30
0.0
  0
INSERT
  5
376
100
AcDbEntity
  8
0
 62
256
370
-1
 48
1.0
  6
BYLAYER
100
AcDbBlockReference
  2
tab-hole
 10
1889.0
 20
364.2500000000086402
 30
0.0
  0
INSERT
  5
377
100
AcDbEntity
  8
0
 62
256
370
-1
 48
1.0
  6
BYLAYER
100
AcDbBlockReference
  2
tab-hole
 10
1889.0
 20
344.2499999999989768
 30
0.0
  0
INSERT
  5
378
100
AcDbEntity
  8
0
 62
256
370
-1
 48
1.0
  6
BYLAYER
100
AcDbBlockReference
  2
tab-hole
 10
1889.0
 20
324.2499999999998863
 30
0.0
  0
INSERT
  5
379
100
AcDbEntity
  8
0
 62
256
370
-1
 48
1.0
  6
BYLAYER
100
AcDbBlockReference
  2
tab-hole
 10
1889.0
 20
304.249999999997101
 30
0.0
  0
INSERT
  5
37A
100
AcDbEntity
  8
0
 62
256
370
-1
 48
1.0
  6
BYLAYER
100
AcDbBlockReference
  2
tab-hole
 10
1889.0
 20
284.2499999999976126
 30
0.0
  0
INSERT
  5
37B
100
AcDbEntity
  8
0
 62
256
370
-1
 48
1.0
  6
BYLAYER
100
AcDbBlockReference
  2
tab-hole
 10
2089.0
 20
284.2499999999976126
 30
0.0
  0
INSERT
  5
37C
100
AcDbEntity
  8
0
 62
256
370
-1
 48
1.0
  6
BYLAYER
100
AcDbBlockReference
  2
tab-hole
 10
2089.0
 20
304.2499999999971578
 30
0.0
  0
INSERT
  5
37D
100
AcDbEntity
  8
0
 62
256
370
-1
 48
1.0
  6
BYLAYER
100
AcDbBlockReference
  2
tab-hole
 10
2089.0
 20
324.2499999999998863
 30
0.0
  0
INSERT
  5
37E
100
AcDbEntity
  8
0
 62
256
370
-1
 48
1.0
  6
BYLAYER
100
AcDbBlockReference
  2
tab-hole
 10
2089.0
 20
344.2499999999990337
 30
0.0
  0
INSERT
  5
37F
100
AcDbEntity
  8
0
 62
256
370
-1
 48
1.0
  6
BYLAYER
100
AcDbBlockReference
  2
tab-hole
 10
2089.0
 20
364.250000000008697
 30
0.0
  0
INSERT
  5
380
100
AcDbEntity
  8
0
 62
256
370
-1
 48
1.0
  6
BYLAYER
100
AcDbBlockReference
  2
tab-hole
 10
2089.0
 20
384.2499999999910187
 30
0.0
  0
INSERT
  5
381
100
AcDbEntity
  8
0
 62
256
370
-1
 48
1.0
  6
BYLAYER
100
AcDbBlockReference
  2
tab-hole
 10
2089.0
 20
404.2500000000006821
 30
0.0
  0
INSERT
  5
382
100
AcDbEntity
  8
0
 62
256
370
-1
 48
1.0
  6
BYLAYER
100
AcDbBlockReference
  2
tab-hole
 10
2089.0
 20
424.2500000000003411
 30
0.0
  0
INSERT
  5
383
100
AcDbEntity
  8
0
 62
256
370
-1
 48
1.0
  6
BYLAYER
100
AcDbBlockReference
  2
tab-hole
 10
2089.0
 20
444.2500000000026148
 30
0.0
  0
INSERT
  5
384
100
AcDbEntity
  8
0
 62
256
370
-1
 48
1.0
  6
BYLAYER
100
AcDbBlockReference
  2
tab-hole
 10
2089.0
 20
464.2500000000023874
 30
0.0
  0
INSERT
  5
385
100
AcDbEntity
  8
0
 62
256
370
-1
 48
1.0
  6
BYLAYER
100
AcDbBlockReference
  2
tab
 10
1743.5
 20
222.75
 30
0.0
 50
90.0000000000000142
  0
INSERT
  5
386
100
AcDbEntity
  8
0
 62
256
370
-1
 48
1.0
  6
BYLAYER
100
AcDbBlockReference
  2
tab
 10
1673.5
 20
464.2500000000023874
 30
0.0
  0
INSERT
  5
387
100
AcDbEntity
  8
0
 62
256
370
-1
 48
1.0
  6
BYLAYER
100
AcDbBlockReference
  2
tab
 10
1673.5
 20
444.2500000000026148
 30
0.0
  0
INSERT
  5
388
100
AcDbEntity
  8
0
 62
256
370
-1
 48
1.0
  6
BYLAYER
100
AcDbBlockReference
  2
tab
 10
1673.5
 20
424.2500000000004547
 30
0.0
  0
INSERT
  5
389
100
AcDbEntity
  8
0
 62
256
370
-1
 48
1.0
  6
BYLAYER
100
AcDbBlockReference
  2
tab
 10
1673.5
 20
404.250000000000739
 30
0.0
  0
INSERT
  5
38A
100
AcDbEntity
  8
0
 62
256
370
-1
 48
1.0
  6
BYLAYER
100
AcDbBlockReference
  2
tab
 10
1673.5
 20
384.2499999999910756
 30
0.0
  0
INSERT
  5
38B
100
AcDbEntity
  8
0
 62
256
370
-1
 48
1.0
  6
BYLAYER
100
AcDbBlockReference
  2
tab
 10
1673.5
 20
364.2500000000085834
 30
0.0
  0
INSERT
  5
38C
100
AcDbEntity
  8
0
 62
256
370
-1
 48
1.0
  6
BYLAYER
100
AcDbBlockReference
  2
tab
 10
1673.5
 20
344.24999999999892
 30
0.0
  0
INSERT
  5
38D
100
AcDbEntity
  8
0
 62
256
370
-1
 48
1.0
  6
BYLAYER
100
AcDbBlockReference
  2
tab
 10
1673.5
 20
324.2499999999998863
 30
0.0
  0
INSERT
  5
38E
100
AcDbEntity
  8
0
 62
256
370
-1
 48
1.0
  6
BYLAYER
100
AcDbBlockReference
  2
tab
 10
1673.5
 20
304.2499999999970441
 30
0.0
  0
INSERT
  5
38F
100
AcDbEntity
  8
0
 62
256
370
-1
 48
1.0
  6
BYLAYER
100
AcDbBlockReference
  2
tab
 10
1673.5
 20
284.2499999999976126
 30
0.0
  0
LINE
  5
390
100
AcDbEntity
  8
tab-sketch
 62
256
370
-1
 48
1.0
  6
BYLAYER
100
AcDbLine
 10
3223.5
 20
244.2499999999976978
 30
0.0
 11
223.5
 21
244.2499999999974989
 31
0.0
  0
INSERT
  5
391
100
AcDbEntity
  8
0
 62
256
370
-1
 48
1.0
  6
BYLAYER
100
AcDbBlockReference
  2
tab
 10
1673.5
 20
244.2499999999976126
 30
0.0
  0
INSERT
  5
392
100
AcDbEntity
  8
0
 62
256
370
-1
 48
1.0
  6
BYLAYER
100
AcDbBlockReference
  2
tab
 10
1773.5
 20
244.2499999999976126
 30
0.0
 50
180.0
  0
INSERT
  5
393
100
AcDbEntity
  8
0
 62
256
370
-1
 48
1.0
  6
BYLAYER
100
AcDbBlockReference
  2
tab
 10
1773.5
 20
284.2499999999976126
 30
0.0
 50
180.0
  0
INSERT
  5
394
100
AcDbEntity
  8
0
 62
256
370
-1
 48
1.0
  6
BYLAYER
100
AcDbBlockReference
  2
tab
 10
1773.5
 20
304.2499999999970441
 30
0.0
 50
180.0
  0
INSERT
  5
395
100
AcDbEntity
  8
0
 62
256
370
-1
 48
1.0
  6
BYLAYER
100
AcDbBlockReference
  2
tab
 10
1773.5
 20
324.2499999999998863
 30
0.0
 50
180.0
  0
INSERT
  5
396
100
AcDbEntity
  8
0
 62
256
370
-1
 48
1.0
  6
BYLAYER
100
AcDbBlockReference
  2
tab
 10
1773.5
 20
344.2499999999989768
 30
0.0
 50
180.0
  0
INSERT
  5
397
100
AcDbEntity
  8
0
 62
256
370
-1
 48
1.0
  6
BYLAYER
100
AcDbBlockReference
  2
tab
 10
1773.5
 20
364.2500000000085834
 30
0.0
 50
180.0
  0
INSERT
  5
398
100
AcDbEntity
  8
0
 62
256
370
-1
 48
1.0
  6
BYLAYER
100
AcDbBlockReference
  2
tab
 10
1773.5
 20
384.2499999999910756
 30
0.0
 50
180.0
  0
INSERT
  5
399
100
AcDbEntity
  8
0
 62
256
370
-1
 48
1.0
  6
BYLAYER
100
AcDbBlockReference
  2
tab
 10
1773.5
 20
404.250000000000739
 30
0.0
 50
180.0
  0
INSERT
  5
39A
100
AcDbEntity
  8
0
 62
256
370
-1
 48
1.0
  6
BYLAYER
100
AcDbBlockReference
  2
tab
 10
1773.5
 20
424.2500000000004547
 30
0.0
 50
180.0
  0
INSERT
  5
39B
100
AcDbEntity
  8
0
 62
256
370
-1
 48
1.0
  6
BYLAYER
100
AcDbBlockReference
  2
tab
 10
1773.5
 20
444.2500000000026148
 30
0.0
 50
180.0
  0
INSERT
  5
39C
100
AcDbEntity
  8
0
 62
256
370
-1
 48
1.0
  6
BYLAYER
100
AcDbBlockReference
  2
tab
 10
1773.5
 20
464.2500000000023874
 30
0.0
 50
180.0
  0
LINE
  5
39D
100
AcDbEntity
  8
0
 62
256
370
-1
 48
1.0
  6
BYLAYER
100
AcDbLine
 10
1673.5000000000004547
 20
482.75
 30
0.0
 11
1673.5
 21
469.3500000000024102
 31
0.0
  0
LINE
  5
39E
100
AcDbEntity
  8
0
 62
256
370
-1
 48
1.0
  6
BYLAYER
100
AcDbLine
 10
1673.5
 20
459.1500000000024215
 30
0.0
 11
1673.5
 21
449.3500000000026375
 31
0.0
  0
LINE
  5
39F
100
AcDbEntity
  8
0
 62
256
370
-1
 48
1.0
  6
BYLAYER
100
AcDbLine
 10
1673.5
 20
439.1500000000025921
 30
0.0
 11
1673.5
 21
429.3500000000004206
 31
0.0
  0
LINE
  5
3A0
100
AcDbEntity
  8
0
 62
256
370
-1
 48
1.0
  6
BYLAYER
100
AcDbLine
 10
1673.4999999999995453
 20
419.150000000000432
 30
0.0
 11
1673.5
 21
409.3500000000007049
 31
0.0
  0
LINE
  5
3A1
100
AcDbEntity
  8
0
 62
256
370
-1
 48
1.0
  6
BYLAYER
100
AcDbLine
 10
1673.5
 20
399.1500000000007162
 30
0.0
 11
1673.5
 21
389.3499999999910415
 31
0.0
  0
LINE
  5
3A2
100
AcDbEntity
  8
0
 62
256
370
-1
 48
1.0
  6
BYLAYER
100
AcDbLine
 10
1673.5
 20
379.1499999999911097
 30
0.0
 11
1673.5
 21
369.3500000000085493
 31
0.0
  0
LINE
  5
3A3
100
AcDbEntity
  8
0
 62
256
370
-1
 48
1.0
  6
BYLAYER
100
AcDbLine
 10
1673.5
 20
359.1500000000085606
 30
0.0
 11
1673.5
 21
349.3499999999989427
 31
0.0
  0
LINE
  5
3A4
100
AcDbEntity
  8
0
 62
256
370
-1
 48
1.0
  6
BYLAYER
100
AcDbLine
 10
1673.5
 20
339.1499999999989541
 30
0.0
 11
1673.5
 21
329.3499999999998522
 31
0.0
  0
LINE
  5
3A5
100
AcDbEntity
  8
0
 62
256
370
-1
 48
1.0
  6
BYLAYER
100
AcDbLine
 10
1673.5
 20
319.1499999999998636
 30
0.0
 11
1673.5
 21
309.34999999999701
 31
0.0
  0
LINE
  5
3A6
100
AcDbEntity
  8
0
 62
256
370
-1
 48
1.0
  6
BYLAYER
100
AcDbLine
 10
1673.5
 20
299.1499999999970214
 30
0.0
 11
1673.5
 21
289.3499999999975785
 31
0.0
  0
LINE
  5
3A7
100
AcDbEntity
  8
0
 62
256
370
-1
 48
1.0
  6
BYLAYER
100
AcDbLine
 10
1673.5
 20
279.1499999999975898
 30
0.0
 11
1673.5
 21
249.3499999999976069
 31
0.0
  0
LINE
  5
3A8
100
AcDbEntity
  8
0
 62
256
370
-1
 48
1.0
  6
BYLAYER
100
AcDbLine
 10
1673.5
 20
239.1499999999975898
 30
0.0
 11
1673.5000000000004547
 21
222.75
 31
0.0
  0
LINE
  5
3A9
100
AcDbEntity
  8
0
 62
256
370
-1
 48
1.0
  6
BYLAYER
100
AcDbLine
 10
1773.4999999999995453
 20
239.1499999999976183
 30
0.0
 11
1773.5
 21
222.75
 31
0.0
  0
LINE
  5
3AA
100
AcDbEntity
  8
0
 62
256
370
-1
 48
1.0
  6
BYLAYER
100
AcDbLine
 10
1773.4999999999995453
 20
249.3499999999976353
 30
0.0
 11
1773.4999999999995453
 21
279.1499999999975898
 31
0.0
  0
LINE
  5
3AB
100
AcDbEntity
  8
0
 62
256
370
-1
 48
1.0
  6
BYLAYER
100
AcDbLine
 10
1773.4999999999995453
 20
289.3499999999976353
 30
0.0
 11
1773.5
 21
299.1499999999970782
 31
0.0
  0
LINE
  5
3AC
100
AcDbEntity
  8
0
 62
256
370
-1
 48
1.0
  6
BYLAYER
100
AcDbLine
 10
1773.5
 20
309.3499999999970669
 30
0.0
 11
1773.4999999999995453
 21
319.1499999999998636
 31
0.0
  0
LINE
  5
3AD
100
AcDbEntity
  8
0
 62
256
370
-1
 48
1.0
  6
BYLAYER
100
AcDbLine
 10
1773.4999999999995453
 20
329.3499999999999091
 30
0.0
 11
1773.5
 21
339.1499999999989541
 31
0.0
  0
LINE
  5
3AE
100
AcDbEntity
  8
0
 62
256
370
-1
 48
1.0
  6
BYLAYER
100
AcDbLine
 10
1773.5
 20
349.3499999999989996
 30
0.0
 11
1773.5
 21
359.1500000000086175
 31
0.0
  0
LINE
  5
3AF
100
AcDbEntity
  8
0
 62
256
370
-1
 48
1.0
  6
BYLAYER
100
AcDbLine
 10
1773.5
 20
369.3500000000086061
 30
0.0
 11
1773.4999999999995453
 21
379.1499999999911097
 31
0.0
  0
LINE
  5
3B0
100
AcDbEntity
  8
0
 62
256
370
-1
 48
1.0
  6
BYLAYER
100
AcDbLine
 10
1773.5
 20
389.3499999999910415
 30
0.0
 11
1773.4999999999995453
 21
399.1500000000007162
 31
0.0
  0
LINE
  5
3B1
100
AcDbEntity
  8
0
 62
256
370
-1
 48
1.0
  6
BYLAYER
100
AcDbLine
 10
1773.4999999999995453
 20
409.3500000000007049
 30
0.0
 11
1773.5
 21
419.150000000000432
 31
0.0
  0
LINE
  5
3B2
100
AcDbEntity
  8
0
 62
256
370
-1
 48
1.0
  6
BYLAYER
100
AcDbLine
 10
1773.5
 20
429.3500000000004775
 30
0.0
 11
1773.5
 21
439.1500000000025921
 31
0.0
  0
LINE
  5
3B3
100
AcDbEntity
  8
0
 62
256
370
-1
 48
1.0
  6
BYLAYER
100
AcDbLine
 10
1773.4999999999995453
 20
449.3500000000026375
 30
0.0
 11
1773.5
 21
459.1500000000024215
 31
0.0
  0
LINE
  5
3B4
100
AcDbEntity
  8
0
 62
256
370
-1
 48
1.0
  6
BYLAYER
100
AcDbLine
 10
1773.4999999999995453
 20
469.3500000000024102
 30
0.0
 11
1773.5
 21
482.75
 31
0.0
  0
INSERT
  5
3B5
100
AcDbEntity
  8
0
 62
256
370
-1
 48
1.0
  6
BYLAYER
100
AcDbBlockReference
  2
tab-hole-middle
 10
1683.4999999999995453
 20
264.25
 30
0.0
 50
90.0
  0
INSERT
  5
3B6
100
AcDbEntity
  8
0
 62
256
370
-1
 48
1.0
  6
BYLAYER
100
AcDbBlockReference
  2
tab-hole-middle
 10
1703.5
 20
264.25
 30
0.0
 50
90.0
  0
INSERT
  5
3B7
100
AcDbEntity
  8
0
 62
256
370
-1
 48
1.0
  6
BYLAYER
100
AcDbBlockReference
  2
tab-hole-middle
 10
1723.5
 20
264.25
 30
0.0
 50
90.0
  0
INSERT
  5
3B8
100
AcDbEntity
  8
0
 62
256
370
-1
 48
1.0
  6
BYLAYER
100
AcDbBlockReference
  2
tab-hole-middle
 10
1743.5000000000004547
 20
264.25
 30
0.0
 50
90.0
  0
INSERT
  5
3B9
100
AcDbEntity
  8
0
 62
256
370
-1
 48
1.0
  6
BYLAYER
100
AcDbBlockReference
  2
tab-hole-middle
 10
1763.4999999999995453
 20
264.25
 30
0.0
 50
90.0
  0
INSERT
  5
3BA
100
AcDbEntity
  8
0
 62
256
370
-1
 48
1.0
  6
BYLAYER
100
AcDbBlockReference
  2
tab-hole-middle
 10
1887.5
 20
244.25
 30
0.0
  0
INSERT
  5
3BB
100
AcDbEntity
  8
0
 62
256
370
-1
 48
1.0
  6
BYLAYER
100
AcDbBlockReference
  2
tab-hole-middle
 10
2087.5
 20
244.25
 30
0.0
  0
LINE
  5
3BC
100
AcDbEntity
  8
sketch
 62
256
370
-1
 48
1.0
  6
BYLAYER
100
AcDbLine
 10
1517.0
 20
1077.75
 30
0.0
 11
1917.0
 21
1077.75
 31
0.0
  0
INSERT
  5
3BD
100
AcDbEntity
  8
0
 62
256
370
-1
 48
1.0
  6
BYLAYER
100
AcDbBlockReference
  2
tab
 10
1683.4999999999990905
 20
1077.75
 30
0.0
 50
90.0
  0
INSERT
  5
3BE
100
AcDbEntity
  8
0
 62
256
370
-1
 48
1.0
  6
BYLAYER
100
AcDbBlockReference
  2
tab
 10
1703.5
 20
1077.75
 30
0.0
 50
90.0
  0
INSERT
  5
3BF
100
AcDbEntity
  8
0
 62
256
370
-1
 48
1.0
  6
BYLAYER
100
AcDbBlockReference
  2
tab
 10
1723.5
 20
1077.75
 30
0.0
 50
90.0
  0
INSERT
  5
3C0
100
AcDbEntity
  8
0
 62
256
370
-1
 48
1.0
  6
BYLAYER
100
AcDbBlockReference
  2
tab
 10
1743.5000000000009095
 20
1077.75
 30
0.0
 50
90.0
  0
INSERT
  5
3C1
100
AcDbEntity
  8
0
 62
256
370
-1
 48
1.0
  6
BYLAYER
100
AcDbBlockReference
  2
tab
 10
1763.5000000000009095
 20
1077.75
 30
0.0
 50
90.0
  0
LINE
  5
3C2
100
AcDbEntity
  8
0
 62
256
370
-1
 48
1.0
  6
BYLAYER
100
AcDbLine
 10
1673.5
 20
1096.6500000000000909
 30
0.0
 11
1673.5
 21
1077.75
 31
0.0
  0
LINE
  5
3C3
100
AcDbEntity
  8
0
 62
256
370
-1
 48
1.0
  6
BYLAYER
100
AcDbLine
 10
1673.5
 20
1077.75
 30
0.0
 11
1678.3999999999996362
 21
1077.75
 31
0.0
  0
LINE
  5
3C4
100
AcDbEntity
  8
0
 62
256
370
-1
 48
1.0
  6
BYLAYER
100
AcDbLine
 10
1688.5999999999989996
 20
1077.75
 30
0.0
 11
1698.4000000000000909
 21
1077.75
 31
0.0
  0
LINE
  5
3C5
100
AcDbEntity
  8
0
 62
256
370
-1
 48
1.0
  6
BYLAYER
100
AcDbLine
 10
1708.5999999999999091
 20
1077.75
 30
0.0
 11
1718.4000000000000909
 21
1077.75
 31
0.0
  0
LINE
  5
3C6
100
AcDbEntity
  8
0
 62
256
370
-1
 48
1.0
  6
BYLAYER
100
AcDbLine
 10
1728.5999999999999091
 20
1077.75
 30
0.0
 11
1738.4000000000010004
 21
1077.75
 31
0.0
  0
LINE
  5
3C7
100
AcDbEntity
  8
0
 62
256
370
-1
 48
1.0
  6
BYLAYER
100
AcDbLine
 10
1748.6000000000008185
 20
1077.75
 30
0.0
 11
1758.4000000000010004
 21
1077.75
 31
0.0
  0
LINE
  5
3C8
100
AcDbEntity
  8
0
 62
256
370
-1
 48
1.0
  6
BYLAYER
100
AcDbLine
 10
1768.6000000000012733
 20
1077.75
 30
0.0
 11
1773.5
 21
1077.75
 31
0.0
  0
LINE
  5
3C9
100
AcDbEntity
  8
0
 62
256
370
-1
 48
1.0
  6
BYLAYER
100
AcDbLine
 10
1773.5
 20
1077.75
 30
0.0
 11
1773.5
 21
1096.6500000000000909
 31
0.0
  0
LINE
  5
3CA
100
AcDbEntity
  8
sketch
 62
256
370
-1
 48
1.0
  6
BYLAYER
100
AcDbLine
 10
1517.0
 20
877.75
 30
0.0
 11
1917.0
 21
877.75
 31
0.0
  0
LINE
  5
3CB
100
AcDbEntity
  8
sketch
 62
256
370
-1
 48
1.0
  6
BYLAYER
100
AcDbLine
 10
1517.0
 20
677.75
 30
0.0
 11
1917.0
 21
677.75
 31
0.0
  0
LINE
  5
3CC
100
AcDbEntity
  8
sketch
 62
256
370
-1
 48
1.0
  6
BYLAYER
100
AcDbLine
 10
1517.0
 20
876.25
 30
0.0
 11
1917.0
 21
876.25
 31
0.0
  0
LINE
  5
3CD
100
AcDbEntity
  8
sketch
 62
256
370
-1
 48
1.0
  6
BYLAYER
100
AcDbLine
 10
1517.0
 20
874.75
 30
0.0
 11
1917.0
 21
874.75
 31
0.0
  0
LINE
  5
3CE
100
AcDbEntity
  8
sketch
 62
256
370
-1
 48
1.0
  6
BYLAYER
100
AcDbLine
 10
1517.0
 20
676.25
 30
0.0
 11
1917.0
 21
676.25
 31
0.0
  0
LINE
  5
3CF
100
AcDbEntity
  8
sketch
 62
256
370
-1
 48
1.0
  6
BYLAYER
100
AcDbLine
 10
1517.0
 20
674.75
 30
0.0
 11
1917.0
 21
674.75
 31
0.0
  0
INSERT
  5
3D0
100
AcDbEntity
  8
0
 62
256
370
-1
 48
1.0
  6
BYLAYER
100
AcDbBlockReference
  2
tab-hole-middle
 10
1683.4999999999990905
 20
876.25
 30
0.0
 50
90.0
  0
INSERT
  5
3D1
100
AcDbEntity
  8
0
 62
256
370
-1
 48
1.0
  6
BYLAYER
100
AcDbBlockReference
  2
tab-hole-middle
 10
1703.5
 20
876.25
 30
0.0
 50
90.0
  0
INSERT
  5
3D2
100
AcDbEntity
  8
0
 62
256
370
-1
 48
1.0
  6
BYLAYER
100
AcDbBlockReference
  2
tab-hole-middle
 10
1723.5
 20
876.25
 30
0.0
 50
90.0
  0
INSERT
  5
3D3
100
AcDbEntity
  8
0
 62
256
370
-1
 48
1.0
  6
BYLAYER
100
AcDbBlockReference
  2
tab-hole-middle
 10
1743.5000000000009095
 20
876.25
 30
0.0
 50
90.0
  0
INSERT
  5
3D4
100
AcDbEntity
  8
0
 62
256
370
-1
 48
1.0
  6
BYLAYER
100
AcDbBlockReference
  2
tab-hole-middle
 10
1763.5000000000009095
 20
876.25
 30
0.0
 50
90.0
  0
INSERT
  5
3D5
100
AcDbEntity
  8
0
 62
256
370
-1
 48
1.0
  6
BYLAYER
100
AcDbBlockReference
  2
tab-hole-middle
 10
1683.4999999999990905
 20
676.25
 30
0.0
 50
90.0
  0
INSERT
  5
3D6
100
AcDbEntity
  8
0
 62
256
370
-1
 48
1.0
  6
BYLAYER
100
AcDbBlockReference
  2
tab-hole-middle
 10
1703.5
 20
676.25
 30
0.0
 50
90.0
  0
INSERT
  5
3D7
100
AcDbEntity
  8
0
 62
256
370
-1
 48
1.0
  6
BYLAYER
100
AcDbBlockReference
  2
tab-hole-middle
 10
1723.5
 20
676.25
 30
0.0
 50
90.0
  0
INSERT
  5
3D8
100
AcDbEntity
  8
0
 62
256
370
-1
 48
1.0
  6
BYLAYER
100
AcDbBlockReference
  2
tab-hole-middle
 10
1743.5000000000009095
 20
676.25
 30
0.0
 50
90.0
  0
INSERT
  5
3D9
100
AcDbEntity
  8
0
 62
256
370
-1
 48
1.0
  6
BYLAYER
100
AcDbBlockReference
  2
tab-hole-middle
 10
1763.5000000000009095
 20
676.25
 30
0.0
 50
90.0
  0
INSERT
  5
3DA
100
AcDbEntity
  8
0
 62
256
370
-1
 48
1.0
  6
BYLAYER
100
AcDbBlockReference
  2
tab
 10
-729.0
 20
377.0
 30
0.0
 41
1.0
 42
-1.0
 43
1.0
 50
270.0
  0
INSERT
  5
3DB
100
AcDbEntity
  8
0
 62
256
370
-1
 48
1.0
  6
BYLAYER
100
AcDbBlockReference
  2
tab-hole
 10
-713.0
 20
210.0
 30
0.0
  0
INSERT
  5
3DC
100
AcDbEntity
  8
0
 62
256
370
-1
 48
1.0
  6
BYLAYER
100
AcDbBlockReference
  2
tab
 10
-709.0
 20
377.0
 30
0.0
 41
1.0
 42
-1.0
 43
1.0
 50
270.0
  0
INSERT
  5
3DD
100
AcDbEntity
  8
0
 62
256
370
-1
 48
1.0
  6
BYLAYER
100
AcDbBlockReference
  2
tab-hole
 10
-713.0
 20
190.0
 30
0.0
  0
INSERT
  5
3DE
100
AcDbEntity
  8
0
 62
256
370
-1
 48
1.0
  6
BYLAYER
100
AcDbBlockReference
  2
tab
 10
1893.0
 20
482.7499999999999432
 30
0.0
 41
1.0
 42
-1.0
 43
1.0
 50
270.0
  0
INSERT
  5
3DF
100
AcDbEntity
  8
0
 62
256
370
-1
 48
1.0
  6
BYLAYER
100
AcDbBlockReference
  2
tab-hole-middle
 10
1672.0
 20
721.75
 30
0.0
  0
INSERT
  5
3E0
100
AcDbEntity
  8
0
 62
256
370
-1
 48
1.0
  6
BYLAYER
100
AcDbBlockReference
  2
tab-hole
 10
1889.0
 20
464.2500000000023874
 30
0.0
  0
ENDSEC
  0
SECTION
  2
OBJECTS
  0
DICTIONARY
  5
C
100
AcDbDictionary
280
0
281
1
  3
ACAD_GROUP
350
D
  3
ACAD_LAYOUT
350
1A
  3
ACAD_MLINESTYLE
350
17
  3
ACAD_PLOTSETTINGS
350
19
  3
ACAD_PLOTSTYLENAME
350
E
  3
AcDbVariableDictionary
350
3E1
  3
QCAD_OBJECTS
350
3E2
  0
DICTIONARY
  5
D
100
AcDbDictionary
280
0
281
1
  0
ACDBDICTIONARYWDFLT
  5
E
100
AcDbDictionary
281
1
  3
Normal
350
F
100
AcDbDictionaryWithDefault
340
F
  0
ACDBPLACEHOLDER
  5
F
  0
DICTIONARY
  5
17
100
AcDbDictionary
280
0
281
1
  3
Standard
350
18
  0
MLINESTYLE
  5
18
100
AcDbMlineStyle
  2
STANDARD
 70
0
  3

 62
256
 51
90.0
 52
90.0
 71
2
 49
0.5
 62
256
  6
BYLAYER
 49
-0.5
 62
256
  6
BYLAYER
  0
DICTIONARY
  5
19
100
AcDbDictionary
280
0
281
1
  0
DICTIONARY
  5
1A
100
AcDbDictionary
281
1
  3
Layout1
350
1E
  3
Layout2
350
26
  3
Model
350
22
  0
LAYOUT
  5
1E
100
AcDbPlotSettings
  1

  2
none_device
  4

  6

 40
0.0
 41
0.0
 42
0.0
 43
0.0
 44
0.0
 45
0.0
 46
0.0
 47
0.0
 48
0.0
 49
0.0
140
0.0
141
0.0
142
1.0
143
1.0
 70
688
 72
0
 73
0
 74
5
  7

 75
16
147
1.0
148
0.0
149
0.0
100
AcDbLayout
  1
Layout1
 70
1
 71
1
 10
0.0
 20
0.0
 11
420.0
 21
297.0
 12
0.0
 22
0.0
 32
0.0
 14
100000000000000000000.0
 24
100000000000000000000.0
 34
100000000000000000000.0
 15
-100000000000000000000.0
 25
-100000000000000000000.0
 35
-100000000000000000000.0
146
0.0
 13
0.0
 23
0.0
 33
0.0
 16
1.0
 26
0.0
 36
0.0
 17
0.0
 27
1.0
 37
0.0
 76
0
330
1B
  0
LAYOUT
  5
22
100
AcDbPlotSettings
  1

  2
none_device
  4

  6

 40
0.0
 41
0.0
 42
0.0
 43
0.0
 44
0.0
 45
0.0
 46
0.0
 47
0.0
 48
0.0
 49
0.0
140
0.0
141
0.0
142
1.0
143
1.0
 70
1712
 72
0
 73
0
 74
0
  7

 75
0
147
1.0
148
0.0
149
0.0
100
AcDbLayout
  1
Model
 70
1
 71
0
 10
0.0
 20
0.0
 11
12.0
 21
9.0
 12
0.0
 22
0.0
 32
0.0
 14
0.0
 24
0.0
 34
0.0
 15
0.0
 25
0.0
 35
0.0
146
0.0
 13
0.0
 23
0.0
 33
0.0
 16
1.0
 26
0.0
 36
0.0
 17
0.0
 27
1.0
 37
0.0
 76
0
330
1F
  0
LAYOUT
  5
26
100
AcDbPlotSettings
  1

  2
none_device
  4

  6

 40
0.0
 41
0.0
 42
0.0
 43
0.0
 44
0.0
 45
0.0
 46
0.0
 47
0.0
 48
0.0
 49
0.0
140
0.0
141
0.0
142
1.0
143
1.0
 70
688
 72
0
 73
0
 74
5
  7

 75
16
147
1.0
148
0.0
149
0.0
100
AcDbLayout
  1
Layout2
 70
1
 71
2
 10
0.0
 20
0.0
 11
12.0
 21
9.0
 12
0.0
 22
0.0
 32
0.0
 14
0.0
 24
0.0
 34
0.0
 15
0.0
 25
0.0
 35
0.0
146
0.0
 13
0.0
 23
0.0
 33
0.0
 16
1.0
 26
0.0
 36
0.0
 17
0.0
 27
1.0
 37
0.0
 76
0
330
23
  0
DICTIONARY
  5
3E1
100
AcDbDictionary
281
1
  3
DIMASSOC
350
3E4
  3
HIDETEXT
350
3E3
  0
DICTIONARYVAR
  5
3E3
100
DictionaryVariables
280
0
  1
2
  0
DICTIONARYVAR
  5
3E4
100
DictionaryVariables
280
0
  1
1
  0
DICTIONARY
  5
3E2
100
AcDbDictionary
281
1
  3
ColorSettings/BackgroundColor
350
3E5
  3
ColorSettings/ColorMode
350
3E6
  3
Grid/DisplayGrid00
350
3E7
  3
Grid/DisplayGrid01
350
3E8
  3
Grid/DisplayGrid02
350
3E9
  3
Grid/DisplayGrid03
350
3EA
  3
Grid/GridSpacingX00
350
3EB
  3
Grid/GridSpacingX01
350
3EC
  3
Grid/GridSpacingX02
350
3ED
  3
Grid/GridSpacingX03
350
3EE
  3
Grid/GridSpacingY00
350
3EF
  3
Grid/GridSpacingY01
350
3F0
  3
Grid/GridSpacingY02
350
3F1
  3
Grid/GridSpacingY03
350
3F2
  3
Grid/IsometricGrid00
350
3F3
  3
Grid/IsometricGrid01
350
3F4
  3
Grid/IsometricGrid02
350
3F5
  3
Grid/IsometricGrid03
350
3F6
  3
Grid/IsometricProjection00
350
3F7
  3
Grid/IsometricProjection01
350
3F8
  3
Grid/IsometricProjection02
350
3F9
  3
Grid/IsometricProjection03
350
3FA
  3
Grid/MetaGridSpacingX00
350
3FB
  3
Grid/MetaGridSpacingX01
350
3FC
  3
Grid/MetaGridSpacingX02
350
3FD
  3
Grid/MetaGridSpacingX03
350
3FE
  3
Grid/MetaGridSpacingY00
350
3FF
  3
Grid/MetaGridSpacingY01
350
400
  3
Grid/MetaGridSpacingY02
350
401
  3
Grid/MetaGridSpacingY03
350
402
  3
MultiPageSettings/Columns
350
403
  3
MultiPageSettings/GlueMarginsBottom
350
404
  3
MultiPageSettings/GlueMarginsLeft
350
405
  3
MultiPageSettings/GlueMarginsRight
350
406
  3
MultiPageSettings/GlueMarginsTop
350
407
  3
MultiPageSettings/PrintCropMarks
350
408
  3
MultiPageSettings/Rows
350
409
  3
PageSettings/OffsetX
350
40A
  3
PageSettings/OffsetY
350
40B
  3
PageSettings/PageOrientation
350
40C
  3
PageSettings/PaperHeight
350
40D
  3
PageSettings/PaperWidth
350
40E
  3
PageSettings/Scale
350
40F
  3
PageSettings/ShowPaperBorders
350
410
  3
PageTagSettings/EnablePageTags
350
411
  3
PageTagSettings/TagAlignment
350
412
  3
PageTagSettings/TagFont
350
413
  3
PageTagSettings/TagPosition
350
414
  3
QCADVersion
350
415
  3
UnitSettings/PaperUnit
350
416
  3
ViewportCenter
350
417
  3
ViewportHeight
350
418
  3
ViewportWidth
350
419
  0
XRECORD
  5
3E5
330
3E2
100
AcDbXrecord
280
1
1000
White
  0
XRECORD
  5
3E6
330
3E2
100
AcDbXrecord
280
1
1000
FullColor
  0
XRECORD
  5
3E7
330
3E2
100
AcDbXrecord
280
1
290
1
  0
XRECORD
  5
3E8
330
3E2
100
AcDbXrecord
280
1
290
1
  0
XRECORD
  5
3E9
330
3E2
100
AcDbXrecord
280
1
290
1
  0
XRECORD
  5
3EA
330
3E2
100
AcDbXrecord
280
1
290
1
  0
XRECORD
  5
3EB
330
3E2
100
AcDbXrecord
280
1
1000
auto
  0
XRECORD
  5
3EC
330
3E2
100
AcDbXrecord
280
1
1000
auto
  0
XRECORD
  5
3ED
330
3E2
100
AcDbXrecord
280
1
1000
auto
  0
XRECORD
  5
3EE
330
3E2
100
AcDbXrecord
280
1
1000
auto
  0
XRECORD
  5
3EF
330
3E2
100
AcDbXrecord
280
1
1000
auto
  0
XRECORD
  5
3F0
330
3E2
100
AcDbXrecord
280
1
1000
auto
  0
XRECORD
  5
3F1
330
3E2
100
AcDbXrecord
280
1
1000
auto
  0
XRECORD
  5
3F2
330
3E2
100
AcDbXrecord
280
1
1000
auto
  0
XRECORD
  5
3F3
330
3E2
100
AcDbXrecord
280
1
290
0
  0
XRECORD
  5
3F4
330
3E2
100
AcDbXrecord
280
1
290
0
  0
XRECORD
  5
3F5
330
3E2
100
AcDbXrecord
280
1
290
0
  0
XRECORD
  5
3F6
330
3E2
100
AcDbXrecord
280
1
290
0
  0
XRECORD
  5
3F7
330
3E2
100
AcDbXrecord
280
1
 90
65537
  0
XRECORD
  5
3F8
330
3E2
100
AcDbXrecord
280
1
 90
65537
  0
XRECORD
  5
3F9
330
3E2
100
AcDbXrecord
280
1
 90
65537
  0
XRECORD
  5
3FA
330
3E2
100
AcDbXrecord
280
1
 90
65537
  0
XRECORD
  5
3FB
330
3E2
100
AcDbXrecord
280
1
1000
auto
  0
XRECORD
  5
3FC
330
3E2
100
AcDbXrecord
280
1
1000
auto
  0
XRECORD
  5
3FD
330
3E2
100
AcDbXrecord
280
1
1000
auto
  0
XRECORD
  5
3FE
330
3E2
100
AcDbXrecord
280
1
1000
auto
  0
XRECORD
  5
3FF
330
3E2
100
AcDbXrecord
280
1
1000
auto
  0
XRECORD
  5
400
330
3E2
100
AcDbXrecord
280
1
1000
auto
  0
XRECORD
  5
401
330
3E2
100
AcDbXrecord
280
1
1000
auto
  0
XRECORD
  5
402
330
3E2
100
AcDbXrecord
280
1
1000
auto
  0
XRECORD
  5
403
330
3E2
100
AcDbXrecord
280
1
 90
1
  0
XRECORD
  5
404
330
3E2
100
AcDbXrecord
280
1
 40
10.0
  0
XRECORD
  5
405
330
3E2
100
AcDbXrecord
280
1
 40
10.0
  0
XRECORD
  5
406
330
3E2
100
AcDbXrecord
280
1
 40
10.0
  0
XRECORD
  5
407
330
3E2
100
AcDbXrecord
280
1
 40
10.0
  0
XRECORD
  5
408
330
3E2
100
AcDbXrecord
280
1
290
0
  0
XRECORD
  5
409
330
3E2
100
AcDbXrecord
280
1
 90
1
  0
XRECORD
  5
40A
330
3E2
100
AcDbXrecord
280
1
 40
0.0
  0
XRECORD
  5
40B
330
3E2
100
AcDbXrecord
280
1
 40
0.0
  0
XRECORD
  5
40C
330
3E2
100
AcDbXrecord
280
1
1000
Portrait
  0
XRECORD
  5
40D
330
3E2
100
AcDbXrecord
280
1
 40
297.0
  0
XRECORD
  5
40E
330
3E2
100
AcDbXrecord
280
1
 40
210.0
  0
XRECORD
  5
40F
330
3E2
100
AcDbXrecord
280
1
1000
1:1
  0
XRECORD
  5
410
330
3E2
100
AcDbXrecord
280
1
290
1
  0
XRECORD
  5
411
330
3E2
100
AcDbXrecord
280
1
290
0
  0
XRECORD
  5
412
330
3E2
100
AcDbXrecord
280
1
1000
Inside
  0
XRECORD
  5
413
330
3E2
100
AcDbXrecord
280
1
1000
Arial,10,-1,5,50,0,0,0,0,0
  0
XRECORD
  5
414
330
3E2
100
AcDbXrecord
280
1
1000
TopLeft
  0
XRECORD
  5
415
330
3E2
100
AcDbXrecord
280
1
1000
3.32.4
  0
XRECORD
  5
416
330
3E2
100
AcDbXrecord
280
1
 90
4
  0
XRECORD
  5
418
330
3E2
100
AcDbXrecord
280
1
 40
6905.138153034295101
  0
XRECORD
  5
419
330
3E2
100
AcDbXrecord
280
1
 40
12630.9334036939217185
  0
ENDSEC
  0
EOF
